<?xml version="1.0" encoding="utf-8"?>
<!-- Generator: Adobe Illustrator 25.4.1, SVG Export Plug-In . SVG Version: 6.00 Build 0)  -->
<svg version="1.1" id="Calque_1" xmlns="http://www.w3.org/2000/svg" xmlns:xlink="http://www.w3.org/1999/xlink" x="0px" y="0px"
	 viewBox="0 0 513 339" style="enable-background:new 0 0 513 339;" xml:space="preserve">
<style type="text/css">
	.st0{fill:none;stroke:#F5DF4D;stroke-width:2;stroke-miterlimit:10;}
	.st1{fill:none;stroke:#F5DF4D;stroke-width:2;stroke-miterlimit:10;stroke-dasharray:4.6323,4.6323;}
	.st2{fill:#F5DF4D;}
	.st3{fill:#FFFFFF;}
	.st4{fill:#F1AB86;}
	.st5{fill:none;stroke:#F1AB86;stroke-width:2;stroke-miterlimit:10;}
	.st6{fill:none;stroke:#F1AB86;stroke-width:2;stroke-miterlimit:10;stroke-dasharray:4.6323,4.6323;}
	.st7{fill:#8CD790;}
	.st8{fill:#8CD7B5;}
	.st9{fill:#CCDDF1;}
	.st10{fill:#EBF2F9;}
	.st11{fill:#2E65A3;}
	.st12{fill:#71A0D7;}
	.st13{fill:#AEC9E8;}
	.st14{fill:#6196D2;}
	.st15{fill:#9FBFE4;}
	.st16{fill:none;stroke:#80ABDB;stroke-width:2;stroke-miterlimit:10;}
	.st17{fill:none;stroke:#80ABDB;stroke-width:2;stroke-miterlimit:10;stroke-dasharray:4.6323,4.6323;}
	.st18{fill:#3D7FC9;}
	.st19{fill-rule:evenodd;clip-rule:evenodd;fill:#FFFFFF;}
</style>
<g>
	<g>
		<path class="st0" d="M134.5,121.9c-0.8-0.1-1.7-0.2-2.5-0.3"/>
		<path class="st1" d="M127.5,120.6c-13.1-3.7-26.1-14.5-31.2-28.8"/>
		<path class="st0" d="M95.6,89.6c-0.2-0.8-0.4-1.6-0.6-2.4"/>
	</g>
</g>
<circle class="st2" cx="85.4" cy="66.8" r="31.7"/>
<g>
	<g>
		<g>
			<path class="st3" d="M78.4,54.1c-6.4,3.7-8.7,12.3-5,18.7c3.4,5.8,15.2,9.5,20.3,10.6c1.3,0.1,2.7-0.3,2.7-1.6
				c1.5-4.5,4.7-16.5,0.9-22.9C93.3,52.4,84.8,50.4,78.4,54.1z M87.6,69.9c-2.7,1.6-6.1,0.7-7.7-2s-0.7-6.1,2-7.7s6.1-0.7,7.7,2
				C91.2,64.9,90,68.5,87.6,69.9z"/>
		</g>
	</g>
</g>
<circle class="st4" cx="379.5" cy="61.5" r="25.2"/>
<g>
	<g>
		<path class="st5" d="M351.2,63.8c1-0.3,2.1-0.5,3.2-0.8"/>
		<path class="st6" d="M308.1,108.7c4.6-19.9,20.2-36.2,37.1-43"/>
		<path class="st5" d="M307,115.1c0.2-1.1,0.3-2.2,0.5-3.3"/>
	</g>
</g>
<g>
	<path class="st3" d="M369.3,55.9l-1.5,13.9c-0.2,1.2,0.8,2.4,2.2,2.6l19.6,2.1c1.2,0.2,2.4-0.8,2.6-2.2l1.5-13.9L369.3,55.9z"/>
	<path class="st3" d="M369.1,51.5l-0.3,1.9l24.6,2.7l0.3-1.9c0.2-1.2-0.8-2.4-2.2-2.6l-2.2-0.2l0.1-0.3c0-0.4-0.4-1.3-1.2-1.4
		c-0.4,0-1.3,0.4-1.4,1.2l-0.1,0.3l-9.8-1l0.1-0.3c0-0.4-0.6-1.4-1.2-1.4c-0.4,0-1.3,0.4-1.4,1.2l-0.1,0.3l-1.9-0.3
		C370.9,49.5,369.7,50.5,369.1,51.5z"/>
	
		<rect x="377" y="59.1" transform="matrix(0.1068 -0.9943 0.9943 0.1068 277.8069 430.7285)" class="st4" width="3.3" height="3.3"/>
	
		<rect x="372.5" y="58.6" transform="matrix(0.1068 -0.9943 0.9943 0.1068 274.3654 425.8739)" class="st4" width="3.3" height="3.3"/>
	
		<rect x="385.4" y="64.2" transform="matrix(0.1068 -0.9943 0.9943 0.1068 280.268 443.7281)" class="st4" width="3.3" height="3.3"/>
	
		<rect x="380.8" y="63.6" transform="matrix(0.1068 -0.9943 0.9943 0.1068 276.7742 438.6469)" class="st4" width="3.3" height="3.3"/>
	
		<rect x="376.4" y="63.1" transform="matrix(0.1068 -0.9943 0.9943 0.1068 273.3327 433.7923)" class="st4" width="3.3" height="3.3"/>
	
		<rect x="372.1" y="62.6" transform="matrix(0.1068 -0.9943 0.9943 0.1068 269.996 429.0828)" class="st4" width="3.3" height="3.3"/>
	
		<rect x="384.9" y="68.4" transform="matrix(0.1068 -0.9943 0.9943 0.1068 275.6721 446.9894)" class="st4" width="3.3" height="3.3"/>
	
		<rect x="380.3" y="68" transform="matrix(0.1068 -0.9943 0.9943 0.1068 271.9196 442.0885)" class="st4" width="3.3" height="3.3"/>
	
		<rect x="375.9" y="67.5" transform="matrix(0.1068 -0.9943 0.9943 0.1068 268.478 437.2338)" class="st4" width="3.3" height="3.3"/>
</g>
<g>
	<path class="st7" d="M136.1,198.9c0,0-34.5-2.9-62.3,31.8C73.8,230.6,110.6,232.3,136.1,198.9z"/>
	<path class="st8" d="M130.3,200.2c0,0-22.2-26.5-66.5-21.6C63.9,178.5,88.6,205.7,130.3,200.2z"/>
	<path class="st7" d="M133.5,206.1c0,0,8.1-32.7-21-64.8C112.5,141.3,105.3,176.4,133.5,206.1z"/>
</g>
<ellipse class="st9" cx="265" cy="280" rx="189" ry="9.2"/>
<g id="BACKGROUND">
</g>
<g id="DESIGNED_BY_FREEPIK">
</g>
<g>
	<g>
		<g>
			<path class="st10" d="M409.5,281H128.9V108.9c0-6,5-10.8,11-10.8h258.7c6,0,11,4.9,11,10.8v161.3
				C409.5,274.5,409.5,281,409.5,281z"/>
		</g>
		<circle class="st11" cx="145.1" cy="111.9" r="2.4"/>
		<circle class="st12" cx="154" cy="111.9" r="2.4"/>
		<circle class="st13" cx="163" cy="111.9" r="2.4"/>
		<path class="st3" d="M323,191.9H145.8c-1.6,0-3-1.4-3-3v-62.8c0-1.6,1.4-3,3-3H323c1.6,0,3,1.4,3,3v62.8
			C326.1,190.7,324.7,191.9,323,191.9z"/>
		<g>
			<path class="st14" d="M193.1,147.8h-30.2c-1.3,0-2.2-0.9-2.2-2.2v-2c0-1.3,0.9-2.2,2.2-2.2h30.3c1.3,0,2.2,0.9,2.2,2.2v2
				C195.3,146.8,194.4,147.8,193.1,147.8z"/>
			<path class="st15" d="M193.1,174.8h-30.2c-1.3,0-2.2-0.9-2.2-2.2v-16.3c0-1.3,0.9-2.2,2.2-2.2h30.3c1.3,0,2.2,0.9,2.2,2.2v16.3
				C195.3,173.9,194.4,174.8,193.1,174.8z"/>
		</g>
		<g>
			<path class="st14" d="M248.7,147.8h-30.3c-1.3,0-2.2-0.9-2.2-2.2v-2c0-1.3,0.9-2.2,2.2-2.2h30.3c1.3,0,2.2,0.9,2.2,2.2v2
				C250.8,146.8,249.9,147.8,248.7,147.8z"/>
			<path class="st15" d="M248.7,174.8h-30.3c-1.3,0-2.2-0.9-2.2-2.2v-16.3c0-1.3,0.9-2.2,2.2-2.2h30.3c1.3,0,2.2,0.9,2.2,2.2v16.3
				C250.8,173.9,249.9,174.8,248.7,174.8z"/>
		</g>
		<g>
			<path class="st14" d="M304.3,147.8H274c-1.3,0-2.2-0.9-2.2-2.2v-2c0-1.3,0.9-2.2,2.2-2.2h30.3c1.3,0,2.2,0.9,2.2,2.2v2
				C306.4,146.8,305.3,147.8,304.3,147.8z"/>
			<path class="st15" d="M304.3,174.8H274c-1.3,0-2.2-0.9-2.2-2.2v-16.3c0-1.3,0.9-2.2,2.2-2.2h30.3c1.3,0,2.2,0.9,2.2,2.2v16.3
				C306.4,173.9,305.3,174.8,304.3,174.8z"/>
		</g>
		<path class="st3" d="M393.4,191.9h-52.7c-1.6,0-3-1.4-3-3v-62.2c0-1.6,1.4-3,3-3h52.7c1.6,0,3,1.4,3,3v62.2
			C396.5,190.7,395.1,191.9,393.4,191.9z"/>
		<g>
			<g>
				<path class="st3" d="M224.9,267.3h-79.5c-1.5,0-2.7-1.3-2.7-2.7v-59.2c0-1.5,1.3-2.7,2.7-2.7h79.5c1.5,0,2.7,1.3,2.7,2.7v59.3
					C227.5,266.2,226.3,267.3,224.9,267.3z"/>
			</g>
		</g>
		<g>
			<g>
				<path class="st3" d="M323.5,230.1H244c-1.5,0-2.7-1.3-2.7-2.7v-22c0-1.5,1.3-2.7,2.7-2.7h79.5c1.5,0,2.7,1.3,2.7,2.7v22
					C326.1,229,324.8,230.1,323.5,230.1z"/>
			</g>
			<path class="st15" d="M294.8,213.6h-43.2c-1,0-2.1-0.9-2.1-2.1v-0.6c0-1,0.9-2.1,2.1-2.1h43.2c1,0,2.1,0.9,2.1,2.1v0.6
				C296.8,212.7,296,213.6,294.8,213.6z"/>
			<path class="st15" d="M276.3,222.4h-24.5c-1,0-2.1-0.9-2.1-2.1v-0.6c0-1,0.9-2.1,2.1-2.1h24.5c1,0,2.1,0.9,2.1,2.1v0.6
				C278.2,221.5,277.4,222.4,276.3,222.4z"/>
			<path class="st15" d="M315.5,222.4h-10.7c-1,0-2.1-0.9-2.1-2.1v-9.4c0-1,0.9-2.1,2.1-2.1h10.5c1,0,2.1,0.9,2.1,2.1v9.4
				C317.5,221.5,316.6,222.4,315.5,222.4z"/>
		</g>
		<g>
			<g>
				<path class="st3" d="M323.5,266H244c-1.5,0-2.7-1.3-2.7-2.7v-22c0-1.5,1.3-2.7,2.7-2.7h79.5c1.5,0,2.7,1.3,2.7,2.7v22
					C326.1,265,324.8,266,323.5,266z"/>
			</g>
			<path class="st4" d="M294.8,249.5h-43.2c-1,0-2.1-0.9-2.1-2.1v-0.6c0-1,0.9-2.1,2.1-2.1h43.2c1,0,2.1,0.9,2.1,2.1v0.6
				C296.8,248.7,296,249.5,294.8,249.5z"/>
			<path class="st4" d="M276.3,258.4h-24.5c-1,0-2.1-0.9-2.1-2.1v-0.6c0-1,0.9-2.1,2.1-2.1h24.5c1,0,2.1,0.9,2.1,2.1v0.6
				C278.2,257.5,277.4,258.4,276.3,258.4z"/>
			<path class="st4" d="M315.5,258.4h-10.7c-1,0-2.1-0.9-2.1-2.1v-9.4c0-1,0.9-2.1,2.1-2.1h10.5c1,0,2.1,0.9,2.1,2.1v9.4
				C317.5,257.5,316.6,258.4,315.5,258.4z"/>
		</g>
		<g>
			<path class="st15" d="M376.9,137.6h-25c-0.9,0-1.7-0.8-1.7-1.7v-0.6c0-0.9,0.8-1.7,1.7-1.7h25c0.9,0,1.7,0.8,1.7,1.7v0.6
				C378.7,136.8,377.9,137.6,376.9,137.6z"/>
			<path class="st15" d="M376.8,160.7h-25c-0.9,0-1.7-0.8-1.7-1.7v-0.6c0-0.9,0.8-1.7,1.7-1.7h25c0.9,0,1.7,0.8,1.7,1.7v0.6
				C378.7,159.9,377.9,160.7,376.8,160.7z"/>
			<path class="st15" d="M376.8,182.6h-25c-0.9,0-1.7-0.8-1.7-1.7v-0.6c0-0.9,0.8-1.7,1.7-1.7h25c0.9,0,1.7,0.8,1.7,1.7v0.6
				C378.5,181.6,377.7,182.6,376.8,182.6z"/>
			<path class="st15" d="M376.8,171.6h-25c-0.9,0-1.7-0.8-1.7-1.7v-0.6c0-0.9,0.8-1.7,1.7-1.7h25c0.9,0,1.7,0.8,1.7,1.7v0.6
				C378.5,170.7,377.7,171.6,376.8,171.6z"/>
			<path class="st15" d="M376.8,149.9h-25c-0.9,0-1.7-0.8-1.7-1.7v-0.6c0-0.9,0.8-1.7,1.7-1.7h25c0.9,0,1.7,0.8,1.7,1.7v0.5
				C378.7,149.1,377.9,149.9,376.8,149.9z"/>
		</g>
		<path class="st3" d="M393.6,266h-52.7c-1.6,0-3-1.3-3-2.8v-57.4c0-1.5,1.4-2.8,3-2.8h52.7c1.6,0,3,1.3,3,2.8v57.4
			C396.6,264.9,395.2,266,393.6,266z"/>
		<circle class="st15" cx="369" cy="235.5" r="16.9"/>
		<path class="st3" d="M369,235.5v-16.9c10.4,0,14.7,8.5,14.7,8.5L369,235.5z"/>
		<path class="st14" d="M371.8,231V214c10.4,0,14.7,8.5,14.7,8.5L371.8,231z"/>
		<path class="st8" d="M384.2,137.6h-0.2c-1,0-2-0.8-2-2v-0.2c0-1,0.8-2,2-2h0.2c1,0,2,0.8,2,2v0.2
			C386.1,136.8,385.3,137.6,384.2,137.6z"/>
		<path class="st8" d="M384.2,149.9h-0.2c-1,0-2-0.8-2-2v-0.2c0-1,0.8-2,2-2h0.2c1,0,2,0.8,2,2v0.2
			C386.1,149.1,385.3,149.9,384.2,149.9z"/>
		<path class="st8" d="M384.2,160.7h-0.2c-1,0-2-0.8-2-2v-0.2c0-1,0.8-2,2-2h0.2c1,0,2,0.8,2,2v0.2
			C386.1,159.9,385.3,160.7,384.2,160.7z"/>
		<path class="st8" d="M384.2,171.6h-0.2c-1,0-2-0.8-2-2v-0.2c0-1,0.8-2,2-2h0.2c1,0,2,0.8,2,2v0.2
			C386.1,170.7,385.3,171.6,384.2,171.6z"/>
		<path class="st8" d="M384.2,182.6h-0.2c-1,0-2-0.8-2-2v-0.2c0-1,0.8-2,2-2h0.2c1,0,2,0.8,2,2v0.2
			C386.1,181.7,385.3,182.6,384.2,182.6z"/>
		<path class="st8" d="M206.3,211.7h-43.6c-1.2,0-2-0.9-2-2l0,0c0-1.2,0.9-2.1,2-2.1h43.6c1.2,0,2.1,0.9,2.1,2.1l0,0
			C208.4,210.8,207.5,211.7,206.3,211.7z"/>
		<rect x="141.4" y="217.1" class="st10" width="87.5" height="3"/>
		<path class="st3" d="M369,235.4l-12.3,12.4c-7.4-7.4-4.4-19.3-4.4-19.3L369,235.4z"/>
		<path class="st4" d="M363.9,236.6L352,248.6c-7.4-7.4-3.6-18.4-3.6-18.4L363.9,236.6z"/>
		<path class="st8" d="M197,237h-1.5H192h-8.6c-0.9,0-1.7-0.8-1.7-1.7v-1.1c0-0.9-0.8-1.7-1.7-1.7h-1.5h-1.1h-3.7h-1.5H172
			c-0.8,0-1.5,0.8-1.5,1.7v4.4v5.1v8.3c0,0.9,0.6,1.6,1.4,1.6h0.2h1.5H192h3.4h1.5c0.9,0,1.6-0.7,1.6-1.6v-13.4
			C198.6,237.8,197.8,237,197,237z"/>
	</g>
</g>
<g>
	<g>
		<path class="st16" d="M444.4,197.9c-0.2,0.8-0.4,1.6-0.6,2.4"/>
		<path class="st17" d="M442.2,204.7c-5.4,12.5-17.8,23.9-32.7,27.1"/>
		<path class="st16" d="M407.2,232.2c-0.8,0.1-1.6,0.2-2.5,0.3"/>
	</g>
</g>
<circle class="st18" cx="453.1" cy="172.2" r="25.7"/>
<g>
	<path class="st19" d="M443.3,181.8h19.6c0.8,0,1.5,0.7,1.5,1.4v0.8c0,0.8-0.7,1.4-1.5,1.4h-19.6c-0.8,0-1.4-0.6-1.4-1.4v-0.8
		C441.9,182.5,442.4,181.8,443.3,181.8L443.3,181.8z"/>
</g>
<path class="st19" d="M455.1,173.8h-3.9v-12.9c0-1.1,0.9-2,2-2l0,0c1.1,0,2,0.9,2,2V173.8z"/>
<path class="st19" d="M460.2,168.9c-0.8-0.8-2-0.8-2.8,0l-4.3,4.3l-4.4-4.4c-0.8-0.8-2-0.8-2.8,0c-0.8,0.8-0.8,2,0,2.8l4.4,4.4l0,0
	l2.8,2.8l7.1-7.1C461,170.9,461,169.7,460.2,168.9z"/>
</svg>
