<?xml version="1.0" encoding="utf-8"?>
<!-- Generator: Adobe Illustrator 25.4.1, SVG Export Plug-In . SVG Version: 6.00 Build 0)  -->
<svg version="1.1" id="Calque_1" xmlns="http://www.w3.org/2000/svg" xmlns:xlink="http://www.w3.org/1999/xlink" x="0px" y="0px"
	 viewBox="0 0 1070 768" style="enable-background:new 0 0 1070 768;" xml:space="preserve">
<style type="text/css">
	.st0{fill:#3D7FC9;}
	.st1{fill:#2A5C94;}
	.st2{fill:#71A0D7;}
	.st3{fill:#AEC9E8;}
	.st4{opacity:0.3;fill:#FFFFFF;enable-background:new    ;}
	.st5{opacity:0.11;fill:#FFFFFF;enable-background:new    ;}
	.st6{opacity:0.45;fill:#FFFFFF;enable-background:new    ;}
	.st7{opacity:0.15;fill:#FFFFFF;enable-background:new    ;}
	.st8{clip-path:url(#SVGID_00000181073691059568853410000005017285035171963306_);}
	.st9{fill:#8CD7B5;}
	.st10{fill:#FFFFFF;}
</style>
<polygon class="st0" points="186.9,488.7 185.9,524.5 83.7,476.8 "/>
<polygon class="st1" points="185.9,524.5 151.4,513.1 168.1,502.7 "/>
<polyline class="st2" points="186.9,488.7 212.4,477.2 83.8,476.8 "/>
<polygon class="st2" points="167.9,502.9 141.2,525.5 83.8,476.8 "/>
<path class="st2" d="M306.6,577.7v-1.1c0.7,0,1.3,0,1.9-0.1l0.1,1.1C307.9,577.7,307.3,577.7,306.6,577.7z M303.4,577.7
	c-0.7,0-1.3-0.1-1.9-0.1l0.1-1.1c0.7,0.1,1.2,0.1,1.9,0.1L303.4,577.7z M311.8,577.6l-0.1-1.1c0.7-0.1,1.2-0.1,1.9-0.1l0.1,1.1
	C313,577.5,312.4,577.5,311.8,577.6z M298.3,577.5c-0.7-0.1-1.3-0.1-1.9-0.2l0.1-1.1c0.7,0.1,1.2,0.1,1.9,0.1L298.3,577.5z
	 M316.9,577.2l-0.1-1.1c0.7-0.1,1.2-0.1,1.9-0.3l0.1,1.1C318.1,576.9,317.4,577.1,316.9,577.2z M293.2,576.9
	c-0.7-0.1-1.3-0.1-1.9-0.3l0.1-1.1c0.7,0.1,1.2,0.2,1.9,0.3L293.2,576.9z M321.9,576.4l-0.2-1c0.7-0.1,1.2-0.3,1.9-0.3l0.2,1
	C323.1,576.1,322.5,576.2,321.9,576.4z M288.2,576.2c-0.7-0.1-1.2-0.2-1.9-0.3l0.2-1c0.7,0.1,1.2,0.2,1.9,0.3L288.2,576.2z
	 M283.2,575.3c-0.7-0.1-1.2-0.3-1.9-0.4l0.2-1c0.7,0.1,1.2,0.3,1.9,0.4L283.2,575.3z M326.9,575.2l-0.3-1c0.7-0.1,1.2-0.3,1.8-0.5
	l0.3,1C328.1,574.9,327.5,575.1,326.9,575.2z M278.2,574.2c-0.7-0.1-1.2-0.3-1.9-0.5l0.3-1c0.7,0.1,1.2,0.3,1.8,0.5L278.2,574.2z
	 M331.8,573.8l-0.3-1c0.6-0.2,1.1-0.4,1.7-0.7l0.3,1C333,573.4,332.4,573.6,331.8,573.8z M273.2,572.8c-0.7-0.2-1.2-0.3-1.8-0.6
	l0.3-1c0.7,0.2,1.2,0.3,1.8,0.6L273.2,572.8z M336.5,571.9l-0.4-0.9c0.6-0.3,1.1-0.5,1.7-0.8l0.5,0.9
	C337.8,571.3,337.1,571.6,336.5,571.9z M268.3,571.3c-0.7-0.2-1.2-0.4-1.8-0.6l0.3-1c0.6,0.2,1.2,0.4,1.8,0.6L268.3,571.3z
	 M263.5,569.7c-0.6-0.2-1.2-0.4-1.8-0.7l0.3-1c0.6,0.2,1.2,0.4,1.8,0.7L263.5,569.7z M341.2,569.6l-0.5-0.9c0.6-0.3,1.1-0.7,1.7-0.9
	l0.6,0.9C342.3,569,341.7,569.3,341.2,569.6z M258.8,567.9c-0.6-0.2-1.1-0.5-1.8-0.7l0.4-1c0.6,0.2,1.1,0.5,1.7,0.7L258.8,567.9z
	 M345.6,567l-0.6-0.9c0.5-0.3,1.1-0.7,1.6-1.1l0.6,0.9C346.6,566.3,346,566.6,345.6,567z M254,566c-0.6-0.3-1.1-0.5-1.7-0.7l0.4-1
	c0.6,0.3,1.1,0.5,1.7,0.7L254,566z M349.7,564l-0.7-0.9c0.5-0.3,1-0.8,1.5-1.1l0.7,0.8C350.7,563.3,350.2,563.6,349.7,564z
	 M249.3,563.9c-0.6-0.3-1.1-0.5-1.7-0.8l0.4-0.9c0.6,0.3,1.1,0.5,1.7,0.8L249.3,563.9z M244.7,561.7c-0.6-0.3-1.1-0.6-1.7-0.9
	l0.5-0.9c0.6,0.3,1.1,0.6,1.7,0.9L244.7,561.7z M353.7,560.7L353,560c0.5-0.4,0.9-0.9,1.4-1.3l0.7,0.8
	C354.6,560,354.2,560.3,353.7,560.7z M240.1,559.6c-0.6-0.3-1.1-0.6-1.7-0.9l0.5-0.9c0.6,0.3,1.1,0.6,1.7,0.9L240.1,559.6z
	 M357.4,557.3l-0.8-0.7c0.4-0.4,0.9-0.9,1.3-1.4l0.8,0.7C358.3,556.3,357.9,556.8,357.4,557.3z M235.5,557.2
	c-0.6-0.3-1.1-0.7-1.7-0.9l0.5-0.9c0.6,0.3,1.1,0.7,1.7,0.9L235.5,557.2z M231.1,554.8c-0.6-0.3-1.1-0.7-1.7-0.9l0.5-0.9
	c0.6,0.3,1.1,0.7,1.7,0.9L231.1,554.8z M360.9,553.4l-0.8-0.7c0.4-0.5,0.9-0.9,1.2-1.4l0.8,0.7C361.8,552.5,361.3,553,360.9,553.4z
	 M226.7,552.2c-0.6-0.3-1.1-0.7-1.7-1l0.6-0.9c0.6,0.3,1.1,0.7,1.7,1L226.7,552.2z M222.3,549.5c-0.6-0.3-1.1-0.7-1.6-1l0.6-0.9
	c0.6,0.3,1.1,0.7,1.6,1L222.3,549.5z M364.2,549.5l-0.9-0.7c0.4-0.5,0.8-1,1.1-1.5l0.9,0.7C364.9,548.5,364.6,549,364.2,549.5z
	 M218,546.9c-0.6-0.3-1.1-0.7-1.6-1l0.6-0.9c0.5,0.3,1.1,0.7,1.6,1L218,546.9z M367.2,545.4l-0.9-0.7c0.3-0.5,0.7-1.1,1.1-1.6
	l0.9,0.6C368,544.3,367.6,544.8,367.2,545.4z M213.7,544.1c-0.6-0.3-1.1-0.7-1.6-1.1l0.6-0.9c0.5,0.3,1.1,0.7,1.6,1.1L213.7,544.1z
	 M209.5,541.2c-0.6-0.3-1.1-0.7-1.6-1.1l0.7-0.9c0.5,0.3,1,0.7,1.6,1.1L209.5,541.2z M370.1,541.1l-0.9-0.6c0.3-0.6,0.7-1.1,1-1.6
	l0.9,0.6C370.7,540,370.3,540.6,370.1,541.1z M399.4,539.6c-0.7-0.1-1.3-0.1-1.9-0.2l0.1-1.1c0.7,0.1,1.2,0.1,1.9,0.2L399.4,539.6z
	 M402.7,539.6l-0.1-1.1c0.7-0.1,1.2-0.1,1.8-0.3l0.2,1C404,539.4,403.3,539.5,402.7,539.6z M394.3,538.8c-0.7-0.1-1.2-0.3-1.9-0.5
	l0.3-1c0.7,0.2,1.2,0.3,1.8,0.5L394.3,538.8z M205.3,538.3c-0.5-0.3-1.1-0.8-1.5-1.1l0.7-0.9c0.5,0.3,1,0.7,1.5,1.1L205.3,538.3z
	 M407.8,538.2l-0.4-0.9c0.6-0.3,1.1-0.6,1.6-0.9l0.6,0.9C408.9,537.6,408.3,538,407.8,538.2z M389.4,537.3c-0.6-0.2-1.2-0.4-1.8-0.7
	l0.3-1c0.6,0.2,1.2,0.4,1.8,0.7L389.4,537.3z M372.6,536.7l-0.9-0.5c0.3-0.6,0.7-1.1,0.9-1.7l0.9,0.5
	C373.3,535.6,373,536.1,372.6,536.7z M384.6,535.4c-0.6-0.3-1.1-0.5-1.7-0.8l0.4-0.9c0.6,0.3,1.1,0.5,1.7,0.8L384.6,535.4z
	 M201.2,535.3c-0.5-0.4-1-0.8-1.5-1.1l0.7-0.9c0.5,0.3,1,0.7,1.5,1.1L201.2,535.3z M412,535.1l-0.8-0.7c0.4-0.4,0.8-0.9,1.1-1.4
	l0.9,0.7C412.9,534.2,412.4,534.6,412,535.1z M379.9,533.3c-0.6-0.3-1.1-0.6-1.7-0.9l0.5-0.9c0.6,0.3,1.1,0.6,1.7,0.9L379.9,533.3z
	 M197.1,532.2c-0.6-0.4-1.1-0.8-1.5-1.1l0.7-0.9c0.5,0.3,0.9,0.8,1.5,1.1L197.1,532.2z M375,532.1l-0.9-0.5c0.2-0.4,0.4-0.8,0.6-1.1
	c-0.3-0.2-0.6-0.3-0.9-0.5l0.5-0.9c0.6,0.3,1.1,0.7,1.7,0.9l-0.2,0.3l0.1,0.1C375.6,531,375.3,531.5,375,532.1z M415,530.9l-0.9-0.5
	c0.3-0.6,0.6-1.1,0.8-1.7l0.9,0.4C415.5,529.7,415.3,530.3,415,530.9z M193,529c-0.8-0.7-1.2-1-1.2-1l0.7-0.8c0,0,0.4,0.3,1.2,1
	L193,529z M371,528.4c-0.6-0.3-1.1-0.7-1.7-1l0.6-0.9c0.6,0.3,1.1,0.7,1.7,1L371,528.4z M377.2,527.5l-0.9-0.4
	c0.3-0.6,0.5-1.1,0.8-1.7l0.9,0.4C377.8,526.4,377.5,526.9,377.2,527.5z M417,526.1l-1-0.3c0.2-0.6,0.3-1.1,0.6-1.8l1,0.3
	C417.3,524.9,417.1,525.5,417,526.1z M366.7,525.7c-0.6-0.3-1.1-0.7-1.6-1l0.6-0.9c0.6,0.3,1.1,0.7,1.6,1L366.7,525.7z M362.3,522.9
	c-0.5-0.3-1.1-0.7-1.6-1.1l0.6-0.9c0.6,0.3,1.1,0.7,1.6,1L362.3,522.9z M379.2,522.8l-1-0.4c0.2-0.6,0.5-1.1,0.7-1.7l1,0.3
	C379.7,521.6,379.4,522.2,379.2,522.8z M418.3,521.1l-1-0.2c0.1-0.7,0.3-1.2,0.3-1.9l1,0.2C418.5,519.8,418.4,520.5,418.3,521.1z
	 M358.1,520.2c-0.5-0.3-1.1-0.7-1.6-1.1l0.7-0.9c0.5,0.3,1,0.7,1.5,1.1L358.1,520.2z M381,518l-1-0.3c0.2-0.6,0.4-1.2,0.7-1.8l1,0.3
	C381.5,516.8,381.2,517.4,381,518z M354,517.1c-0.5-0.4-1-0.8-1.5-1.2l0.7-0.8c0.5,0.4,1,0.8,1.5,1.1L354,517.1z M419.2,516.1
	l-1.1-0.1c0.1-0.7,0.2-1.2,0.3-1.9l1.1,0.1C419.4,514.8,419.2,515.5,419.2,516.1z M350,513.9c-0.5-0.4-0.9-0.9-1.4-1.3l0.7-0.8
	c0.5,0.4,0.9,0.9,1.4,1.3L350,513.9z M382.6,513.2l-1-0.3c0.2-0.7,0.3-1.2,0.6-1.8l1,0.3C383.1,511.9,382.8,512.6,382.6,513.2z
	 M419.7,511l-1.1-0.1c0.1-0.7,0.1-1.2,0.2-1.9l1.1,0.1C419.9,509.8,419.8,510.3,419.7,511z M346.3,510.4c-0.4-0.4-0.9-0.9-1.4-1.4
	l0.8-0.7c0.4,0.4,0.9,0.9,1.3,1.4L346.3,510.4z M384.1,508.3l-1-0.3c0.1-0.7,0.3-1.2,0.5-1.8l1,0.3
	C384.3,507,384.2,507.7,384.1,508.3z M342.8,506.6c-0.4-0.5-0.9-1-1.2-1.4l0.8-0.7c0.4,0.5,0.8,1,1.2,1.4L342.8,506.6z M420.2,505.9
	l-1.1-0.1c0.1-0.7,0.1-1.2,0.1-1.9l1.1,0.1C420.2,504.7,420.2,505.3,420.2,505.9z M385.3,503.3l-1-0.2c0.1-0.7,0.3-1.2,0.4-1.9
	l1,0.2C385.6,502.1,385.4,502.7,385.3,503.3z M339.6,502.6c-0.4-0.5-0.8-1-1.1-1.6l0.9-0.6c0.3,0.5,0.7,1,1.1,1.5L339.6,502.6z
	 M420.4,500.8l-1.1-0.1c0.1-0.7,0.1-1.3,0.1-1.9l1.1,0.1C420.4,499.5,420.4,500.2,420.4,500.8z M336.7,498.4c-0.3-0.6-0.7-1.1-1-1.7
	l0.9-0.5c0.3,0.6,0.7,1.1,0.9,1.7L336.7,498.4z M386.3,498.3l-1-0.2c0.1-0.7,0.2-1.2,0.3-1.9l1.1,0.2
	C386.5,497,386.4,497.7,386.3,498.3z M420.6,495.7l-1.1-0.1c0-0.7,0.1-1.3,0.1-1.9h1.1C420.6,494.4,420.6,495.1,420.6,495.7z
	 M334.2,493.9c-0.3-0.6-0.6-1.1-0.8-1.7l0.9-0.4c0.3,0.6,0.5,1.1,0.8,1.7L334.2,493.9z M387.1,493.2l-1.1-0.1
	c0.1-0.7,0.2-1.2,0.3-1.9l1.1,0.1C387.3,492,387.2,492.6,387.1,493.2z M420.7,490.7h-1.1c0-0.7,0-1.3,0.1-1.9h1.1
	C420.7,489.4,420.7,489.9,420.7,490.7z M332.2,489.1c-0.2-0.6-0.4-1.2-0.7-1.8l1-0.3c0.2,0.6,0.4,1.2,0.7,1.8L332.2,489.1z
	 M387.7,488.1l-1.1-0.1c0.1-0.7,0.1-1.3,0.2-1.9l1.1,0.1C387.9,486.9,387.8,487.5,387.7,488.1z M420.7,485.6h-1.1c0-0.7,0-1.3,0-1.9
	h1.1C420.7,484.3,420.7,484.9,420.7,485.6z M330.8,484.3c-0.1-0.7-0.3-1.2-0.4-1.9l1-0.2c0.1,0.7,0.3,1.2,0.4,1.8L330.8,484.3z
	 M388.2,483.1l-1.1-0.1c0.1-0.7,0.1-1.3,0.1-1.9l1.1,0.1C388.2,481.8,388.2,482.5,388.2,483.1z M419.6,480.4v-1.9h1.1v1.9H419.6z
	 M329.8,479.1c-0.1-0.7-0.1-1.3-0.2-1.9l1.1-0.1c0.1,0.7,0.1,1.2,0.2,1.9L329.8,479.1z M388.3,477.9h-1.1c0-0.3,0-0.5,0-0.8
	c0-0.3,0-0.8,0-1.1h1.1c0,0.3,0,0.8,0,1.1C388.3,477.4,388.3,477.7,388.3,477.9z M419.6,475.3v-1.9h1.1v1.9H419.6z M330.6,474h-1.1
	c0-0.7,0.1-1.3,0.1-1.9l1.1,0.1C330.6,472.8,330.6,473.4,330.6,474z M387.2,472.8c-0.1-0.7-0.1-1.3-0.1-1.9l1.1-0.1
	c0.1,0.7,0.1,1.3,0.1,1.9L387.2,472.8z M419.6,470.3v-1.9h1.1v1.9H419.6z M331,469.1l-1.1-0.1c0.1-0.7,0.2-1.3,0.3-1.9l1,0.2
	C331.1,467.7,331.1,468.4,331,469.1z M386.8,467.8c-0.1-0.7-0.1-1.2-0.2-1.9l1.1-0.1c0.1,0.7,0.1,1.3,0.2,1.9L386.8,467.8z
	 M331.9,464.1l-1-0.3c0.1-0.7,0.3-1.2,0.6-1.9l1,0.3C332.3,462.9,332.1,463.5,331.9,464.1z M386,462.9c-0.1-0.7-0.2-1.2-0.3-1.9
	l1-0.2c0.1,0.7,0.3,1.2,0.3,1.9L386,462.9z M333.5,459.4l-1-0.4c0.3-0.6,0.5-1.2,0.8-1.8l0.9,0.4C334,458.2,333.8,458.7,333.5,459.4
	z M385,457.9c-0.1-0.7-0.3-1.2-0.5-1.8l1-0.3c0.2,0.7,0.3,1.2,0.5,1.9L385,457.9z M335.7,454.8l-0.9-0.5c0.3-0.6,0.7-1.1,1-1.7
	l0.9,0.6C336.3,453.7,336.1,454.3,335.7,454.8z M383.5,453.1c-0.2-0.6-0.5-1.1-0.7-1.7l0.9-0.4c0.3,0.6,0.5,1.1,0.7,1.8L383.5,453.1
	z M338.4,450.6l-0.9-0.7c0.4-0.5,0.8-1,1.2-1.5l0.8,0.7C339.2,449.7,338.8,450.1,338.4,450.6z M381.3,448.6
	c-0.3-0.6-0.7-1.1-0.9-1.6l0.9-0.6c0.3,0.6,0.7,1.1,1,1.7L381.3,448.6z M341.7,446.8l-0.8-0.7c0.4-0.5,0.9-0.9,1.4-1.4l0.7,0.8
	C342.6,445.9,342.2,446.4,341.7,446.8z M378.6,444.5c-0.4-0.5-0.8-0.9-1.2-1.4l0.8-0.7c0.4,0.4,0.9,0.9,1.3,1.4L378.6,444.5z
	 M345.4,443.5l-0.7-0.9c0.5-0.4,1-0.8,1.6-1.1l0.6,0.9C346.4,442.7,345.9,443.1,345.4,443.5z M375,441.1c-0.5-0.3-1-0.7-1.5-1
	l0.5-0.9c0.6,0.3,1.1,0.7,1.7,1.1L375,441.1z M349.6,440.7l-0.5-0.9c0.6-0.3,1.1-0.7,1.7-0.9l0.4,0.9
	C350.7,440.1,350.2,440.4,349.6,440.7z M370.6,438.7c-0.6-0.2-1.1-0.4-1.7-0.7l0.3-1c0.7,0.2,1.2,0.4,1.8,0.7L370.6,438.7z
	 M354.2,438.6l-0.3-1c0.7-0.2,1.2-0.4,1.9-0.6l0.3,1C355.3,438.3,354.8,438.4,354.2,438.6z M359,437.4l-0.1-1.1
	c0.7-0.1,1.3-0.2,1.9-0.2l0.1,1.1C360.2,437.3,359.6,437.3,359,437.4z M365.8,437.4c-0.7-0.1-1.2-0.1-1.9-0.2l0.1-1.1
	c0.7,0.1,1.3,0.1,1.9,0.2L365.8,437.4z"/>
<path class="st2" d="M774.3,513.9v-0.7c0.6,0,1.2,0,1.8,0v0.7C775.6,513.9,775,513.9,774.3,513.9z M779.2,513.7l0-0.7
	c0.6-0.1,1.2-0.1,1.8-0.1l0.1,0.7C780.4,513.6,779.8,513.7,779.2,513.7z M784,513.1l-0.1-0.7c0.6-0.1,1.2-0.2,1.8-0.3l0.1,0.7
	C785.2,512.9,784.6,513.1,784,513.1z M788.7,512l-0.2-0.6c0.6-0.2,1.1-0.4,1.7-0.6l0.2,0.6C789.8,511.6,789.3,511.8,788.7,512z
	 M811.6,519c-0.6-0.2-1.1-0.4-1.7-0.6l0.2-0.6c0.6,0.2,1.1,0.4,1.7,0.6L811.6,519z M814.5,519.8l0.2-0.7c0.6,0.1,1.2,0.3,1.8,0.4
	l-0.1,0.7C815.7,520.1,815.1,520,814.5,519.8z M807.1,517.3c-0.6-0.2-1.1-0.5-1.7-0.7l0.3-0.6c0.6,0.2,1.1,0.5,1.7,0.7L807.1,517.3z
	 M819.3,520.7l0.1-0.7c0.6,0.1,1.2,0.2,1.8,0.2l-0.1,0.7C820.5,520.9,819.9,520.8,819.3,520.7z M802.7,515.2
	c-0.6-0.3-1.1-0.6-1.6-0.9l0.3-0.6c0.5,0.3,1,0.6,1.6,0.9L802.7,515.2z M824.1,521.1v-0.7c0.6,0,1.2,0,1.8,0l0,0.7
	C825.3,521.1,824.7,521.1,824.1,521.1z M798.5,512.7c-0.5-0.3-1-0.7-1.5-1l0.4-0.6c0.5,0.3,1,0.7,1.5,1L798.5,512.7z M793.2,510.2
	l-0.3-0.6c0.2-0.1,0.4-0.2,0.7-0.4c-0.1-0.1-0.3-0.2-0.5-0.3l0.4-0.5c0.2,0.2,0.4,0.3,0.7,0.5c0.1,0,0.2-0.1,0.2-0.1l0.3,0.6
	c0.1,0,0.1,0.1,0.2,0.1l-0.4,0.6c-0.1-0.1-0.2-0.2-0.4-0.3C793.8,509.8,793.5,510,793.2,510.2z M828.9,520.7l-0.1-0.7
	c0.6-0.1,1.2-0.2,1.8-0.3l0.1,0.7C830.1,520.6,829.5,520.7,828.9,520.7z M907,543.9c-0.4-0.4-0.8-0.9-1.2-1.3l0.5-0.4
	c0.4,0.5,0.8,0.9,1.2,1.3L907,543.9z M790.8,506.9c-0.5-0.4-0.9-0.8-1.4-1.2l0.4-0.5c0.4,0.4,0.9,0.8,1.3,1.2L790.8,506.9z
	 M833.7,519.7l-0.2-0.6c0.6-0.2,1.1-0.4,1.7-0.6l0.2,0.6C834.8,519.3,834.2,519.5,833.7,519.7z M797.3,507.6l-0.4-0.5
	c0.5-0.4,0.9-0.8,1.4-1.1l0.4,0.5C798.3,506.8,797.8,507.2,797.3,507.6z M787.2,503.7c-0.4-0.4-0.9-0.9-1.3-1.3l0.5-0.5
	c0.4,0.4,0.9,0.9,1.3,1.3L787.2,503.7z M903.8,540.2c-0.4-0.5-0.8-1-1.1-1.4l0.6-0.4c0.4,0.5,0.8,1,1.1,1.4L903.8,540.2z M838.2,518
	l-0.3-0.6c0.5-0.2,1.1-0.5,1.6-0.8l0.3,0.6C839.3,517.4,838.7,517.7,838.2,518z M784,500.1c-0.4-0.5-0.8-0.9-1.2-1.4l0.5-0.4
	c0.4,0.5,0.8,0.9,1.1,1.4L784,500.1z M901,536.4c-0.3-0.5-0.7-1-1-1.5l0.6-0.3c0.3,0.5,0.7,1,1,1.5L901,536.4z M800.8,504.3
	l-0.5-0.4c0.4-0.4,0.8-0.9,1.1-1.4l0.6,0.4C801.6,503.3,801.2,503.8,800.8,504.3z M780.9,496.3c-0.4-0.5-0.7-1-1-1.5l0.6-0.4
	c0.3,0.5,0.7,1,1,1.5L780.9,496.3z M842.3,515.5l-0.4-0.6c0.5-0.3,1-0.7,1.5-1l0.4,0.6C843.4,514.8,842.9,515.2,842.3,515.5z
	 M898.4,532.3c-0.3-0.5-0.6-1.1-0.9-1.6l0.6-0.3c0.3,0.5,0.6,1.1,0.9,1.6L898.4,532.3z M803.6,500.3L803,500c0.3-0.5,0.6-1,0.8-1.6
	l0.6,0.3C804.2,499.2,803.9,499.8,803.6,500.3z M778.3,492.3c-0.3-0.5-0.6-1.1-0.9-1.6l0.6-0.3c0.3,0.5,0.6,1.1,0.9,1.6L778.3,492.3
	z M846.2,512.6l-0.4-0.5c0.5-0.4,0.9-0.8,1.4-1.1l0.4,0.5C847.2,511.9,846.7,512.3,846.2,512.6z M896.1,528
	c-0.3-0.6-0.5-1.1-0.8-1.7l0.6-0.3c0.2,0.5,0.5,1.1,0.8,1.6L896.1,528z M863.5,515.6c-0.6-0.2-1.1-0.4-1.7-0.7l0.3-0.6
	c0.6,0.2,1.1,0.5,1.7,0.7L863.5,515.6z M866.4,516.5l0.2-0.7c0.6,0.1,1.1,0.2,1.7,0.4l-0.1,0.7C867.5,516.7,867,516.6,866.4,516.5z
	 M776.1,488c-0.2-0.6-0.5-1.1-0.7-1.7l0.6-0.2c0.2,0.6,0.4,1.1,0.7,1.7L776.1,488z M859.1,513.5c-0.5-0.3-1-0.6-1.6-1l0.4-0.6
	c0.5,0.3,1,0.7,1.5,1L859.1,513.5z M871.2,517.2l0-0.7c0.3,0,0.7,0,1,0.1l0.8,0l0,0.7l-0.8,0C871.8,517.3,871.5,517.3,871.2,517.2z
	 M804.9,495.6c0.2-0.6,0.3-1.1,0.4-1.7l0.7,0.1c-0.1,0.6-0.3,1.2-0.5,1.8L804.9,495.6z M894.1,523.6c-0.2-0.6-0.4-1.1-0.7-1.7
	l0.6-0.2c0.2,0.6,0.4,1.1,0.7,1.7L894.1,523.6z M849.9,509.5l-0.4-0.5c0.4-0.4,0.9-0.8,1.3-1.2l0.5,0.5
	C850.8,508.7,850.4,509.1,849.9,509.5z M876,517.5l0-0.7l1.8,0.1l0,0.7L876,517.5z M855.1,510.6c-0.5-0.4-0.9-0.8-1.3-1.2l0.4-0.5
	c0.4,0.4,0.9,0.8,1.3,1.2L855.1,510.6z M880.8,517.6l0-0.7c0.6,0,1.2,0,1.8,0.1l0,0.7C882,517.7,881.4,517.6,880.8,517.6z
	 M774.5,483.4c-0.2-0.6-0.3-1.2-0.3-1.8l0.7-0.1c0.1,0.6,0.2,1.1,0.3,1.8L774.5,483.4z M851.7,507.2c-0.4-0.5-0.8-0.9-1.1-1.4
	l0.6-0.4c0.4,0.5,0.8,1,1.1,1.4L851.7,507.2z M885.6,517.8l0-0.7c0.6,0,1.2,0,1.8,0v0.7C886.8,517.8,886.2,517.8,885.6,517.8z
	 M892.5,519.1c-0.1-0.4-0.2-0.9-0.4-1.2c-0.6,0-1.1,0-1.7,0v-0.7c0.6,0,1.2,0,1.8,0v0.1l0.4-0.1c0.2,0.6,0.3,1.1,0.5,1.7
	L892.5,519.1z M853.4,506.1l-0.5-0.4c0.4-0.4,0.8-0.9,1.2-1.3l0.5,0.4C854.2,505.3,853.8,505.7,853.4,506.1z M805.8,490.9
	c0-0.6,0.1-1.2,0.1-1.8l0.7,0c0,0.6-0.1,1.2-0.1,1.8L805.8,490.9z M848.9,503.3c-0.3-0.5-0.7-1-0.9-1.6l0.6-0.3
	c0.3,0.5,0.6,1,0.9,1.6L848.9,503.3z M895.2,517.8l0-0.7c0.6,0,1.2,0,1.8-0.1l0,0.7C896.4,517.7,895.8,517.8,895.2,517.8z
	 M773.9,478.5c0-0.6,0.1-1.2,0.2-1.8l0.7,0.1c-0.1,0.6-0.1,1.1-0.2,1.7H773.9z M900,517.6l0-0.7c0.6-0.1,1.2-0.1,1.8-0.1l0.1,0.7
	C901.2,517.5,900.6,517.5,900,517.6z M891.2,514.4c-0.1-0.6-0.2-1.2-0.3-1.8l0.7-0.1c0.1,0.6,0.2,1.1,0.3,1.8L891.2,514.4z
	 M856.6,502.5l-0.5-0.4c0.4-0.5,0.8-1,1.1-1.4l0.5,0.4C857.3,501.6,857,502.1,856.6,502.5z M846.6,499c-0.2-0.5-0.5-1.1-0.7-1.7
	l0.6-0.3c0.2,0.6,0.4,1.1,0.7,1.7L846.6,499z M805.9,486.2c-0.1-0.6-0.1-1.2-0.2-1.8l0.7-0.1c0.1,0.6,0.1,1.2,0.2,1.8L805.9,486.2z
	 M904.8,517.1l-0.1-0.7c0.6-0.1,1.2-0.2,1.8-0.3l0.1,0.7C906,517,905.4,517,904.8,517.1z M909.6,516.2l-0.1-0.7
	c0.6-0.1,1.2-0.3,1.7-0.4l0.2,0.7C910.8,516,910.2,516.1,909.6,516.2z M775.5,474l-0.6-0.3c0.2-0.6,0.6-1.1,0.9-1.6l0.6,0.4
	C776.1,473,775.8,473.5,775.5,474z M890.4,509.6c-0.1-0.6-0.1-1.2-0.2-1.8l0.7,0c0,0.6,0.1,1.2,0.2,1.8L890.4,509.6z M844.8,494.5
	c-0.2-0.6-0.4-1.2-0.6-1.7l0.7-0.2c0.2,0.6,0.3,1.1,0.6,1.7L844.8,494.5z M859.5,498.7l-0.6-0.4c0.3-0.5,0.7-1,1-1.5l0.6,0.4
	C860.2,497.7,859.9,498.2,859.5,498.7z M805.1,481.5c-0.2-0.6-0.3-1.1-0.5-1.7l0.6-0.2c0.2,0.6,0.4,1.2,0.6,1.7L805.1,481.5z
	 M914.2,514.8l-0.2-0.6c0.6-0.2,1.1-0.4,1.7-0.7l0.3,0.6C915.3,514.4,914.8,514.6,914.2,514.8z M778.3,470.4l-0.4-0.5
	c0.5-0.4,1-0.8,1.5-1.1l0.3,0.6C779.3,469.7,778.8,470,778.3,470.4z M890.1,504.8c0-0.6,0-1.2,0.1-1.8l0.7,0c0,0.6-0.1,1.2-0.1,1.8
	L890.1,504.8z M843.5,489.9c-0.1-0.6-0.2-1.2-0.3-1.8l0.7-0.1c0.1,0.6,0.2,1.2,0.3,1.8L843.5,489.9z M803.5,477.1
	c-0.2-0.5-0.5-1.1-0.8-1.6l0.6-0.3c0.3,0.5,0.6,1.1,0.9,1.6L803.5,477.1z M918.6,512.8l-0.3-0.6c0.5-0.3,1-0.6,1.5-0.9l0.4,0.6
	C919.6,512.2,919.1,512.5,918.6,512.8z M862.1,494.6l-0.6-0.3c0.3-0.5,0.6-1,0.9-1.6l0.6,0.3C862.8,493.6,862.4,494.1,862.1,494.6z
	 M782.4,468.1l-0.2-0.6c0.6-0.2,1.2-0.4,1.8-0.6l0.2,0.7C783.6,467.7,783,467.9,782.4,468.1z M800.9,473.1c-0.4-0.5-0.8-0.9-1.1-1.3
	l0.5-0.5c0.4,0.4,0.8,0.9,1.2,1.4L800.9,473.1z M842.7,485.1c-0.1-0.6-0.1-1.2-0.2-1.8l0.7,0c0.1,0.6,0.1,1.2,0.2,1.8L842.7,485.1z
	 M890.5,500c0.1-0.6,0.2-1.2,0.3-1.8l0.7,0.1c-0.1,0.6-0.2,1.2-0.3,1.8L890.5,500z M922.6,510l-0.4-0.5c0.5-0.4,0.9-0.8,1.3-1.2
	l0.5,0.5C923.5,509.2,923,509.6,922.6,510z M787.1,467l-0.1-0.7c0.6-0.1,1.2-0.1,1.8-0.1v0.7C788.2,466.9,787.6,467,787.1,467z
	 M797.6,469.9c-0.5-0.3-1-0.7-1.5-1l0.3-0.6c0.5,0.3,1.1,0.7,1.5,1L797.6,469.9z M864.4,490.4l-0.6-0.3c0.3-0.6,0.5-1.1,0.8-1.6
	l0.6,0.3C865,489.3,864.7,489.8,864.4,490.4z M791.7,467.2l0.1-0.7c0.6,0.1,1.2,0.3,1.8,0.5l-0.2,0.6
	C792.8,467.5,792.3,467.3,791.7,467.2z M926,506.6l-0.5-0.4c0.4-0.4,0.8-0.9,1.1-1.4l0.5,0.4C926.8,505.7,926.4,506.2,926,506.6z
	 M842.4,480.3c0-0.6,0-1.2,0-1.8l0.7,0c0,0.6,0,1.2,0,1.8L842.4,480.3z M891.6,495.2c0-0.1,0.1-0.2,0.1-0.4c0.1-0.4,0.3-0.9,0.4-1.3
	l0.6,0.2c-0.2,0.4-0.3,0.9-0.4,1.3c0,0.1-0.1,0.2-0.1,0.3L891.6,495.2z M866.4,486l-0.6-0.2c0.2-0.6,0.4-1.1,0.6-1.7l0.6,0.2
	C866.8,484.8,866.6,485.4,866.4,486z M928.9,502.8l-0.6-0.4c0.3-0.5,0.7-1,1-1.5l0.6,0.3C929.6,501.8,929.3,502.2,928.9,502.8z
	 M842.7,475.4c0.1-0.6,0.2-1.2,0.2-1.8l0.7,0.1c-0.1,0.6-0.2,1.2-0.2,1.8L842.7,475.4z M893.9,491l-0.6-0.3c0.3-0.6,0.6-1.1,0.8-1.6
	l0.6,0.3C894.5,489.9,894.2,490.5,893.9,491z M867.3,481.2c0.2-0.6,0.3-1.1,0.5-1.7l0.7,0.2c-0.1,0.6-0.3,1.2-0.5,1.7L867.3,481.2z
	 M931.4,498.6l-0.6-0.3l0.2-0.3c0.2-0.4,0.4-0.9,0.6-1.3l0.6,0.3c-0.2,0.4-0.4,0.9-0.7,1.3L931.4,498.6z M843.6,470.6
	c0.1-0.6,0.3-1.1,0.4-1.6l0.1-0.2l0.6,0.2l-0.1,0.2c-0.2,0.5-0.3,1-0.4,1.5L843.6,470.6z M896.3,486.9l-0.6-0.4
	c0.2-0.2,0.3-0.5,0.5-0.8c0.2-0.2,0.3-0.5,0.6-0.7l0.5,0.4c-0.2,0.2-0.3,0.4-0.5,0.7C896.6,486.4,896.4,486.6,896.3,486.9z
	 M868.4,476.6c0.1-0.6,0.2-1.2,0.3-1.8l0.7,0.1c-0.1,0.6-0.2,1.2-0.3,1.8L868.4,476.6z M932.6,493.9c0.2-0.6,0.3-1.2,0.4-1.7
	l0.7,0.1c-0.1,0.6-0.2,1.2-0.4,1.8L932.6,493.9z M899.2,483.2l-0.5-0.4c0.4-0.4,0.8-0.9,1.3-1.3l0.5,0.5
	C900.1,482.3,899.7,482.7,899.2,483.2z M845.8,466.3l-0.6-0.3c0.2-0.6,0.5-1.1,0.8-1.6l0.6,0.3C846.3,465.3,846,465.8,845.8,466.3z
	 M869,471.8c0.1-0.6,0.1-1.2,0-1.8h0.7c0,0.6,0,1.2-0.1,1.8L869,471.8z M902.7,479.9l-0.4-0.5c0.5-0.4,1-0.7,1.5-1.1l0.3,0.5
	C903.7,479.2,903.2,479.6,902.7,479.9z M933.3,489.3c0-0.6,0-1.2-0.1-1.8l0.7-0.1c0.1,0.6,0.1,1.2,0.1,1.9L933.3,489.3z
	 M848.1,462.2l-0.5-0.4c0.4-0.5,0.8-1,1.1-1.4l0.5,0.4C848.8,461.3,848.5,461.8,848.1,462.2z M868.9,467.1c-0.1-0.6-0.1-1.2-0.2-1.8
	l0.7-0.1c0.1,0.6,0.2,1.2,0.2,1.8L868.9,467.1z M906.7,477.4l-0.3-0.6c0.6-0.3,1.1-0.5,1.7-0.8l0.3,0.6
	C907.8,476.9,907.2,477.1,906.7,477.4z M932.4,484.7c-0.2-0.6-0.4-1.1-0.7-1.6l0.6-0.3c0.3,0.6,0.5,1.1,0.8,1.7L932.4,484.7z
	 M851.4,458.9l-0.4-0.5c0.5-0.4,1-0.7,1.5-1.1l0.3,0.6C852.3,458.2,851.9,458.5,851.4,458.9z M867.9,462.5c-0.2-0.6-0.4-1.1-0.7-1.7
	l0.6-0.3c0.2,0.5,0.5,1.1,0.7,1.7L867.9,462.5z M911.1,475.7l-0.2-0.7c0.6-0.2,1.2-0.3,1.8-0.4l0.1,0.7
	C912.3,475.4,911.7,475.5,911.1,475.7z M930,480.6c-0.4-0.4-0.8-0.9-1.2-1.2l0.4-0.5c0.4,0.4,0.9,0.9,1.2,1.3L930,480.6z
	 M855.5,456.6l-0.2-0.6c0.6-0.2,1.2-0.4,1.8-0.5l0.1,0.7C856.6,456.2,856.1,456.4,855.5,456.6z M915.8,475l0-0.7c0.6,0,1.2,0,1.8,0
	l0,0.7C917,475,916.4,474.9,915.8,475z M926.5,477.6c-0.5-0.3-1-0.6-1.6-0.8l0.3-0.6c0.6,0.3,1.1,0.6,1.6,0.9L926.5,477.6z
	 M865.6,458.4c-0.4-0.4-0.8-0.9-1.3-1.2l0.4-0.5c0.5,0.3,0.9,0.8,1.4,1.3L865.6,458.4z M920.5,475.3l0.1-0.7
	c0.6,0.1,1.2,0.3,1.8,0.4l-0.2,0.6C921.7,475.5,921.1,475.4,920.5,475.3z M860.1,455.8l0-0.7c0.6,0,1.2,0.1,1.8,0.3l-0.2,0.7
	C861.2,455.9,860.7,455.8,860.1,455.8z"/>
<g>
	<polygon class="st0" points="915,543.9 912.9,553.3 946.1,557.6 	"/>
	<polygon class="st1" points="912.9,553.3 946.3,557.6 917.3,546.7 	"/>
	<polyline class="st2" points="915,543.9 911.1,538.8 946.1,557.5 	"/>
	<polygon class="st2" points="917.3,546.7 920.5,552.3 946.1,557.5 	"/>
</g>
<polygon class="st0" points="932.2,219.1 938.7,235 977.3,199 "/>
<polygon class="st2" points="942.8,222.8 964.5,228.3 977.2,199 "/>
<polygon class="st1" points="938.7,235 951.8,225.1 942.7,222.7 "/>
<polyline class="st2" points="932.2,219.1 918.9,217.6 977.2,199 "/>
<path class="st2" d="M872.4,279.1c-0.1,0-0.3,0-0.4,0v-0.6c0.6,0,1.1,0,1.6,0l0,0.6C873.2,279.1,872.8,279.1,872.4,279.1z
	 M869.3,279c-0.6,0-1.1-0.1-1.6-0.1l0.1-0.6c0.6,0.1,1.1,0.1,1.6,0.1L869.3,279z M876.3,278.9l-0.1-0.6c0.6-0.1,1.1-0.1,1.6-0.2
	l0.1,0.6C877.4,278.8,876.8,278.8,876.3,278.9z M865,278.4c-0.6-0.1-1.1-0.2-1.6-0.3l0.1-0.6c0.6,0.1,1,0.2,1.6,0.3L865,278.4z
	 M880.6,278.1l-0.1-0.6c0.5-0.1,1-0.3,1.5-0.5l0.2,0.6C881.6,277.8,881.1,277.9,880.6,278.1z M860.7,277.5c-0.5-0.1-1-0.3-1.6-0.4
	l0.1-0.6c0.5,0.1,1,0.3,1.6,0.4L860.7,277.5z M884.7,276.5l-0.3-0.6c0.5-0.2,0.9-0.5,1.4-0.8l0.3,0.5
	C885.6,276.1,885.2,276.3,884.7,276.5z M856.6,276.3c-0.5-0.1-1-0.3-1.6-0.6l0.2-0.6c0.5,0.2,1,0.4,1.5,0.5L856.6,276.3z
	 M852.5,274.9c-0.2-0.1-0.5-0.2-0.8-0.3c-0.2-0.1-0.5-0.2-0.8-0.3l0.2-0.6c0.2,0.1,0.5,0.2,0.8,0.3c0.2,0.1,0.5,0.2,0.8,0.3
	L852.5,274.9z M888.4,274.3l-0.4-0.5c0.4-0.3,0.9-0.7,1.2-1l0.4,0.4C889.2,273.6,888.8,274,888.4,274.3z M848.6,273.2
	c-0.5-0.2-1-0.4-1.5-0.7l0.2-0.6c0.5,0.2,1,0.4,1.4,0.7L848.6,273.2z M891.6,271.3l-0.4-0.4c0.4-0.4,0.7-0.8,1-1.2l0.5,0.4
	C892.3,270.6,892,271,891.6,271.3z M844.6,271.3c-0.5-0.2-1-0.5-1.4-0.8l0.3-0.6c0.5,0.2,0.9,0.5,1.4,0.7L844.6,271.3z M890.5,271.2
	L890.5,271.2c-0.6,0-1.1,0-1.6,0l0-0.6c0.5,0,1,0,1.6,0h0L890.5,271.2L890.5,271.2z M893.2,271.1l-0.1-0.6c0.6-0.1,1.1-0.1,1.6-0.2
	l0.1,0.6C894.3,271,893.8,271,893.2,271.1z M886.2,270.9c-0.6-0.1-1.1-0.2-1.6-0.3l0.1-0.6c0.6,0.1,1,0.2,1.6,0.3L886.2,270.9z
	 M897.5,270.3l-0.1-0.6c0.5-0.1,1-0.3,1.5-0.4l0.2,0.6C898.6,270.1,898,270.2,897.5,270.3z M881.9,270c-0.6-0.1-1-0.3-1.6-0.5
	l0.2-0.6c0.5,0.2,1,0.4,1.5,0.5L881.9,270z M840.8,269.3c-0.5-0.3-0.9-0.6-1.4-0.8l0.3-0.5c0.4,0.3,0.9,0.6,1.4,0.8L840.8,269.3z
	 M901.6,268.9l-0.3-0.6c0.5-0.2,0.9-0.5,1.4-0.7l0.3,0.6C902.6,268.4,902.1,268.6,901.6,268.9z M877.9,268.4c-0.5-0.2-1-0.5-1.4-0.8
	l0.3-0.5c0.4,0.3,0.9,0.5,1.4,0.8L877.9,268.4z M894.2,267.9l-0.5-0.3c0.3-0.4,0.6-0.9,0.8-1.4l0.6,0.3
	C894.7,266.9,894.5,267.4,894.2,267.9z M837.1,267.1c-0.4-0.3-0.9-0.6-1.3-0.9l0.3-0.5c0.4,0.3,0.9,0.6,1.3,0.9L837.1,267.1z
	 M905.4,266.7l-0.3-0.5c0.4-0.3,0.9-0.6,1.3-0.9l0.3,0.5C906.3,266.2,905.8,266.5,905.4,266.7z M874.2,266.1c-0.4-0.3-0.9-0.7-1.2-1
	l0.4-0.4c0.4,0.4,0.8,0.7,1.2,1L874.2,266.1z M833.6,264.6c-0.4-0.3-0.9-0.7-1.2-1l0.4-0.4c0.4,0.3,0.8,0.7,1.2,1L833.6,264.6z
	 M909,264.4l-0.3-0.5c0.4-0.3,0.9-0.7,1.3-0.9l0.4,0.5C909.9,263.7,909.4,264,909,264.4z M896,263.9l-0.6-0.2c0.2-0.5,0.4-1,0.5-1.5
	l0.6,0.2C896.4,262.9,896.2,263.4,896,263.9z M871,263c-0.3-0.4-0.7-0.9-0.9-1.4l0.6-0.3c0.2,0.4,0.6,0.9,0.9,1.3L871,263z
	 M912.5,261.8l-0.4-0.5c0.4-0.3,0.9-0.7,1.3-1l0.4,0.5C913.3,261.1,912.9,261.5,912.5,261.8z M830.3,261.7c-0.4-0.4-0.8-0.8-1.1-1.1
	l0.4-0.4c0.4,0.4,0.8,0.8,1.1,1.1L830.3,261.7z M897.2,259.7l-0.6-0.1c0.1-0.6,0.2-1,0.2-1.6l0.6,0.1
	C897.4,258.7,897.3,259.2,897.2,259.7z M915.8,259.1l-0.4-0.4c0.4-0.4,0.9-0.7,1.2-1l0.4,0.4C916.7,258.4,916.3,258.8,915.8,259.1z
	 M869.1,259.1c-0.1-0.6-0.2-1.1-0.2-1.6l0.6,0c0,0.5,0.1,1,0.2,1.6L869.1,259.1z M827.4,258.5c-0.1-0.1-0.1-0.1-0.1-0.2
	c-0.2,0-0.4,0-0.7,0l0-0.6c0.1,0,0.1,0,0.2,0c-0.1-0.2-0.3-0.4-0.4-0.6l0.5-0.3c0.2,0.3,0.4,0.6,0.6,0.9c0.2,0,0.4,0,0.7-0.1
	l0.1,0.6c-0.2,0-0.4,0-0.6,0L827.4,258.5z M822.8,258.5c-0.1,0-0.3,0-0.5,0v-0.6c0.6,0,1.1,0,1.6,0v0.6
	C823.5,258.4,823.2,258.5,822.8,258.5z M819.6,258.4c-0.6,0-1.1-0.1-1.6-0.1l0-0.6c0.6,0,1.1,0.1,1.6,0.1L819.6,258.4z M815.3,258
	c-0.6-0.1-1.1-0.1-1.6-0.2l0.1-0.6c0.6,0.1,1.1,0.1,1.6,0.2L815.3,258z M831,257.9l-0.1-0.6c0.6-0.1,1.1-0.1,1.6-0.2l0.1,0.6
	C832,257.8,831.5,257.8,831,257.9z M811,257.4c-0.6-0.1-1.1-0.2-1.6-0.3l0.1-0.6c0.5,0.1,1,0.2,1.6,0.3L811,257.4z M835.3,257.3
	l-0.1-0.6c0.6-0.1,1-0.2,1.6-0.3l0.1,0.6C836.3,257.1,835.8,257.2,835.3,257.3z M806.8,256.4c-0.5-0.1-1-0.3-1.6-0.4l0.2-0.6
	c0.5,0.1,1,0.3,1.6,0.4L806.8,256.4z M839.5,256.3l-0.1-0.6c0.5-0.1,1-0.3,1.6-0.4l0.1,0.6C840.5,256,840,256.2,839.5,256.3z
	 M919.1,256.3l-0.4-0.4c0.4-0.4,0.8-0.7,1.2-1.1l0.4,0.4C919.9,255.6,919.5,255.9,919.1,256.3z M897.7,255.4H897c0-0.1,0-0.3,0-0.4
	c0-0.4,0-0.8,0-1.2l0.6,0c0,0.4,0,0.8,0,1.2C897.7,255.2,897.7,255.3,897.7,255.4z M843.6,255.1l-0.2-0.6c0.5-0.2,1-0.4,1.5-0.6
	l0.2,0.6C844.6,254.8,844.1,255,843.6,255.1z M802.7,255.1c-0.5-0.2-1-0.4-1.5-0.6l0.2-0.6c0.5,0.2,1,0.4,1.5,0.6L802.7,255.1z
	 M825.1,254.8c-0.3-0.5-0.5-1-0.7-1.5l0.6-0.2c0.2,0.5,0.4,0.9,0.7,1.4L825.1,254.8z M869.7,254.8l-0.6-0.1c0.1-0.6,0.3-1.1,0.5-1.6
	l0.6,0.2C870,253.8,869.8,254.3,869.7,254.8z M847.7,253.6l-0.2-0.6c0.5-0.2,1-0.4,1.5-0.7l0.2,0.6
	C848.7,253.2,848.1,253.4,847.7,253.6z M798.6,253.5c-0.5-0.2-1-0.4-1.5-0.7l0.3-0.6c0.5,0.2,1,0.4,1.4,0.7L798.6,253.5z
	 M922.3,253.3l-0.4-0.4c0.4-0.4,0.8-0.8,1.1-1.1l0.4,0.4C923.1,252.6,922.6,253,922.3,253.3z M851.6,251.8l-0.3-0.6
	c0.5-0.2,0.9-0.5,1.4-0.8l0.3,0.6C852.6,251.3,852.1,251.6,851.6,251.8z M794.7,251.6c-0.4-0.3-0.9-0.7-1.3-0.9l0.4-0.5
	c0.4,0.3,0.9,0.7,1.3,0.9L794.7,251.6z M896.8,251.2c-0.1-0.6-0.2-1-0.3-1.6l0.6-0.1c0.1,0.6,0.2,1.1,0.3,1.6L896.8,251.2z
	 M871.3,250.9l-0.5-0.3c0.3-0.4,0.6-0.9,0.9-1.3l0.5,0.4C871.9,250.1,871.6,250.5,871.3,250.9z M823.5,250.7
	c-0.1-0.6-0.2-1.1-0.3-1.6l0.6-0.1c0.1,0.5,0.2,1,0.3,1.6L823.5,250.7z M925.4,250.3l-0.4-0.4c0.4-0.4,0.8-0.8,1.1-1.1l0.4,0.4
	C926.1,249.5,925.7,249.9,925.4,250.3z M855.3,249.7l-0.3-0.5c0.4-0.3,0.9-0.6,1.3-0.9l0.3,0.5C856.3,249.1,855.9,249.4,855.3,249.7
	z M791.4,248.7c-0.4-0.4-0.7-0.9-1-1.3l0.5-0.3c0.3,0.4,0.7,0.9,1,1.2L791.4,248.7z M874,247.6l-0.4-0.4c0.4-0.4,0.8-0.8,1.1-1.1
	l0.4,0.4C874.7,246.9,874.3,247.2,874,247.6z M858.9,247.2l-0.4-0.5c0.4-0.4,0.9-0.7,1.2-1l0.4,0.4
	C859.8,246.5,859.4,246.8,858.9,247.2z M928.3,247.2l-0.4-0.4c0.4-0.4,0.8-0.8,1.1-1.2l0.4,0.4C929,246.3,928.7,246.7,928.3,247.2z
	 M895.6,247.1c-0.2-0.5-0.4-1-0.7-1.4l0.6-0.3c0.3,0.5,0.5,0.9,0.7,1.5L895.6,247.1z M823.6,246.4H823c0-0.6,0.1-1.1,0.1-1.6
	l0.6,0.1C823.7,245.3,823.6,245.9,823.6,246.4z M789.1,245.1c-0.2-0.5-0.4-1-0.7-1.5l0.6-0.2c0.2,0.5,0.4,1,0.7,1.4L789.1,245.1z
	 M877.2,244.8l-0.4-0.5c0.4-0.3,0.9-0.7,1.3-1l0.4,0.5C878,244.2,877.5,244.5,877.2,244.8z M862.1,244.2l-0.4-0.4
	c0.4-0.4,0.7-0.9,1-1.2l0.5,0.4C862.8,243.4,862.4,243.7,862.1,244.2z M931.1,243.9l-0.4-0.4c0.4-0.4,0.7-0.9,1-1.2l0.4,0.4
	C931.9,243.1,931.5,243.5,931.1,243.9z M893.5,243.5c-0.4-0.4-0.7-0.8-1.1-1.1l0.4-0.4c0.4,0.4,0.8,0.8,1.2,1.1L893.5,243.5z
	 M880.6,242.4l-0.3-0.5c0.5-0.3,1-0.6,1.4-0.8l0.2,0.6C881.6,241.9,881.1,242.1,880.6,242.4z M824.3,242.2l-0.6-0.2
	c0.1-0.5,0.3-1,0.6-1.6l0.6,0.2C824.6,241.3,824.5,241.7,824.3,242.2z M890.1,241.1c-0.5-0.2-1-0.4-1.5-0.4l0.1-0.6
	c0.6,0.1,1.1,0.3,1.6,0.5L890.1,241.1z M787.6,240.9c-0.1-0.6-0.2-1.1-0.3-1.6l0.6-0.1c0.1,0.6,0.2,1,0.3,1.6L787.6,240.9z
	 M884.5,240.7l-0.1-0.6c0.6-0.1,1.1-0.2,1.6-0.3l0.1,0.6C885.6,240.5,885,240.6,884.5,240.7z M864.6,240.6l-0.6-0.3
	c0.2-0.5,0.4-1,0.6-1.4l0.6,0.2C865.1,239.6,864.9,240.1,864.6,240.6z M933.9,240.6l-0.5-0.4c0.4-0.6,0.8-1,1-1.3l0.5,0.4
	C934.7,239.6,934.4,240,933.9,240.6z M826,238.4l-0.5-0.3c0.3-0.5,0.6-0.9,0.9-1.4l0.5,0.3C826.5,237.5,826.3,238,826,238.4z
	 M787.1,236.6c0-0.6-0.1-1.1-0.1-1.6h0.6c0,0.6,0,1.1,0.1,1.6H787.1z M865.1,236.4c0-0.6-0.1-1-0.2-1.6l0.6-0.1
	c0.1,0.6,0.2,1.1,0.2,1.7L865.1,236.4z M828.5,235l-0.4-0.4c0.4-0.4,0.8-0.8,1.1-1.2l0.4,0.4C829.3,234.2,828.9,234.6,828.5,235z
	 M798.2,234.1c-0.4,0-0.9,0-1.2,0v-0.6c0.4,0,0.9,0,1.2,0h0.4v0.6H798.2z M801.2,234l0-0.6c0.6,0,1.1-0.1,1.6-0.1l0.1,0.6
	C802.4,233.9,801.8,234,801.2,234z M794.2,233.9c-0.6,0-1.1-0.1-1.6-0.1l0.1-0.6c0.6,0.1,1.1,0.1,1.6,0.1L794.2,233.9z M805.6,233.4
	l-0.1-0.6c0.6-0.1,1-0.2,1.6-0.3l0.1,0.6C806.7,233.2,806.1,233.3,805.6,233.4z M789.9,233.4c-0.6-0.1-1.1-0.2-1.6-0.3l0.1-0.6
	c0.6,0.1,1.1,0.2,1.6,0.3L789.9,233.4z M785.7,232.6c-0.6-0.1-1-0.2-1.6-0.4l0.1-0.6c0.6,0.1,1,0.3,1.6,0.4L785.7,232.6z
	 M863.9,232.4c-0.3-0.4-0.6-0.9-0.9-1.2l0.4-0.4c0.4,0.4,0.8,0.9,1,1.3L863.9,232.4z M809.8,232.4l-0.2-0.6c0.5-0.1,1-0.3,1.5-0.6
	l0.2,0.6C810.8,232,810.3,232.2,809.8,232.4z M787.7,232.3l-0.6,0c0-0.6,0.1-1.1,0.1-1.6l0.6,0.1
	C787.8,231.2,787.7,231.8,787.7,232.3z M831.6,232.1l-0.4-0.5c0.4-0.3,0.9-0.7,1.3-1l0.3,0.5C832.5,231.4,832,231.7,831.6,232.1z
	 M781.5,231.5c-0.5-0.1-1-0.3-1.6-0.5l0.2-0.6c0.5,0.1,1,0.3,1.6,0.5L781.5,231.5z M813.8,230.8l-0.3-0.6c0.5-0.2,0.9-0.5,1.4-0.8
	l0.3,0.5C814.8,230.2,814.3,230.5,813.8,230.8z M777.4,230.2c-0.5-0.2-1-0.4-1.5-0.6l0.2-0.6c0.5,0.2,1,0.4,1.5,0.6L777.4,230.2z
	 M835.2,229.7l-0.3-0.5c0.5-0.3,0.9-0.6,1.4-0.8l0.3,0.6C836.1,229.2,835.6,229.4,835.2,229.7z M860.9,229.5c-0.3-0.2-0.7-0.4-1-0.7
	c-0.1-0.1-0.2-0.1-0.4-0.2l0.3-0.5c0.1,0.1,0.2,0.1,0.4,0.2c0.4,0.2,0.7,0.4,1,0.7L860.9,229.5z M773.3,228.7
	c-0.5-0.2-1-0.4-1.5-0.7l0.2-0.6c0.5,0.2,1,0.4,1.5,0.7L773.3,228.7z M817.5,228.4l-0.4-0.5c0.4-0.3,0.9-0.7,1.2-1l0.4,0.4
	C818.4,227.8,817.9,228.1,817.5,228.4z M788.2,228.1l-0.6-0.1c0.1-0.6,0.2-1.1,0.3-1.6l0.6,0.1C788.4,227,788.3,227.6,788.2,228.1z
	 M839,227.9l-0.2-0.6c0.5-0.2,1-0.4,1.6-0.6l0.2,0.6C840,227.5,839.5,227.7,839,227.9z M857.2,227.6c-0.5-0.2-1-0.4-1.5-0.6l0.2-0.6
	c0.6,0.1,1,0.4,1.6,0.6L857.2,227.6z M769.4,226.9c-0.5-0.2-1-0.4-1.4-0.7l0.3-0.6c0.5,0.2,1,0.4,1.4,0.7L769.4,226.9z M843.1,226.7
	l-0.1-0.6c0.6-0.1,1.1-0.2,1.6-0.3l0.1,0.6C844.1,226.4,843.6,226.5,843.1,226.7z M853.1,226.3c-0.5-0.1-1-0.2-1.6-0.2l0.1-0.6
	c0.6,0.1,1.1,0.1,1.6,0.2L853.1,226.3z M847.3,226l0-0.6c0.6,0,1.1-0.1,1.6-0.1v0.6C848.4,226,847.8,226,847.3,226z M820.7,225.5
	l-0.4-0.4c0.4-0.4,0.7-0.8,1-1.2l0.5,0.4C821.4,224.7,821.1,225.1,820.7,225.5z M765.5,225.1c-0.5-0.2-0.9-0.5-1.4-0.8l0.3-0.6
	c0.5,0.2,0.9,0.5,1.4,0.8L765.5,225.1z M789.2,223.9l-0.6-0.1c0.1-0.5,0.3-1,0.5-1.6l0.6,0.2C789.5,222.9,789.4,223.4,789.2,223.9z
	 M823.2,221.9l-0.6-0.3c0.2-0.5,0.5-0.9,0.7-1.4l0.6,0.2C823.7,220.9,823.4,221.4,823.2,221.9z M790.6,219.9l-0.6-0.2
	c0.2-0.5,0.4-1,0.6-1.5l0.6,0.2C791,218.8,790.8,219.4,790.6,219.9z M824.7,217.8l-0.6-0.1c0.1-0.5,0.2-1,0.3-1.6l0.6,0.1
	C824.9,216.8,824.8,217.3,824.7,217.8z M792.3,215.9l-0.6-0.3c0.2-0.5,0.5-1,0.7-1.4l0.6,0.3C792.7,214.9,792.5,215.4,792.3,215.9z
	 M824.5,213.5c0-0.6-0.1-1-0.2-1.6l0.6-0.1c0.1,0.6,0.1,1.1,0.2,1.6L824.5,213.5z M794.3,212.1l-0.5-0.3c0.3-0.5,0.6-0.9,0.9-1.4
	l0.5,0.3C794.8,211.2,794.6,211.6,794.3,212.1z M823.7,209.4c-0.2-0.5-0.4-1-0.6-1.4l0.6-0.2c0.2,0.5,0.4,1,0.6,1.5L823.7,209.4z
	 M796.6,208.6l-0.5-0.4c0.3-0.4,0.7-0.9,1-1.3l0.5,0.4C797.3,207.7,796.9,208.1,796.6,208.6z M821.8,205.6c-0.3-0.4-0.6-0.9-0.9-1.3
	l0.5-0.4c0.3,0.4,0.7,0.9,0.9,1.3L821.8,205.6z M799.4,205.3l-0.4-0.4c0.4-0.4,0.8-0.8,1.1-1.1l0.4,0.4
	C800.1,204.5,799.7,204.9,799.4,205.3z M802.5,202.4l-0.4-0.5c0.4-0.3,0.9-0.7,1.3-0.9l0.3,0.5C803.4,201.7,802.9,202.1,802.5,202.4
	z M819.1,202.4c-0.4-0.4-0.8-0.7-1.2-1l0.4-0.5c0.4,0.3,0.9,0.7,1.2,1.1L819.1,202.4z M806.1,200.2l-0.3-0.6c0.5-0.2,1-0.4,1.5-0.7
	l0.2,0.6C807,199.7,806.6,199.9,806.1,200.2z M815.7,199.9c-0.5-0.2-0.9-0.4-1.4-0.6l0.2-0.6c0.5,0.1,1,0.4,1.6,0.6L815.7,199.9z
	 M810.1,199l-0.1-0.6c0.6-0.1,1.1-0.1,1.6-0.1l0,0.6C811.1,198.9,810.6,198.9,810.1,199z"/>
<g>
	<polygon class="st0" points="222.5,141.4 222.8,152.7 173.5,122.8 	"/>
	<polygon class="st2" points="218.6,149 213.1,161.4 173.6,122.8 	"/>
	<polygon class="st1" points="222.8,152.7 217.6,151.7 218.6,149 	"/>
	<polygon class="st2" points="222.5,141.4 230.4,130.9 173.6,122.8 	"/>
</g>
<path class="st2" d="M228.9,220.9l-0.1-0.1l0.6-0.6l0.1,0.1c0.4,0.4,0.9,0.8,1.3,1.2l-0.4,0.6C229.8,221.8,229.3,221.4,228.9,220.9z
	 M226.6,218.1c-0.4-0.6-0.7-1.2-1-1.8l0.7-0.3c0.3,0.6,0.7,1.2,1,1.7L226.6,218.1z M233.2,223.9l0.3-0.7c0.6,0.2,1.2,0.4,1.9,0.6
	l-0.2,0.7C234.5,224.4,233.9,224.2,233.2,223.9z M224.2,213.2c-0.2-0.7-0.4-1.3-0.6-2l0.7-0.2c0.2,0.7,0.4,1.3,0.6,1.9L224.2,213.2z
	 M238.6,224.8l0-0.7c0.7,0,1.3-0.1,1.9-0.3l0.2,0.7C240,224.7,239.3,224.8,238.6,224.8z M223,207.9c-0.1-0.7-0.1-1.3-0.2-2l0.7,0
	c0,0.7,0.1,1.3,0.2,2L223,207.9z M222.8,202.5c0-0.7,0.1-1.4,0.2-2l0.8,0.1c-0.1,0.7-0.1,1.3-0.2,2L222.8,202.5z M243.9,223.4
	l-0.3-0.7c0.6-0.3,1.2-0.6,1.7-0.9l0.4,0.7C245.2,222.8,244.5,223.1,243.9,223.4z M223.7,197.1c0.2-0.7,0.4-1.3,0.6-2l0.7,0.2
	c-0.2,0.6-0.4,1.2-0.6,1.9L223.7,197.1z M248.5,220.4l-0.5-0.6c0.3-0.2,0.6-0.5,0.9-0.8c0.2-0.2,0.4-0.4,0.6-0.6l0.5,0.6
	c-0.2,0.2-0.4,0.4-0.7,0.6C249.1,219.9,248.8,220.2,248.5,220.4z M290.8,257.3l0.5-0.6c0.5,0.4,1,0.8,1.6,1.2l-0.4,0.6
	C291.8,258.2,291.3,257.8,290.8,257.3z M225.7,192c0.3-0.6,0.7-1.2,1-1.8l0.7,0.4c-0.3,0.6-0.7,1.1-1,1.7L225.7,192z M288.5,254.8
	c-0.4-0.6-0.8-1.2-1-1.8l0.7-0.3c0.3,0.6,0.6,1.1,1,1.7L288.5,254.8z M295.4,260.3l0.3-0.7c0.6,0.3,1.2,0.5,1.9,0.8l-0.2,0.7
	C296.6,260.8,296,260.5,295.4,260.3z M251.7,216.1c0.4-0.6,0.8-1,1.1-1.6l0.6,0.4c-0.4,0.6-0.8,1.1-1.2,1.7L251.7,216.1z
	 M265.6,228.9l0.5-0.5c0.5,0.5,1,0.9,1.5,1.3l-0.4,0.6C266.7,229.9,266.1,229.4,265.6,228.9z M286.5,249.6c-0.1-0.7-0.1-1.4,0-2.1
	l0.8,0.1c-0.1,0.7-0.1,1.3,0,2L286.5,249.6z M263.4,226.3c-0.4-0.6-0.7-1.2-1-1.8l0.7-0.3c0.3,0.6,0.7,1.2,1,1.7L263.4,226.3z
	 M270.1,232.1l0.3-0.7c0.6,0.3,1.2,0.6,1.9,0.7l-0.2,0.7C271.4,232.6,270.8,232.3,270.1,232.1z M300.5,262l0.2-0.7
	c0.7,0.2,1.3,0.3,2,0.4l-0.1,0.7C301.8,262.4,301.2,262.2,300.5,262z M261.1,221.4c-0.2-0.7-0.3-1.3-0.4-2l0.7-0.1
	c0.1,0.7,0.2,1.3,0.4,1.9L261.1,221.4z M228.6,187.5c0.4-0.6,0.9-1,1.3-1.6l0.6,0.5c-0.4,0.5-0.9,1-1.3,1.5L228.6,187.5z
	 M275.4,233.5l0.1-0.8c0.7,0.1,1.3,0.1,2,0l0,0.7C276.8,233.7,276.1,233.6,275.4,233.5z M254.4,211.6c0.2-0.6,0.5-1.2,0.7-1.9
	l0.7,0.2c-0.2,0.7-0.5,1.3-0.8,1.9L254.4,211.6z M305.9,263l0.1-0.8c0.7,0.1,1.3,0.1,2,0.1l0,0.8C307.2,263.1,306.6,263,305.9,263z
	 M287.2,244.2c0.2-0.6,0.4-1.3,0.8-1.9l0.7,0.3c-0.3,0.6-0.5,1.2-0.7,1.9L287.2,244.2z M260.4,216c0-0.7,0-1.3,0.1-2l0.8,0.1
	c-0.1,0.7-0.1,1.3-0.1,2L260.4,216z M280.9,232.9l-0.2-0.7c0.6-0.2,1.2-0.6,1.7-0.9l0.4,0.6C282.2,232.3,281.5,232.6,280.9,232.9z
	 M311.3,263l-0.1-0.8c0.6-0.1,1.3-0.2,1.9-0.4l0.2,0.7C312.7,262.8,312,263,311.3,263z M232.9,184.1l-0.5-0.6c0.5-0.4,1-0.9,1.6-1.3
	l0.4,0.6C233.9,183.3,233.4,183.7,232.9,184.1z M256,206.5c0.1-0.7,0.2-1.3,0.3-2l0.7,0.1c-0.1,0.7-0.2,1.4-0.3,2L256,206.5z
	 M289.6,239.3c0.3-0.6,0.7-1.1,1.2-1.7l0.6,0.4c-0.4,0.6-0.8,1.1-1.1,1.6L289.6,239.3z M261.1,210.6c0.1-0.7,0.3-1.3,0.5-2l0.7,0.2
	c-0.2,0.7-0.4,1.3-0.5,1.9L261.1,210.6z M256.5,201.3c0-0.7,0-1.3-0.1-2l0.8-0.1c0,0.7,0.1,1.4,0.1,2L256.5,201.3z M316.4,261.1
	l-0.4-0.6c0.5-0.3,1-0.8,1.6-1.2l0.5,0.6C317.5,260.3,317,260.7,316.4,261.1z M284.6,229c0.4-0.5,0.9-1,1.3-1.6l0.6,0.4
	c-0.4,0.5-0.9,1-1.3,1.6L284.6,229z M237.2,181l-0.4-0.7c0.6-0.3,1.2-0.7,1.8-1l0.3,0.7C238.3,180.4,237.7,180.7,237.2,181z
	 M262.7,205.4c0.1-0.1,0.1-0.3,0.2-0.4c0.2-0.5,0.4-1,0.7-1.4l0.7,0.3c-0.2,0.4-0.4,0.9-0.6,1.4c-0.1,0.1-0.1,0.3-0.2,0.4
	L262.7,205.4z M292.9,235c0.4-0.4,0.8-0.9,1.2-1.4l0.1-0.1l0.6,0.5l-0.1,0.1c-0.4,0.4-0.8,0.9-1.2,1.3L292.9,235z M255.9,196
	c-0.1-0.7-0.2-1.3-0.4-2l0.7-0.2c0.1,0.7,0.3,1.3,0.4,2L255.9,196z M320,256.9c0.4-0.5,0.8-1,1.2-1.6l0.6,0.4
	c-0.4,0.6-0.8,1.1-1.3,1.6L320,256.9z M287.9,224.8c0.4-0.6,0.8-1.1,1.1-1.7l0.7,0.4c-0.3,0.6-0.7,1.1-1.1,1.7L287.9,224.8z
	 M241.9,178.7l-0.2-0.7c0.6-0.2,1.3-0.5,1.9-0.7l0.2,0.7C243.2,178.2,242.6,178.5,241.9,178.7z M254.7,190.8
	c-0.2-0.6-0.4-1.3-0.6-1.9l0.7-0.2c0.2,0.7,0.4,1.3,0.6,2L254.7,190.8z M265.2,200.6c0.4-0.6,0.8-1.1,1.2-1.7l0.6,0.4
	c-0.4,0.5-0.8,1-1.2,1.6L265.2,200.6z M297.3,231.9l-0.4-0.6c0.6-0.3,1.2-0.7,1.8-1l0.3,0.7C298.4,231.2,297.8,231.5,297.3,231.9z
	 M326.9,260.2c0.4-0.6,0.8-1.1,1.2-1.6l0.6,0.4c-0.4,0.6-0.8,1.1-1.2,1.7L326.9,260.2z M252.9,185.8c-0.2-0.6-0.6-1.2-0.8-1.8
	l0.7-0.3c0.3,0.6,0.6,1.2,0.8,1.9L252.9,185.8z M250.7,180.9c-0.3-0.6-0.6-1.2-0.9-1.8l0.7-0.4c0.3,0.6,0.7,1.2,1,1.8L250.7,180.9z
	 M247,177.1l-0.2-0.7c0.4-0.1,0.7-0.2,1.1-0.2c-0.3-0.5-0.7-1-1-1.6l0.6-0.4c0.4,0.6,0.7,1.2,1.1,1.7l-0.2,0.1
	c0.1,0,0.3-0.1,0.4-0.1l0.1,0.7C248.3,176.8,247.7,176.9,247,177.1z M290.6,220.2c0.3-0.6,0.6-1.2,0.8-1.8l0.7,0.3
	c-0.3,0.6-0.6,1.2-0.9,1.9L290.6,220.2z M323.1,252.6c0.3-0.6,0.7-1.1,1-1.7l0.7,0.3c-0.3,0.6-0.7,1.2-1,1.8L323.1,252.6z
	 M269.2,197l-0.5-0.6c0.5-0.4,1-0.9,1.6-1.3l0.4,0.6C270.3,196.1,269.7,196.5,269.2,197z M302.1,229.8l-0.2-0.7
	c0.7-0.2,1.3-0.3,2-0.5l0.1,0.7C303.4,229.4,302.7,229.6,302.1,229.8z M228.5,155.6l0.3-0.7c0.6,0.3,1.2,0.7,1.8,1l-0.4,0.6
	C229.6,156.3,229,155.9,228.5,155.6z M245.1,171.8c-0.4-0.6-0.8-1.1-1.2-1.6l0.6-0.4c0.4,0.6,0.8,1.1,1.2,1.6L245.1,171.8z
	 M329.7,255.7c0.3-0.6,0.6-1.2,0.9-1.8l0.7,0.3c-0.3,0.6-0.6,1.2-0.9,1.8L329.7,255.7z M241.8,167.6c-0.4-0.5-0.9-1-1.3-1.6l0.6-0.5
	c0.4,0.5,0.9,1,1.3,1.6L241.8,167.6z M232.9,158.6l0.4-0.6c0.5,0.4,1,0.9,1.6,1.3l-0.5,0.6C233.9,159.4,233.4,159,232.9,158.6z
	 M238.3,163.5c-0.4-0.5-0.9-1-1.4-1.4l0.5-0.5c0.5,0.5,0.9,0.9,1.4,1.4L238.3,163.5z M252.3,176.2l-0.1-0.8c0.7-0.1,1.3-0.1,2-0.1
	l0,0.8C253.6,176.1,252.9,176.2,252.3,176.2z M292.6,215.3c0.2-0.6,0.3-1.3,0.5-1.9l0.7,0.2c-0.1,0.7-0.3,1.3-0.5,2L292.6,215.3z
	 M325.5,247.9c0.2-0.6,0.5-1.2,0.7-1.9l0.7,0.2c-0.2,0.6-0.5,1.3-0.7,1.9L325.5,247.9z M307.3,228.9l0-0.7c0.7-0.1,1.3-0.1,2-0.1
	v0.7C308.7,228.9,308,228.9,307.3,228.9z M273.6,194l-0.3-0.7c0.6-0.3,1.2-0.6,1.9-0.8l0.2,0.7C274.8,193.5,274.2,193.8,273.6,194z
	 M331.8,250.9c0.2-0.7,0.3-1.3,0.5-1.9l0.7,0.1c-0.1,0.7-0.3,1.3-0.5,2L331.8,250.9z M257.6,176.1l0-0.8c0.7,0,1.3,0.1,2,0.1
	l-0.1,0.8C258.9,176.2,258.2,176.2,257.6,176.1z M293.6,210.1c0.1-0.7,0.1-1.3,0.1-2l0.8,0c0,0.7,0,1.4-0.1,2L293.6,210.1z
	 M312.6,229l0.1-0.7c0.7,0.1,1.3,0.1,2,0.3l-0.1,0.7C313.9,229.2,313.3,229.1,312.6,229z M327.2,242.9c0.2-0.7,0.3-1.3,0.5-1.9
	l0.7,0.2c-0.1,0.7-0.3,1.3-0.5,2L327.2,242.9z M262.9,176.7l0.1-0.7c0.7,0.1,1.3,0.2,2,0.4l-0.2,0.7
	C264.2,176.9,263.5,176.8,262.9,176.7z M278.6,192.4l-0.1-0.7c0.7-0.1,1.3-0.2,2-0.3l0.1,0.7C279.9,192.2,279.2,192.3,278.6,192.4z
	 M332.5,245.7c0-0.7-0.1-1.3-0.2-2l0.7-0.1c0.1,0.7,0.2,1.4,0.2,2.1L332.5,245.7z M317.8,230l0.2-0.7c0.7,0.2,1.3,0.4,2,0.6
	l-0.2,0.7C319.1,230.4,318.5,230.2,317.8,230z M293.6,204.8c-0.1-0.7-0.2-1.3-0.3-2l0.7-0.1c0.1,0.7,0.2,1.3,0.3,2L293.6,204.8z
	 M268,177.9l0.2-0.7c0.6,0.2,1.3,0.4,1.9,0.7l-0.2,0.7C269.3,178.3,268.7,178.1,268,177.9z M328.3,237.6c0.1-0.5,0.1-1,0.2-1.6
	c-0.4-0.4-0.8-0.8-1.3-1.2l0.5-0.6c0.5,0.4,1,0.9,1.4,1.4h0.1c-0.1,0.7-0.1,1.3-0.2,2L328.3,237.6z M322.8,232l0.3-0.7
	c0.6,0.3,1.2,0.7,1.8,1l-0.4,0.7C324,232.6,323.4,232.3,322.8,232z M331.5,240.6c-0.2-0.6-0.6-1.2-0.9-1.8l0.7-0.4
	c0.3,0.6,0.7,1.2,0.9,1.9L331.5,240.6z M283.9,192l0-0.8c0.7,0,1.3,0.1,2,0.1l-0.1,0.8C285.2,192,284.5,192,283.9,192z M292.5,199.7
	c-0.2-0.6-0.4-1.2-0.7-1.9l0.7-0.3c0.2,0.7,0.5,1.3,0.7,1.9L292.5,199.7z M273,179.8l0.3-0.7c0.6,0.3,1.2,0.6,1.8,0.9l-0.3,0.7
	C274.2,180.3,273.6,180.1,273,179.8z M290.3,194.9c-0.3-0.6-0.7-1.1-1-1.7l0.6-0.4c0.4,0.6,0.7,1.2,1,1.7L290.3,194.9z M277.8,182.3
	l0.4-0.7c0.6,0.4,1.2,0.7,1.7,1.1l-0.4,0.6C278.9,183,278.3,182.6,277.8,182.3z M328.6,232.3c0-0.7,0-1.3-0.1-2l0.8,0
	c0,0.7,0.1,1.3,0,2L328.6,232.3z M289.2,192.5l0.1-0.7c0.7,0.1,1.3,0.2,2,0.4l-0.2,0.7C290.4,192.8,289.8,192.6,289.2,192.5z
	 M282.1,185.3l0.4-0.6c0.5,0.4,1,0.9,1.6,1.3l-0.5,0.6C283.1,186.2,282.6,185.8,282.1,185.3z M287.3,190.5c-0.4-0.5-0.9-1-1.3-1.5
	l0.6-0.5c0.4,0.5,0.9,1,1.3,1.6L287.3,190.5z M294.3,193.8l0.2-0.7c0.6,0.2,1.3,0.4,1.9,0.7l-0.2,0.7
	C295.6,194.2,294.9,194,294.3,193.8z M328.3,227c-0.1-0.7-0.2-1.3-0.3-2l0.7-0.1c0.1,0.7,0.2,1.3,0.3,2L328.3,227z M299.3,195.7
	l0.3-0.7c0.6,0.2,1.2,0.6,1.9,0.8l-0.3,0.7C300.5,196.2,299.9,195.9,299.3,195.7z M327.1,221.9c-0.2-0.6-0.4-1.3-0.7-1.9l0.7-0.2
	c0.2,0.6,0.5,1.3,0.7,1.9L327.1,221.9z M304.1,198l0.3-0.7c0.6,0.3,1.2,0.7,1.8,1l-0.4,0.7C305.3,198.6,304.7,198.3,304.1,198z
	 M308.7,200.7l0.4-0.6c0.6,0.4,1.1,0.8,1.7,1.1l-0.4,0.6C309.8,201.5,309.3,201.1,308.7,200.7z M325.1,217c-0.3-0.6-0.6-1.2-1-1.7
	l0.7-0.4c0.4,0.6,0.7,1.2,1,1.8L325.1,217z M313.1,203.8l0.4-0.6c0.6,0.4,1.1,0.8,1.6,1.2l-0.4,0.6
	C314.1,204.6,313.7,204.2,313.1,203.8z M322.3,212.5c-0.4-0.6-0.8-1-1.2-1.6l0.6-0.5c0.4,0.5,0.9,1,1.3,1.6L322.3,212.5z
	 M317.2,207.2l0.5-0.6c0.5,0.4,1,0.9,1.5,1.4l-0.5,0.6C318.2,208,317.8,207.6,317.2,207.2z"/>
<circle class="st3" cx="550.8" cy="384.5" r="292.4"/>
<path class="st4" d="M648.8,108.9C618.2,98,585.2,92,550.8,92c-40.7,0-79.5,8.3-114.7,23.4c-0.1,9.1-0.7,18.3-1.9,27.5
	c-11.6,95-90,153.3-141.6,231.5c-16,23.6-24.6,49.2-26.9,75.2c6.1,26.7,15.8,52,28.7,75.4c2.4-13.5,8.1-26.9,16.6-39
	c63.3-93.3,163.3-114.9,253.2-161.6c50-26.7,88.3-73.3,93.3-129.9C660.3,165.4,657,136.4,648.8,108.9"/>
<path class="st5" d="M597.4,544.4c-84.1-9.2-202-29.6-259.4,40.7c53.3,56.5,128.9,91.8,212.7,91.8c111.5,0,208.4-62.4,257.7-154.2
	C746.6,552.5,666.9,551,597.4,544.4"/>
<path class="st6" d="M648.8,108.9c8.2,27.6,11.4,56.5,8.5,85.7c-5,56.6-43.3,103.3-93.3,129.9c-90,46.7-189.9,68.3-253.2,161.6
	c-8.6,12-14.2,25.4-16.6,39c12,21.9,26.8,42,43.8,60.1c57.4-70.3,175.2-49.9,259.4-40.7c69.5,6.6,149.2,8.1,211.1-21.6
	c22.2-41.2,34.7-88.3,34.7-138.3C843.2,257.4,762.1,149.2,648.8,108.9"/>
<path class="st7" d="M434.2,142.9c1.2-9.2,1.8-18.4,1.9-27.5C331.6,160,258.3,263.7,258.3,384.5c0,22.4,2.5,44.2,7.3,65.2
	c2.3-26,11-51.6,27-75.2C344.2,296.2,422.5,237.9,434.2,142.9"/>
<g>
	<g>
		<defs>
			<circle id="SVGID_1_" cx="550.8" cy="384.5" r="292.4"/>
		</defs>
		<clipPath id="SVGID_00000128460588285242156740000007045905862508460430_">
			<use xlink:href="#SVGID_1_"  style="overflow:visible;"/>
		</clipPath>
		<g style="clip-path:url(#SVGID_00000128460588285242156740000007045905862508460430_);">
			<path class="st9" d="M400.5,143.1c-0.4-3.1-1.2-6.2-2.4-9.1c-0.3-1.1-1.1-2.1-2.1-2.6c-0.7-0.2-1.4-0.2-2.1,0l-10.7,1.7
				c-0.9,0-1.8,0.4-2.4,1c-1.4,1.5,0,3.8-0.1,5.9c0,2.3-2.1,4.1-4.3,4.8c-2.2,0.4-4.5,0.4-6.8-0.1l-15-2.3c4.4-1.4,8.3-4,11.3-7.6
				c2-2.3,3-6.7,0.2-7.8c-0.9-0.2-1.7-0.3-2.6-0.2c-6.8,0.1-12.1-5.6-18.5-8c-8.3-2.9-17.6-0.2-23,6.9l8,0.4c0.8,0,1.5,0.2,2.1,0.6
				c1.8,1.4-0.4,4.2-0.2,6.4c0.3,2.9,4.2,3.5,7.1,3.9c2.9,0.3,6.7,2.7,5.2,5.3c-14.7,5.1-29.7-9.9-45.1-8.1c-3.9,0.5-7.6,2-11.4,3
				c-23.3,5.9-47.4-9.9-71.3-6.5c-5.3,0.9-10.5,2.3-15.6,4.1c-3.2,1.1-6.6,2.2-9,4.7c-2.4,2.5-3.2,6.7-1,9.3
				c-6.2,0.5-12.3-0.1-18.3-1.7c3.3,1.8,5.3,5.3,5.3,9c-9.6,1.6-19,4.4-27.8,8.5c1.7,2.8,3.6,5.3,5.8,7.7l-12.1,7.8
				c4.1,1,6.2,6.7,3.9,10.1c4.3-1.9,6.9-6.8,11.5-7.8c3-0.7,6,0.6,8.9,1.7c2.8,1.1,6,2.3,8.9,1.4c2.9-0.9,5.1-4.7,3.2-7.1
				c12.5-3.7,25.5-5.7,38.5-6c1-0.1,2,0.1,2.9,0.6c1.7,1.2,1.2,3.7,1.2,5.8c-0.1,2.1,1.5,4.8,3.4,3.9c-2.2,1.9-0.3,5.4,1.8,7.4
				c2.1,2,4.6,4.7,3.3,7.3c-0.3,0.7-0.9,1.2-1.2,1.9c-0.9,2,0.6,4.3,2.3,5.7c1.8,1.3,3.9,2.3,5.2,4.1c1.2,1.8,0.7,5.1-1.5,5.3
				l-6.2-7.9c-2.1,2.2-3.6,5-4.2,8c6.6,5.4,7.6,16.4,2.1,23c-2.8,3.3-6.9,5.3-10.4,8c-3.5,2.6-6.8,6.3-6.8,10.7
				c0,7.5-0.6,14.6,2.2,21.6c5.2,12.9,11.3,25.5,18.1,37.7c1.8,3.2,4.1,6.7,7.7,7.2c-4.6-11.1-8.7-22.4-12.3-33.9
				c2.4,0,5.1,0.2,6.5,2.1c1.2,1.6,0.9,3.8,1.3,5.7c0.4,1.9,1.2,3.7,2.3,5.3l21.8,38.9c1.8,3.2,3.9,6.7,7.3,8
				c2.2,0.8,4.8,0.7,6.8,1.9c1.6,0.9,2.7,2.6,4.3,3.5c4.6,2.5,11-2.3,15.3,0.7c1.2,0.9,2,2.2,3.1,3.2c4,3.4,10.5,1.1,15.1,3.7
				c3,1.7,4.5,5,6.1,8c4,7.5,10.3,14.9,18.8,15.5c2.7,0.2,5.4-0.3,8,0.3c2.6,0.6,5.2,2.9,4.7,5.5c-0.7,4.5,1.5,9.4,0.9,14
				c-1.1,8.2-12.8,11.9-13.8,20.1c-0.2,1.8,0.1,3.7-0.3,5.4c-0.5,2.2-2.2,3.9-2.7,6.1c-1.1,4.1,1.8,8.2,5,10.9
				c3.2,2.7,7.1,5.1,8.8,9c1.9,4.1,0.9,8.8,1.6,13.2c1.3,9.7,9.7,16.8,18.3,21.5c2.6,1.4,5.4,2.8,7.1,5.2c2.2,3.2,2,7.4,2.7,11.2
				c1.8,9.3,9.7,17,9.9,26.5c0.2,6.8-3.6,12.9-5.8,19.3c-4.3,12.4-2.9,25.9,3.7,37.2c1.7,2.8,3.7,5.5,4.9,8.6
				c2.1,5.5,1.4,11.7,3.4,17.3c2.6,7.3,9.7,13.4,9,21.1c3.2,6.7,10.3,10,17.5,12l12.8,3.6c2.4,0.7,5,1.4,7.5,0.9s4.9-2.6,4.8-5.1
				c-6.3-1.4-12.8-2.9-18-6.8c-5.2-3.8-8.7-10.6-6.8-16.8c0.9-2.9,2.9-6.1,1-8.5c-1.1-1.3-3-1.7-4.2-2.9c-1.9-1.9-1.2-5.1,0.1-7.4
				c1.3-2.3,3.3-4.4,3.8-7c0.6-3-0.8-6-3.4-7.6c2.4-0.9,4.5-2.3,6.3-4.1c1.7-1.9,2.4-4.9,1.1-7c3.9,0.5,8.5,0.7,11.1-2.2
				c2-2.4,1.9-5.9,1.1-9c-0.8-3-2.2-6-2.2-9.1c9,0.4,18,0.1,26.9-0.9c-1.3-4.3-4.2-8-8.2-10.3c4.1-0.7,7.8-5.5,9-9.4
				c1.3-3.9,1-8.2,0.2-12.2c-0.3-1-0.3-2.1-0.1-3.2c0.4-1.4,1.9-2.3,3.2-3.1l20.1-11.5c1.2-0.6,2.3-1.4,3.2-2.4
				c2.1-2.5,1.8-6.2,0.7-9.3c-1.1-3.1-2.8-6-3.2-9.2c-1.2-9.6,9.1-16.5,12.5-25.6c1.4-3.5,1.7-7.4,1.9-11.2
				c0.3-4.1,0.3-8.8-2.8-11.5c-3-2.5-7.7-2-10.9-4.3c-2.9-2.1-3.9-6.3-7-8.1c-2.9-1.6-6.4-0.6-9.6-1.3c-5.6-1.3-9.1-7.8-14.9-8.4
				c-3.2-0.3-6.9,1.2-9.5-0.7c-2.3-1.7-2.4-5-2.9-7.8c-1.6-9-8.6-16.1-17.6-17.7c-3.3-0.5-7-0.3-9.8-2.2c-2.9-1.9-4.2-5.3-6.4-7.9
				c-3.6-4.1-9.3-5.6-14.7-6.9l-21.8-5.1c-3.9-0.9-8.9-1.4-10.9,2c-0.6,1.3-1,2.7-1.3,4.1c-1.6,5.2-6.4,8.8-11.9,8.9
				c-1.8-3.1-4.8-5.4-8.3-6.4c-2.2-0.6-4.6-0.7-6.7-1.6c-4.7-2.3-6.6-7.9-4.3-12.5c0.1-0.2,0.2-0.3,0.2-0.5c2.6-4.6,1.8-10.4-2-14.1
				c-3.7-3.3-9.1-4.1-14-3.8c-1.3-2.8,0.9-6,3.2-8.1c2.3-2.1,5.2-4.1,5.7-7.2c0.8-4.9-5.4-8.5-10.1-7.1c-4.7,1.4-7.7,6-9.7,10.5
				c-1.1,2.6-2.1,5.3-3.9,7.5c-1.8,2.2-4.7,3.7-7.4,3c-3.9-1-5.4-5.6-6.2-9.5c-1.1-5.2-2.3-10.5-2.1-15.9c0.2-5.3,2-10.9,6-14.5
				c6.4-5.9,16.3-5.3,25-4.4c-2-2.3-1.6-6.2,0.7-8.4c2.3-2.1,5.6-2.9,8.6-2.1c2.6,0.6,5,2,6.7,4c2.5,3,3.2,7.1,5,10.5
				s6.1,6.3,9.5,4.5c3-1.6,3.4-5.7,2.7-9c-0.8-3.3-2.3-6.5-2-9.8c0.5-6.4,7.1-10.2,13-12.9s12.5-6.2,13.5-12.5
				c0-1.2,0.3-2.5,0.7-3.7c0.7-1,1.6-1.9,2.6-2.4c17.1-11.3,34.4-22.7,53.9-28.8c1-0.3,1.1,0,2.2-0.2c1.4-0.8,0.5-3.1-0.9-4.1
				c-1.4-0.9-3.2-1.7-3.6-3.3c-0.3-1.2,0.4-2.4,0.6-3.6c0.4-3-3.1-5.8-5.9-4.5c-1.6-2.1,1.5-4.5,4-5.2c7.5-2.1,15.2-3.3,23-3.8
				c0.9-0.1,1.8,0,2.6,0.4c1.3,0.9,1.1,3,0.2,4.3c-0.9,1.3-2.4,2.1-3.5,3.2c-2.6,2.5-3.5,6.2-2.5,9.7c4.1,2.1,8.5,4.2,13,3.5
				c4.5-0.7,8.5-5.8,6.4-9.8c-2-3.8-7.9-4.6-8.9-8.8c-1.2-4.8,5.7-9.1,4.1-13.9c-0.7-2.1-2.8-3.3-4.3-4.8c-3.8-3.8-5-9.5-2.8-14.4
				c-5.2,0.9-10.6-0.8-14.4-4.5c-3.4-3.5-6.2-9-11.1-8.8c-4.5,0.1-8.3,5.4-12.5,3.8c-1-0.4-2.1-1.2-3.1-0.7
				c-0.7,0.4-1.1,1.1-1.2,1.9c-1.1,5.1,0.8,10.9-2,15.3c-3,4.8-10,5.4-13.6,9.8c-2,2.3-2.8,5.5-4.6,8c-1.8,2.5-5.7,4-7.9,1.9
				c2.2-4.5,1-10.1-3-13.2c-2-1.3-4.2-2.4-6.5-3.2c-2.6-1.1-5-2.4-7.3-4.1c-1.1-0.7-2.1-1.7-2.7-2.9c-0.5-1.5-0.4-3.1,0.2-4.5
				c2.3-6.5,7.9-11.2,14.7-12.2c2.9-0.4,6.3-0.2,8.2-2.5c1-1.2,1.6-3,3-3.4c1-0.2,1.9-0.1,2.8,0.3l10.9,3.8c1.2,0.6,2.5,0.8,3.9,0.7
				c1.4-0.2,2.3-1.4,2.3-2.8c-0.3-1.8-3.1-2.7-2.9-4.5c0.1-0.6,0.4-1.1,0.9-1.5c8-8.5,19.3-13,30.9-12.2c1.4,2.3-0.8,4.9-2.6,6.9
				c-1.8,1.9-3.3,5.4-1.1,6.9c0.9,0.4,1.9,0.7,2.9,0.7c2.7,0.4,5.3,1.1,7.7,2.3c3.8,1.7,7.4,3.4,11.1,5.4c-0.3-2.4-0.6-4.9,0.3-7.1
				c0.9-2.2,3.5-4,5.7-3.1c2.2,0.8,3.3,3.7,5.6,4c3.1,0.3,4.3-4.2,3-7c-1.3-2.8-3.8-5.2-4-8.3c-0.1-2.1,0.7-4.7-1-5.9
				c-0.6-0.4-1.3-0.6-2-0.7l-41.6-7.6c-2.5-0.4-6-0.1-6.1,2.4c-0.1,1.4,1.2,2.8,0.6,4.1c-0.6,1.4-2.5,1.2-3.9,1.7
				c-2.2,0.8-3.3,3.3-3.1,5.7c0.4,2.3,1.3,4.5,2.6,6.4C407.2,144.5,403.1,144.3,400.5,143.1z"/>
			<path class="st9" d="M367.3,107.9c-5.4-1.8-11.3,0-14.8,4.4c-0.7,0.9-1.3,2.1-0.7,3.1c0.8,1.4,2.9,0.9,4.4,0.3
				c2.3-0.8,4.7-0.9,7-0.2c1.4,0.5,2.8,1.4,4.2,1.9c1.4,0.6,3.1,0.3,4.3-0.6c1-1,1.1-2.6,1.1-4c0.1-1-0.2-1.9-0.8-2.7
				c-0.6-0.3-1.2-0.5-1.9-0.6c-1.5-0.3-2.9-1.1-3.9-2.2"/>
			<path class="st9" d="M382.3,103.7c-1.9-0.1-3.5,1.3-3.6,3.2c0,0.6,0.1,1.1,0.3,1.6c1.8,0.5,3.7,0.6,5.5,0.3
				c1.9-0.3,3.4-1.7,3.9-3.5c-2.2,0.4-4.4,0-6.3-1.2"/>
			<path class="st9" d="M432.5,96.7c-4.9,1-9.6,2.7-14.2,4.8c4.4,1.7,7.1,6,6.8,10.7c-0.2,0.9-0.2,1.8,0.1,2.7
				c0.5,1.3,2,1.7,3.3,2.1c2.4,0.7,4.9,1,7.4,0.9c2.5-0.1,4.8-1.5,6.1-3.7c0.3-1,0.8-2,1.3-3c3.2-4.9,12.6,1,16.1-3.7
				c1.2-1.7,1.1-4.1,2.7-5.4c0.8-0.6,1.8-0.9,2.7-1c6.9-1.4,13.8-2.3,20.8-3c3.3-0.3,7.6-1.5,7.6-4.8c-12.4-2.4-25.4-0.7-36.7,4.9
				c-4.1,2-9.5,6.4-13.4,3.7c-1.5-1-1.4-3.8-3.4-4.9C437.5,95.8,434.7,96.3,432.5,96.7z"/>
			<path class="st9" d="M473.2,104.3l5.9,1.1c-4.2-0.2-7.7,3.1-7.9,7.2c0,0.3,0,0.7,0,1c5.5,1.8,11.4,0,17.2,0.3
				c5.8,0.2,12.5,4.4,11.5,10.1c-0.3,1.7-1.3,3.4-0.8,5.1c0.4,1.2,1.4,2,2,3.1c1.2,2.2,0.2,5.1-1.3,7.1c-1.5,2-3.6,3.7-4.9,5.8
				c-3.3,5.4-1.4,12.3,0.6,18.4c0.6,2.3,1.7,4.4,3.1,6.2c3,3.1,7.8,3.4,12.1,3.5c3.1,0,6.7-0.1,8.7-2.5c2.6-3.2,0.8-8.1,2.5-11.8
				c1.6-3.4,5.5-4.8,9.1-5.9c6.5-1.9,13.2-3.5,19.4-6.3c7.7-3.5,14.9-9,23.3-9.5c2.4-0.1,4.8,0.1,7.1-0.5c2.3-0.6,4.4-2.6,4.3-5
				c-0.1-2-1.9-3.5-3.2-5c-1.3-1.5-2.4-3.9-1.2-5.5l22.1-4.1c-1.6-4.3-2.8-9.9,0.8-12.7c1.3-1,3-1.4,4.1-2.6
				c1.9-2.1,0.9-5.6-1.2-7.4s-5.1-2.2-7.9-2.4c-9.7-0.8-19.4-0.3-29.2,0.3c-19,1-38,2.1-57,3.1c-3.8,0.2-8.2-0.1-11.7,1.2
				c-3,1.1-5.1,3.1-8.5,3.8C485.8,101.7,478.9,100.8,473.2,104.3z"/>
			<path class="st9" d="M567,195.3c-0.6-0.1-1.2,0-1.7,0.4c-0.3,0.3-0.5,0.8-0.6,1.3c-0.4,2.1,0.1,4.4,1.3,6.2
				c1.2,1.8,3.3,2.9,5.5,2.7c2.6-0.3,4.6-2.6,7-3.7c3.7-1.7,19.6-4.3,8.6-10.2c-3.8-2-6.2-0.2-9.2,1.1
				C574.6,194.8,570.8,195.6,567,195.3z"/>
			<path class="st9" d="M663,145.8c-1.3,0.5-2.3,1.4-3,2.7c-0.7,1.3-0.2,2.8,1,3.5c0.5,0.2,1,0.2,1.5,0.2l5.2,0.2
				c2.2,0.1,5,0.6,5.5,2.7c0.4,1.6-0.6,3.6,0.7,4.8c0.5,0.4,1.1,0.6,1.8,0.7c1.7,0.4,3.5,0.5,5.2,0.2c3.8-1,1.8-3.3,3-5.4
				c1.8-3.1,1.5-1.2,4.7-3c2.4-1.3,5.4-3.8,3.4-7.1C688.5,139.2,668,143.3,663,145.8z"/>
			<path class="st9" d="M765.6,161.5l-3,0.4c-6.8,0.9-13.6,1.8-20.2,3.9c2.8,1.1,5.8,1.9,8.9,2.2c1.7,0.1,3.3,0.3,5,0.7
				c2.9,0.9,5.8,3.1,8.6,2c1.7-0.7,2.3-2.5,3.7-3.5c1-0.7,4.8-1.7,5.2-2.4C777.1,159.3,768.2,161.1,765.6,161.5z"/>
			<path class="st9" d="M778.9,156.6c-4,2.2-7.8,5-11.1,8.2c-1.4,1.3-2.9,3-2.7,4.9c0.2,2.6,2.9,4.1,5.3,5.1l9.6,4.1
				c1.2-1.7,0.1-3.9-1.1-5.5c-1.2-1.6-2.7-3.5-2.1-5.4c0.6-2.2,3.3-3,5.6-3.4c3.7-0.6,13.7-0.6,12.5-6.5
				C793.4,150.9,782.6,154.5,778.9,156.6z"/>
			<path class="st9" d="M793.5,572.4c-0.9,2.7-1,5.8,0.6,8.1c1.8,2.6,5.3,3.6,8.4,2.9c3.1-0.8,5.8-2.6,7.8-5
				c1.9-2.1,3.4-4.4,4.5-6.9c1.6-3.9,2.7-8,3.3-12.2l3-15.7c0.7-3.5,0.7-14.3-5.8-10.8c-1.8,1-5.9,8.5-7.7,10.7
				c-3.3,3.9-3.8,7.6-5.5,12.3C800,561.6,795.6,566.5,793.5,572.4z"/>
			<path class="st9" d="M1118.3,654.4c-2.1-0.8-4.2-1.8-6.1-2.9c-2,5.4-3,11.2-3.1,17l14.5-8.2c2.2-1.2,4.7-2.9,4.6-5.4
				c0-0.6-0.3-1.2-0.8-1.6c-0.3-0.1-0.7-0.2-1-0.1c-2.1,0.2-4.1,1.2-6.1,2c-2,0.7-4.4,1.1-6.2,0"/>
			<path class="st9" d="M1194.6,659.3c-1.6,0.4-3.1,1-4.7,1.7c-3.3,1.7-5.6,4.9-8.6,7.1c-2.9,2.1-6.3,3.3-9.7,4.4
				c-1,0.9-0.6,2.7,0.6,3.4c1.2,0.7,2.5,1,3.8,0.9c3.5,0.1,7.2,0.1,10.3-1.6c1.7-1.1,3.3-2.4,4.9-3.9c3.6-3,7.9-5,12.2-6.9
				c1.6-0.6,3-1.4,4.2-2.5c2.7-2.7,2.9-6.7-1-7.6C1203.5,653.6,1197.6,658.3,1194.6,659.3z"/>
			<path class="st9" d="M1228.4,637.3c0.3-3.7-1-7.3-3.7-9.9c0,3.7-0.1,7.5-2.2,10.5c-1.4,2.1-3.8,3.6-5.3,5.7
				c-1.6,2-2.3,5.3-0.4,7.1c1.2,0.9,2.7,1.4,4.2,1.4c3.7,0.4,8.1,0.7,10.7-2c1.4-1.5,2.1-3.7,3.9-4.7c0.7-0.3,1.2-0.7,1.7-1.2
				c0.7-1.1-0.4-2.7-1.7-3.1s-2.7-0.2-4-0.6c-1.3-0.4-2.5-1.9-1.8-3"/>
			<path class="st9" d="M1168.4,503.7c-2,0.5-4,0.6-6,0.3c-3.3-0.6-5.9-3.1-8.6-5.2c-6.4-4.9-14.1-7.6-22.2-7.8
				c-7.3-0.1-14.6,1.8-21.8,0.4c0.5,2.6,2.7,4.5,5.1,5.7s5,1.8,7.4,2.9c3.8,1.8,6.9,5,8.5,8.9c0.8,1.8,1.2,3.8,2.4,5.3
				c2.4,3.2,6.9,3.9,10.9,3.7c5.2-0.3,10.6-1.8,15.4,0.1c3.7,1.5,6.3,4.7,9.4,7.2c3.1,2.5,7.4,4.4,11,2.6
				c-7.5-2.4-12.6-9.5-12.5-17.5c3.5,0.3,13.5,0.2,13-5.7C1179.9,499.8,1171.4,503.1,1168.4,503.7z"/>
			<path class="st9" d="M1122.9,544.4c0.6-3.4,4-6.4,2.9-9.6c-0.7-2.3-3.3-3.4-5.7-3.4c-2.4-0.1-4.7,0.7-7.1,0.7
				c-1.6-0.1-3.1-0.1-4.7,0.1c-4.7,0.8-7.6,5.7-12.1,7.5c-2.7,1.1-5.8,0.9-8.5,1.6c-6.4,1.7-10.4,7.7-14.9,12.6
				c-7.2,7.8-16.6,13.3-27,15.7c-3.6,0.8-7.5,1.4-10.4,3.7c-3.8,3.1-4.8,8.5-5.6,13.3c-2.3,13.4-5.9,26.6-10.7,39.4l15.2,1.9
				c2.9,0.4,5.9,0.7,8.6-0.1c2-0.8,3.9-1.8,5.7-3c6.8-4.2,14.3-6.9,22.2-8c4-0.6,8.1-0.7,11.9,0.8c3.7,1.5,6.9,4.8,7.2,8.8
				c3.3-1,6.9-0.1,9.3,2.3c2.4,2.4,3.9,5.5,4.4,8.9c0.4,2.1,0.8,4.5,2.7,5.4c1.6,0.7,3.4-0.1,5.1-0.2c5.8-0.5,10.7,6.3,16.4,5.2
				c6.1-1.2,7.6-10.5,13.6-12.3c3.4-1.1,8.3,0.2,9.9-3c1.4-2.8-1.4-6.1-1.1-9.2c0.4-3.9,5-5.5,8.5-7.2c12.2-5.7,18-22.2,12.1-34.3
				c-3.5-7.2-10.4-12.8-11.7-20.7c-1-6.1,1.4-13.1-2.4-17.9c-2-2.4-5.3-3.8-6.5-6.7c-0.7-1.8-0.4-3.9-0.8-5.8
				c-0.4-1.9-2.1-3.9-4-3.4c-5.5,1.4-7.3,18.5-10.2,22.7C1130.8,556.3,1121.5,552.2,1122.9,544.4z"/>
			<path class="st9" d="M1020.8,510.1c-1.9-0.5-4-1.1-5.8-0.3c-1.8,0.8-2.9,3.4-1.4,4.7c11.4-0.4,22.8-0.9,34,0.7
				c13,1.8,25.8,6.2,38.9,4.9c-7.4-2.2-15-4-22.7-5.3l-12.7-2.4c-3.4-0.7-6.9-1.2-10.4-1.6C1033.5,510.2,1028,512.1,1020.8,510.1z"
				/>
			<path class="st9" d="M1032.2,470.6c-0.9-0.1-2.1-0.1-2.6,0.7c-0.5,0.8,0.1,1.8-0.2,2.7c-0.3,1.2-1.9,1.5-3.1,1.3
				c-1.2-0.2-2.5-0.6-3.6,0c-1.1,0.8-1.6,2.2-1.2,3.5c0.4,1.3,1.2,2.4,2.1,3.3c1.6,2,3.4,3.9,5.4,5.5c3.9,2.9,9.2,4.3,11.6,8.4
				c0.3,0.8,0.9,1.5,1.6,2.1c1.2,0.8,2.7,0.2,4-0.4l4.4-2c0.8-0.3,1.5-0.8,2.1-1.4c1-1.4,0.4-3.3-0.4-4.8c-0.9-1.5-2-3-1.8-4.7
				c0.3-3,4.2-4.2,5.9-6.8c1.6-2.6,0.6-6,0.8-9.1c0.2-3.6,2.5-8.3-1.2-11c-3.1-2.3-6.1-0.2-8.3,2.3
				C1043,465.5,1040.8,471.3,1032.2,470.6z"/>
			<path class="st9" d="M1059.2,416.8c1.5,2.9,4.7,4.7,6.3,7.5c1.8,3.1,1.6,7.1,3.5,10c2,3.1,6,4.7,7.2,8.2
				c1.2,3.8-1.6,8.4,0.7,11.7c1.7,2.2,4.7,2.6,6.9,0.9c0.1-0.1,0.2-0.2,0.3-0.3c1.9-2.1,1.9-5.4-0.2-7.4c-1.3-1.2-3.2-1.7-4.3-3.1
				c-0.6-0.8-1-1.7-1.1-2.7c-0.6-2.8-0.5-5.7,0.3-8.5c0.3-0.7,0.4-1.5,0.2-2.2c-0.5-1.4-2.4-1.6-3.8-2.2c-3.1-1.5-3-5.9-2.5-9.3
				c-0.3,2.3-8.4-1.6-9.3-2.9c-1.7-2.5-0.8-7.5-1.1-10.3C1058.7,408,1057.4,413.2,1059.2,416.8z"/>
			<path class="st9" d="M978,461.6c-1.5-1.7-3.7-3.4-5.7-2.4c-1.5,0.8-1.9,2.9-1.3,4.5c0.7,1.6,1.9,2.9,3.2,3.9
				c4.2,3.4,8.6,6.5,12.3,10.5c6.5,7.1,9.9,16.7,17,23.3c1.4,1.5,3.3,2.5,5.3,2.9c2.1,0.2,4.4-1.1,4.6-3.2c0.2-1.7-1-3.2-2.1-4.4
				c-2.8-3-5.8-5.7-8.3-8.9c-1.2-1.2-2-2.8-2.1-4.4c0-1.7,1.5-3.4,3.1-3c-2-0.5-3.4-3.8-6.3-4.4c-2.4-0.5-3,1-5.9-0.2
				C986.1,473.3,981.8,465.9,978,461.6z"/>
			<path class="st9" d="M1107.4,299.4c-1.6-0.5-3.1-1-4.7-1.7c-4.1-1.2-9.5,1.8-9,6c0.4,2.8,3,4.7,4.4,7.1c2.1,3.6,1.6,8.2,0.4,12.3
				c-0.3,1.2-0.8,2.4-1.6,3.5c-1,1.1-2.3,2-3.7,2.6c-5.5,3.1-10.4,7.2-14.3,12.2c-0.4,0.4-0.7,1-0.9,1.6c-0.2,1.4,1.2,2.5,2.1,3.7
				c1.8,2.7,0.5,6.2,0.7,9.4c-0.1,0.9,0.4,1.8,1.1,2.3c1.1,0.6,2.4-0.4,3-1.4c2-3.5,0.5-9.2,4.2-11c0.7-0.3,1.6-0.4,2-1.1
				c0.7-1,0-2.4,0.4-3.5c0.6-1.7,2.9-1.8,4.8-1.7c3.1,0.1,6.3-0.3,9.3-1.2c1.2-0.3,2.2-0.9,3.1-1.8c1.1-1.4,1-3.3,0.8-5.1
				c-1.1-8.7-3.9-17.1-8.1-24.7c3.2,0.4,6.7,0.8,9.5-0.9c1.6-0.9,3.4-3.8,2.7-5.7C1112.3,297.3,1110.1,299.8,1107.4,299.4z"/>
			<path class="st9" d="M694.1,328.4c0.4,2.1,0.8,4.2,0.1,6.2c-0.7,2-2.8,3.7-4.8,3c-1.6-0.5-2.5-2-3.6-3.2
				c-6.2-6.7-20.1-2.8-23.9-11.1c-1.6-3.4-0.5-7.4-1.6-11c-1.4-4.2-5.4-7-9.9-6.7c-2,0.3-3.9,0.9-5.7,1.7c-12.1,4.8-24.7,8-37.6,9.4
				c-2.4,0.1-4.9,0.6-7.2,1.3c-5.3,1.9-8.9,6.8-11.5,11.9s-4.5,10.4-7.9,14.9c-3.6,4.7-8.7,8-13.5,11.5c-1.8,1.2-3.3,2.8-4.4,4.7
				c-1,2.1-1,4.6-0.9,6.9l1,28.5c0.1,3.7,0.3,7.5,1.9,10.8c2.1,4.1,6.1,6.8,8.9,10.4c2.9,3.7,4.4,8.3,4.2,13
				c-0.1,1.9-0.2,4.1,1.2,5.3c0.9,0.6,1.9,0.9,3,0.9l38.6,3.2c6.8,0.6,14.3,1.5,18.7,6.7c2.1,2.4,3.8,6,7,6.2
				c1.4,0.1,2.7-0.4,4.1-0.6c3.5-0.3,6.5,2.3,8.4,5.3c2.9,4.4,4.2,9.7,3.8,15c-0.3,3.3-1.3,6.5-1.6,9.9
				c-0.8,12.6,9.9,23.6,10.1,36.2c0.1,7.4-3.4,14.4-6.9,21c5.5,8.4,1,19.6,3.2,29.5c2.1,9.3,9.9,16.6,11.8,26
				c0.9,4.3,0.9,9.6,4.7,11.8c1.7,0.8,3.5,1.2,5.3,1.1c11.1,0.1,22.1-2.4,32.1-7.3c4.7-2.3,9.5-5.8,10.3-10.9
				c0.7-4.2-1.4-8.8,0.7-12.4c2.5-4.3,9-3.9,12.7-7.2c6-5.3,1.3-15.5,3.8-23.2c2.2-6.9,9.8-10.5,13.5-16.7c1.5-2.7,2.5-5.5,3.1-8.5
				c1.7-7.1,2.8-14.4,3.2-21.7c0.1-4.4,0.4-8.9,1-13.3c4-25.1,28.9-41.9,36.9-66.1c0.8-2.3,1.1-5.4-0.9-6.7
				c-1.2-0.6-2.6-0.7-3.9-0.4l-17.8,2.2c-2.2,0.3-4.5,0.6-6.6-0.4c-2-0.9-3.5-3.5-2.4-5.4c3-5.5-3.2-12.4-6-18
				c-7.4-15.1-16.3-29.5-26.5-42.9c-0.7-0.7-1.1-1.6-1.2-2.5l5.1,0.2c-1.7-6.1-4.5-12.8-10.5-15.1c-3.3-1.3-7.1-0.8-10.6-0.6
				C715.1,331.6,704.2,330,694.1,328.4z"/>
			<path class="st9" d="M725.4,190.6c2.7,2.9,5.7,5.9,9.5,6.3c6.9,0.9,11.7-6.2,14.9-12.3c0.2,3.3,3,5.7,6.3,5.6
				c1.7-0.3,3.3-0.9,4.7-1.9c13.5-7.4,28.7-11.3,44.2-11.4c-0.3-2.4,1.3-4.7,3.7-5.2c3.1-0.6,6,2.1,7.5,4.9c1.5,2.8,2.4,6.1,4.9,8.2
				c2.4,2.1,7.1,2,8-1c0.9-2.9-2.1-5.4-4.7-7.2c-2.5-1.7-5.2-4.9-3.5-7.5c13-2.9,26-5.8,39.3-6.3c2.3,0.1,4.5-0.3,6.6-1.1
				c2-1,3.7-3.2,3.1-5.4c-5.9,1.4-12.1-0.9-15.6-5.9c18.4-1.5,38-2.8,54.4,5.9c2,4.2-8,7.7-5.3,11.5c0.9,1.2,2.5,1.3,4,1.4
				c11.3,0.2,22.8,0.4,34-1.3c4.1-0.6,8.2-1.5,12.4-1c6.9,0.9,12.7,5.4,19.5,6.9c2.8,0.6,5.8,0.6,8.1-1c2.3-1.6,3.3-5.2,1.4-7.3
				c6.3-6.2,16.9-4.7,25.3-1.7s16.3,7.8,25.2,8.4c6.4,0.5,12.8-1.2,19.1-0.1c4,0.7,7.6,2.4,11.5,3.5c7.3,2,15,1.6,22.6,1.7
				c19.3,0.3,38.5,4.1,56.4,11.2c2.3,0.8,4.5,2,6.3,3.7c1.7,1.8,2.5,4.6,1.4,6.8l-18.6-2.7c1.8,3.4,6.3,4,10,5.2
				c3.7,1.2,7.5,5.2,5.3,8.4c-4-1.3-7.6,2.7-9.6,6.4c-2,3.7-4.5,8.1-8.6,8.3c-3.7,0.2-8.3-3-10.7-0.1c3.4,4.2,6.2,8.9,8.6,13.7
				c2.4,5,4.1,11.3,0.9,15.9c-0.5,0.8-1.3,1.4-2.2,1.7c-2.7,0.7-4.4-2.6-6.3-4.5c-2.4-2.5-6-3.2-9.3-4.3c-3.2-1.2-6.7-3.4-6.9-6.9
				c-0.2-2.1,1-4.1,1.8-6.1c1.4-3.3,2-7,1.8-10.6c-0.2-2.9-1-5.9-3.1-8c-2.1-2-5.7-2.7-7.9-0.8c-1,0.9-1.9,2.2-3.2,2.3
				c-2.4,0.1-4.2-4.1-6.2-2.7c0.2,1.5-0.1,3.1-0.9,4.4c-5.8,5-14.6,2.9-22.1,4.7c-3.5,1-6.9,2.5-10.1,4.4c-1.2,0.5-2.2,1.3-2.9,2.4
				c-0.9,1.8,0.1,4.1,1.7,5.3c1.7,1.1,3.7,1.7,5.7,1.9c9.1,1.7,18.2,4.4,25.4,10.2c7.1,5.8,11.9,15.4,9.6,24.4l-17.8-17.1
				c0.7,7.2,1.1,14.3,1.2,21.6c0.1,1.4-0.1,2.8-0.6,4.1c-1.3,2.8-4.7,3.8-7.8,4.4c-3.3,0.6-5.4,3.8-4.8,7.1c0,0.2,0.1,0.4,0.2,0.7
				c1.1,3.5,3.8,6.2,6.2,9s4.9,5.8,5.2,9.5c0.3,3.7-2.4,7.8-6.1,7.5c-2.8-0.2-4.8-2.7-6-5.2c-1.2-2.5-1.9-5.3-3.7-7.4
				c-5.4-6.5-17.4-3.7-22.3-10.6c-2.5,2.8-3.3,6.8-2.2,10.4c2.2-1.4,5.3-0.1,7,1.9s2.5,4.7,3.8,6.9c1.8,3.1,4.6,5.8,4.9,9.4
				c-0.1,1.3,0,2.7,0.1,4c0.4,2.2,2.3,3.7,3.5,5.5c2.9,4.2,2.8,10,0.9,14.7c-1.9,4.8-5.3,8.7-8.7,12.6c-5.9,6.7-11.9,13.4-18.9,19
				c-2,1.6-4.1,3.2-5.3,5.4c-1.2,2.2-1.3,5.3,0.6,7.1c-1.4,0.1-3.8,0.7-5.2,0.8c-0.5-5.5-0.6-11-0.3-16.4
				c-5.4-2.6-11.2,4.3-10.5,10.3c0.7,5.9,5,10.7,8,15.8c2.2,3.8,3.9,8.1,3.1,12.4c-0.8,4.3-4.6,8.3-8.9,7.9
				c-6.9-0.6-9.8-10.5-16.6-11.7c-0.6-0.1-1.2-0.1-1.8,0.2c-1,0.6-1.2,1.9-1.2,3.1c-0.3,5.7-0.5,11.6,1.7,16.8
				c3.2,7.7,11.6,14.1,9.9,22.3c-9.5-4.4-14.4-15-16.6-25.3c-2.2-10.2-2.6-20.9-6.6-30.6c-3,3.9-9.4,0.7-12.2-3.4
				c-2.7-3.9-4.3-8.4-6.8-12.3c-2.5-3.9-6.5-7.4-11.2-7.7c-4.9-0.2-9.2,3.1-12.9,6.3c-3.1,2.6-6.2,5.3-8.1,9
				c-2.6,5.3-1.9,11.5-2.1,17.4c-0.1,6.4-1.5,13.1-5.8,17.7c-4.3,4.7-12.3,6.3-17.1,2.1c-2.5-2.2-3.7-5.5-4.8-8.6
				c-5.2-15.2-9.5-30.6-13-46.2c-0.8,3.6-3.9,8.2-6.9,6.1c-0.7-0.6-1.2-1.3-1.6-2.1c-5.6-9.5-16-15.2-26.4-18.6
				c-10.4-3.4-21.5-5-31.8-8.8c-5.8-2.1-11.3-4.9-16.5-8.2c-2.7,3.9-3,9-0.8,13.3c2.3,4.1,7.5,6.4,11.9,5c2.3-0.7,4.2-2.3,6.5-3.1
				c2.3-0.8,5.3-0.4,6.3,1.8c1,2.1-0.5,4.7,0.2,6.8c1.1,3.3,6.1,3.6,7.9,6.7c1.3,2.3,0.2,5.3-1.7,7.1c-1.9,1.8-4.4,2.8-6.7,4.1
				c-7.4,4.1-12.7,11.2-19.2,16.6s-15.6,9.5-23.4,6c1.8-9.3-9.3-16.2-11.3-25.4c-0.7-3.1-0.3-6.3-1.3-9.3c-1.4-4.3-5.2-7.3-8.3-10.5
				c-7.7-8.1-11.8-19-11.3-30.1c0.2-3.8,0.9-7.7,0-11.5c-0.9-3.7-4-7.3-7.8-7.2c-8.8,0.4-19.8,1-24.4-6.4c-1.7-2.7-2.3-6.6,0-8.6
				c1.7-1.4,4.1-1.3,6.3-1.1l19.7,1.9c4.6,0.4,9.6,0.8,13.6-1.6c4-2.4,5.7-8.8,2-11.6c-2.7-2.1-7.5-2-8.3-5.3
				c-0.7-2.8,2.4-5.9,0.8-8.2c-1.2-1.7-3.8-1.2-5.4,0c-1.6,1.2-2.8,3-4.5,4c-3.1,1.7-6.9,0.1-10.3-1c-3.4-1.1-7.9-1.1-9.6,2
				c-1.8,3.5,1.6,8.1-0.2,11.6c-2.4,4.7-10.6,2-14,6c-3.9,4.6,2.7,11.5,1.3,17.3c-3.4,1.7-7.4,1.4-10.6-0.6
				c-3.1-2.1-4.9-5.8-4.5-9.6c0.3-2.7,1.7-5.3,0.8-7.9c-0.8-2-2.8-3.2-4.7-4.3l-19.2-10.6c-1.8,3.3,0.5,7.4,3.3,9.9
				c2.8,2.5,6.3,4.3,8.2,7.6c2.4,4.7,0.8,10.5-3.8,13.2c-0.6,0.4-1.2,0.5-1.9,0.3c-0.6-0.4-1.1-1-1.2-1.7
				c-3.4-8.6-8.5-17.2-16.6-21.7s-19.8-3.6-25.1,4c-1.3,1.8-2.1,3.9-3.2,5.8c-5.9,10.2-18.4,15-30.1,14.7c-1.1,0.1-2.3-0.2-3.3-0.8
				c-1.9-1.3-1.8-4.1-1.5-6.4l1.2-9.7c0.2-2,0.6-4.1,2.1-5.3c2.2-1.7,5.3-0.6,8.1-0.7c4.3-0.2,8-3.1,9.3-7.2
				c1.1-4.1-0.1-8.5-3.2-11.5c-1.3-1.2-3-2.7-2.3-4.3c0.6-0.9,1.4-1.5,2.5-1.7c5-1.4,10.2-1.8,15.1-3.5s9.6-5.2,10.8-10.2
				c0.3-1.6,0.5-3.4,1.9-4.2c0.7-0.3,1.4-0.4,2.2-0.4c5.5-0.8,9.5-5.6,9.2-11.2c2.3-1.6,5.6-0.4,7.9,1.3c2.3,1.8,4.3,4,7,4.8
				c5.1,1.4,10.1-3.1,15.4-3.2c2.2,0,4.5,0.8,6.7,0c2.1-0.8,3.4-2.9,5.1-4.5c1.7-1.6,4.5-2.5,6-0.8l-1.3-9.5
				c5.2,1.3,10.8,0.3,15.3-2.8l-16.6-5.6c-0.6-0.1-1.1-0.4-1.6-0.8c-1.2-1.3,0-3.3,1-4.8c2.3-3.5,2.8-9.4-1.1-11.2
				c-2.7-1.2-5.7,0.2-8.2,1.7l-12.2,6.8c-0.4,2.3,2.4,3.6,4.2,5.2c2.9,2.6,3.2,7,0.6,9.9c-1.3,1.5-3.2,2.3-5.2,2.3
				c1.6,2.1,2.2,4.8,1.6,7.4l-8.2,0.6c-0.9,0.2-1.9,0-2.7-0.5c-0.9-0.8-0.8-2.1-1-3.3c-0.5-2.8-3.2-4.7-6-5.2
				c-2.8-0.5-5.6,0.1-8.4,0.8c-1.2,0.4-2.4,0.4-3.6-0.1c-0.7-0.4-1.2-1.1-1.4-1.8c-1.2-2.9-0.1-6.4,1.9-8.9c1.9-2.5,4.6-4.3,7-6.4
				c5.7-5,9.9-11.5,12.1-18.7c4.5-1.9,9.2-4.4,13.7-6.3c6.9-3.5,14.7-5,22.5-4.3l15.3,0.3c4.5,0.1,9.2,0.2,13.3,1.9
				c4.2,1.7,7.9,5.4,8.1,10c0.2,1-0.2,2.1-1,2.8c-0.6,0.3-1.2,0.5-1.9,0.4C731.4,189.4,729.6,190.5,725.4,190.6z"/>
			<path class="st9" d="M603.8,238.4c1.2-1.1,1.7-2.9,1.2-4.5c-3-1.1-6.3-0.5-8.6,1.6c-0.9,0.9-1.7,1.9-2.3,3.1
				c-2,3.3-3.8,7.2-2.6,10.8c0.2,0.8,0.7,1.5,1.4,1.9c0.5,0.2,1.1,0.3,1.7,0.2c2.2,0,4.4-0.1,6.6-0.4c1.3-0.2,2.9-0.6,3.4-1.8
				c0.7-1.7-1-3.5-0.5-5.2c0.3-0.8,0.8-1.4,1.4-2c0.6-0.6,0.9-1.4,0.8-2.2c-0.2-0.8-1.4-1.3-1.9-0.6"/>
			<path class="st9" d="M615.3,223.6c-2-0.4-4-0.6-6-0.4c-0.4,0-0.9,0.1-1.3,0.3c-0.4,0.3-0.7,0.7-0.8,1.1c-0.9,2.8,0.6,5.8,3.3,6.9
				c0.7,0.2,1.4,0.4,2,0.8c1.7,1.3,0.6,4,0.9,6.1c0.3,2.4,2.7,4.4,2.2,6.8c-0.3,1.9-2.3,3.3-2,5.2c0.3,2,2.8,2.5,4.8,2.7
				c1.1,0.2,2.3,0.1,3.4-0.4c1.1-0.7,1.8-1.8,2.1-3.1c0.8-2.4,1.1-5,1-7.5c0-1.2-0.3-2.3-0.9-3.3c-0.6-0.8-1.2-1.6-2-2.3
				C618.5,232.2,622.5,225.6,615.3,223.6z"/>
		</g>
	</g>
</g>
<path class="st9" d="M659.5,392.2c-2.2,0-4.2,0.7-5.9,1.8c-2.4-3.4-6.2-5.7-10.6-6.1c0.3-1.1,0.5-2.3,0.5-3.6
	c0-7.3-5.9-13.2-13.2-13.2c-7.3,0-13.2,5.9-13.2,13.2c0,1.3,0.2,2.5,0.5,3.7c-0.2,0-0.3,0-0.5,0c-5.4,0-10.1,3.2-12.3,7.7
	c-1.6-1-3.4-1.5-5.4-1.5c-5.8,0-10.6,4.7-10.6,10.6c0,5.8,4.7,10.6,10.6,10.6c3.3,0,6.3-1.5,8.2-3.9c2.5,2.4,5.8,3.9,9.5,3.9
	c4.8,0,9-2.4,11.4-6.2c2.4,4.8,7.4,8.1,13.2,8.1c5,0,9.3-2.4,12-6.2c1.7,1.2,3.7,1.8,5.9,1.8c5.7,0,10.4-4.7,10.4-10.4
	C669.9,396.8,665.2,392.2,659.5,392.2z"/>
<path class="st10" d="M884.8,136.3c1.2,0,2.4-0.2,3.5-0.4c0.8,6.3,6.2,11.2,12.8,11.2c4.9,0,9.2-2.7,11.4-6.8
	c2,4.2,6.3,7.2,11.3,7.2c6.9,0,12.5-5.6,12.5-12.5c0-0.9-0.1-1.7-0.3-2.6c0.1,0,0.2,0,0.3,0c6.2,0,11.2-5,11.2-11.2
	c0-6.2-5-11.2-11.2-11.2c-1.9,0-3.7,0.5-5.2,1.3c-0.9-5.5-5.7-9.6-11.4-9.6c-3.2,0-6.1,1.3-8.2,3.5c-2.1-2.1-5-3.5-8.2-3.5
	c-5.3,0-9.7,3.5-11.1,8.3c-2.1-1.3-4.6-2-7.3-2c-7.8,0-14.1,6.3-14.1,14.1S877,136.3,884.8,136.3z"/>
<path class="st10" d="M549.5,222c-1.7,0-3.3,0.6-4.6,1.6c-1.9-4.6-6.4-7.9-11.6-7.9c-2.2,0-4.3,0.6-6.1,1.6c0-0.4,0.1-0.8,0.1-1.2
	c0-5.7-4.7-10.4-10.4-10.4s-10.4,4.7-10.4,10.4c0,0.4,0,0.9,0.1,1.3c-0.5-0.1-1-0.1-1.6-0.1c-5.5,0-10,4.5-10,10c0,5.5,4.5,10,10,10
	h0c0.4,6,5.3,10.7,11.4,10.7c5.3,0,9.7-3.6,11.1-8.5c1.7,0.9,3.7,1.4,5.7,1.4c4.5,0,8.5-2.4,10.7-6c1.4,1.5,3.3,2.4,5.5,2.4
	c4.2,0,7.6-3.4,7.6-7.6C557.1,225.4,553.7,222,549.5,222z M521,225.8c-0.1,0-0.2-0.1-0.3-0.1c0.1,0,0.2-0.1,0.3-0.1
	C521,225.7,521,225.7,521,225.8z"/>
<path class="st10" d="M456.1,309.9c-1,0-2,0.1-2.9,0.4c-0.7-5.2-5.1-9.3-10.5-9.3c-4.1,0-7.6,2.3-9.4,5.6c-1.7-3.5-5.2-5.9-9.3-5.9
	c-5.7,0-10.3,4.6-10.3,10.3c0,0.7,0.1,1.4,0.2,2.1c-0.1,0-0.1,0-0.2,0c-5.1,0-9.2,4.1-9.2,9.2c0,5.1,4.1,9.2,9.2,9.2
	c1.6,0,3-0.4,4.3-1.1c0.8,4.5,4.7,8,9.4,8c2.7,0,5.1-1.1,6.8-2.9c1.7,1.8,4.1,2.9,6.8,2.9c4.3,0,8-2.9,9.2-6.9
	c1.8,1.1,3.8,1.7,6,1.7c6.4,0,11.7-5.2,11.7-11.7C467.7,315.1,462.5,309.9,456.1,309.9z"/>
<path class="st10" d="M953.8,159.2c1.2,0,2.4-0.2,3.5-0.4c0.8,6.3,6.2,11.2,12.8,11.2c4.9,0,9.2-2.7,11.4-6.8
	c2,4.2,6.3,7.2,11.3,7.2c6.9,0,12.5-5.6,12.5-12.5c0-0.9-0.1-1.7-0.3-2.6c0.1,0,0.2,0,0.3,0c6.2,0,11.2-5,11.2-11.2
	c0-6.2-5-11.2-11.2-11.2c-1.9,0-3.7,0.5-5.2,1.3c-0.9-5.5-5.7-9.6-11.4-9.6c-3.2,0-6.1,1.3-8.2,3.5c-2.1-2.1-5-3.5-8.2-3.5
	c-5.3,0-9.7,3.5-11.1,8.3c-2.1-1.3-4.6-2-7.3-2c-7.8,0-14.1,6.3-14.1,14.1C939.7,152.9,946,159.2,953.8,159.2z"/>
<path class="st10" d="M591,487.2c-1.9,0-3.6,0.6-5,1.6c-2.1-2.9-5.3-4.9-9-5.2c0.3-1,0.4-2,0.4-3c0-6.2-5-11.3-11.3-11.3
	s-11.3,5-11.3,11.3c0,1.1,0.2,2.1,0.4,3.1c-0.1,0-0.3,0-0.4,0c-4.6,0-8.6,2.7-10.5,6.6c-1.3-0.8-2.9-1.3-4.7-1.3c-5,0-9,4-9,9
	s4,9,9,9c2.8,0,5.3-1.3,7-3.3c2.1,2.1,5,3.3,8.1,3.3c4.1,0,7.6-2.1,9.7-5.2c2.1,4.1,6.3,6.9,11.2,6.9c4.2,0,7.9-2.1,10.2-5.3
	c1.4,1,3.2,1.6,5,1.6c4.9,0,8.8-4,8.8-8.8C599.9,491.1,595.9,487.2,591,487.2z"/>
</svg>
