<svg xmlns="http://www.w3.org/2000/svg" xmlns:xlink="http://www.w3.org/1999/xlink" version="1.1" id="Calque_1" x="0px" y="0px" viewBox="0 0 1366 630" style="enable-background:new 0 0 1366 630;background-color: red;" xml:space="preserve">
<style type="text/css">
	.st0{fill:url(#SVGID_1_);}
	.st1{fill:url(#SVGID_00000119795936126083981450000017875994887786642612_);}
	.st2{fill:url(#SVGID_00000140013287530883688860000018389824115361025695_);}
	.st3{fill:url(#SVGID_00000022525271816029886870000000785256150046570883_);}
	.st4{fill:url(#SVGID_00000095325204128334360060000005127834505677828516_);}
	.st5{fill:url(#SVGID_00000112622237426091659200000009673962551026513567_);}
	.st6{fill:url(#SVGID_00000079485803472704574330000003442248329963919503_);}
	.st7{fill:url(#SVGID_00000159470518193643241250000001226541172702386341_);}
	.st8{fill:url(#SVGID_00000023963213076430381680000009075141874704486571_);}
	.st9{fill:url(#SVGID_00000181051235664581632110000012687088408985464711_);}
	.st10{fill:url(#SVGID_00000086656176103109708310000015550720873357839547_);}
	.st11{fill:url(#SVGID_00000132779515351803109500000005379949961416311968_);}
	.st12{fill:url(#SVGID_00000117637783826294640820000000052551925932256703_);}
	.st13{fill:url(#SVGID_00000174571651300199567350000014971932832581300617_);}
	.st14{fill:url(#SVGID_00000086686572469917152380000007616387164831786132_);}
	.st15{fill:url(#SVGID_00000178886314334061240930000007959782111439276181_);}
	.st16{fill:url(#SVGID_00000164513716123263036090000015173795632895215523_);}
	.st17{fill:url(#SVGID_00000051365373715519282720000001401562895059518395_);}
	.st18{fill:url(#SVGID_00000006677736446428839190000009390170219417507736_);}
	.st19{fill:url(#SVGID_00000064355637391292152230000014175023604905585838_);}
	.st20{fill:url(#SVGID_00000173870535910281116980000005922675363093222796_);}
	.st21{fill:url(#SVGID_00000134237457591068665050000012485723629229775795_);}
	.st22{fill:url(#SVGID_00000075161810116182815860000002294795972596883089_);}
	.st23{fill:url(#SVGID_00000180351243038576829750000002213587050966832775_);}
	.st24{fill:url(#SVGID_00000162347361198532263810000018400268063967793536_);}
	.st25{fill:url(#SVGID_00000040568876618212325110000015152862551803737765_);}
	.st26{fill:#2E65A3;}
	.st27{fill:#FFFFFF;}
	.st28{fill:#9FBFE4;}
	.st29{fill:#3778C2;}
	.st30{fill:#265285;}
	.st31{fill:#DCE8F5;}
	.st32{fill:url(#SVGID_00000111903373279440857620000001191087586516333997_);}
	.st33{fill:url(#SVGID_00000133492170846520367860000014631302580818367899_);}
	.st34{fill:url(#SVGID_00000023263421160633172490000001658220260522464165_);}
	.st35{fill:url(#SVGID_00000163782396875993398020000016326147399715046284_);}
	.st36{fill:url(#SVGID_00000034057022721440179270000002443091517330103956_);}
	.st37{fill:url(#SVGID_00000153675245906715923770000007643702687183791515_);}
	.st38{fill:url(#SVGID_00000096755789677413064830000017331216039154683302_);}
	.st39{fill:url(#SVGID_00000026857166428707221630000000883435138902150330_);}
	.st40{fill:url(#SVGID_00000000223923741383757360000004337739496667925921_);}
	.st41{fill:url(#SVGID_00000116202059320817343990000002142007281110698642_);}
	.st42{fill:url(#SVGID_00000054967652348177168480000017379691714917033916_);}
	.st43{fill:url(#SVGID_00000183214034121840831010000014643647141520381332_);}
	.st44{fill:none;stroke:#3B3735;stroke-width:0.25;stroke-miterlimit:10;}
	.st45{fill:#F49D37;}
	.st46{fill:#3B3735;}
	.st47{opacity:0.44;}
	.st48{clip-path:url(#SVGID_00000103248773652010398570000017884126821079036560_);}
	.st49{opacity:0.22;fill:#54514F;}
	.st50{fill:#54514F;}
	.st51{fill:#1D3F66;}
</style>
<linearGradient id="SVGID_1_" gradientUnits="userSpaceOnUse" x1="-0.54" y1="-131.1102" x2="22.26" y2="-131.1102" gradientTransform="matrix(1 0 0 -1 0 493.8898)">
	<stop offset="0" style="stop-color:#4780BE"/>
	<stop offset="0.6847" style="stop-color:#457EBB"/>
	<stop offset="1" style="stop-color:#4179B6"/>
</linearGradient>
<path class="st0" d="M7.8,610.5c-3.1,0-6,1-8.3,2.7v23.6c2.3,1.7,5.2,2.7,8.3,2.7c8,0,14.5-6.5,14.5-14.5S15.8,610.5,7.8,610.5z"/>
<linearGradient id="SVGID_00000091710809134649258300000010754799155960800429_" gradientUnits="userSpaceOnUse" x1="596.9" y1="-138.3102" x2="645.3798" y2="-138.3102" gradientTransform="matrix(1 0 0 -1 0 493.8898)">
	<stop offset="0" style="stop-color:#4780BE"/>
	<stop offset="0.6847" style="stop-color:#457EBB"/>
	<stop offset="1" style="stop-color:#4179B6"/>
</linearGradient>
<circle style="fill:url(#SVGID_00000091710809134649258300000010754799155960800429_);" cx="621.1" cy="632.2" r="24.2"/>
<linearGradient id="SVGID_00000125563288628133856680000000236346174944244154_" gradientUnits="userSpaceOnUse" x1="645.35" y1="-141.7101" x2="684.09" y2="-141.7101" gradientTransform="matrix(1 0 0 -1 0 493.8898)">
	<stop offset="0" style="stop-color:#4780BE"/>
	<stop offset="0.6847" style="stop-color:#457EBB"/>
	<stop offset="1" style="stop-color:#4179B6"/>
</linearGradient>
<circle style="fill:url(#SVGID_00000125563288628133856680000000236346174944244154_);" cx="664.7" cy="635.6" r="19.4"/>
<linearGradient id="SVGID_00000031197886544047476000000011355886071621735350_" gradientUnits="userSpaceOnUse" x1="663.26" y1="-136.9102" x2="702" y2="-136.9102" gradientTransform="matrix(1 0 0 -1 0 493.8898)">
	<stop offset="0" style="stop-color:#4780BE"/>
	<stop offset="0.6847" style="stop-color:#457EBB"/>
	<stop offset="1" style="stop-color:#4179B6"/>
</linearGradient>
<circle style="fill:url(#SVGID_00000031197886544047476000000011355886071621735350_);" cx="682.6" cy="630.8" r="19.4"/>
<linearGradient id="SVGID_00000024696204171402749150000002387182103700237995_" gradientUnits="userSpaceOnUse" x1="697.3" y1="-138.3102" x2="730.3601" y2="-138.3102" gradientTransform="matrix(1 0 0 -1 0 493.8898)">
	<stop offset="0" style="stop-color:#4780BE"/>
	<stop offset="0.6847" style="stop-color:#457EBB"/>
	<stop offset="1" style="stop-color:#4179B6"/>
</linearGradient>
<circle style="fill:url(#SVGID_00000024696204171402749150000002387182103700237995_);" cx="713.8" cy="632.2" r="16.5"/>
<g>
	
		<linearGradient id="SVGID_00000093145169843998351700000010315568143635551880_" gradientUnits="userSpaceOnUse" x1="801.88" y1="-136.2101" x2="816.7" y2="-136.2101" gradientTransform="matrix(1 0 0 -1 0 493.8898)">
		<stop offset="0" style="stop-color:#4780BE"/>
		<stop offset="0.6847" style="stop-color:#457EBB"/>
		<stop offset="1" style="stop-color:#4179B6"/>
	</linearGradient>
	<circle style="fill:url(#SVGID_00000093145169843998351700000010315568143635551880_);" cx="809.3" cy="630.1" r="7.4"/>
	
		<linearGradient id="SVGID_00000052066793406930115280000002994824454138403723_" gradientUnits="userSpaceOnUse" x1="805.3" y1="-136.2101" x2="830.34" y2="-136.2101" gradientTransform="matrix(1 0 0 -1 0 493.8898)">
		<stop offset="0" style="stop-color:#4780BE"/>
		<stop offset="0.6847" style="stop-color:#457EBB"/>
		<stop offset="1" style="stop-color:#4179B6"/>
	</linearGradient>
	<circle style="fill:url(#SVGID_00000052066793406930115280000002994824454138403723_);" cx="817.8" cy="630.1" r="12.5"/>
	
		<linearGradient id="SVGID_00000130614530172911237230000003098566144345773447_" gradientUnits="userSpaceOnUse" x1="817.84" y1="-132.1102" x2="840.8" y2="-132.1102" gradientTransform="matrix(1 0 0 -1 0 493.8898)">
		<stop offset="0" style="stop-color:#4780BE"/>
		<stop offset="0.6847" style="stop-color:#457EBB"/>
		<stop offset="1" style="stop-color:#4179B6"/>
	</linearGradient>
	<circle style="fill:url(#SVGID_00000130614530172911237230000003098566144345773447_);" cx="829.3" cy="626" r="11.5"/>
	
		<linearGradient id="SVGID_00000032624558179188175580000013438282001396903082_" gradientUnits="userSpaceOnUse" x1="792.8" y1="-140.4102" x2="809.28" y2="-140.4102" gradientTransform="matrix(1 0 0 -1 0 493.8898)">
		<stop offset="0" style="stop-color:#4780BE"/>
		<stop offset="0.6847" style="stop-color:#457EBB"/>
		<stop offset="1" style="stop-color:#4179B6"/>
	</linearGradient>
	<circle style="fill:url(#SVGID_00000032624558179188175580000013438282001396903082_);" cx="801" cy="634.3" r="8.2"/>
	
		<linearGradient id="SVGID_00000084516080521764553480000003499114385794429589_" gradientUnits="userSpaceOnUse" x1="776" y1="-140.9102" x2="801" y2="-140.9102" gradientTransform="matrix(1 0 0 -1 0 493.8898)">
		<stop offset="0" style="stop-color:#4780BE"/>
		<stop offset="0.6847" style="stop-color:#457EBB"/>
		<stop offset="1" style="stop-color:#4179B6"/>
	</linearGradient>
	<circle style="fill:url(#SVGID_00000084516080521764553480000003499114385794429589_);" cx="788.5" cy="634.8" r="12.5"/>
	
		<linearGradient id="SVGID_00000139292649176015556590000006565368349398378940_" gradientUnits="userSpaceOnUse" x1="762.45" y1="-133.7101" x2="788.53" y2="-133.7101" gradientTransform="matrix(1 0 0 -1 0 493.8898)">
		<stop offset="0" style="stop-color:#4780BE"/>
		<stop offset="0.6847" style="stop-color:#457EBB"/>
		<stop offset="1" style="stop-color:#4179B6"/>
	</linearGradient>
	<circle style="fill:url(#SVGID_00000139292649176015556590000006565368349398378940_);" cx="775.5" cy="627.6" r="13"/>
	
		<linearGradient id="SVGID_00000062884989989563667720000004795195656396616872_" gradientUnits="userSpaceOnUse" x1="745" y1="-135.6102" x2="775.5" y2="-135.6102" gradientTransform="matrix(1 0 0 -1 0 493.8898)">
		<stop offset="0" style="stop-color:#4780BE"/>
		<stop offset="0.6847" style="stop-color:#457EBB"/>
		<stop offset="1" style="stop-color:#4179B6"/>
	</linearGradient>
	<circle style="fill:url(#SVGID_00000062884989989563667720000004795195656396616872_);" cx="760.2" cy="629.5" r="15.2"/>
	
		<linearGradient id="SVGID_00000181803549142724081000000002514323555509277580_" gradientUnits="userSpaceOnUse" x1="728.5" y1="-138.9102" x2="749.8001" y2="-138.9102" gradientTransform="matrix(1 0 0 -1 0 493.8898)">
		<stop offset="0" style="stop-color:#4780BE"/>
		<stop offset="0.6847" style="stop-color:#457EBB"/>
		<stop offset="1" style="stop-color:#4179B6"/>
	</linearGradient>
	<circle style="fill:url(#SVGID_00000181803549142724081000000002514323555509277580_);" cx="739.2" cy="632.8" r="10.7"/>
	
		<linearGradient id="SVGID_00000019668169175461856920000003241076712550334886_" gradientUnits="userSpaceOnUse" x1="712" y1="-133.9102" x2="739.14" y2="-133.9102" gradientTransform="matrix(1 0 0 -1 0 493.8898)">
		<stop offset="0" style="stop-color:#4780BE"/>
		<stop offset="0.6847" style="stop-color:#457EBB"/>
		<stop offset="1" style="stop-color:#4179B6"/>
	</linearGradient>
	<circle style="fill:url(#SVGID_00000019668169175461856920000003241076712550334886_);" cx="725.6" cy="627.8" r="13.6"/>
	
		<linearGradient id="SVGID_00000093871839403024801680000009600161530952542397_" gradientUnits="userSpaceOnUse" x1="697.47" y1="-135.4102" x2="716.61" y2="-135.4102" gradientTransform="matrix(1 0 0 -1 0 493.8898)">
		<stop offset="0" style="stop-color:#4780BE"/>
		<stop offset="0.6847" style="stop-color:#457EBB"/>
		<stop offset="1" style="stop-color:#4179B6"/>
	</linearGradient>
	<circle style="fill:url(#SVGID_00000093871839403024801680000009600161530952542397_);" cx="707" cy="629.3" r="9.6"/>
	
		<linearGradient id="SVGID_00000036950512517480817120000005437729016138603430_" gradientUnits="userSpaceOnUse" x1="673.23" y1="-137.5102" x2="702.15" y2="-137.5102" gradientTransform="matrix(1 0 0 -1 0 493.8898)">
		<stop offset="0" style="stop-color:#4780BE"/>
		<stop offset="0.6847" style="stop-color:#457EBB"/>
		<stop offset="1" style="stop-color:#4179B6"/>
	</linearGradient>
	<circle style="fill:url(#SVGID_00000036950512517480817120000005437729016138603430_);" cx="687.7" cy="631.4" r="14.5"/>
</g>
<g>
	
		<linearGradient id="SVGID_00000088825776010425953150000003730683786490295701_" gradientUnits="userSpaceOnUse" x1="296.96" y1="-129.7101" x2="311.78" y2="-129.7101" gradientTransform="matrix(1 0 0 -1 0 493.8898)">
		<stop offset="0" style="stop-color:#4780BE"/>
		<stop offset="0.6847" style="stop-color:#457EBB"/>
		<stop offset="1" style="stop-color:#4179B6"/>
	</linearGradient>
	<circle style="fill:url(#SVGID_00000088825776010425953150000003730683786490295701_);" cx="304.4" cy="623.6" r="7.4"/>
	
		<linearGradient id="SVGID_00000106110386626350880160000005689903707248014269_" gradientUnits="userSpaceOnUse" x1="300.4" y1="-129.7101" x2="325.44" y2="-129.7101" gradientTransform="matrix(1 0 0 -1 0 493.8898)">
		<stop offset="0" style="stop-color:#4780BE"/>
		<stop offset="0.6847" style="stop-color:#457EBB"/>
		<stop offset="1" style="stop-color:#4179B6"/>
	</linearGradient>
	<circle style="fill:url(#SVGID_00000106110386626350880160000005689903707248014269_);" cx="312.9" cy="623.6" r="12.5"/>
	
		<linearGradient id="SVGID_00000098914339482307196340000010561179554144620934_" gradientUnits="userSpaceOnUse" x1="312.9" y1="-125.7101" x2="335.86" y2="-125.7101" gradientTransform="matrix(1 0 0 -1 0 493.8898)">
		<stop offset="0" style="stop-color:#4780BE"/>
		<stop offset="0.6847" style="stop-color:#457EBB"/>
		<stop offset="1" style="stop-color:#4179B6"/>
	</linearGradient>
	<circle style="fill:url(#SVGID_00000098914339482307196340000010561179554144620934_);" cx="324.4" cy="619.6" r="11.5"/>
	
		<linearGradient id="SVGID_00000171708840493802432510000015133573650280832416_" gradientUnits="userSpaceOnUse" x1="287.9" y1="-133.9102" x2="304.38" y2="-133.9102" gradientTransform="matrix(1 0 0 -1 0 493.8898)">
		<stop offset="0" style="stop-color:#4780BE"/>
		<stop offset="0.6847" style="stop-color:#457EBB"/>
		<stop offset="1" style="stop-color:#4179B6"/>
	</linearGradient>
	<circle style="fill:url(#SVGID_00000171708840493802432510000015133573650280832416_);" cx="296.1" cy="627.8" r="8.2"/>
	
		<linearGradient id="SVGID_00000086657619405472886620000012916973412745834908_" gradientUnits="userSpaceOnUse" x1="271.1" y1="-134.3102" x2="296.1" y2="-134.3102" gradientTransform="matrix(1 0 0 -1 0 493.8898)">
		<stop offset="0" style="stop-color:#4780BE"/>
		<stop offset="0.6847" style="stop-color:#457EBB"/>
		<stop offset="1" style="stop-color:#4179B6"/>
	</linearGradient>
	<circle style="fill:url(#SVGID_00000086657619405472886620000012916973412745834908_);" cx="283.6" cy="628.2" r="12.5"/>
	
		<linearGradient id="SVGID_00000020379485516358330110000017923277822203548047_" gradientUnits="userSpaceOnUse" x1="257.53" y1="-127.2101" x2="283.61" y2="-127.2101" gradientTransform="matrix(1 0 0 -1 0 493.8898)">
		<stop offset="0" style="stop-color:#4780BE"/>
		<stop offset="0.6847" style="stop-color:#457EBB"/>
		<stop offset="1" style="stop-color:#4179B6"/>
	</linearGradient>
	<circle style="fill:url(#SVGID_00000020379485516358330110000017923277822203548047_);" cx="270.6" cy="621.1" r="13"/>
	
		<linearGradient id="SVGID_00000062173481164154642570000014588230772663052932_" gradientUnits="userSpaceOnUse" x1="240.1" y1="-129.2101" x2="270.6" y2="-129.2101" gradientTransform="matrix(1 0 0 -1 0 493.8898)">
		<stop offset="0" style="stop-color:#4780BE"/>
		<stop offset="0.6847" style="stop-color:#457EBB"/>
		<stop offset="1" style="stop-color:#4179B6"/>
	</linearGradient>
	<circle style="fill:url(#SVGID_00000062173481164154642570000014588230772663052932_);" cx="255.3" cy="623.1" r="15.2"/>
	
		<linearGradient id="SVGID_00000029756652124347620090000018389020056913200003_" gradientUnits="userSpaceOnUse" x1="223.59" y1="-132.4102" x2="244.89" y2="-132.4102" gradientTransform="matrix(1 0 0 -1 0 493.8898)">
		<stop offset="0" style="stop-color:#4780BE"/>
		<stop offset="0.6847" style="stop-color:#457EBB"/>
		<stop offset="1" style="stop-color:#4179B6"/>
	</linearGradient>
	<circle style="fill:url(#SVGID_00000029756652124347620090000018389020056913200003_);" cx="234.2" cy="626.3" r="10.7"/>
	
		<linearGradient id="SVGID_00000036223744460534011520000005994588915992605100_" gradientUnits="userSpaceOnUse" x1="207.1" y1="-127.5102" x2="234.24" y2="-127.5102" gradientTransform="matrix(1 0 0 -1 0 493.8898)">
		<stop offset="0" style="stop-color:#4780BE"/>
		<stop offset="0.6847" style="stop-color:#457EBB"/>
		<stop offset="1" style="stop-color:#4179B6"/>
	</linearGradient>
	<circle style="fill:url(#SVGID_00000036223744460534011520000005994588915992605100_);" cx="220.7" cy="621.4" r="13.6"/>
	
		<linearGradient id="SVGID_00000131325932126365938840000005841582384291438518_" gradientUnits="userSpaceOnUse" x1="192.55" y1="-128.9102" x2="211.69" y2="-128.9102" gradientTransform="matrix(1 0 0 -1 0 493.8898)">
		<stop offset="0" style="stop-color:#4780BE"/>
		<stop offset="0.6847" style="stop-color:#457EBB"/>
		<stop offset="1" style="stop-color:#4179B6"/>
	</linearGradient>
	<circle style="fill:url(#SVGID_00000131325932126365938840000005841582384291438518_);" cx="202.1" cy="622.8" r="9.6"/>
</g>
<rect y="630.2" class="st26" width="1508.8" height="20"/>
<path class="st27" d="M688.8,182.1c-2.1,0-3.9,0.6-5.4,1.8c-2.2-5.4-7.5-9.3-13.7-9.3c-2.6,0-5,0.6-7.1,1.8c0-0.4,0.1-0.9,0.1-1.4  c0-6.7-5.4-12.1-12.1-12.1s-12.1,5.4-12.1,12.1c0,0.5,0,1,0.1,1.5c-0.6-0.1-1.2-0.1-1.8-0.1c-6.4,0-11.7,5.3-11.7,11.7  s5.3,11.7,11.7,11.7l0,0c0.4,7,6.3,12.6,13.4,12.6c6.2,0,11.5-4.3,13-9.9c2.1,1,4.3,1.7,6.7,1.7c5.3,0,10.1-2.8,12.6-7.1  c1.7,1.8,4,2.8,6.6,2.8c4.9,0,8.9-4,8.9-8.9C697.7,186.1,693.7,182.1,688.8,182.1z M655.2,186.6c-0.1,0-0.3-0.1-0.4-0.1  c0.1,0,0.3-0.1,0.4-0.1C655.3,186.3,655.2,186.4,655.2,186.6z"/>
<path class="st27" d="M1086.7,240c-1.9,0-3.8,0.6-5.2,1.6c-2.1-3-5.5-5.1-9.4-5.4c0.3-1,0.4-2,0.4-3.2c0-6.4-5.2-11.7-11.7-11.7  s-11.7,5.2-11.7,11.7c0,1.1,0.2,2.2,0.5,3.3c-0.2,0-0.3,0-0.5,0c-4.8,0-9,2.9-10.9,6.8c-1.4-0.8-3.1-1.3-4.8-1.3  c-5.2,0-9.4,4.2-9.4,9.4c0,5.2,4.2,9.4,9.4,9.4c3,0,5.5-1.3,7.3-3.5c2.1,2.1,5.2,3.5,8.5,3.5c4.3,0,8-2.1,10.1-5.5  c2.1,4.3,6.5,7.3,11.6,7.3c4.4,0,8.3-2.1,10.6-5.5c1.5,1,3.3,1.6,5.2,1.6c5.1,0,9.2-4.1,9.2-9.2C1095.7,244.2,1091.8,240,1086.7,240  z"/>
<g>
	<path class="st28" d="M620.6,591.8c0,13.5-6.5,24.5-14.6,24.5v-48.9C614.1,567.2,620.6,578.2,620.6,591.8z"/>
	<path class="st29" d="M591.4,591.8c0-13.5,6.5-24.5,14.6-24.5v48.9C598,616.1,591.4,605.2,591.4,591.8z"/>
	<path class="st30" d="M603.3,630.6h5.4l-0.7-22.9l4.6-6.1c0.3-0.5,0.3-1.1-0.1-1.5l0,0c-0.5-0.5-1.3-0.5-1.8,0.1l-4.6,5.7l-7.3-9.5   c-0.4-0.5-1.1-0.6-1.7-0.2l-0.3,0.2c-0.5,0.4-0.6,1.1-0.2,1.6l7.8,9.9L603.3,630.6z"/>
</g>
<g>
	<polygon class="st26" points="669.6,591.9 661,591.9 661,585.2 656.5,585.2 656.5,591.9 638.1,591.9 634.4,604.6 640,604.6    640,630.5 667.3,630.5 667.3,604.6 673.2,604.6  "/>
	<rect x="645.1" y="611.6" class="st27" width="5.4" height="9.2"/>
	<rect x="657" y="611.1" class="st27" width="5.4" height="9.2"/>
</g>
<g>
	<path class="st28" d="M647.3,597.3c0,8.7-7,15.7-15.7,15.7v-31.3C640.3,581.6,647.3,588.6,647.3,597.3z"/>
	<path class="st29" d="M615.9,597.3c0-8.7,7-15.7,15.7-15.7v31.3C623,612.9,615.9,605.9,615.9,597.3z"/>
	<path class="st30" d="M628.8,630.8h5.7l-0.7-24l4.8-6.5c0.4-0.5,0.3-1.1-0.1-1.6l0,0c-0.5-0.5-1.4-0.5-1.8,0.1l-4.8,6l-7.7-10   c-0.4-0.5-1.2-0.6-1.7-0.2l-0.3,0.2c-0.5,0.4-0.6,1.2-0.2,1.7l8.2,10.4L628.8,630.8z"/>
</g>
<g>
	<path class="st28" d="M751.9,608c0,6-4.8,10.8-10.8,10.8v-21.5C747.1,597.3,751.9,602.1,751.9,608z"/>
	<path class="st29" d="M730.4,608c0-6,4.8-10.8,10.8-10.8v21.6C735.2,618.8,730.4,614,730.4,608z"/>
	<path class="st30" d="M739.2,631h3.9l-0.5-16.5l3.3-4.4c0.2-0.3,0.2-0.8-0.1-1.1l0,0c-0.3-0.4-1-0.3-1.3,0l-3.3,4.1l-5.2-6.8   c-0.3-0.4-0.8-0.4-1.2-0.1l-0.2,0.2c-0.4,0.3-0.4,0.8-0.1,1.2l5.7,7.1L739.2,631z"/>
</g>
<g>
	<polygon class="st26" points="270,593.5 261.4,593.5 261.4,586.8 256.9,586.8 256.9,593.5 238.5,593.5 234.8,606.2 240.4,606.2    240.4,632.1 267.7,632.1 267.7,606.2 273.6,606.2  "/>
	<rect x="245.5" y="613.2" class="st27" width="5.4" height="9.2"/>
	<rect x="257.3" y="612.8" class="st27" width="5.4" height="9.2"/>
</g>
<g>
	<path class="st28" d="M292.5,593.5c0,13.5-6.5,24.5-14.6,24.5v-48.9C286,569,292.5,580,292.5,593.5z"/>
	<path class="st29" d="M263.3,593.5c0-13.5,6.5-24.5,14.6-24.5v49C269.8,618,263.3,607,263.3,593.5z"/>
	<path class="st30" d="M275.2,632.4h5.4l-0.7-22.9l4.6-6.1c0.3-0.5,0.3-1.1-0.1-1.5l0,0c-0.5-0.5-1.3-0.5-1.8,0.1l-4.6,5.7l-7.3-9.5   c-0.4-0.5-1.1-0.6-1.6-0.2l-0.3,0.2c-0.5,0.4-0.6,1.1-0.2,1.6l7.9,9.9L275.2,632.4z"/>
</g>
<g>
	<path class="st28" d="M326,586c0,11.9-9.7,21.6-21.6,21.6v-43.3C316.3,564.3,326,574,326,586z"/>
	<path class="st29" d="M282.8,586c0-11.9,9.7-21.6,21.6-21.6v43.2C292.4,607.5,282.8,597.9,282.8,586z"/>
	<path class="st30" d="M300.5,632.1h7.8l-1-33.1l6.6-8.9c0.5-0.7,0.4-1.6-0.1-2.2l0,0c-0.7-0.7-1.9-0.7-2.5,0.1l-6.6,8.2L294,582.5   c-0.6-0.8-1.6-0.9-2.4-0.3l-0.4,0.3c-0.7,0.6-0.9,1.6-0.3,2.4l11.4,14.3L300.5,632.1z"/>
</g>
<path class="st27" d="M1246.5,220.2c-1.2,0-2.3,0.4-3.1,1c-1.3-1.8-3.4-3.1-5.7-3.2c0.1-0.6,0.3-1.3,0.3-1.9c0-3.9-3.2-7.1-7.1-7.1  s-7.1,3.2-7.1,7.1c0,0.6,0.1,1.3,0.3,1.9c-0.1,0-0.3,0-0.3,0c-2.8,0-5.4,1.7-6.6,4.1c-0.9-0.5-1.8-0.8-3-0.8c-3.1,0-5.7,2.6-5.7,5.7  c0,3.1,2.6,5.7,5.7,5.7c1.8,0,3.4-0.8,4.4-2.1c1.3,1.3,3.1,2.1,5.2,2.1c2.6,0,4.8-1.3,6.1-3.4c1.3,2.6,4,4.4,7.1,4.4  c2.7,0,5-1.3,6.4-3.4c0.9,0.6,1.9,1,3.1,1c3.1,0,5.5-2.5,5.5-5.5C1252.1,222.8,1249.5,220.2,1246.5,220.2z"/>
<g id="immeubleback">
	<g>
		<polygon class="st28" points="1089.2,630.1 1021.3,630.1 1021.3,414.2 1089.2,414.3   "/>
		<g>
			<g>
				<rect x="1033.2" y="432" class="st27" width="9.3" height="17.7"/>
				<rect x="1050.6" y="432" class="st27" width="9.3" height="17.7"/>
				<rect x="1068" y="432" class="st27" width="9.3" height="17.7"/>
			</g>
			<g>
				<rect x="1033.2" y="457.2" class="st27" width="9.3" height="17.7"/>
				<rect x="1050.6" y="457.2" class="st27" width="9.3" height="17.7"/>
				<rect x="1068" y="457.2" class="st27" width="9.3" height="17.7"/>
			</g>
			<g>
				<rect x="1033.2" y="482.4" class="st27" width="9.3" height="17.7"/>
				<rect x="1050.6" y="482.4" class="st27" width="9.3" height="17.7"/>
				<rect x="1068" y="482.4" class="st27" width="9.3" height="17.7"/>
			</g>
			<g>
				<rect x="1033.2" y="507.6" class="st27" width="9.3" height="17.7"/>
				<rect x="1050.6" y="507.6" class="st27" width="9.3" height="17.7"/>
				<rect x="1068" y="507.6" class="st27" width="9.3" height="17.7"/>
			</g>
			<g>
				<rect x="1033.2" y="532.8" class="st27" width="9.3" height="17.7"/>
				<rect x="1050.6" y="532.8" class="st27" width="9.3" height="17.7"/>
				<rect x="1068" y="532.8" class="st27" width="9.3" height="17.7"/>
			</g>
			<g>
				<rect x="1033.2" y="558" class="st27" width="9.3" height="17.7"/>
				<rect x="1050.6" y="558" class="st27" width="9.3" height="17.7"/>
				<rect x="1068" y="558" class="st27" width="9.3" height="17.7"/>
			</g>
			<g>
				<rect x="1033.2" y="583.2" class="st27" width="9.3" height="17.7"/>
				<rect x="1050.6" y="583.2" class="st27" width="9.3" height="17.7"/>
				<rect x="1068" y="583.2" class="st27" width="9.3" height="17.7"/>
			</g>
		</g>
	</g>
	<g>
		<polygon class="st27" points="1156,630 1107,630 1107,315.6 1156,346.6   "/>
		<g>
			<rect x="1118.4" y="356.9" class="st31" width="8.2" height="11.3"/>
			<rect x="1136.3" y="357" class="st31" width="8.2" height="11.3"/>
		</g>
		<g>
			<rect x="1118.4" y="374.6" class="st31" width="8.2" height="11.3"/>
			<rect x="1136.3" y="374.7" class="st31" width="8.2" height="11.3"/>
		</g>
		<g>
			<rect x="1118.4" y="392.4" class="st31" width="8.2" height="11.3"/>
			<rect x="1136.3" y="392.5" class="st31" width="8.2" height="11.3"/>
		</g>
		<g>
			<rect x="1118.4" y="410.1" class="st31" width="8.2" height="11.3"/>
			<rect x="1136.3" y="410.2" class="st31" width="8.2" height="11.3"/>
		</g>
		<g>
			<rect x="1118.4" y="427.8" class="st31" width="8.2" height="11.3"/>
			<rect x="1136.3" y="427.9" class="st31" width="8.2" height="11.3"/>
		</g>
		<g>
			<rect x="1118.4" y="445.5" class="st31" width="8.2" height="11.3"/>
			<rect x="1136.3" y="445.6" class="st31" width="8.2" height="11.3"/>
		</g>
		<g>
			<rect x="1118.4" y="463.2" class="st31" width="8.2" height="11.3"/>
			<rect x="1136.3" y="463.3" class="st31" width="8.2" height="11.3"/>
		</g>
		<g>
			<rect x="1118.4" y="481" class="st31" width="8.2" height="11.3"/>
			<rect x="1136.3" y="481.1" class="st31" width="8.2" height="11.3"/>
		</g>
		<g>
			<rect x="1118.4" y="498.7" class="st31" width="8.2" height="11.3"/>
			<rect x="1136.3" y="498.8" class="st31" width="8.2" height="11.3"/>
		</g>
		<g>
			<rect x="1118.4" y="516.4" class="st31" width="8.2" height="11.3"/>
			<rect x="1136.3" y="516.5" class="st31" width="8.2" height="11.3"/>
		</g>
		<g>
			<rect x="1118.4" y="534.1" class="st31" width="8.2" height="11.3"/>
			<rect x="1136.3" y="534.2" class="st31" width="8.2" height="11.3"/>
		</g>
		<g>
			<rect x="1118.4" y="551.8" class="st31" width="8.2" height="11.3"/>
			<rect x="1136.3" y="551.9" class="st31" width="8.2" height="11.3"/>
		</g>
		<g>
			<rect x="1118.4" y="569.6" class="st31" width="8.2" height="11.3"/>
			<rect x="1136.3" y="569.7" class="st31" width="8.2" height="11.3"/>
		</g>
		<g>
			<rect x="1118.4" y="587.3" class="st31" width="8.2" height="11.3"/>
			<rect x="1136.3" y="587.4" class="st31" width="8.2" height="11.3"/>
		</g>
		<g>
			<rect x="1118.4" y="605" class="st31" width="8.2" height="11.3"/>
			<rect x="1136.3" y="605.1" class="st31" width="8.2" height="11.3"/>
		</g>
	</g>
	<g>
		<path class="st28" d="M1237.2,422.9v-27h-6v26.9h-5.1v-8.1c0-4.8-3.8-8.6-8.6-8.6h-15.4c-4.7,0-8.6,3.9-8.6,8.6v8.1h-6.2v207.4    h55.3V422.9H1237.2z"/>
		<g>
			<rect x="1199" y="433.2" class="st27" width="10.2" height="11.3"/>
			<rect x="1221.1" y="433.3" class="st27" width="10.2" height="11.3"/>
		</g>
		<g>
			<rect x="1199" y="450.8" class="st27" width="10.2" height="11.3"/>
			<rect x="1221.1" y="450.9" class="st27" width="10.2" height="11.3"/>
		</g>
		<g>
			<rect x="1199" y="468.4" class="st27" width="10.2" height="11.3"/>
			<rect x="1221.1" y="468.5" class="st27" width="10.2" height="11.3"/>
		</g>
		<g>
			<rect x="1199" y="486.1" class="st27" width="10.2" height="11.3"/>
			<rect x="1221.1" y="486.2" class="st27" width="10.2" height="11.3"/>
		</g>
		<g>
			<rect x="1199" y="503.7" class="st27" width="10.2" height="11.3"/>
			<rect x="1221.1" y="503.8" class="st27" width="10.2" height="11.3"/>
		</g>
		<g>
			<rect x="1199" y="521.3" class="st27" width="10.2" height="11.3"/>
			<rect x="1221.1" y="521.4" class="st27" width="10.2" height="11.3"/>
		</g>
		<g>
			<rect x="1199" y="539" class="st27" width="10.2" height="11.3"/>
			<rect x="1221.1" y="539.1" class="st27" width="10.2" height="11.3"/>
		</g>
		<g>
			<rect x="1199" y="556.6" class="st27" width="10.2" height="11.3"/>
			<rect x="1221.1" y="556.7" class="st27" width="10.2" height="11.3"/>
		</g>
		<g>
			<rect x="1199" y="574.2" class="st27" width="10.2" height="11.3"/>
			<rect x="1221.1" y="574.3" class="st27" width="10.2" height="11.3"/>
		</g>
		<g>
			<rect x="1199" y="591.8" class="st27" width="10.2" height="11.3"/>
			<rect x="1221.1" y="591.9" class="st27" width="10.2" height="11.3"/>
		</g>
		<g>
			<rect x="1199" y="609.5" class="st27" width="10.2" height="11.3"/>
			<rect x="1221.1" y="609.6" class="st27" width="10.2" height="11.3"/>
		</g>
	</g>
</g>
<g id="immeublefront">
	<g>
		<polygon class="st30" points="1044.6,537.2 1044.6,523.4 1033.5,523.4 1033.5,537.2 998.3,537.2 998.3,630.5 1053,630.5     1053,537.2   "/>
		<g>
			<rect x="1031.4" y="546.3" class="st27" width="9.9" height="11.6"/>
			<rect x="1010" y="546.4" class="st27" width="9.9" height="11.6"/>
		</g>
		<g>
			<rect x="1031.4" y="564.5" class="st27" width="9.9" height="11.6"/>
			<rect x="1010" y="564.6" class="st27" width="9.9" height="11.6"/>
		</g>
		<g>
			<rect x="1031.4" y="582.6" class="st27" width="9.9" height="11.6"/>
			<rect x="1010" y="582.7" class="st27" width="9.9" height="11.6"/>
		</g>
		<g>
			<rect x="1031.4" y="600.7" class="st27" width="9.9" height="11.6"/>
			<rect x="1010" y="600.8" class="st27" width="9.9" height="11.6"/>
		</g>
	</g>
	<g>
		<polygon class="st26" points="1255.1,496.6 1255.1,488.8 1247.3,488.8 1247.3,496.6 1244.2,496.6 1244.2,476.7 1234.9,476.7     1234.9,496.6 1227.9,496.6 1227.9,630.5 1273.4,630.5 1273.4,496.6   "/>
		<g>
			<rect x="1237.6" y="509.6" class="st27" width="8.2" height="16.6"/>
			<rect x="1255.5" y="509.8" class="st27" width="8.2" height="16.6"/>
		</g>
		<g>
			<rect x="1237.6" y="535.7" class="st27" width="8.2" height="16.6"/>
			<rect x="1255.5" y="535.8" class="st27" width="8.2" height="16.6"/>
		</g>
		<g>
			<rect x="1237.6" y="561.7" class="st27" width="8.2" height="16.6"/>
			<rect x="1255.5" y="561.9" class="st27" width="8.2" height="16.6"/>
		</g>
		<g>
			<rect x="1237.6" y="587.7" class="st27" width="8.2" height="16.6"/>
			<rect x="1255.5" y="587.9" class="st27" width="8.2" height="16.6"/>
		</g>
	</g>
</g>
<g>
	<path class="st28" d="M1322.1,556.1c0,8.3-4,15.1-8.8,15.1V541C1318.2,541,1322.1,547.8,1322.1,556.1z"/>
	<path class="st29" d="M1304.5,556.1c0-8.3,4-15.1,8.8-15.1v30.2C1308.4,571.2,1304.5,564.4,1304.5,556.1z"/>
	<path class="st30" d="M1311.7,580.1h3.2l-0.4-14.1l2.8-3.8c0.2-0.3,0.2-0.7-0.1-0.9l0,0c-0.3-0.3-0.8-0.3-1.1,0.1l-2.8,3.5   l-4.4-5.9c-0.3-0.3-0.7-0.4-1-0.1l-0.2,0.1c-0.3,0.3-0.4,0.7-0.1,1l4.7,6.1L1311.7,580.1z"/>
</g>
<g id="colline_00000178170900876177878020000015434374641040303537_">
	<path id="mountain2_00000068649034117968459870000011477134635245081761_" class="st30" d="M1454.8,630.9   c-14.1-39.1-51.6-67.1-95.6-67.1s-81.5,28-95.6,67.1H1454.8z"/>
</g>
<linearGradient id="SVGID_00000136370237778746020570000015041726064590046903_" gradientUnits="userSpaceOnUse" x1="391.9" y1="-139.2101" x2="425.7" y2="-139.2101" gradientTransform="matrix(1 0 0 -1 0 493.8898)">
	<stop offset="0" style="stop-color:#4780BE"/>
	<stop offset="0.6847" style="stop-color:#457EBB"/>
	<stop offset="1" style="stop-color:#4179B6"/>
</linearGradient>
<circle style="fill:url(#SVGID_00000136370237778746020570000015041726064590046903_);" cx="408.8" cy="633.1" r="16.9"/>
<g>
	
		<linearGradient id="SVGID_00000020369335171017236450000008892238749769357224_" gradientUnits="userSpaceOnUse" x1="498.9228" y1="-137.1102" x2="514.0871" y2="-137.1102" gradientTransform="matrix(1 0 0 -1 0 493.8898)">
		<stop offset="0" style="stop-color:#4780BE"/>
		<stop offset="0.6847" style="stop-color:#457EBB"/>
		<stop offset="1" style="stop-color:#4179B6"/>
	</linearGradient>
	<circle style="fill:url(#SVGID_00000020369335171017236450000008892238749769357224_);" cx="506.5" cy="631" r="7.6"/>
	
		<linearGradient id="SVGID_00000029024541893924637020000010814962295136542622_" gradientUnits="userSpaceOnUse" x1="502.4" y1="-137.1102" x2="528" y2="-137.1102" gradientTransform="matrix(1 0 0 -1 0 493.8898)">
		<stop offset="0" style="stop-color:#4780BE"/>
		<stop offset="0.6847" style="stop-color:#457EBB"/>
		<stop offset="1" style="stop-color:#4179B6"/>
	</linearGradient>
	<circle style="fill:url(#SVGID_00000029024541893924637020000010814962295136542622_);" cx="515.2" cy="631" r="12.8"/>
	
		<linearGradient id="SVGID_00000045606309998829311270000010476087173291938185_" gradientUnits="userSpaceOnUse" x1="515.2536" y1="-132.9102" x2="538.747" y2="-132.9102" gradientTransform="matrix(1 0 0 -1 0 493.8898)">
		<stop offset="0" style="stop-color:#4780BE"/>
		<stop offset="0.6847" style="stop-color:#457EBB"/>
		<stop offset="1" style="stop-color:#4179B6"/>
	</linearGradient>
	<circle style="fill:url(#SVGID_00000045606309998829311270000010476087173291938185_);" cx="527" cy="626.8" r="11.8"/>
	
		<linearGradient id="SVGID_00000070816149541707935530000004093629954271043502_" gradientUnits="userSpaceOnUse" x1="489.6318" y1="-141.4102" x2="506.4947" y2="-141.4102" gradientTransform="matrix(1 0 0 -1 0 493.8898)">
		<stop offset="0" style="stop-color:#4780BE"/>
		<stop offset="0.6847" style="stop-color:#457EBB"/>
		<stop offset="1" style="stop-color:#4179B6"/>
	</linearGradient>
	<circle style="fill:url(#SVGID_00000070816149541707935530000004093629954271043502_);" cx="498" cy="635.3" r="8.4"/>
	
		<linearGradient id="SVGID_00000179646694816251681100000005365634403203594687_" gradientUnits="userSpaceOnUse" x1="472.4415" y1="-141.8102" x2="498.0415" y2="-141.8102" gradientTransform="matrix(1 0 0 -1 0 493.8898)">
		<stop offset="0" style="stop-color:#4780BE"/>
		<stop offset="0.6847" style="stop-color:#457EBB"/>
		<stop offset="1" style="stop-color:#4179B6"/>
	</linearGradient>
	<circle style="fill:url(#SVGID_00000179646694816251681100000005365634403203594687_);" cx="485.2" cy="635.7" r="12.8"/>
	
		<linearGradient id="SVGID_00000016042925486671920310000008835469195355817614_" gradientUnits="userSpaceOnUse" x1="458.6" y1="-134.5102" x2="485.2859" y2="-134.5102" gradientTransform="matrix(1 0 0 -1 0 493.8898)">
		<stop offset="0" style="stop-color:#4780BE"/>
		<stop offset="0.6847" style="stop-color:#457EBB"/>
		<stop offset="1" style="stop-color:#4179B6"/>
	</linearGradient>
	<circle style="fill:url(#SVGID_00000016042925486671920310000008835469195355817614_);" cx="471.9" cy="628.4" r="13.3"/>
	
		<linearGradient id="SVGID_00000083789497429939509460000001585040634061543320_" gradientUnits="userSpaceOnUse" x1="440.7" y1="-136.5102" x2="471.9" y2="-136.5102" gradientTransform="matrix(1 0 0 -1 0 493.8898)">
		<stop offset="0" style="stop-color:#4780BE"/>
		<stop offset="0.6847" style="stop-color:#457EBB"/>
		<stop offset="1" style="stop-color:#4179B6"/>
	</linearGradient>
	<circle style="fill:url(#SVGID_00000083789497429939509460000001585040634061543320_);" cx="456.3" cy="630.4" r="15.6"/>
	
		<linearGradient id="SVGID_00000161594814089912669740000007980479192814362269_" gradientUnits="userSpaceOnUse" x1="423.8378" y1="-139.8102" x2="445.6378" y2="-139.8102" gradientTransform="matrix(1 0 0 -1 0 493.8898)">
		<stop offset="0" style="stop-color:#4780BE"/>
		<stop offset="0.6847" style="stop-color:#457EBB"/>
		<stop offset="1" style="stop-color:#4179B6"/>
	</linearGradient>
	<circle style="fill:url(#SVGID_00000161594814089912669740000007980479192814362269_);" cx="434.8" cy="633.7" r="10.9"/>
	
		<linearGradient id="SVGID_00000114058396863697329610000009111439759170644138_" gradientUnits="userSpaceOnUse" x1="406.9545" y1="-134.7101" x2="434.725" y2="-134.7101" gradientTransform="matrix(1 0 0 -1 0 493.8898)">
		<stop offset="0" style="stop-color:#4780BE"/>
		<stop offset="0.6847" style="stop-color:#457EBB"/>
		<stop offset="1" style="stop-color:#4179B6"/>
	</linearGradient>
	<circle style="fill:url(#SVGID_00000114058396863697329610000009111439759170644138_);" cx="420.9" cy="628.6" r="13.9"/>
	
		<linearGradient id="SVGID_00000131361634634789348450000008362795380969478830_" gradientUnits="userSpaceOnUse" x1="392.0869" y1="-136.2101" x2="411.6869" y2="-136.2101" gradientTransform="matrix(1 0 0 -1 0 493.8898)">
		<stop offset="0" style="stop-color:#4780BE"/>
		<stop offset="0.6847" style="stop-color:#457EBB"/>
		<stop offset="1" style="stop-color:#4179B6"/>
	</linearGradient>
	<circle style="fill:url(#SVGID_00000131361634634789348450000008362795380969478830_);" cx="401.8" cy="630.1" r="9.8"/>
	
		<linearGradient id="SVGID_00000000902315938362785900000017826788237737047945_" gradientUnits="userSpaceOnUse" x1="367.3" y1="-138.4102" x2="396.9" y2="-138.4102" gradientTransform="matrix(1 0 0 -1 0 493.8898)">
		<stop offset="0" style="stop-color:#4780BE"/>
		<stop offset="0.6847" style="stop-color:#457EBB"/>
		<stop offset="1" style="stop-color:#4179B6"/>
	</linearGradient>
	<circle style="fill:url(#SVGID_00000000902315938362785900000017826788237737047945_);" cx="382.1" cy="632.3" r="14.8"/>
</g>
<g>
	<path class="st28" d="M451.9,596.2c0,9.5-7.6,17.1-17.1,17.1v-34C444.3,579.3,451.9,586.9,451.9,596.2z"/>
	<path class="st29" d="M417.9,596.2c0-9.5,7.6-17.1,17.1-17.1v34.1C425.5,613.3,417.9,605.7,417.9,596.2z"/>
	<path class="st30" d="M431.8,632.5h6.2l-0.8-26.1l5.2-7c0.3-0.5,0.3-1.3-0.2-1.7l0,0c-0.5-0.6-1.6-0.5-2.1,0l-5.2,6.5l-8.2-10.7   c-0.5-0.6-1.3-0.6-1.9-0.2l-0.3,0.3c-0.6,0.5-0.6,1.3-0.2,1.9l9,11.2L431.8,632.5z"/>
</g>
<path class="st27" d="M1167.8,127.2c-2,0-4,0.6-5.5,1.7c-2.3-3.2-5.8-5.3-9.9-5.7c0.3-1.1,0.5-2.2,0.5-3.3c0-6.8-5.5-12.4-12.4-12.4  s-12.4,5.5-12.4,12.4c0,1.2,0.2,2.4,0.5,3.4c-0.2,0-0.3,0-0.5,0c-5.1,0-9.4,3-11.5,7.2c-1.5-0.9-3.2-1.4-5.1-1.4  c-5.5,0-9.9,4.4-9.9,9.9s4.4,9.9,9.9,9.9c3.1,0,5.8-1.4,7.7-3.6c2.3,2.3,5.5,3.6,8.9,3.6c4.5,0,8.4-2.3,10.7-5.8  c2.3,4.5,6.9,7.6,12.3,7.6c4.6,0,8.7-2.3,11.2-5.8c1.6,1.1,3.5,1.7,5.5,1.7c5.4,0,9.7-4.4,9.7-9.7  C1177.5,131.5,1173.2,127.2,1167.8,127.2z"/>
<g>
	<g>
		<line class="st44" x1="-113.9" y1="549.4" x2="-113.9" y2="572.1"/>
		<polygon class="st45" points="-170.8,564.5 -176.5,564.5 -195.4,561.2 -195.4,547.8 -170.8,547.8   "/>
		<polygon class="st45" points="-156.4,598.5 -166.3,598.5 -172,586.6 -172,546.9 -150.1,547.1 -150.1,586.6   "/>
		<g>
			<path class="st45" d="M-164,596.2l-10.9,4.5l-6.3,8.9l-2.5,7.1l-0.5,7.7l3.6-0.1l0.8-3.6c0,0,2.9-5.5,3.5-5.7     c0.5-0.2,6.9-5.4,6.9-5.4l5.4-0.1V596.2z"/>
			<path class="st44" d="M-176.3,615"/>
			<path class="st44" d="M-181.2,609.6"/>
			<path class="st44" d="M-169.4,609.6"/>
			<path class="st44" d="M-174.9,600.7"/>
		</g>
		<g>
			<path class="st45" d="M-159.6,596.2l10.9,4.5l6.3,8.9l2.5,7.1l0.5,7.7l-3.6-0.1l-0.8-3.6c0,0-2.9-5.5-3.5-5.7     c-0.5-0.2-6.9-5.4-6.9-5.4l-5.4-0.1V596.2z"/>
		</g>
		<rect x="-164.2" y="597.9" class="st45" width="5" height="26.4"/>
		<path class="st45" d="M-88.1,548.7h-119.4l-1.7-1.7l0-5.6l1-1.5l38.4-18.3l0.7-0.2h22l0.6,0.1l59,23.9L-88.1,548.7z M-205.9,545.4    h109.1l-50.7-20.5h-21.3l-37.1,17.7L-205.9,545.4z"/>
		<path class="st45" d="M-151.1,548.2c-0.5,0-1-0.2-1.3-0.6l-18.3-23.1c-0.6-0.7-0.5-1.8,0.3-2.4c0.7-0.6,1.8-0.5,2.4,0.3l18.3,23.1    c0.6,0.7,0.5,1.8-0.3,2.4C-150.4,548-150.8,548.2-151.1,548.2z"/>
		<path class="st45" d="M-171.6,547.5c-0.4,0-0.9-0.2-1.2-0.5c-0.6-0.7-0.6-1.7,0.1-2.4l23.6-22.5c0.7-0.6,1.7-0.6,2.4,0.1    c0.6,0.7,0.6,1.7-0.1,2.4l-23.6,22.5C-170.7,547.4-171.1,547.5-171.6,547.5z"/>
		<path class="st45" d="M-172.5,548.8C-172.5,548.8-172.5,548.8-172.5,548.8c-1,0-1.7-0.8-1.7-1.7l0.4-22.1c0-0.9,0.8-1.7,1.7-1.7    c0,0,0,0,0,0c0.9,0,1.7,0.8,1.7,1.7l-0.4,22.1C-170.9,548-171.6,548.8-172.5,548.8z"/>
		<path class="st45" d="M-148.5,547C-148.5,547-148.5,547-148.5,547c-1,0-1.7-0.8-1.7-1.7l0.4-22.1c0-0.9,0.8-1.7,1.7-1.7    c0,0,0,0,0,0c0.9,0,1.7,0.8,1.7,1.7l-0.4,22.1C-146.8,546.2-147.5,547-148.5,547z"/>
		<path class="st45" d="M-190.6,547.8c-0.4,0-0.8-0.1-1.1-0.4c-0.7-0.6-0.8-1.7-0.2-2.4l16.5-18.9c0.6-0.7,1.7-0.8,2.4-0.2    c0.7,0.6,0.8,1.7,0.2,2.4l-16.5,18.9C-189.7,547.6-190.2,547.8-190.6,547.8z"/>
		<path class="st45" d="M-116.6,548.6c-0.4,0-0.7-0.1-1-0.4l-29.4-22.7c-0.7-0.6-0.9-1.6-0.3-2.4c0.6-0.7,1.6-0.9,2.4-0.3l29.4,22.7    c0.7,0.6,0.9,1.6,0.3,2.4C-115.6,548.3-116.1,548.6-116.6,548.6z"/>
		<rect x="-115.6" y="547.2" class="st46" width="3.3" height="3.5"/>
		<polyline class="st44" points="-128,577.1 -113.8,572.4 -99.6,577.1   "/>
		<rect x="-128" y="577.1" class="st30" width="28.4" height="7.5"/>
		<line class="st44" x1="-113.8" y1="572.4" x2="-113.8" y2="577.1"/>
	</g>
	<g class="st47">
		<defs>
			
				<rect id="SVGID_00000049182124203290731240000004149562852317144224_" x="-241.5" y="509.6" class="st47" width="80.5" height="123.2"/>
		</defs>
		<clipPath id="SVGID_00000098197973003775817360000016872180193720702121_">
			<use xlink:href="#SVGID_00000049182124203290731240000004149562852317144224_" style="overflow:visible;"/>
		</clipPath>
		<g style="clip-path:url(#SVGID_00000098197973003775817360000016872180193720702121_);">
			<path class="st49" d="M-146.4,521.6l-0.6-0.1h-22l-0.7,0.2l-38.4,18.3l-1,1.5l0,5.6l1.7,1.7h11.9v12.4l19.4,3.5h4.2v22l5.1,10.7     l-8,3.3l-6.3,8.9l-2.5,7.1l-0.5,7.7l3.6-0.1l0.8-3.6c0,0,2.9-5.5,3.5-5.7c0.5-0.2,6.9-5.4,6.9-5.4l5.2-0.1v14.9h5v-14.8l5,0.1     c0,0,6.4,5.2,6.9,5.4c0.5,0.2,3.5,5.7,3.5,5.7l0.8,3.6l3.6,0.1l-0.5-7.7l-2.5-7.1l-6.3-8.9l-7.2-3l5.9-11.1v-37.9h34.5v2h3.3v-2     H-88l0.6-3.2L-146.4,521.6z M-169.8,525.4l7.5,9.5l-8.3,7.9l0.3-17.1L-169.8,525.4z M-157.8,535.2l8.1-7.7L-150,545L-157.8,535.2     z M-154,545.4h-14.5l8.3-7.9L-154,545.4z M-159.9,532.5l-6.1-7.7h14.1L-159.9,532.5z M-174.1,545.4h-13.6l13.9-15.8L-174.1,545.4     z M-146.7,545.3l0.3-19.4l25.1,19.4L-146.7,545.3C-146.7,545.4-146.7,545.3-146.7,545.3z M-205.8,542.5l27.8-13.2l-13.8,15.7     c-0.1,0.1-0.2,0.2-0.2,0.4h-13.7L-205.8,542.5z M-115.7,545.4l-20.9-16.2l39.9,16.2H-115.7z"/>
			<polygon class="st50" points="-113.4,573.2 -128.7,578 -129.7,578 -129.7,588.8 -97.3,588.8 -97.3,578 -98.3,578    "/>
		</g>
	</g>
	<rect x="-128" y="577.1" class="st51" width="14.2" height="7.5"/>
</g>
<script xmlns=""/></svg>