<?xml version="1.0" encoding="utf-8"?>
<!-- Generator: Adobe Illustrator 25.4.1, SVG Export Plug-In . SVG Version: 6.00 Build 0)  -->
<svg version="1.1" id="_x2018_ëîé_x5F_1" xmlns="http://www.w3.org/2000/svg" xmlns:xlink="http://www.w3.org/1999/xlink"
	 x="0px" y="0px" viewBox="0 0 5500 3300" style="enable-background:new 0 0 5500 3300;" xml:space="preserve">
<style type="text/css">
	.st0{opacity:0.2;}
	.st1{fill:#528CCE;}
	.st2{opacity:0.1;fill:#005D92;enable-background:new    ;}
	.st3{opacity:0.3;fill:#76BEEA;enable-background:new    ;}
	.st4{fill:#005D92;}
	.st5{fill:#214976;}
	.st6{fill:#2A5C94;}
	.st7{fill:#002F49;}
	.st8{fill:#2E65A3;}
	.st9{fill:#F2F9FD;}
	.st10{fill:#00466E;}
	.st11{fill:#337DA8;}
	.st12{fill:#76BEEA;}
	.st13{fill:#FCCA85;}
	.st14{fill:#004E72;}
	.st15{opacity:0.9;fill:#004E72;enable-background:new    ;}
	.st16{opacity:0.7;fill:#00466E;enable-background:new    ;}
	.st17{opacity:0.9;fill:#336B8B;enable-background:new    ;}
	.st18{opacity:0.4;fill:#00466E;enable-background:new    ;}
	.st19{fill:#FAA634;}
	.st20{opacity:0.3;}
	.st21{fill:#BB7D27;}
	.st22{opacity:0.3;fill:#005D92;enable-background:new    ;}
	.st23{fill:#F49D37;}
	.st24{fill:#003553;}
	.st25{fill:#FFFFFF;}
	.st26{opacity:0.7;fill:#E4F2FB;enable-background:new    ;}
	.st27{fill:#336B8B;}
	.st28{fill:#86D1CD;}
	.st29{fill:#8BA258;}
	.st30{fill:#265E7E;}
	.st31{opacity:0.3;fill:#00466E;enable-background:new    ;}
	.st32{opacity:0.5;}
	.st33{fill:#669EBE;}
	.st34{fill:#213F7A;}
	.st35{opacity:0.2;fill:#005D92;enable-background:new    ;}
	.st36{fill:#FBCDA6;}
	.st37{fill:#101A22;}
	.st38{fill:none;}
	.st39{opacity:0.3;fill:#FFFFFF;enable-background:new    ;}
	.st40{opacity:0.2;fill:#FFFFFF;enable-background:new    ;}
	.st41{opacity:0.4;fill:#FFFFFF;enable-background:new    ;}
	.st42{fill:#33718E;}
	.st43{fill:#BDD3EC;}
	.st44{fill:#71A0D7;}
	.st45{fill:#DCE8F5;}
	.st46{fill:#9FBFE4;}
</style>
<g>
	<g class="st0">
		<g>
			<path class="st1" d="M3886.3,2283.3c0,0-79.6-54.9-87.7-78.3c-11.2-32.4,13.8-58.1,37.9-34.5
				C3860.5,2194.1,3865,2209.1,3886.3,2283.3z"/>
			<path class="st1" d="M3818.3,2179.6c0,0,28.2,32.5,67.8,102.6C3886,2282.2,3822.3,2191.8,3818.3,2179.6z"/>
		</g>
		<g>
			<g>
				<path class="st1" d="M4187.3,1572.8c0,0-54-80.2-53-104.9c1.4-34.2,34.1-49,47.8-18.2C4195.9,1480.4,4194.5,1496,4187.3,1572.8z
					"/>
				<path class="st1" d="M4161.8,1451.4c0,0,14.4,40.6,25.6,120.3C4187.4,1571.7,4161.1,1464.3,4161.8,1451.4z"/>
			</g>
			<g>
				<path class="st1" d="M4102.9,1722.2c0,0-79.6-54.9-87.7-78.3c-11.2-32.4,13.8-58.1,37.9-34.5
					C4077.1,1633.1,4081.6,1648.1,4102.9,1722.2z"/>
				<path class="st1" d="M4034.8,1618.5c0,0,28.2,32.5,67.8,102.6C4102.6,1721.1,4038.9,1630.8,4034.8,1618.5z"/>
			</g>
			<g>
				<path class="st1" d="M4113.3,1696.6c0,0,96.6-2.8,116.2-18.1c27-21.1,19.9-56.3-13.1-49.5S4171.5,1646,4113.3,1696.6z"/>
				<path class="st1" d="M4226.8,1646.5c0,0-41.3,12-112.7,49.3C4114.2,1695.9,4216.7,1654.6,4226.8,1646.5z"/>
			</g>
			<g>
				<path class="st1" d="M4037.5,1850.2c0,0,96.6-2.8,116.2-18.1c27-21.1,19.9-56.3-13-49.5
					C4107.6,1789.4,4095.7,1799.6,4037.5,1850.2z"/>
				<path class="st1" d="M4151,1800.2c0,0-41.3,12-112.7,49.3C4038.4,1849.5,4140.9,1808.3,4151,1800.2z"/>
			</g>
			<g>
				<path class="st1" d="M3959.9,2039.7c0,0,96.3,7.8,117.4-5.3c29.1-18,26-53.7-7.6-50.6C4036.2,1987,4023.3,1995.8,3959.9,2039.7z
					"/>
				<path class="st1" d="M4078.2,2002.4c0,0-42.4,7.4-117.4,36.7C3960.8,2039.1,4067.3,2009.4,4078.2,2002.4z"/>
			</g>
			<g>
				<path class="st1" d="M3896.6,2232.7c0,0,96.3,7.8,117.4-5.3c29.1-18,26-53.7-7.6-50.6C3972.9,2180,3960,2188.8,3896.6,2232.7z"
					/>
				<path class="st1" d="M4014.9,2195.4c0,0-42.4,7.4-117.4,36.7C3897.5,2232.1,4004,2202.4,4014.9,2195.4z"/>
			</g>
			<g>
				<path class="st1" d="M4201.1,1547.3c0,0,96.6-2.8,116.2-18.1c27-21.1,19.9-56.3-13.1-49.5
					C4271.2,1486.5,4259.3,1496.7,4201.1,1547.3z"/>
				<path class="st1" d="M4314.6,1497.2c0,0-41.3,12-112.7,49.3C4202,1546.6,4304.6,1505.4,4314.6,1497.2z"/>
			</g>
			<g>
				<path class="st1" d="M4298.9,1408.4c0,0,96.6-2.8,116.2-18.1c27-21.1,19.9-56.3-13.1-49.5
					C4369,1347.6,4357.1,1357.8,4298.9,1408.4z"/>
				<path class="st1" d="M4412.4,1358.4c0,0-41.3,12-112.7,49.3C4299.8,1407.7,4402.4,1366.5,4412.4,1358.4z"/>
			</g>
			<g>
				<path class="st1" d="M4414,1258.6c0,0,96.6-2.8,116.2-18.1c27-21.1,19.9-56.3-13.1-49.5S4472.2,1208,4414,1258.6z"/>
				<path class="st1" d="M4527.5,1208.6c0,0-41.3,12-112.7,49.3C4414.9,1257.9,4517.5,1216.7,4527.5,1208.6z"/>
			</g>
			<g>
				<path class="st1" d="M4529.7,1140.5c0,0,81.5,19.2,101.3,10.8c27.3-11.7,29.3-42.7,0.1-44.4
					C4601.9,1105.3,4589.7,1111.1,4529.7,1140.5z"/>
				<path class="st1" d="M4635.9,1123.9c0,0-37.3,0.8-105.4,16.2C4530.5,1140.1,4625.6,1128.5,4635.9,1123.9z"/>
			</g>
			<g>
				<path class="st1" d="M4613.5,1068.1c0,0,83-11.5,98.4-26.5c21.3-20.7,11.9-50.4-15.9-41.4
					C4668.2,1009.1,4658.9,1019,4613.5,1068.1z"/>
				<path class="st1" d="M4706.6,1014.3c0,0-34.5,14.2-92.4,53.1C4614.1,1067.4,4698.6,1022.2,4706.6,1014.3z"/>
			</g>
			<g>
				<path class="st1" d="M4018.9,1899.6c0,0-79.6-54.9-87.7-78.3c-11.2-32.4,13.8-58.1,37.9-34.5
					C3993.1,1810.5,3997.6,1825.5,4018.9,1899.6z"/>
				<path class="st1" d="M3950.8,1795.9c0,0,28.2,32.5,67.8,102.6C4018.6,1898.5,3954.9,1808.2,3950.8,1795.9z"/>
			</g>
			<g>
				<path class="st1" d="M3950,2067.7c0,0-79.6-54.9-87.7-78.3c-11.2-32.4,13.8-58.1,37.9-34.5
					C3924.2,1978.6,3928.7,1993.6,3950,2067.7z"/>
				<path class="st1" d="M3881.9,1964c0,0,28.2,32.5,67.8,102.6C3949.7,2066.6,3886,1976.3,3881.9,1964z"/>
			</g>
			<g>
				<path class="st1" d="M4285.2,1425c0,0-54-80.2-53-104.9c1.4-34.2,34.1-49,47.8-18.2C4293.8,1332.6,4292.4,1348.2,4285.2,1425z"
					/>
				<path class="st1" d="M4259.7,1303.6c0,0,14.4,40.6,25.6,120.3C4285.3,1423.9,4259,1316.5,4259.7,1303.6z"/>
			</g>
			<g>
				<path class="st1" d="M4405.4,1283.2c0,0-54-80.2-53-104.9c1.4-34.2,34.1-49,47.8-18.2C4414,1190.8,4412.7,1206.4,4405.4,1283.2z
					"/>
				<path class="st1" d="M4380,1161.8c0,0,14.4,40.6,25.6,120.3C4405.6,1282.1,4379.3,1174.7,4380,1161.8z"/>
			</g>
			<g>
				<path class="st1" d="M4512.4,1159.4c0,0-45.3-67.2-44.5-88c1.2-28.7,28.6-41.1,40.1-15.3
					C4519.5,1081.8,4518.4,1095,4512.4,1159.4z"/>
				<path class="st1" d="M4491,1057.5c0,0,12,34,21.5,100.9C4512.4,1158.4,4490.4,1068.3,4491,1057.5z"/>
			</g>
			<path class="st1" d="M3803.5,2731.9c0.2-2.6,19-265.8,128.5-601.1c101.1-309.4,302.2-745.2,686.6-1064.5l-1.7-2.1
				c-170,141.2-318.6,316.7-441.9,521.7c-98.6,164-181.2,347-245.6,544.2c-109.6,335.6-128.4,599.1-128.6,601.7L3803.5,2731.9z"/>
		</g>
	</g>
	<g class="st0">
		<g>
			<path class="st1" d="M3977.7,2474.5c0,0-42.8-37.8-46-52.1c-4.3-19.8,12.2-33.1,24.6-17.6
				C3968.8,2420.4,3970.4,2429.5,3977.7,2474.5z"/>
			<path class="st1" d="M3945,2408.9c0,0,14.3,21.1,32.6,64.9C3977.6,2473.8,3946.6,2416.4,3945,2408.9z"/>
		</g>
		<g>
			<g>
				<path class="st1" d="M4204,2078.7c0,0-26.1-50.8-23.7-65.3c3.2-20,23.4-26.4,29.3-7.4C4215.5,2025.1,4213.6,2034.2,4204,2078.7z
					"/>
				<path class="st1" d="M4197.5,2005.7c0,0,5.6,24.8,6.6,72.4C4204.1,2078.1,4196.2,2013.2,4197.5,2005.7z"/>
			</g>
			<g>
				<path class="st1" d="M4144,2160.5c0,0-42.8-37.8-46-52.1c-4.3-19.8,12.2-33.1,24.6-17.6
					C4135.1,2106.4,4136.7,2115.5,4144,2160.5z"/>
				<path class="st1" d="M4111.3,2094.9c0,0,14.3,21.1,32.6,64.9C4143.9,2159.8,4112.8,2102.4,4111.3,2094.9z"/>
			</g>
			<g>
				<path class="st1" d="M4151.9,2146.2c0,0,56.9,5.1,69.4-2.5c17.3-10.5,15.6-31.6-4.2-30
					C4197.3,2115.4,4189.6,2120.5,4151.9,2146.2z"/>
				<path class="st1" d="M4222,2124.7c0,0-25.1,4.1-69.5,21.1C4152.5,2145.8,4215.5,2128.8,4222,2124.7z"/>
			</g>
			<g>
				<path class="st1" d="M4096.7,2231c0,0,56.9,5.1,69.4-2.5c17.3-10.5,15.6-31.6-4.2-30C4142.1,2200.2,4134.4,2205.4,4096.7,2231z"
					/>
				<path class="st1" d="M4166.8,2209.6c0,0-25.1,4.1-69.5,21.1C4097.2,2230.6,4160.3,2213.6,4166.8,2209.6z"/>
			</g>
			<g>
				<path class="st1" d="M4037.9,2336.8c0,0,56,11.3,69.3,5.1c18.4-8.5,19-29.7-0.9-30.2C4086.4,2311.1,4078.1,2315.4,4037.9,2336.8
					z"/>
				<path class="st1" d="M4109.9,2323.1c0,0-25.4,1.4-71.4,13.3C4038.5,2336.4,4103,2326.4,4109.9,2323.1z"/>
			</g>
			<g>
				<path class="st1" d="M3987.2,2445.6c0,0,56,11.3,69.3,5.1c18.4-8.5,19-29.7-0.9-30.2C4035.7,2419.9,4027.5,2424.2,3987.2,2445.6
					z"/>
				<path class="st1" d="M4059.3,2431.9c0,0-25.4,1.4-71.4,13.3C3987.8,2445.2,4052.4,2435.2,4059.3,2431.9z"/>
			</g>
			<g>
				<path class="st1" d="M4213.9,2064.7c0,0,56.9,5.1,69.4-2.5c17.3-10.5,15.6-31.6-4.2-29.9
					C4259.2,2034,4251.5,2039.1,4213.9,2064.7z"/>
				<path class="st1" d="M4283.9,2043.3c0,0-25.1,4.1-69.5,21.1C4214.4,2064.4,4277.5,2047.4,4283.9,2043.3z"/>
			</g>
			<g>
				<path class="st1" d="M4280.9,1990.1c0,0,56.9,5.1,69.4-2.5c17.3-10.5,15.6-31.6-4.2-29.9
					C4326.3,1959.3,4318.6,1964.5,4280.9,1990.1z"/>
				<path class="st1" d="M4351,1968.7c0,0-25.1,4.1-69.5,21.1C4281.5,1989.7,4344.6,1972.7,4351,1968.7z"/>
			</g>
			<g>
				<path class="st1" d="M4358.9,1910.3c0,0,56.9,5.1,69.4-2.5c17.3-10.5,15.6-31.6-4.2-30
					C4404.3,1879.5,4396.6,1884.6,4358.9,1910.3z"/>
				<path class="st1" d="M4429,1888.8c0,0-25.1,4.1-69.5,21.1C4359.5,1909.9,4422.6,1892.9,4429,1888.8z"/>
			</g>
			<g>
				<path class="st1" d="M4435,1849.1c0,0,46.5,17,58.7,13.4c16.8-4.9,20.1-23,3.2-26C4479.9,1833.4,4472.3,1836,4435,1849.1z"/>
				<path class="st1" d="M4498.5,1846.8c0,0-21.9-2.1-62.9,2.1C4435.6,1848.9,4492.2,1848.7,4498.5,1846.8z"/>
			</g>
			<g>
				<path class="st1" d="M4489.3,1812.4c0,0,49.5-0.9,59.6-8.7c13.9-10.7,10.5-28.7-6.4-25.4
					C4525.5,1781.6,4519.3,1786.8,4489.3,1812.4z"/>
				<path class="st1" d="M4547.7,1787.4c0,0-21.2,5.9-57.9,24.7C4489.7,1812,4542.4,1791.5,4547.7,1787.4z"/>
			</g>
			<g>
				<path class="st1" d="M4082.3,2258.7c0,0-42.8-37.8-46-52.1c-4.3-19.8,12.2-33.1,24.6-17.6
					C4073.4,2204.6,4075,2213.7,4082.3,2258.7z"/>
				<path class="st1" d="M4049.6,2193.1c0,0,14.3,21.1,32.6,64.9C4082.2,2258,4051.1,2200.6,4049.6,2193.1z"/>
			</g>
			<g>
				<path class="st1" d="M4030.1,2352.5c0,0-42.8-37.8-46-52.1c-4.3-19.8,12.2-33.1,24.6-17.6
					C4021.2,2298.4,4022.8,2307.5,4030.1,2352.5z"/>
				<path class="st1" d="M3997.4,2286.9c0,0,14.3,21.1,32.6,64.9C4030,2351.8,3999,2294.4,3997.4,2286.9z"/>
			</g>
			<g>
				<path class="st1" d="M4271.7,1998.9c0,0-26.1-50.8-23.7-65.3c3.2-20,23.4-26.4,29.3-7.4
					C4283.2,1945.2,4281.3,1954.3,4271.7,1998.9z"/>
				<path class="st1" d="M4265.3,1925.8c0,0,5.6,24.8,6.6,72.4C4271.9,1998.2,4264,1933.4,4265.3,1925.8z"/>
			</g>
			<g>
				<path class="st1" d="M4352.2,1924.1c0,0-26.1-50.8-23.7-65.3c3.2-20,23.4-26.4,29.3-7.4
					C4363.7,1870.5,4361.8,1879.5,4352.2,1924.1z"/>
				<path class="st1" d="M4345.7,1851.1c0,0,5.6,24.8,6.6,72.4C4352.3,1923.4,4344.4,1858.6,4345.7,1851.1z"/>
			</g>
			<g>
				<path class="st1" d="M4423.6,1858.9c0,0-21.9-42.6-19.9-54.8c2.7-16.8,19.7-22.1,24.6-6.2
					C4433.2,1813.9,4431.6,1821.5,4423.6,1858.9z"/>
				<path class="st1" d="M4418.2,1797.7c0,0,4.7,20.8,5.5,60.7C4423.7,1858.4,4417,1804,4418.2,1797.7z"/>
			</g>
			<path class="st1" d="M3897.8,2731.9c0.3-1.5,29.7-154.6,117.4-343.7c80.9-174.4,229.4-416.1,477.3-576.5l-0.9-1.3
				c-109.6,70.9-209.1,163.5-295.7,275.1c-69.3,89.3-130.6,190.9-182.1,302.1c-87.8,189.2-117.2,342.5-117.5,344L3897.8,2731.9z"/>
		</g>
	</g>
</g>
<g>
	<g class="st0">
		<g>
			<path class="st1" d="M3198.5,2185.6c0,0-96.9-66.8-106.8-95.4c-13.6-39.4,16.9-70.7,46.1-42
				C3167,2077,3172.5,2095.3,3198.5,2185.6z"/>
			<path class="st1" d="M3115.5,2059.3c0,0,34.3,39.6,82.5,125C3198.1,2184.2,3120.5,2074.2,3115.5,2059.3z"/>
		</g>
		<g>
			<g>
				<path class="st1" d="M3565,1320.4c0,0-65.8-97.6-64.5-127.8c1.7-41.7,41.5-59.7,58.2-22.2
					C3575.4,1207.8,3573.8,1226.8,3565,1320.4z"/>
				<path class="st1" d="M3533.9,1172.5c0,0,17.5,49.4,31.1,146.5C3565.1,1319,3533.1,1188.2,3533.9,1172.5z"/>
			</g>
			<g>
				<path class="st1" d="M3462.2,1502.3c0,0-96.9-66.8-106.8-95.4c-13.6-39.4,16.9-70.7,46.1-42
					C3430.8,1393.7,3436.2,1412,3462.2,1502.3z"/>
				<path class="st1" d="M3379.3,1376c0,0,34.3,39.6,82.5,125C3461.8,1501,3384.2,1391,3379.3,1376z"/>
			</g>
			<g>
				<path class="st1" d="M3474.9,1471.1c0,0,117.7-3.4,141.5-22c32.9-25.7,24.3-68.5-15.9-60.3
					C3560.2,1397.1,3545.7,1409.5,3474.9,1471.1z"/>
				<path class="st1" d="M3613.1,1410.2c0,0-50.3,14.6-137.2,60.1C3475.9,1470.2,3600.8,1420,3613.1,1410.2z"/>
			</g>
			<g>
				<path class="st1" d="M3382.5,1658.2c0,0,117.7-3.4,141.5-22c32.9-25.7,24.3-68.5-15.9-60.3
					C3467.9,1584.1,3453.4,1596.6,3382.5,1658.2z"/>
				<path class="st1" d="M3520.8,1597.2c0,0-50.3,14.6-137.2,60.1C3383.6,1657.3,3508.5,1607.1,3520.8,1597.2z"/>
			</g>
			<g>
				<path class="st1" d="M3288,1889c0,0,117.3,9.5,143-6.4c35.5-21.9,31.6-65.5-9.2-61.6C3381,1824.7,3365.2,1835.5,3288,1889z"/>
				<path class="st1" d="M3432.1,1843.5c0,0-51.6,9-142.9,44.7C3289.1,1888.2,3418.8,1852,3432.1,1843.5z"/>
			</g>
			<g>
				<path class="st1" d="M3210.9,2124c0,0,117.3,9.5,143-6.4c35.5-21.9,31.6-65.5-9.2-61.7C3303.9,2059.8,3288.1,2070.5,3210.9,2124
					z"/>
				<path class="st1" d="M3355,2078.6c0,0-51.6,9-142.9,44.7C3212,2123.2,3341.7,2087,3355,2078.6z"/>
			</g>
			<g>
				<path class="st1" d="M3581.8,1289.3c0,0,117.7-3.4,141.5-22c32.9-25.7,24.3-68.5-15.9-60.3
					C3667.2,1215.2,3652.7,1227.7,3581.8,1289.3z"/>
				<path class="st1" d="M3720,1228.3c0,0-50.3,14.6-137.2,60.1C3582.8,1288.4,3707.7,1238.2,3720,1228.3z"/>
			</g>
			<g>
				<path class="st1" d="M3700.9,1120.2c0,0,117.7-3.4,141.5-22c32.9-25.7,24.3-68.5-15.9-60.3
					C3786.3,1046.1,3771.8,1058.5,3700.9,1120.2z"/>
				<path class="st1" d="M3839.1,1059.2c0,0-50.3,14.6-137.2,60.1C3701.9,1119.3,3826.9,1069.1,3839.1,1059.2z"/>
			</g>
			<g>
				<path class="st1" d="M3841.1,937.7c0,0,117.7-3.4,141.5-22c32.9-25.7,24.3-68.5-15.9-60.3
					C3926.4,863.7,3911.9,876.1,3841.1,937.7z"/>
				<path class="st1" d="M3979.3,876.8c0,0-50.3,14.6-137.2,60.1C3842.1,936.8,3967,886.7,3979.3,876.8z"/>
			</g>
			<g>
				<path class="st1" d="M3981.9,794c0,0,99.3,23.4,123.4,13.1c33.3-14.2,35.6-52,0.1-54C4069.9,751,4055,758.1,3981.9,794z"/>
				<path class="st1" d="M4111.2,773.7c0,0-45.4,1-128.3,19.7C3982.9,793.4,4098.8,779.3,4111.2,773.7z"/>
			</g>
			<g>
				<path class="st1" d="M4083.9,705.7c0,0,101.1-14,119.8-32.3c25.9-25.2,14.5-61.3-19.3-50.4
					C4150.5,633.9,4139.2,646,4083.9,705.7z"/>
				<path class="st1" d="M4197.3,640.2c0,0-42,17.3-112.6,64.6C4084.7,704.8,4187.7,649.9,4197.3,640.2z"/>
			</g>
			<g>
				<path class="st1" d="M3359.9,1718.3c0,0-96.9-66.8-106.8-95.4c-13.6-39.4,16.9-70.7,46.1-42
					C3328.5,1609.8,3333.9,1628.1,3359.9,1718.3z"/>
				<path class="st1" d="M3277,1592c0,0,34.3,39.6,82.5,125C3359.5,1717,3281.9,1607,3277,1592z"/>
			</g>
			<g>
				<path class="st1" d="M3276,1923.1c0,0-96.9-66.8-106.8-95.4c-13.6-39.4,16.9-70.7,46.1-42
					C3244.6,1814.5,3250,1832.8,3276,1923.1z"/>
				<path class="st1" d="M3193.1,1796.8c0,0,34.3,39.6,82.5,125C3275.6,1921.7,3198,1811.7,3193.1,1796.8z"/>
			</g>
			<g>
				<path class="st1" d="M3684.2,1140.4c0,0-65.8-97.6-64.5-127.8c1.7-41.7,41.5-59.7,58.2-22.2
					C3694.6,1027.8,3693,1046.8,3684.2,1140.4z"/>
				<path class="st1" d="M3653.2,992.5c0,0,17.5,49.4,31.2,146.5C3684.3,1139,3652.3,1008.2,3653.2,992.5z"/>
			</g>
			<g>
				<path class="st1" d="M3830.6,967.7c0,0-65.8-97.6-64.5-127.8c1.7-41.7,41.5-59.7,58.2-22.2
					C3841,855.1,3839.4,874.2,3830.6,967.7z"/>
				<path class="st1" d="M3799.6,819.8c0,0,17.5,49.4,31.1,146.5C3830.7,966.3,3798.7,835.5,3799.6,819.8z"/>
			</g>
			<g>
				<path class="st1" d="M3960.8,816.9c0,0-55.2-81.9-54.1-107.2c1.5-35,34.8-50.1,48.9-18.6
					C3969.6,722.5,3968.2,738.4,3960.8,816.9z"/>
				<path class="st1" d="M3934.8,692.8c0,0,14.7,41.5,26.1,122.9C3960.9,815.7,3934,706,3934.8,692.8z"/>
			</g>
			<path class="st1" d="M3097.6,2731.9c0.2-3.2,23.1-323.7,156.5-732c123.1-376.8,368-907.5,836.2-1296.4l-2.1-2.5
				c-207,171.9-388,385.7-538.1,635.3C3430,1536,3329.4,1758.9,3251,1999c-133.5,408.7-156.4,729.5-156.6,732.7L3097.6,2731.9z"/>
		</g>
	</g>
	<g class="st0">
		<g>
			<path class="st1" d="M3309.7,2418.4c0,0-52.2-46-56-63.4c-5.2-24.1,14.8-40.3,30-21.4C3298.9,2352.5,3300.8,2363.7,3309.7,2418.4
				z"/>
			<path class="st1" d="M3269.9,2338.5c0,0,17.4,25.6,39.7,79.1C3309.6,2417.6,3271.8,2347.7,3269.9,2338.5z"/>
		</g>
		<g>
			<g>
				<path class="st1" d="M3585.3,1936.5c0,0-31.8-61.9-28.9-79.5c3.9-24.3,28.5-32.1,35.7-9
					C3599.2,1871.2,3597,1882.2,3585.3,1936.5z"/>
				<path class="st1" d="M3577.4,1847.6c0,0,6.8,30.2,8,88.1C3585.4,1935.7,3575.8,1856.7,3577.4,1847.6z"/>
			</g>
			<g>
				<path class="st1" d="M3512.2,2036c0,0-52.2-46-56-63.4c-5.2-24.1,14.8-40.3,30-21.4S3503.3,1981.2,3512.2,2036z"/>
				<path class="st1" d="M3472.4,1956.1c0,0,17.4,25.6,39.7,79.1C3512.1,2035.2,3474.3,1965.2,3472.4,1956.1z"/>
			</g>
			<g>
				<path class="st1" d="M3521.8,2018.6c0,0,69.3,6.2,84.5-3c21.1-12.8,19-38.5-5.1-36.5C3577.1,1981.1,3567.7,1987.4,3521.8,2018.6
					z"/>
				<path class="st1" d="M3607.2,1992.5c0,0-30.6,5-84.7,25.6C3522.5,2018.2,3599.3,1997.5,3607.2,1992.5z"/>
			</g>
			<g>
				<path class="st1" d="M3454.6,2121.9c0,0,69.3,6.2,84.5-3c21.1-12.8,19-38.5-5.1-36.5S3500.5,2090.7,3454.6,2121.9z"/>
				<path class="st1" d="M3540,2095.8c0,0-30.6,5-84.7,25.6C3455.3,2121.5,3532.1,2100.8,3540,2095.8z"/>
			</g>
			<g>
				<path class="st1" d="M3383,2250.7c0,0,68.2,13.8,84.4,6.2c22.3-10.4,23.1-36.2-1.1-36.8C3442,2219.5,3432,2224.7,3383,2250.7z"
					/>
				<path class="st1" d="M3470.7,2234.1c0,0-30.9,1.7-87,16.2C3383.7,2250.3,3462.3,2238.1,3470.7,2234.1z"/>
			</g>
			<g>
				<path class="st1" d="M3321.3,2383.2c0,0,68.2,13.8,84.4,6.2c22.3-10.4,23.1-36.2-1.1-36.8
					C3380.4,2352,3370.4,2357.2,3321.3,2383.2z"/>
				<path class="st1" d="M3409,2366.6c0,0-30.9,1.7-87,16.2C3322.1,2382.8,3400.7,2370.6,3409,2366.6z"/>
			</g>
			<g>
				<path class="st1" d="M3597.3,1919.4c0,0,69.3,6.2,84.5-3c21.1-12.8,19-38.5-5.1-36.5C3652.6,1881.9,3643.2,1888.2,3597.3,1919.4
					z"/>
				<path class="st1" d="M3682.7,1893.3c0,0-30.6,5-84.7,25.6C3598,1919,3674.8,1898.3,3682.7,1893.3z"/>
			</g>
			<g>
				<path class="st1" d="M3679,1828.5c0,0,69.3,6.2,84.5-3c21.1-12.8,19-38.5-5.1-36.5C3734.3,1791.1,3724.9,1797.3,3679,1828.5z"/>
				<path class="st1" d="M3764.4,1802.4c0,0-30.6,5-84.7,25.6C3679.7,1828.1,3756.5,1807.4,3764.4,1802.4z"/>
			</g>
			<g>
				<path class="st1" d="M3774,1731.3c0,0,69.3,6.2,84.5-3c21.1-12.8,19-38.5-5.1-36.5C3829.3,1693.8,3819.9,1700.1,3774,1731.3z"/>
				<path class="st1" d="M3859.3,1705.2c0,0-30.6,5-84.7,25.6C3774.7,1730.8,3851.5,1710.1,3859.3,1705.2z"/>
			</g>
			<g>
				<path class="st1" d="M3866.6,1656.8c0,0,56.6,20.7,71.5,16.3c20.5-6,24.5-28,3.9-31.7C3921.3,1637.7,3912,1640.9,3866.6,1656.8z
					"/>
				<path class="st1" d="M3944,1654c0,0-26.7-2.6-76.6,2.6C3867.3,1656.6,3936.2,1656.4,3944,1654z"/>
			</g>
			<g>
				<path class="st1" d="M3932.7,1612.2c0,0,60.3-1.1,72.5-10.5c17-13,12.8-35-7.8-30.9C3976.8,1574.7,3969.3,1581,3932.7,1612.2z"
					/>
				<path class="st1" d="M4003.8,1581.7c0,0-25.9,7.2-70.6,30C3933.2,1611.7,3997.5,1586.7,4003.8,1581.7z"/>
			</g>
			<g>
				<path class="st1" d="M3437.1,2155.6c0,0-52.2-46-56-63.4c-5.2-24.1,14.8-40.3,30-21.4
					C3426.3,2089.7,3428.2,2100.8,3437.1,2155.6z"/>
				<path class="st1" d="M3397.3,2075.7c0,0,17.4,25.6,39.7,79.1C3437,2154.8,3399.1,2084.8,3397.3,2075.7z"/>
			</g>
			<g>
				<path class="st1" d="M3373.6,2269.9c0,0-52.2-46-56-63.4c-5.2-24.1,14.8-40.3,30-21.4C3362.7,2204,3364.6,2215.1,3373.6,2269.9z
					"/>
				<path class="st1" d="M3333.8,2190c0,0,17.4,25.6,39.7,79.1C3373.4,2269,3335.6,2199.1,3333.8,2190z"/>
			</g>
			<g>
				<path class="st1" d="M3667.8,1839.2c0,0-31.8-61.9-28.9-79.5c3.9-24.3,28.5-32.1,35.7-9
					C3681.8,1773.9,3679.5,1785,3667.8,1839.2z"/>
				<path class="st1" d="M3659.9,1750.3c0,0,6.8,30.2,8,88.1C3668,1838.4,3658.3,1759.5,3659.9,1750.3z"/>
			</g>
			<g>
				<path class="st1" d="M3765.8,1748.1c0,0-31.8-61.9-28.9-79.5c3.9-24.3,28.5-32.1,35.7-9
					C3779.8,1682.8,3777.5,1693.9,3765.8,1748.1z"/>
				<path class="st1" d="M3757.9,1659.2c0,0,6.8,30.2,8,88.1C3765.9,1747.3,3756.3,1668.4,3757.9,1659.2z"/>
			</g>
			<g>
				<path class="st1" d="M3852.7,1668.8c0,0-26.7-51.9-24.3-66.7c3.3-20.4,23.9-26.9,30-7.5
					C3864.4,1614,3862.5,1623.3,3852.7,1668.8z"/>
				<path class="st1" d="M3846.1,1594.2c0,0,5.7,25.3,6.7,73.9C3852.8,1668.1,3844.7,1601.9,3846.1,1594.2z"/>
			</g>
			<path class="st1" d="M3212.4,2731.9c0.3-1.9,36.2-188.3,143-418.5c98.6-212.4,279.4-506.7,581.2-702.1l-1.1-1.6
				c-133.5,86.4-254.6,199.1-360.1,335.1c-84.4,108.8-159,232.5-221.8,367.9c-106.9,230.4-142.8,417.1-143.1,418.9L3212.4,2731.9z"
				/>
		</g>
	</g>
</g>
<g class="st0">
	<g>
		<path class="st1" d="M1685,2335.4c0,0,70.3-48.5,77.5-69.2c9.9-28.6-12.2-51.3-33.5-30.5C1707.8,2256.6,1703.8,2269.8,1685,2335.4
			z"/>
		<path class="st1" d="M1745.2,2243.7c0,0-24.9,28.7-59.9,90.7C1685.3,2334.4,1741.6,2254.5,1745.2,2243.7z"/>
	</g>
	<g>
		<g>
			<path class="st1" d="M1419,1707.4c0,0,47.7-70.8,46.8-92.8c-1.3-30.2-30.1-43.3-42.3-16.1
				C1411.4,1625.7,1412.6,1639.5,1419,1707.4z"/>
			<path class="st1" d="M1441.5,1600.1c0,0-12.7,35.9-22.6,106.3C1418.9,1706.4,1442.1,1611.5,1441.5,1600.1z"/>
		</g>
		<g>
			<path class="st1" d="M1493.6,1839.4c0,0,70.3-48.5,77.5-69.2c9.9-28.6-12.2-51.3-33.5-30.5
				C1516.4,1760.6,1512.4,1773.9,1493.6,1839.4z"/>
			<path class="st1" d="M1553.7,1747.8c0,0-24.9,28.7-59.9,90.7C1493.8,1838.5,1550.2,1758.6,1553.7,1747.8z"/>
		</g>
		<g>
			<path class="st1" d="M1484.4,1816.8c0,0-85.4-2.5-102.7-16c-23.8-18.7-17.6-49.7,11.5-43.8
				C1422.4,1763.1,1432.9,1772.1,1484.4,1816.8z"/>
			<path class="st1" d="M1384,1772.6c0,0,36.5,10.6,99.6,43.6C1483.6,1816.1,1392.9,1779.7,1384,1772.6z"/>
		</g>
		<g>
			<path class="st1" d="M1551.4,1952.6c0,0-85.4-2.5-102.7-16c-23.8-18.7-17.6-49.7,11.5-43.7
				C1489.4,1898.8,1499.9,1907.9,1551.4,1952.6z"/>
			<path class="st1" d="M1451,1908.3c0,0,36.5,10.6,99.6,43.6C1550.6,1951.9,1459.9,1915.5,1451,1908.3z"/>
		</g>
		<g>
			<path class="st1" d="M1620,2120.1c0,0-85.2,6.9-103.8-4.7c-25.7-15.9-23-47.5,6.7-44.7C1552.5,2073.5,1564,2081.3,1620,2120.1z"
				/>
			<path class="st1" d="M1515.4,2087.1c0,0,37.5,6.5,103.7,32.4C1619.2,2119.5,1525.1,2093.3,1515.4,2087.1z"/>
		</g>
		<g>
			<path class="st1" d="M1675.9,2290.7c0,0-85.2,6.9-103.8-4.7c-25.7-15.9-23-47.5,6.7-44.7
				C1608.5,2244,1619.9,2251.9,1675.9,2290.7z"/>
			<path class="st1" d="M1571.4,2257.7c0,0,37.5,6.5,103.8,32.4C1675.1,2290.1,1581,2263.8,1571.4,2257.7z"/>
		</g>
		<g>
			<path class="st1" d="M1406.8,1684.8c0,0-85.4-2.5-102.7-16c-23.8-18.7-17.6-49.7,11.5-43.7
				C1344.8,1631.1,1355.3,1640.1,1406.8,1684.8z"/>
			<path class="st1" d="M1306.4,1640.6c0,0,36.5,10.6,99.6,43.6C1406,1684.2,1315.3,1647.8,1306.4,1640.6z"/>
		</g>
		<g>
			<path class="st1" d="M1320.3,1562.1c0,0-85.4-2.5-102.7-16c-23.8-18.7-17.6-49.7,11.5-43.7
				C1258.3,1508.3,1268.9,1517.3,1320.3,1562.1z"/>
			<path class="st1" d="M1220,1517.8c0,0,36.5,10.6,99.6,43.6C1319.5,1561.4,1228.9,1525,1220,1517.8z"/>
		</g>
		<g>
			<path class="st1" d="M1218.6,1429.7c0,0-85.4-2.5-102.7-16c-23.9-18.6-17.6-49.7,11.5-43.7
				C1156.6,1375.9,1167.1,1384.9,1218.6,1429.7z"/>
			<path class="st1" d="M1118.2,1385.4c0,0,36.5,10.6,99.6,43.6C1217.8,1429,1127.1,1392.6,1118.2,1385.4z"/>
		</g>
		<g>
			<path class="st1" d="M1116.4,1325.3c0,0-72.1,17-89.6,9.5c-24.1-10.3-25.9-37.7-0.1-39.2
				C1052.5,1294.1,1063.3,1299.3,1116.4,1325.3z"/>
			<path class="st1" d="M1022.5,1310.6c0,0,33,0.7,93.1,14.3C1115.6,1324.9,1031.5,1314.7,1022.5,1310.6z"/>
		</g>
		<g>
			<path class="st1" d="M1042.3,1261.3c0,0-73.3-10.2-87-23.4c-18.8-18.3-10.5-44.5,14-36.6
				C993.9,1209.1,1002.2,1217.9,1042.3,1261.3z"/>
			<path class="st1" d="M960,1213.7c0,0,30.5,12.5,81.7,46.9C1041.7,1260.6,967,1220.7,960,1213.7z"/>
		</g>
		<g>
			<path class="st1" d="M1567.8,1996.2c0,0,70.3-48.5,77.5-69.2c9.9-28.6-12.2-51.3-33.5-30.5S1586.7,1930.7,1567.8,1996.2z"/>
			<path class="st1" d="M1628,1904.6c0,0-24.9,28.7-59.9,90.7C1568.1,1995.3,1624.4,1915.4,1628,1904.6z"/>
		</g>
		<g>
			<path class="st1" d="M1628.7,2144.8c0,0,70.3-48.5,77.5-69.2c9.9-28.6-12.2-51.3-33.5-30.5
				C1651.5,2066,1647.6,2079.3,1628.7,2144.8z"/>
			<path class="st1" d="M1688.9,2053.2c0,0-24.9,28.7-59.9,90.7C1629,2143.9,1685.3,2064,1688.9,2053.2z"/>
		</g>
		<g>
			<path class="st1" d="M1332.4,1576.7c0,0,47.7-70.8,46.8-92.8c-1.3-30.2-30.1-43.3-42.3-16.1
				C1324.9,1495.1,1326,1508.9,1332.4,1576.7z"/>
			<path class="st1" d="M1354.9,1469.4c0,0-12.7,35.9-22.6,106.3C1332.3,1575.7,1355.6,1480.8,1354.9,1469.4z"/>
		</g>
		<g>
			<path class="st1" d="M1226.2,1451.4c0,0,47.7-70.8,46.8-92.8c-1.3-30.2-30.1-43.3-42.3-16.1
				C1218.6,1369.7,1219.8,1383.5,1226.2,1451.4z"/>
			<path class="st1" d="M1248.7,1344.1c0,0-12.7,35.9-22.6,106.3C1226.1,1450.4,1249.3,1355.5,1248.7,1344.1z"/>
		</g>
		<g>
			<path class="st1" d="M1131.7,1342c0,0,40.1-59.4,39.3-77.8c-1.1-25.4-25.3-36.3-35.5-13.5C1125.3,1273.4,1126.3,1285,1131.7,1342
				z"/>
			<path class="st1" d="M1150.5,1251.9c0,0-10.6,30.1-19,89.2C1131.6,1341.1,1151.1,1261.5,1150.5,1251.9z"/>
		</g>
		<path class="st1" d="M1758.2,2731.9c-0.1-2.3-16.8-234.9-113.6-531.3c-89.3-273.5-267.1-658.7-606.9-940.9l1.5-1.8
			c150.2,124.8,281.6,279.9,390.6,461.1c87.1,144.9,160.2,306.8,217.1,481c96.9,296.6,113.5,529.5,113.7,531.8L1758.2,2731.9z"/>
	</g>
</g>
<g class="st0">
	<g>
		<path class="st1" d="M1647.3,2505.2c0,0,40.2-27.7,44.3-39.6c5.7-16.4-7-29.3-19.1-17.4
			C1660.4,2460.2,1658.1,2467.8,1647.3,2505.2z"/>
		<path class="st1" d="M1681.7,2452.8c0,0-14.2,16.4-34.2,51.9C1647.5,2504.7,1679.7,2459,1681.7,2452.8z"/>
	</g>
	<g>
		<g>
			<path class="st1" d="M1495.3,2146.2c0,0,27.3-40.5,26.8-53c-0.7-17.3-17.2-24.8-24.2-9.2
				C1490.9,2099.5,1491.6,2107.4,1495.3,2146.2z"/>
			<path class="st1" d="M1508.1,2084.9c0,0-7.3,20.5-12.9,60.8C1495.2,2145.7,1508.5,2091.4,1508.1,2084.9z"/>
		</g>
		<g>
			<path class="st1" d="M1537.9,2221.7c0,0,40.2-27.7,44.3-39.6c5.7-16.4-7-29.3-19.1-17.4
				C1550.9,2176.7,1548.7,2184.3,1537.9,2221.7z"/>
			<path class="st1" d="M1572.3,2169.3c0,0-14.2,16.4-34.2,51.9C1538.1,2221.2,1570.3,2175.5,1572.3,2169.3z"/>
		</g>
		<g>
			<path class="st1" d="M1532.6,2208.8c0,0-48.8-1.4-58.7-9.1c-13.6-10.7-10.1-28.4,6.6-25
				C1497.2,2178.1,1503.2,2183.2,1532.6,2208.8z"/>
			<path class="st1" d="M1475.3,2183.5c0,0,20.9,6.1,56.9,24.9C1532.2,2208.4,1480.4,2187.6,1475.3,2183.5z"/>
		</g>
		<g>
			<path class="st1" d="M1571,2286.4c0,0-48.8-1.4-58.7-9.1c-13.6-10.7-10.1-28.4,6.6-25C1535.5,2255.7,1541.5,2260.8,1571,2286.4z"
				/>
			<path class="st1" d="M1513.6,2261.1c0,0,20.9,6.1,56.9,24.9C1570.5,2286,1518.7,2265.2,1513.6,2261.1z"/>
		</g>
		<g>
			<path class="st1" d="M1610.2,2382.2c0,0-48.7,3.9-59.3-2.7c-14.7-9.1-13.1-27.2,3.8-25.6
				C1571.6,2355.5,1578.1,2360,1610.2,2382.2z"/>
			<path class="st1" d="M1550.4,2363.3c0,0,21.4,3.7,59.3,18.5C1609.7,2381.8,1555.9,2366.8,1550.4,2363.3z"/>
		</g>
		<g>
			<path class="st1" d="M1642.2,2479.7c0,0-48.7,3.9-59.3-2.7c-14.7-9.1-13.1-27.2,3.8-25.6
				C1603.6,2453,1610.1,2457.5,1642.2,2479.7z"/>
			<path class="st1" d="M1582.4,2460.8c0,0,21.4,3.7,59.3,18.5C1641.7,2479.4,1587.9,2464.3,1582.4,2460.8z"/>
		</g>
		<g>
			<path class="st1" d="M1488.3,2133.3c0,0-48.8-1.4-58.7-9.1c-13.6-10.7-10.1-28.4,6.6-25
				C1452.9,2102.6,1458.9,2107.8,1488.3,2133.3z"/>
			<path class="st1" d="M1430.9,2108.1c0,0,20.9,6.1,56.9,24.9C1487.8,2133,1436,2112.2,1430.9,2108.1z"/>
		</g>
		<g>
			<path class="st1" d="M1438.9,2063.2c0,0-48.8-1.4-58.7-9.1c-13.6-10.7-10.1-28.4,6.6-25
				C1403.4,2032.4,1409.5,2037.6,1438.9,2063.2z"/>
			<path class="st1" d="M1381.5,2037.9c0,0,20.9,6.1,56.9,24.9C1438.4,2062.8,1386.6,2042,1381.5,2037.9z"/>
		</g>
		<g>
			<path class="st1" d="M1380.7,1987.5c0,0-48.8-1.4-58.7-9.1c-13.6-10.7-10.1-28.4,6.6-25
				C1345.3,1956.8,1351.3,1961.9,1380.7,1987.5z"/>
			<path class="st1" d="M1323.3,1962.2c0,0,20.9,6.1,56.9,24.9C1380.3,1987.1,1328.4,1966.3,1323.3,1962.2z"/>
		</g>
		<g>
			<path class="st1" d="M1322.3,1927.8c0,0-41.2,9.7-51.2,5.4c-13.8-5.9-14.8-21.6-0.1-22.4C1285.8,1910,1292,1913,1322.3,1927.8z"
				/>
			<path class="st1" d="M1268.6,1919.4c0,0,18.8,0.4,53.2,8.2C1321.8,1927.6,1273.8,1921.7,1268.6,1919.4z"/>
		</g>
		<g>
			<path class="st1" d="M1279.9,1891.2c0,0-41.9-5.8-49.7-13.4c-10.7-10.5-6-25.4,8-20.9C1252.3,1861.4,1257,1866.4,1279.9,1891.2z"
				/>
			<path class="st1" d="M1232.9,1864c0,0,17.4,7.2,46.7,26.8C1279.6,1890.8,1236.9,1868.1,1232.9,1864z"/>
		</g>
		<g>
			<path class="st1" d="M1580.4,2311.4c0,0,40.2-27.7,44.3-39.6c5.7-16.4-7-29.3-19.1-17.4
				C1593.4,2266.3,1591.1,2273.9,1580.4,2311.4z"/>
			<path class="st1" d="M1614.8,2259c0,0-14.2,16.4-34.2,51.9C1580.5,2310.8,1612.7,2265.2,1614.8,2259z"/>
		</g>
		<g>
			<path class="st1" d="M1615.2,2396.3c0,0,40.2-27.7,44.3-39.6c5.7-16.4-7-29.3-19.1-17.4
				C1628.2,2351.3,1625.9,2358.9,1615.2,2396.3z"/>
			<path class="st1" d="M1649.6,2343.9c0,0-14.2,16.4-34.2,51.9C1615.3,2395.8,1647.5,2350.1,1649.6,2343.9z"/>
		</g>
		<g>
			<path class="st1" d="M1445.8,2071.5c0,0,27.3-40.5,26.8-53c-0.7-17.3-17.2-24.8-24.2-9.2
				C1441.5,2024.9,1442.1,2032.7,1445.8,2071.5z"/>
			<path class="st1" d="M1458.7,2010.2c0,0-7.3,20.5-12.9,60.8C1445.7,2071,1459,2016.7,1458.7,2010.2z"/>
		</g>
		<g>
			<path class="st1" d="M1385,1999.9c0,0,27.3-40.5,26.8-53c-0.7-17.3-17.2-24.8-24.2-9.2C1380.7,1953.2,1381.4,1961.1,1385,1999.9z
				"/>
			<path class="st1" d="M1397.9,1938.5c0,0-7.3,20.5-12.9,60.8C1385,1999.3,1398.3,1945.1,1397.9,1938.5z"/>
		</g>
		<g>
			<path class="st1" d="M1331,1937.3c0,0,22.9-34,22.5-44.5c-0.6-14.5-14.5-20.8-20.3-7.7C1327.4,1898.2,1328,1904.8,1331,1937.3z"
				/>
			<path class="st1" d="M1341.8,1885.9c0,0-6.1,17.2-10.8,51C1331,1936.9,1342.1,1891.3,1341.8,1885.9z"/>
		</g>
		<path class="st1" d="M1689.2,2731.9c-0.1-1.3-9.6-134.3-64.9-303.7c-51.1-156.3-152.7-376.5-346.9-537.9l0.9-1.1
			c85.9,71.3,161,160,223.3,263.6c49.8,82.9,91.6,175.4,124.1,275c55.4,169.6,64.9,302.7,65,304L1689.2,2731.9z"/>
	</g>
</g>
<path class="st2" d="M4819.9,2863.6c-128.6-0.3-365.6,6.2-336.3-26.8c29.3-32.9,183.6-0.7,310.2-11.7c126.5-11,241.1-23.7,370.5-7.4
	s94.2,35,37.4,40.3c-104.4,9.7-122.9,13.9-183.4,8.6C4841.1,2850.9,4870,2863.7,4819.9,2863.6z"/>
<path class="st2" d="M847.4,2878.3c-73.8-0.2-209.7,3.5-192.9-15.4s105.3-0.4,177.9-6.7s138.3-13.6,212.5-4.3s54,20.1,21.5,23.1
	c-59.9,5.6-70.5,8-105.2,4.9C859.6,2871.1,876.1,2878.4,847.4,2878.3z"/>
<path class="st2" d="M941.9,2859.2c-191-0.3-543,6.2-499.6-26.8c43.5-32.9,272.7-0.7,460.7-11.7c187.9-11,358.1-23.7,550.3-7.4
	s140,35,55.6,40.3c-155,9.7-182.5,13.9-272.4,8.6C973.4,2846.5,1016.2,2859.3,941.9,2859.2z"/>
<g>
	<path class="st3" d="M2679.4,2767.6c-228.2-0.5-648.6,9.1-596.7-39.5c51.9-48.6,325.8-1,550.3-17.3s427.7-35,657.4-11
		c229.6,24,167.2,51.7,66.4,59.5c-185.2,14.4-218.1,20.6-325.4,12.7C2717.1,2748.9,2768.3,2767.7,2679.4,2767.6z"/>
</g>
<g>
	<g>
		<g>
			<rect x="2518" y="2365.5" class="st4" width="473.9" height="318.2"/>
			<rect x="2518" y="2365.5" class="st5" width="473.9" height="318.2"/>
			<path class="st6" d="M3121.8,2731.9h-733.7l0,0c0-29.5,16.9-56.4,43.4-69.2l86.5-41.8h473.9l86.5,41.8
				C3105,2675.5,3121.8,2702.4,3121.8,2731.9L3121.8,2731.9z"/>
		</g>
		<polygon class="st7" points="2518,2477 2991.9,2477 2991.9,2511.5 2518,2498.8 		"/>
		<g>
			<path class="st8" d="M2388.1,2731.9h733.7c0-25.4-12.6-48.9-33-63.1h-667.6C2400.7,2683,2388.1,2706.5,2388.1,2731.9z"/>
		</g>
	</g>
	<path class="st6" d="M3855.6,2477H1654.3c-4.6,0-8.3-3.7-8.3-8.3V1157.5c0-4.6,3.7-8.3,8.3-8.3h2201.3c4.6,0,8.3,3.7,8.3,8.3
		v1311.2C3863.9,2473.3,3860.2,2477,3855.6,2477z"/>
	<g>
		<path class="st1" d="M3779.1,1149.3H1730.8c-46.8,0-84.8,38-84.8,84.8v23.9c0-46.8,38-84.8,84.8-84.8h2048.3
			c46.8,0,84.8,38,84.8,84.8v-23.9C3863.9,1187.2,3826,1149.3,3779.1,1149.3z"/>
	</g>
	<g>
		<path class="st5" d="M3779.1,2447.6H1730.8c-46.8,0-84.8-38-84.8-84.8v29.4c0,46.8,38,84.8,84.8,84.8h2048.3
			c46.8,0,84.8-38,84.8-84.8v-29.4C3863.9,2409.7,3826,2447.6,3779.1,2447.6z"/>
	</g>
	<g>
		<rect x="1720.4" y="1262.5" class="st9" width="2069.1" height="1042.6"/>
		<path class="st10" d="M3789.5,1262.5V2305H1720.4V1262.5H3789.5 M3800.3,1251.7h-10.8H1720.4h-10.8v10.8V2305v10.8h10.8h2069.1
			h10.8V2305V1262.5V1251.7L3800.3,1251.7z"/>
		<path class="st8" d="M3765.2,2350.9H1744.8c-19.4,0-35.1-15.7-35.1-35.1l0,0h2090.7l0,0
			C3800.3,2335.2,3784.6,2350.9,3765.2,2350.9z"/>
	</g>
</g>
<g>
	<g>
		<path class="st10" d="M671.9,2310.1l-19-11.5l-145.8,532.1c-1.9,6.8,3.3,13.5,10.3,13.5l0,0c4.8,0,9-3.2,10.3-7.9L671.9,2310.1z"
			/>
		<path class="st10" d="M518.3,2298.6l-19,11.5l144.2,526.2c1.3,4.6,5.5,7.9,10.3,7.9l0,0c7.1,0,12.2-6.7,10.3-13.5L518.3,2298.6z"
			/>
	</g>
	<g>
		<path class="st10" d="M1538.7,2310.1l-19-11.5l-145.8,532.1c-1.9,6.8,3.3,13.5,10.3,13.5l0,0c4.8,0,9-3.2,10.3-7.9L1538.7,2310.1z
			"/>
		<path class="st10" d="M1385.1,2298.6l-19,11.5l144.2,526.2c1.3,4.6,5.5,7.9,10.3,7.9l0,0c7.1,0,12.2-6.7,10.3-13.5L1385.1,2298.6z
			"/>
	</g>
	<g>
		<path class="st4" d="M1488.7,2316.5H477.8c-9.9,0-17.9-8-17.9-17.9l0,0c0-9.9,8-17.9,17.9-17.9h1010.9V2316.5z"/>
		<path class="st11" d="M1549.1,2316.5h-193.4c-9.9,0-17.9-8-17.9-17.9l0,0c0-9.9,8-17.9,17.9-17.9h193.4c9.9,0,17.9,8,17.9,17.9
			l0,0C1567,2308.4,1559,2316.5,1549.1,2316.5z"/>
	</g>
</g>
<polygon class="st10" points="968,2280.7 978.7,2280.7 985.9,2316.5 973.2,2316.5 "/>
<g>
	<g>
		<g>
			<g>
				<g>
					<path class="st1" d="M957.1,2828.9h-1.2l-0.3,6.1h-29.4l0.8-8.1h1v-0.1l8.2-33.2l30.5,2.9l-0.9,8.6l7.5,6l44.6,12.8
						c0,0,3.5,1.5,3.4,3.5l-0.1,3.5l-0.1,2.1c0,0-0.5,0.9-4.2,2h-51.1l-3.1-4.1l-3-1.9L957.1,2828.9z"/>
				</g>
				<polygon class="st12" points="970,2407 963.9,2363.2 967.7,2345.4 751.9,2338.8 751.2,2387.5 747.1,2436.8 776.3,2487.7 
					972.4,2494 930.2,2797.6 976.1,2808.5 1049.7,2473.6 1035.3,2437 				"/>
			</g>
			<g>
				<g>
					<path class="st1" d="M1238.5,2835.6h-1.2l-0.3,6.1h-29.4l0.8-8.1h1v-0.1l0.7-32.9l31.2-2.8l6,14l7.5,6l44.6,12.8
						c0,0,3.5,1.5,3.4,3.5l-0.1,3.5l-0.1,2.1c0,0-0.5,0.9-4.2,2h-51.1l-3.1-4.1l-3-1.9L1238.5,2835.6z"/>
				</g>
				<path class="st12" d="M970,2407l-4.8-34.4l9-21.5l-233.9,9.2l10.8,27.3l-4.1,49.2l13.5,36.3c4.1,10.9,14.3,18.3,25.9,18.8
					l392.2,15.9l25.1,301.1l45.9-3.6v-317.7l-16.8-35.1L970,2407z"/>
			</g>
		</g>
		<g>
			<g>
				<polygon class="st13" points="1114.2,1816.7 1131.7,1798.6 1133.1,1788.5 1137,1775 1156.9,1752.8 1163.3,1755.9 1153.7,1770.8 
					1156.2,1771.8 1175.2,1744.7 1185.8,1765.7 1175,1793.8 1166.3,1803.5 1148.4,1816.4 1133.7,1834.6 				"/>
				<g>
					<g>
						<g>
							<path class="st1" d="M1037.9,1923.7l-1.7-1.8c-11.2-10.3-24.6-8.9-41,2.8c-38,27.1-77.1,45.5-116.1,79.6
								c-20.3,17.7-14.1,32.9-7.1,45.7l1.4,2.4c11.4,15.6,31.4,21.5,43.8,10.5c41.4-37,118.4-100.9,118.4-100.9
								C1047.1,1950.1,1049.1,1934,1037.9,1923.7z"/>
							<path class="st1" d="M1145.6,1826.7l-27.2-21c0,0-88.3,81.6-113.9,114.6c-13,16.8-18,28.4-7.5,39.3l0,0
								c10.5,10.9,27.8,15.8,44.1-3.7C1066,1926.4,1145.6,1826.7,1145.6,1826.7z"/>
						</g>
					</g>
				</g>
			</g>
			<g>
				<polygon class="st13" points="772.7,2279.1 819.7,2278.5 832.3,2279.5 847.7,2281.5 866.2,2280.1 868.8,2274.3 860.7,2271.9 
					851.7,2271.4 853,2270.4 872.1,2271 893.8,2277.7 898.4,2273.7 879.4,2258.2 853.8,2249.1 840.3,2251 812.5,2255.3 772.1,2256 
									"/>
				<g>
					<g>
						<g>
							<path class="st1" d="M634.9,2278.8l2.3,0.8c14.6,4.1,26-3.2,35.3-21.1c21.6-41.4,62-130.6,81.3-178.7
								c10-25-2.4-35.7-14.4-43.9l-2.3-1.5c-17.2-8.7-36.1,0.7-42.1,16.1c-20.1,51.7-75.3,193.2-75.3,193.2
								C614.7,2259.4,620.3,2274.7,634.9,2278.8z"/>
							<path class="st1" d="M801.5,2280.7l8.4-28.9c0,0-111.6-16.9-155.3-20.3c-21.2-1.7-33.6,2.3-36.2,17.2l0,0
								c-2.6,14.9,3.7,31.7,29,33.4C686,2284.6,801.5,2280.7,801.5,2280.7z"/>
						</g>
					</g>
				</g>
			</g>
			<g>
				<g>
					<g>
						<g>
							
								<rect x="776.7" y="1973.8" transform="matrix(0.9767 -0.2148 0.2148 0.9767 -412.4215 218.0847)" class="st13" width="41" height="65.6"/>
						</g>
					</g>
					<g>
						<g id="XMLID_106_">
							<path id="XMLID_121_" class="st13" d="M832.7,1923.9c10.5,27.3,0.1,56.7-23.2,65.6s-50.6-5.9-61.1-33.2
								c-1.5-3.9-22.6-52.7-23.3-56.6l12.3-21.5l31-22.8l30.8-2.7c0.6,0.9,14.1,6.3,20.2,23.8C825,1892.7,831.7,1921.1,832.7,1923.9
								z"/>
						</g>
					</g>
				</g>
				<path class="st14" d="M814.5,1853.9c3.7-17.7-4.4-26.4-11.1-29.3c-3.4-1.5-13.3-2.9-32.3,9.4c-18.9,12.3-21.7,2-32.9,10.5
					c-17.7,13.5-28.8,45-22.5,66.9c4.8,16.5,19.3,33.9,26.1,41.3l10.7,16.4c3.8,5.9,11,8.8,17.8,7.3l15.2-3
					c6.1-1.4,8.1-1.3,11.9-6.3l2.2-2.9c4.7-6.1,6.7-13.7,6.4-22.1l-0.8-17.7l-3.2-14.1l3.9-5.9l5.5,11.1l4.6-3.8
					c-1.7-3.5-1.4-12.1-4.6-19.6c-0.5-1.2,2.2-4.2,1.6-5.5c-2.7-6.4-5.6-12.8-7.5-16.9C809.5,1866.7,812.6,1862.7,814.5,1853.9z"/>
				<path class="st15" d="M815.9,1911.6c0,0,6.8,19.1,10.4,20.2c3.6,1.1,8.1-2.9,8.1-2.9s2.2,4.6,2.5,7.5c0.2,2.3,2.4,22.7-1.4,32.5
					c-3.7,9.8-15.8,15-15.8,15s-0.2-0.6-0.1-1.4c0.2-3,1.1-9.8,1.9-12.3c1-3.3-1.7-32.4-2.9-35.8c-1.3-3.4-7.2-19.1-7.2-19.1
					L815.9,1911.6z"/>
			</g>
			<g>
				<path class="st1" d="M828,2008.3l5.2-0.7l50.4-9.9c31.4,1.1,46.4,25.8,49.5,50.9l20.7,128.6l5.3,42.8l19.5,133.7l-10.5,27
					l-216.9,6.9l-14.6-27.2l4.1-125.3l-27.9-63.7l-21.7-82.2c-2.2-18-1.8-48.7,22.9-59.8c13.1-5.9,55.8-13.9,55.8-13.9
					s20.9,1.2,27.6,0.4C805.2,2014.9,828,2008.3,828,2008.3z"/>
			</g>
		</g>
	</g>
	<g>
		<g>
			<g>
				<rect x="846.9" y="2573.9" class="st10" width="21.1" height="232.3"/>
				<path class="st4" d="M965.2,2827.2v-19.3c0-1-0.8-1.7-1.7-1.7H751.4c-1,0-1.7,0.8-1.7,1.7v19.3H965.2z"/>
				<path class="st7" d="M792.2,2846.1c0-14.9-12-26.9-26.9-26.9s-26.9,12-26.9,26.9s12,26.9,26.9,26.9S792.2,2861,792.2,2846.1z"/>
				<path class="st4" d="M782.2,2846.1c0-9.4-7.6-16.9-16.9-16.9c-9.4,0-16.9,7.6-16.9,16.9c0,9.4,7.6,16.9,16.9,16.9
					C774.7,2863.1,782.2,2855.5,782.2,2846.1z"/>
				<path class="st7" d="M885.2,2846.1c0-14.9-12-26.9-26.9-26.9s-26.9,12-26.9,26.9s12,26.9,26.9,26.9
					C873.1,2873,885.2,2861,885.2,2846.1z"/>
				<path class="st7" d="M978.1,2846.1c0-14.9-12-26.9-26.9-26.9s-26.9,12-26.9,26.9s12,26.9,26.9,26.9S978.1,2861,978.1,2846.1z"/>
				<path class="st4" d="M874.4,2846.1c0-9.4-7.6-16.9-16.9-16.9c-9.4,0-16.9,7.6-16.9,16.9c0,9.4,7.6,16.9,16.9,16.9
					C866.8,2863.1,874.4,2855.5,874.4,2846.1z"/>
				<path class="st4" d="M968.1,2846.1c0-9.4-7.6-16.9-16.9-16.9s-16.9,7.6-16.9,16.9c0,9.4,7.6,16.9,16.9,16.9
					S968.1,2855.5,968.1,2846.1z"/>
			</g>
			<g>
				<path class="st4" d="M879.9,2806.1H835v-88.2c0-0.4,0.3-0.8,0.8-0.8h43.4c0.4,0,0.8,0.3,0.8,0.8L879.9,2806.1L879.9,2806.1z"/>
				<path class="st16" d="M835,2806.1c0,0,40.8-9.9,44.9-21v21H835z"/>
			</g>
			<rect x="857.4" y="2595.9" class="st17" width="5.3" height="121.3"/>
		</g>
		<g>
			<path class="st4" d="M966.8,2559c0,0-101.4,86-217-4.5L966.8,2559z"/>
			<path class="st18" d="M929.2,2558.2c0-0.1,0-0.1,0-0.2l-179.5-3.6l4.7,3.6l159.4,2.7c0,0,3.4,1.9,1.1,8
				c-3.6,3.7-8.8,7.8-16.5,11.1c-13.4,5.8-50.1,15.6-63.5,13.8c76,12.5,131.9-34.7,131.9-34.7L929.2,2558.2z"/>
		</g>
		<g>
			<g>
				<path class="st19" d="M723.5,2554.5l337,6.2c22.9,0,41.4-15,41.4-33.5v-1.7c0-18.5-14.7-24.3-37.6-24.3l-340.8-13.8
					c-22.9,0-41.4,15-41.4,33.5l0,0C682,2539.5,700.6,2554.5,723.5,2554.5z"/>
				<g class="st20">
					<path class="st21" d="M1101.9,2525.6c0-18.5-14.7-24.3-37.6-24.3l-287.6-11.6c0,0-0.8,5,22.5,6.3s129.7,8.9,147.9,8.9
						s83.6,4.7,102.6,6.8c18.9,2.1,44.5,5.3,51.7,19.8c0.2-1.4,0.5-2.8,0.5-4.2V2525.6z"/>
				</g>
			</g>
			<g>
				<path class="st22" d="M721.7,2162.7c0,0,41.8-5.1,61.3-6.8c25.7-2.3,95-13.5,109,28.7c13.1,39.4,8.7,77.9,15,132
					c6.3,54,7.3,82.2,0.9,102.6c-6.4,20.3-56.3,23.8-86.2,23.1c-56-1.3-72.1,1.3-81.3-14.2c-14.3-24.2-27.7-105.1-35.3-130.4
					S663.2,2182.8,721.7,2162.7z"/>
				<g>
					<g>
						<path class="st19" d="M766,2438.7l84.3,0.5c3.9,0,7.9-0.4,11.7-1.3l27.7-6.4c0.8-0.2,1.6-0.5,2.3-1
							c8.8-6.2,11.5-19.2,10.8-37.6c-1.3-32.6-10.1-77.1-15-105l-6.2-82.1c-7.6-44.3-23.9-49.1-78.6-49.2l-90.1,6.7
							c-46,7.9-51.7,37.4-44.1,81.7l24.3,80.4C700.7,2369.7,712.9,2438.9,766,2438.7z"/>
						<path class="st23" d="M887.8,2287.9l-6.2-82.1c-7.6-44.3-23.9-49.1-78.6-49.2l-87.2,6.5c-7.9,1.2-15.2,2.8-21.2,5.3
							c-15.2,6.4-22.4,15.2-14.2,13.4c0.9-0.2,11.2-10.6,34.3-12.9c42.1-4.2,90.8-8.1,108.3-2.8c13.9,4.3,20.1,16.6,24.1,39.7
							l6.2,82.1c4.3,25.2,17.7,75.5,17.8,110.1c0.1,25.9-10.9,40.5-14,40.8l32.7-7.4c0.6-0.1,1.2-0.4,1.7-0.7
							C915.1,2415.9,895.3,2331.7,887.8,2287.9z"/>
					</g>
					<polygon class="st4" points="806.1,2573.7 818.9,2572.4 777.9,2282.3 765.1,2283.5 					"/>
				</g>
			</g>
		</g>
	</g>
</g>
<g>
	<g>
		<path class="st24" d="M1347.4,2264.8h-232.7l39.5-127.5c0.8-2.7,3.3-4.5,6.1-4.5h219.4c4.3,0,7.3,4.1,6.1,8.2L1347.4,2264.8z"/>
		<polygon class="st25" points="1341.4,2251.7 1127.6,2251.7 1161.8,2139.9 1377.3,2139.9 		"/>
		<polygon class="st26" points="1341.4,2251.7 1127.6,2251.7 1161.8,2139.9 1377.3,2139.9 		"/>
		<path class="st10" d="M1347.1,2280.7H989.8c-0.4,0-0.7-0.3-0.7-0.7v-15.2h358.3v15.6C1347.4,2280.5,1347.3,2280.7,1347.1,2280.7z"
			/>
		<path class="st27" d="M1347.1,2280.7h-160c-0.4,0-0.7-0.3-0.7-0.7v-15.2h160.9v15.6C1347.4,2280.6,1347.3,2280.7,1347.1,2280.7z"
			/>
	</g>
	<path class="st28" d="M1346.9,2206.5l-8.2,1.9c-0.8-0.1-6.3-1.4-6.7-2l-3.1-4.9c-0.9-1.4-3.3-1.5-4.4-0.2l-2.6,3.2
		c-0.9,1.2-3,1.3-4.1,0.2l-0.9-0.9c-1-1-2.9-1-3.9,0l-0.4,0.4c-1.2,1.2-3.5,1-4.3-0.5l-7.3-13.8c-0.9-1.7-3.9-1.7-4.7,0.1l-13,29
		c-0.6,1.4-2.6,1.8-4,0.9l-0.5-0.3c-1.1-0.8-2.8-0.6-3.7,0.5l-1.2,1.5l-2.3-2h-5.1c-1.2,0-2.3,0.7-2.5,1.7l-0.8,3.1
		c-0.4,1.6-2.8,2.3-4.2,1.2c-1.2-1-3.2-0.7-4,0.6l-4.2,6.9c-0.6,1.1-2.2,1.5-3.4,0.9l-3.3-1.4c-0.7-0.3-1.6-0.3-2.3,0l-4.4,1.9
		c-1.1,0.4-2.3,0.2-3.1-0.5l-1.3-1.3c-1.2-1.2-3.4-1-4.2,0.4l-0.1,0.1c-0.6,1-1.9,1.4-3.1,1.1l-5-1.4c-0.8-0.2-1.6-0.1-2.3,0.3
		l-6,3.5c-0.7,0.4-1.5,0.5-2.3,0.3l-4.2-1.2c-0.5-0.2-1.1-0.2-1.7,0l-4,1.2c-0.8,0.2-1.8,0.1-2.5-0.4l-4.2-2.9
		c-0.9-0.6-2.2-0.6-3.2,0l-6.6,4.3c-0.1,0.1-0.2,0.1-0.3,0.2l-7.3,3.5c-0.7,0.3-1.5,0.4-2.3,0.1l-4.1-1.5c-0.2-0.1-0.4-0.1-0.6-0.2
		l-15-2c-0.1,0-0.3,0-0.4,0h-10.7c-0.3,0-0.6,0-0.9,0.1l-10,3.2c-1,0.3-1.8,1.2-2.3,2.2l-2.5,8.2h214l12.4-38.8
		C1354,2211.8,1348.2,2206.6,1346.9,2206.5z"/>
</g>
<g>
	<g>
		<g>
			<path class="st28" d="M1668.8,2727.7c0,0-52.4-26.4-50.5-58.6c3.4-56.4,33.5-62,25.4-98c-8.1-35.9,33.2-73.6,49.3-50.6
				c16.1,23-2,36,7.8,48.4c9.7,12.4,13.8,42.8,1.7,64.1c-12.1,21.3,53,43.6,9.6,79.2C1681.5,2737.3,1668.8,2727.7,1668.8,2727.7z"/>
			<path class="st29" d="M1676.1,2729.4c-0.1-0.5-10.7-47.7-13.4-67.8c-2.7-20.1,1-31,4.6-41.5c3-8.8,5.9-17.2,5.1-30.5
				c-1.8-29,4.6-61.4,4.6-61.8l-0.6-0.1c-0.1,0.3-6.4,32.8-4.6,61.9c0.8,13.2-2.1,21.5-5.1,30.3c-3.6,10.6-7.4,21.5-4.6,41.7
				s13.3,67.4,13.5,67.9L1676.1,2729.4z"/>
		</g>
		<g>
			<path class="st28" d="M1686.9,2724.8c0,0-21.3-47.9-4-67.1c30.2-33.6,51.8-22.2,64.7-48.7c12.8-26.5,57.4-29.6,56-7.1
				c-1.4,22.4-19.2,21.6-19.2,34.2c-0.1,12.6-12.6,33.7-30.8,41c-18.2,7.3,4,31.5-37,42.7
				C1687.7,2727.7,1686.9,2724.8,1686.9,2724.8z"/>
			<path class="st29" d="M1689.1,2724.2c0.2-0.3,17-35.2,25.3-49.2s16-18.9,23.5-23.7c6.3-4,12.3-7.8,18.4-16.6
				c13.3-19.1,33.4-36.2,33.6-36.4l-0.3-0.4c-0.2,0.2-20.4,17.4-33.7,36.5c-6.1,8.7-12,12.4-18.2,16.4c-7.5,4.8-15.3,9.8-23.7,23.8
				c-8.3,14-25.2,48.9-25.3,49.2L1689.1,2724.2z"/>
		</g>
		<g>
			<path class="st28" d="M1660.1,2724.7c0,0,22.6-50.9,4.3-71.4c-32.1-35.8-55.2-23.6-68.8-51.8c-13.6-28.2-61.1-31.5-59.6-7.6
				s20.4,22.9,20.5,36.4c0.1,13.4,13.4,35.8,32.8,43.6s-4.2,33.5,39.4,45.5C1659.3,2727.8,1660.1,2724.7,1660.1,2724.7z"/>
			<path class="st29" d="M1657.8,2724.2c-0.2-0.4-18.1-37.4-27-52.3c-8.8-14.8-17.1-20.1-25-25.2c-6.7-4.3-13-8.3-19.6-17.6
				c-14.2-20.3-35.6-38.5-35.8-38.7l0.3-0.4c0.2,0.2,21.7,18.5,35.9,38.8c6.4,9.2,12.7,13.2,19.4,17.5c8,5.1,16.3,10.4,25.2,25.3
				c8.9,14.9,26.8,52,27,52.4L1657.8,2724.2z"/>
		</g>
		<g>
			<g>
				<path class="st11" d="M1659.3,2691.7c0,0,6.8-4.9,7.5-6.9c0.9-2.8-1.3-5-3.3-2.9C1661.4,2683.9,1661.1,2685.2,1659.3,2691.7z"/>
				<path class="st30" d="M1665.1,2682.6c0,0-2.4,2.9-5.7,9C1659.4,2691.6,1664.7,2683.7,1665.1,2682.6z"/>
			</g>
			<g>
				<g>
					<path class="st11" d="M1632.2,2630.5c0,0,4.6-7,4.4-9.2c-0.2-3-3-4.2-4.2-1.5C1631.3,2622.5,1631.4,2623.9,1632.2,2630.5z"/>
					<path class="st30" d="M1634.2,2620c0,0-1.2,3.5-2,10.5C1632.1,2630.4,1634.3,2621.1,1634.2,2620z"/>
				</g>
				<g>
					<path class="st11" d="M1639.7,2643.4c0,0,6.8-4.9,7.5-6.9c0.9-2.8-1.3-5-3.3-2.9C1641.8,2635.6,1641.4,2636.9,1639.7,2643.4z"
						/>
					<path class="st30" d="M1645.5,2634.3c0,0-2.4,2.9-5.7,9C1639.7,2643.3,1645.1,2635.3,1645.5,2634.3z"/>
				</g>
				<g>
					<path class="st11" d="M1638.8,2641.2c0,0-8.4-0.1-10.1-1.4c-2.4-1.8-1.8-4.8,1.1-4.3C1632.6,2636,1633.6,2636.9,1638.8,2641.2z
						"/>
					<path class="st30" d="M1628.8,2637c0,0,3.6,1,9.8,4.1C1638.7,2641.1,1629.7,2637.7,1628.8,2637z"/>
				</g>
				<g>
					<path class="st11" d="M1645.6,2654.4c0,0-8.4-0.1-10.1-1.4c-2.4-1.8-1.8-4.8,1.1-4.3
						C1639.4,2649.2,1640.4,2650.1,1645.6,2654.4z"/>
					<path class="st30" d="M1635.7,2650.2c0,0,3.6,1,9.8,4.1C1645.5,2654.3,1636.5,2650.9,1635.7,2650.2z"/>
				</g>
				<g>
					<path class="st11" d="M1652.6,2670.7c0,0-8.3,0.8-10.2-0.3c-2.6-1.5-2.3-4.6,0.6-4.4C1645.9,2666.2,1647,2667,1652.6,2670.7z"
						/>
					<path class="st30" d="M1642.3,2667.6c0,0,3.7,0.6,10.2,3C1652.5,2670.6,1643.2,2668.2,1642.3,2667.6z"/>
				</g>
				<g>
					<path class="st11" d="M1658.4,2687.3c0,0-8.3,0.8-10.2-0.3c-2.6-1.5-2.3-4.6,0.6-4.4
						C1651.7,2682.9,1652.8,2683.6,1658.4,2687.3z"/>
					<path class="st30" d="M1648.1,2684.3c0,0,3.7,0.6,10.2,3C1658.3,2687.3,1649,2684.8,1648.1,2684.3z"/>
				</g>
				<g>
					<path class="st11" d="M1630.9,2628.3c0,0-8.4-0.1-10.1-1.4c-2.4-1.8-1.8-4.8,1.1-4.3C1624.8,2623.2,1625.8,2624,1630.9,2628.3z
						"/>
					<path class="st30" d="M1621,2624.2c0,0,3.6,1,9.8,4.1C1630.8,2628.3,1621.9,2624.9,1621,2624.2z"/>
				</g>
				<g>
					<path class="st11" d="M1622.2,2616.5c0,0-8.4-0.1-10.1-1.4c-2.4-1.8-1.8-4.8,1.1-4.3S1617.1,2612.2,1622.2,2616.5z"/>
					<path class="st30" d="M1612.3,2612.3c0,0,3.6,1,9.8,4.1C1622.2,2616.4,1613.2,2613,1612.3,2612.3z"/>
				</g>
				<g>
					<path class="st11" d="M1612,2603.6c0,0-8.4-0.1-10.1-1.4c-2.4-1.8-1.8-4.8,1.1-4.3C1605.9,2598.5,1606.9,2599.3,1612,2603.6z"
						/>
					<path class="st30" d="M1602.1,2599.5c0,0,3.6,1,9.8,4.1C1611.9,2603.6,1603,2600.2,1602.1,2599.5z"/>
				</g>
				<g>
					<path class="st11" d="M1601.8,2593.6c0,0-7,1.8-8.8,1.1c-2.4-1-2.6-3.7-0.1-3.8C1595.5,2590.6,1596.6,2591.1,1601.8,2593.6z"/>
					<path class="st30" d="M1592.6,2592.3c0,0,3.2,0,9.2,1.2C1601.7,2593.5,1593.5,2592.7,1592.6,2592.3z"/>
				</g>
				<g>
					<path class="st11" d="M1594.4,2587.4c0,0-7.2-0.9-8.6-2.1c-1.9-1.8-1.1-4.3,1.3-3.6C1589.6,2582.4,1590.4,2583.2,1594.4,2587.4
						z"/>
					<path class="st30" d="M1586.3,2582.9c0,0,3,1.2,8.1,4.5C1594.4,2587.4,1587,2583.6,1586.3,2582.9z"/>
				</g>
				<g>
					<path class="st11" d="M1647.3,2658.6c0,0,6.8-4.9,7.5-6.9c0.9-2.8-1.3-5-3.3-2.9C1649.4,2650.9,1649,2652.2,1647.3,2658.6z"/>
					<path class="st30" d="M1653,2649.5c0,0-2.4,2.9-5.7,9C1647.3,2658.5,1652.7,2650.6,1653,2649.5z"/>
				</g>
				<g>
					<path class="st11" d="M1653.5,2673.1c0,0,6.8-4.9,7.5-6.9c0.9-2.8-1.3-5-3.3-2.9C1655.6,2665.3,1655.2,2666.6,1653.5,2673.1z"
						/>
					<path class="st30" d="M1659.2,2664c0,0-2.4,2.9-5.7,9C1653.5,2673,1658.9,2665.1,1659.2,2664z"/>
				</g>
				<g>
					<path class="st11" d="M1623.4,2617.9c0,0,4.6-7,4.4-9.2c-0.2-3-3-4.2-4.2-1.5C1622.6,2609.9,1622.7,2611.2,1623.4,2617.9z"/>
					<path class="st30" d="M1625.5,2607.3c0,0-1.2,3.5-2,10.5C1623.4,2617.8,1625.6,2608.4,1625.5,2607.3z"/>
				</g>
				<g>
					<path class="st11" d="M1612.8,2605.8c0,0,4.6-7,4.4-9.2c-0.2-3-3-4.2-4.2-1.5C1611.9,2597.8,1612.1,2599.1,1612.8,2605.8z"/>
					<path class="st30" d="M1614.8,2595.2c0,0-1.2,3.5-2,10.5C1612.8,2605.7,1614.9,2596.3,1614.8,2595.2z"/>
				</g>
				<g>
					<path class="st11" d="M1603.4,2595.2c0,0,3.8-5.9,3.7-7.7c-0.1-2.5-2.5-3.5-3.5-1.3C1602.6,2588.5,1602.7,2589.6,1603.4,2595.2
						z"/>
					<path class="st30" d="M1605,2586.3c0,0-1,3-1.7,8.8C1603.3,2595.1,1605.1,2587.3,1605,2586.3z"/>
				</g>
				<path class="st30" d="M1667.2,2730.5c0-0.2-2.1-23-12.1-51.9c-9.2-26.7-27.3-64.2-61.1-91.3l0.1-0.2c15,12,28.1,27,39.1,44.6
					c8.8,14.1,16.2,29.8,22.1,46.8c10,28.9,12,51.7,12.1,52L1667.2,2730.5z"/>
			</g>
		</g>
		<g>
			<g>
				<path class="st11" d="M1686.9,2688.6c0,0-6-4.5-6.6-6.4c-0.8-2.6,1.3-4.5,3.1-2.6C1685.2,2681.6,1685.5,2682.8,1686.9,2688.6z"
					/>
				<path class="st30" d="M1681.9,2680.3c0,0,2.1,2.6,4.9,8.2C1686.9,2688.5,1682.2,2681.3,1681.9,2680.3z"/>
			</g>
			<g>
				<g>
					<path class="st11" d="M1712.7,2634.2c0,0-3.9-6.4-3.8-8.4c0.2-2.7,2.8-3.7,3.8-1.3C1713.7,2627.1,1713.6,2628.3,1712.7,2634.2z
						"/>
					<path class="st30" d="M1711.2,2624.7c0,0,1,3.2,1.6,9.5C1712.8,2634.2,1711.1,2625.7,1711.2,2624.7z"/>
				</g>
				<g>
					<path class="st11" d="M1705.7,2645.6c0,0-6-4.5-6.6-6.4c-0.8-2.6,1.3-4.5,3.1-2.6C1703.9,2638.6,1704.2,2639.8,1705.7,2645.6z"
						/>
					<path class="st30" d="M1700.7,2637.3c0,0,2.1,2.6,4.9,8.2C1705.6,2645.5,1701,2638.3,1700.7,2637.3z"/>
				</g>
				<g>
					<path class="st11" d="M1706.6,2643.6c0,0,7.5,0.1,9.1-1c2.2-1.6,1.7-4.3-0.9-3.9C1712.2,2639.1,1711.3,2639.9,1706.6,2643.6z"
						/>
					<path class="st30" d="M1715.6,2640.1c0,0-3.3,0.8-8.9,3.5C1706.6,2643.6,1714.8,2640.7,1715.6,2640.1z"/>
				</g>
				<g>
					<path class="st11" d="M1700.1,2655.4c0,0,7.5,0.1,9.1-1c2.2-1.6,1.7-4.3-0.9-3.9C1705.8,2650.9,1704.8,2651.6,1700.1,2655.4z"
						/>
					<path class="st30" d="M1709.1,2651.8c0,0-3.3,0.8-9,3.5C1700.2,2655.3,1708.3,2652.4,1709.1,2651.8z"/>
				</g>
				<g>
					<path class="st11" d="M1693.4,2669.9c0,0,7.5,0.9,9.2,0c2.3-1.3,2.2-4.1-0.4-4S1698.5,2666.7,1693.4,2669.9z"/>
					<path class="st30" d="M1702.8,2667.4c0,0-3.3,0.4-9.3,2.5C1693.5,2669.8,1701.9,2667.9,1702.8,2667.4z"/>
				</g>
				<g>
					<path class="st11" d="M1687.9,2684.7c0,0,7.5,0.9,9.2,0c2.3-1.3,2.2-4.1-0.4-4C1694,2680.9,1692.9,2681.5,1687.9,2684.7z"/>
					<path class="st30" d="M1697.2,2682.2c0,0-3.3,0.4-9.3,2.5C1687.9,2684.7,1696.3,2682.7,1697.2,2682.2z"/>
				</g>
				<g>
					<path class="st11" d="M1713.9,2632.3c0,0,7.5,0.1,9.1-1c2.2-1.6,1.7-4.3-0.9-3.9C1719.6,2627.8,1718.6,2628.6,1713.9,2632.3z"
						/>
					<path class="st30" d="M1722.9,2628.8c0,0-3.3,0.8-8.9,3.5C1714,2632.2,1722.1,2629.4,1722.9,2628.8z"/>
				</g>
				<g>
					<path class="st11" d="M1722,2621.8c0,0,7.5,0.1,9.1-1c2.2-1.6,1.7-4.3-0.9-3.9C1727.7,2617.3,1726.7,2618.1,1722,2621.8z"/>
					<path class="st30" d="M1731,2618.3c0,0-3.3,0.8-8.9,3.5C1722.1,2621.8,1730.2,2618.9,1731,2618.3z"/>
				</g>
				<g>
					<path class="st11" d="M1731.5,2610.5c0,0,7.5,0.1,9.1-1c2.2-1.6,1.7-4.3-0.9-3.9C1737.1,2606,1736.2,2606.8,1731.5,2610.5z"/>
					<path class="st30" d="M1740.5,2607c0,0-3.3,0.8-8.9,3.5C1731.5,2610.5,1739.7,2607.6,1740.5,2607z"/>
				</g>
				<g>
					<path class="st11" d="M1740.9,2601.7c0,0,6.3,1.8,7.9,1.2c2.2-0.8,2.4-3.2,0.2-3.5C1746.6,2599.2,1745.7,2599.6,1740.9,2601.7z
						"/>
					<path class="st30" d="M1749.2,2600.8c0,0-2.9-0.1-8.3,0.9C1741,2601.7,1748.4,2601.1,1749.2,2600.8z"/>
				</g>
				<g>
					<path class="st11" d="M1747.7,2596.3c0,0,6.5-0.6,7.8-1.7c1.7-1.5,1.1-3.9-1.1-3.3C1752.1,2591.9,1751.4,2592.7,1747.7,2596.3z
						"/>
					<path class="st30" d="M1755.1,2592.5c0,0-2.7,1-7.4,3.8C1747.7,2596.3,1754.5,2593,1755.1,2592.5z"/>
				</g>
				<g>
					<path class="st11" d="M1698.5,2659.2c0,0-6-4.5-6.6-6.4c-0.8-2.6,1.3-4.5,3.1-2.6C1696.8,2652.1,1697.1,2653.3,1698.5,2659.2z"
						/>
					<path class="st30" d="M1693.6,2650.8c0,0,2.1,2.6,4.9,8.2C1698.5,2659.1,1693.8,2651.8,1693.6,2650.8z"/>
				</g>
				<g>
					<path class="st11" d="M1692.6,2672c0,0-6-4.5-6.6-6.4c-0.8-2.6,1.3-4.5,3.1-2.6C1690.9,2665,1691.2,2666.2,1692.6,2672z"/>
					<path class="st30" d="M1687.6,2663.7c0,0,2.1,2.6,4.9,8.2C1692.6,2671.9,1687.9,2664.7,1687.6,2663.7z"/>
				</g>
				<g>
					<path class="st11" d="M1720.9,2623.1c0,0-3.9-6.4-3.8-8.4c0.2-2.7,2.8-3.7,3.8-1.3C1721.9,2615.9,1721.7,2617.1,1720.9,2623.1z
						"/>
					<path class="st30" d="M1719.3,2613.5c0,0,1,3.2,1.6,9.5C1720.9,2623,1719.2,2614.5,1719.3,2613.5z"/>
				</g>
				<g>
					<path class="st11" d="M1730.7,2612.4c0,0-3.9-6.4-3.8-8.4c0.2-2.7,2.8-3.7,3.8-1.3C1731.7,2605.2,1731.5,2606.4,1730.7,2612.4z
						"/>
					<path class="st30" d="M1729.1,2602.9c0,0,1,3.2,1.6,9.5C1730.7,2612.3,1729,2603.9,1729.1,2602.9z"/>
				</g>
				<g>
					<path class="st11" d="M1739.5,2603.1c0,0-3.3-5.4-3.2-7c0.2-2.2,2.4-3.1,3.2-1.1C1740.3,2597.1,1740.2,2598.1,1739.5,2603.1z"
						/>
					<path class="st30" d="M1738.2,2595.1c0,0,0.8,2.7,1.3,7.9C1739.5,2603,1738.1,2595.9,1738.2,2595.1z"/>
				</g>
				<path class="st30" d="M1678.9,2723.3c0-0.2,2.4-20.7,12-46.4c8.9-23.8,26.1-57.1,57.1-80.7l-0.1-0.2
					c-13.7,10.4-25.9,23.6-36.2,39.2c-8.2,12.5-15.3,26.4-21,41.6c-9.7,25.8-12,46.3-12.1,46.5L1678.9,2723.3z"/>
			</g>
		</g>
		<g>
			<g>
				<path class="st4" d="M1676.3,2679.2c0,0-9.4-4.8-10.6-7.2c-1.7-3.3,0.6-6.5,3.6-4.3C1672.2,2670,1672.9,2671.5,1676.3,2679.2z"
					/>
				<path class="st10" d="M1667.5,2669c0,0,3.5,3.1,8.8,10.1C1676.3,2679.1,1668.1,2670.3,1667.5,2669z"/>
			</g>
			<g>
				<g>
					<path class="st4" d="M1698.4,2598.1c0,0-7-7.9-7.3-10.5c-0.4-3.7,3-5.8,4.9-2.7C1697.9,2588,1698,2589.7,1698.4,2598.1z"/>
					<path class="st10" d="M1693.8,2585.3c0,0,2.1,4.2,4.5,12.6C1698.4,2597.9,1693.9,2586.7,1693.8,2585.3z"/>
				</g>
				<g>
					<path class="st4" d="M1691.5,2615.4c0,0-9.4-4.8-10.6-7.2c-1.7-3.3,0.6-6.5,3.6-4.3C1687.4,2606.2,1688.1,2607.7,1691.5,2615.4
						z"/>
					<path class="st10" d="M1682.6,2605.2c0,0,3.5,3.1,8.8,10.1C1691.4,2615.3,1683.2,2606.5,1682.6,2605.2z"/>
				</g>
				<g>
					<path class="st4" d="M1692.2,2612.5c0,0,10.4-1.7,12.3-3.7c2.6-2.7,1.3-6.4-2.1-5.2C1698.9,2604.9,1697.7,2606.2,1692.2,2612.5
						z"/>
					<path class="st10" d="M1703.7,2605.4c0,0-4.3,1.9-11.4,7C1692.3,2612.4,1702.8,2606.5,1703.7,2605.4z"/>
				</g>
				<g>
					<path class="st4" d="M1686.3,2630.2c0,0,10.4-1.7,12.3-3.7c2.6-2.7,1.3-6.4-2.1-5.2C1693,2622.6,1691.8,2623.9,1686.3,2630.2z"
						/>
					<path class="st10" d="M1697.8,2623.1c0,0-4.3,1.9-11.4,7C1686.4,2630.1,1696.8,2624.2,1697.8,2623.1z"/>
				</g>
				<g>
					<path class="st4" d="M1680.7,2651.8c0,0,10.5-0.6,12.6-2.3c2.9-2.4,2-6.2-1.6-5.4C1688.2,2645,1686.9,2646.1,1680.7,2651.8z"/>
					<path class="st10" d="M1692.9,2646c0,0-4.5,1.4-12.1,5.7C1680.8,2651.7,1691.8,2647,1692.9,2646z"/>
				</g>
				<g>
					<path class="st4" d="M1676.7,2673.6c0,0,10.5-0.6,12.6-2.3c2.9-2.4,2-6.2-1.6-5.4C1684.2,2666.8,1682.9,2667.9,1676.7,2673.6z"
						/>
					<path class="st10" d="M1688.9,2667.8c0,0-4.5,1.4-12.1,5.7C1676.8,2673.5,1687.8,2668.7,1688.9,2667.8z"/>
				</g>
				<g>
					<path class="st4" d="M1699.5,2595.1c0,0,10.4-1.7,12.3-3.7c2.6-2.7,1.3-6.4-2.1-5.2C1706.2,2587.5,1705,2588.8,1699.5,2595.1z"
						/>
					<path class="st10" d="M1711,2588c0,0-4.3,1.9-11.4,7C1699.6,2595,1710,2589.1,1711,2588z"/>
				</g>
				<g>
					<path class="st4" d="M1708,2578.7c0,0,10.4-1.7,12.3-3.7c2.6-2.7,1.3-6.4-2.1-5.2C1714.7,2571.1,1713.5,2572.3,1708,2578.7z"/>
					<path class="st10" d="M1719.5,2571.6c0,0-4.3,1.9-11.4,7C1708.1,2578.6,1718.6,2572.6,1719.5,2571.6z"/>
				</g>
				<g>
					<path class="st4" d="M1718.2,2560.8c0,0,10.4-1.7,12.3-3.7c2.6-2.7,1.3-6.4-2.1-5.2C1724.9,2553.2,1723.8,2554.5,1718.2,2560.8
						z"/>
					<path class="st10" d="M1729.7,2553.7c0,0-4.3,1.9-11.4,7C1718.3,2560.7,1728.8,2554.7,1729.7,2553.7z"/>
				</g>
				<g>
					<path class="st4" d="M1729,2546.4c0,0,9.1,0.9,11.1-0.3c2.8-1.7,2.5-5-0.6-4.8C1736.2,2541.5,1735,2542.3,1729,2546.4z"/>
					<path class="st10" d="M1740.2,2543c0,0-4,0.6-11.1,3.3C1729.1,2546.3,1739.1,2543.6,1740.2,2543z"/>
				</g>
				<g>
					<path class="st4" d="M1736.9,2537.3c0,0,8.8-2.5,10.2-4.3c2-2.6,0.5-5.6-2.3-4.2C1742,2530.1,1741.1,2531.3,1736.9,2537.3z"/>
					<path class="st10" d="M1746.2,2530.1c0,0-3.5,2-9.2,7.1C1737,2537.2,1745.5,2531.1,1746.2,2530.1z"/>
				</g>
				<g>
					<path class="st4" d="M1685,2635.8c0,0-9.4-4.8-10.6-7.2c-1.7-3.3,0.6-6.5,3.6-4.3C1680.9,2626.6,1681.6,2628.1,1685,2635.8z"/>
					<path class="st10" d="M1676.1,2625.6c0,0,3.5,3.1,8.8,10.1C1685,2635.7,1676.7,2626.9,1676.1,2625.6z"/>
				</g>
				<g>
					<path class="st4" d="M1680,2655c0,0-9.4-4.8-10.6-7.2c-1.7-3.3,0.6-6.5,3.6-4.3C1675.9,2645.7,1676.6,2647.3,1680,2655z"/>
					<path class="st10" d="M1671.2,2644.8c0,0,3.5,3.1,8.8,10.1C1680,2654.9,1671.8,2646.1,1671.2,2644.8z"/>
				</g>
				<g>
					<path class="st4" d="M1706.8,2580.7c0,0-7-7.9-7.3-10.5c-0.3-3.7,3-5.8,4.9-2.7S1706.4,2572.3,1706.8,2580.7z"/>
					<path class="st10" d="M1702.2,2567.9c0,0,2.1,4.2,4.5,12.6C1706.8,2580.5,1702.3,2569.3,1702.2,2567.9z"/>
				</g>
				<g>
					<path class="st4" d="M1717.7,2563.6c0,0-7-7.9-7.3-10.6c-0.3-3.7,3-5.8,4.9-2.7S1717.3,2555.2,1717.7,2563.6z"/>
					<path class="st10" d="M1713.1,2550.8c0,0,2.1,4.2,4.5,12.6C1717.7,2563.5,1713.2,2552.3,1713.1,2550.8z"/>
				</g>
				<g>
					<path class="st4" d="M1727.4,2548.6c0,0-5.9-6.6-6.1-8.9c-0.3-3.1,2.5-4.9,4.1-2.2C1727,2540.2,1727.1,2541.6,1727.4,2548.6z"
						/>
					<path class="st10" d="M1723.6,2538c0,0,1.8,3.5,3.8,10.6C1727.4,2548.5,1723.7,2539.1,1723.6,2538z"/>
				</g>
				<path class="st10" d="M1674,2728.9c0-0.3-1.9-29,5-66.8c6.4-34.9,21.7-84.9,58.4-125l-0.2-0.2c-16.3,17.7-29.7,38.9-40,62.8
					c-8.2,19.2-14.5,40.1-18.5,62.4c-6.9,37.8-5,66.6-5,66.9L1674,2728.9z"/>
			</g>
		</g>
	</g>
	<g>
		<path class="st4" d="M1741.4,2844.2H1613c-1.7,0-3.2-1.2-3.4-2.9l-19.4-117.6c-0.3-2.1,1.3-4,3.4-4h167.1c2.1,0,3.8,1.9,3.4,4
			l-19.4,117.6C1744.6,2842.9,1743.1,2844.2,1741.4,2844.2z"/>
		<g>
			<path class="st4" d="M1683.5,2744.8c-11.9-6.2-90.5-4.6-90.5-4.6l16.6,101.1c0.3,1.7,1.7,2.9,3.4,2.9h98
				c3.6-5.7,6.8-13.7,8.3-24.8C1724.2,2783,1695.4,2751,1683.5,2744.8z"/>
			<path class="st31" d="M1744.9,2841.3l19.4-117.6c0.3-2.1-1.3-4-3.4-4h-167.1c-2.1,0-3.8,1.9-3.4,4l2.7,16.5
				c0,0,69.7-4.3,90.5,4.6c19,8.1,40.7,38.3,35.8,74.6c-1.5,11.1-4.6,19.1-8.3,24.8h30.4C1743.1,2844.2,1744.6,2842.9,1744.9,2841.3
				z"/>
		</g>
		<path class="st11" d="M1764.8,2719.6h-175c-2.2,0-4,1.9-3.6,4c0,0,0.3,9,2,10.4c0.6,0.5,3.9,0.5,3.9,0.5h170.3c0,0,3.2,0,3.7-0.4
			c1.9-1.4,2.2-10.6,2.2-10.6C1768.7,2721.5,1767,2719.6,1764.8,2719.6z"/>
		<g class="st32">
			<path class="st33" d="M1764.8,2719.6h-175c-1.6-0.1-3,1-3.4,2.2c0,0-0.1,0.1-0.2,0.3c1.1,0.4,2.9,0.6,5.7,0.6
				c11.4-0.2,47.4-0.5,63,0s45.9,0.7,52.6,0.5s21.1-0.1,29.9,0.1c6.6,0.1,23.4-0.5,30.4-1.9
				C1767.5,2720.7,1766.5,2719.6,1764.8,2719.6z"/>
		</g>
	</g>
</g>
<g class="st0">
	<g>
		<path class="st1" d="M2626.3,2101.9c-0.8,0-1.5-0.2-2.2-0.7c-1.7-1.2-2-3.5-0.8-5.2c2.8-3.9,5.3-7.9,7.5-12.1c1-1.8,3.2-2.5,5-1.5
			s2.5,3.2,1.5,5c-2.4,4.5-5.1,8.8-8.1,13C2628.6,2101.4,2627.5,2101.9,2626.3,2101.9z"/>
	</g>
	<g>
		<path class="st1" d="M2311.9,2194.9c-7.5,0-15.1-0.1-22.4-0.4c-2-0.1-3.6-1.8-3.6-3.8c0.1-2,1.8-3.6,3.8-3.6
			c9.7,0.4,19.8,0.5,29.7,0.3c1.9,0,3.7,1.6,3.7,3.7c0,2-1.6,3.7-3.7,3.7C2317,2194.9,2314.5,2194.9,2311.9,2194.9z M2349.4,2193.8
			c-1.9,0-3.6-1.5-3.7-3.5c-0.1-2,1.4-3.8,3.5-3.9c9.8-0.6,19.8-1.3,29.6-2.3c2-0.2,3.8,1.3,4,3.3s-1.3,3.8-3.3,4
			c-10,1-20.1,1.8-30,2.4H2349.4z M2259.8,2192.7c-0.1,0-0.2,0-0.3,0c-10-0.9-20.1-2-29.9-3.4c-2-0.3-3.4-2.2-3.1-4.2
			c0.3-2,2.2-3.4,4.2-3.1c9.7,1.4,19.6,2.5,29.5,3.3c2,0.2,3.5,2,3.4,4C2263.3,2191.2,2261.7,2192.7,2259.8,2192.7z M2408.9,2187.9
			c-1.8,0-3.4-1.3-3.7-3.2c-0.3-2,1.1-3.9,3.1-4.2c9.7-1.4,19.5-2.9,29.4-4.7c2-0.3,3.9,1,4.3,3c0.4,2-1,3.9-3,4.3
			c-9.9,1.8-19.9,3.4-29.7,4.8C2409.2,2187.9,2409,2187.9,2408.9,2187.9z M2200.6,2184.4c-0.2,0-0.5,0-0.7-0.1
			c-9.9-1.9-19.7-4.2-29.4-6.7c-2-0.5-3.2-2.5-2.7-4.5s2.5-3.2,4.5-2.7c9.5,2.4,19.2,4.7,28.9,6.6c2,0.4,3.3,2.3,2.9,4.3
			C2203.9,2183.1,2202.3,2184.4,2200.6,2184.4z M2467.7,2177.3c-1.7,0-3.2-1.2-3.6-2.9c-0.4-2,0.8-4,2.8-4.4
			c9.6-2.1,19.3-4.4,29-6.8c2-0.5,4,0.7,4.5,2.7s-0.7,4-2.7,4.5c-9.7,2.5-19.5,4.8-29.2,6.9
			C2468.2,2177.3,2468,2177.3,2467.7,2177.3z M2142.8,2169.3c-0.4,0-0.8-0.1-1.2-0.2c-10.3-3.5-19.5-7.2-28.1-11.4
			c-1.8-0.9-2.6-3.1-1.7-4.9c0.9-1.8,3.1-2.6,4.9-1.7c8.4,4,17.3,7.6,27.3,11c1.9,0.7,3,2.8,2.3,4.7
			C2145.7,2168.3,2144.3,2169.3,2142.8,2169.3z M2525.6,2162.5c-1.6,0-3.1-1-3.5-2.6c-0.6-2,0.5-4,2.5-4.6c10.3-3.1,19.4-6.3,28-9.6
			c1.9-0.7,4,0.2,4.8,2.1c0.7,1.9-0.2,4-2.1,4.8c-8.7,3.4-18.1,6.7-28.6,9.8C2526.3,2162.5,2526,2162.5,2525.6,2162.5z
			 M2089.2,2143.1c-0.7,0-1.5-0.2-2.1-0.7c-8.6-6.1-16.4-13-22.9-20.3c-1.4-1.5-1.2-3.9,0.3-5.2c1.5-1.4,3.9-1.2,5.2,0.3
			c6.2,7,13.5,13.4,21.7,19.2c1.7,1.2,2.1,3.5,0.9,5.2C2091.5,2142.5,2090.4,2143.1,2089.2,2143.1z M2581,2140.2
			c-1.3,0-2.6-0.7-3.2-1.9c-1-1.8-0.3-4,1.5-5c9-5,17.2-10.4,24.2-16.2c1.6-1.3,3.9-1.1,5.2,0.5s1.1,3.9-0.5,5.2
			c-7.4,6.1-15.9,11.8-25.4,17C2582.2,2140,2581.6,2140.2,2581,2140.2z M2049.9,2098.8c-1.3,0-2.6-0.7-3.3-1.9
			c-4.6-8.6-8.6-18-11.9-28.1c-0.6-1.9,0.4-4,2.4-4.7c1.9-0.6,4,0.4,4.7,2.4c3.1,9.7,6.9,18.7,11.4,26.9c1,1.8,0.3,4-1.5,5
			C2051.1,2098.7,2050.5,2098.8,2049.9,2098.8z M2031.2,2042.3c-1.8,0-3.3-1.3-3.6-3.1c-1.6-9.1-2.7-18.8-3.3-28.9l-0.1-1.2
			c-0.1-2,1.4-3.8,3.5-3.9c2-0.1,3.8,1.4,3.9,3.5l0.1,1.2c0.6,9.8,1.7,19.3,3.3,28.1c0.3,2-1,3.9-3,4.3
			C2031.6,2042.3,2031.4,2042.3,2031.2,2042.3z M2027.4,1982.7L2027.4,1982.7c-2.1-0.1-3.7-1.8-3.7-3.8c0.4-10.4,1.4-20.6,3-30.2
			c0.3-2,2.2-3.4,4.2-3c2,0.3,3.4,2.2,3,4.2c-1.5,9.3-2.5,19.1-2.9,29.3C2031,1981.1,2029.4,1982.7,2027.4,1982.7z M2037.4,1923.9
			c-0.4,0-0.8-0.1-1.2-0.2c-1.9-0.6-3-2.7-2.4-4.7c3-9.2,7-18.7,11.7-28.1c0.9-1.8,3.1-2.6,5-1.6c1.8,0.9,2.6,3.1,1.6,5
			c-4.6,9.1-8.4,18.2-11.3,27.1C2040.4,1923,2039,1923.9,2037.4,1923.9z M2122.2,1918.6c-2,0-3.6-1.6-3.7-3.6c0-2,1.6-3.7,3.6-3.8
			c9.9-0.2,19.8-1,29.4-2.4c2-0.3,3.9,1.1,4.2,3.1s-1.1,3.9-3.1,4.2C2142.6,1917.5,2132.5,1918.3,2122.2,1918.6L2122.2,1918.6z
			 M2092.3,1917.5c-0.1,0-0.3,0-0.4,0c-11.4-1.3-21.2-3.6-30-7.1c-1.9-0.8-2.8-2.9-2.1-4.8c0.8-1.9,2.9-2.8,4.8-2.1
			c8.1,3.2,17.3,5.4,28,6.6c2,0.2,3.5,2.1,3.3,4.1C2095.8,1916.1,2094.2,1917.5,2092.3,1917.5z M2181.2,1910c-1.6,0-3.1-1.1-3.6-2.7
			c-0.6-2,0.6-4,2.6-4.6c9.7-2.7,18.9-6.1,27.5-10c1.9-0.8,4.1,0,4.9,1.8c0.8,1.9,0,4.1-1.8,4.9c-8.9,4.1-18.6,7.6-28.6,10.4
			C2181.9,1910,2181.5,1910,2181.2,1910z M2038.4,1894.5c-0.9,0-1.9-0.4-2.6-1.1c-7-6.8-13.1-15.3-18.1-25.1c-0.9-1.8-0.2-4,1.6-5
			c1.8-0.9,4-0.2,5,1.6c4.7,9.1,10.3,16.9,16.7,23.2c1.5,1.4,1.5,3.8,0.1,5.2C2040.3,1894.1,2039.4,1894.5,2038.4,1894.5z
			 M2235.2,1885c-1.2,0-2.3-0.5-3-1.6c-1.2-1.7-0.8-4,0.9-5.2c8.1-5.7,15.4-12.2,21.7-19.2c1.4-1.5,3.7-1.6,5.2-0.3
			c1.5,1.4,1.6,3.7,0.3,5.2c-6.7,7.4-14.4,14.3-23,20.3C2236.7,1884.8,2236,1885,2235.2,1885z M2063.9,1870.5c-0.7,0-1.4-0.2-2-0.6
			c-1.7-1.1-2.2-3.4-1.1-5.1c4.6-7.1,9.7-14.3,15.5-22l2-2.6c1.2-1.6,3.6-1.9,5.2-0.7c1.6,1.2,1.9,3.6,0.7,5.2l-1.9,2.6
			c-5.7,7.6-10.7,14.6-15.2,21.6C2066.3,1869.9,2065.1,1870.5,2063.9,1870.5z M2010.4,1842.4c-1.6,0-3.1-1.1-3.6-2.7
			c-2.5-9.1-4.5-18.8-6-29.8c-0.3-2,1.1-3.9,3.1-4.2c2-0.3,3.9,1.1,4.2,3.1c1.5,10.6,3.4,20.1,5.8,28.8c0.5,2-0.6,4-2.6,4.5
			C2011.1,1842.4,2010.7,1842.4,2010.4,1842.4z M2274.6,1840.8c-0.6,0-1.1-0.1-1.7-0.4c-1.8-0.9-2.5-3.2-1.6-5
			c4.6-9.1,7.5-18.4,8.3-27.1c0.2-2,2-3.5,4-3.3s3.5,2,3.3,4c-0.9,9.6-4,19.9-9.1,29.8C2277.2,1840.1,2275.9,1840.8,2274.6,1840.8z
			 M2100.2,1823.1c-0.9,0-1.8-0.3-2.5-0.9c-1.5-1.4-1.7-3.7-0.3-5.2c7-7.8,14.2-15.1,21.3-21.5c1.5-1.4,3.8-1.3,5.2,0.2
			s1.3,3.8-0.2,5.2c-6.9,6.3-13.9,13.4-20.7,21C2102.2,1822.7,2101.2,1823.1,2100.2,1823.1z M2277.7,1783.5c-1.3,0-2.6-0.7-3.2-1.9
			c-4.3-7.7-11.1-14.3-19.7-19.1c-1.8-1-2.4-3.2-1.4-5s3.2-2.4,5-1.4c9.8,5.5,17.6,13.1,22.6,22c1,1.8,0.3,4-1.4,5
			C2278.9,1783.3,2278.3,1783.5,2277.7,1783.5z M2001.4,1783.4c-1.9,0-3.5-1.5-3.7-3.4c-0.7-10.3-1.1-20.5-1.1-30.1
			c0-2,1.7-3.7,3.7-3.7l0,0c2,0,3.7,1.7,3.7,3.7c0,9.5,0.4,19.5,1.1,29.6c0.1,2-1.4,3.8-3.4,4
			C2001.6,1783.4,2001.5,1783.4,2001.4,1783.4z M2144.5,1783.1c-1.2,0-2.3-0.6-3-1.6c-1.2-1.7-0.7-4,0.9-5.1
			c8.6-6,17.4-11.1,26.3-15.4c1.8-0.9,4-0.1,4.9,1.7c0.9,1.8,0.1,4-1.7,4.9c-8.5,4.1-17,9-25.3,14.8
			C2146,1782.9,2145.3,1783.1,2144.5,1783.1z M2198.3,1757.8c-1.7,0-3.2-1.1-3.6-2.8c-0.5-2,0.7-4,2.7-4.5
			c10.8-2.7,21.2-3.7,30.8-3.1c2,0.1,3.6,1.9,3.5,3.9s-1.9,3.6-3.9,3.5c-1.6-0.1-3.3-0.2-4.9-0.2c-7.4,0-15.4,1-23.6,3.1
			C2198.9,1757.8,2198.6,1757.8,2198.3,1757.8z M2001.5,1723.7c-0.1,0-0.2,0-0.3,0c-2-0.2-3.5-2-3.4-4c0.9-10.3,2.3-20.4,4.1-30
			c0.4-2,2.3-3.3,4.3-2.9s3.3,2.3,2.9,4.3c-1.8,9.4-3.1,19.2-4,29.2C2005,1722.2,2003.4,1723.7,2001.5,1723.7z M2012.8,1665.1
			c-0.4,0-0.7-0.1-1.1-0.2c-1.9-0.6-3-2.7-2.4-4.6l0.5-1.7c2.9-8.9,6.4-17.9,10.5-26.6c0.9-1.9,3.1-2.7,4.9-1.8
			c1.9,0.9,2.7,3.1,1.8,4.9c-3.9,8.4-7.3,17.1-10.2,25.8l-0.5,1.6C2015.9,1664.1,2014.4,1665.1,2012.8,1665.1z M2037.9,1610.9
			c-0.7,0-1.3-0.2-1.9-0.6c-1.7-1.1-2.3-3.3-1.2-5.1c5.2-8.5,11-16.8,17.3-24.9c1.3-1.6,3.6-1.9,5.2-0.6c1.6,1.3,1.9,3.6,0.6,5.2
			c-6.1,7.8-11.8,16-16.8,24.2C2040.3,1610.3,2039.1,1610.9,2037.9,1610.9z M2074.5,1563.8c-0.9,0-1.8-0.3-2.6-1
			c-1.5-1.4-1.5-3.8-0.1-5.2c6.9-7.2,14.3-14.2,21.9-20.8c1.5-1.3,3.9-1.2,5.2,0.4c1.3,1.5,1.2,3.9-0.4,5.2
			c-7.5,6.5-14.7,13.3-21.4,20.3C2076.4,1563.4,2075.4,1563.8,2074.5,1563.8z M2119.7,1524.8c-1.2,0-2.3-0.5-3-1.5
			c-1.2-1.7-0.8-4,0.9-5.2c2.3-1.7,4.6-3.3,7-4.9c5.9-4,12-7.9,18.3-11.6c1.8-1,4-0.5,5.1,1.3c1,1.8,0.5,4-1.3,5.1
			c-6.1,3.7-12.2,7.5-17.9,11.4c-2.3,1.6-4.6,3.2-6.8,4.8C2121.1,1524.5,2120.4,1524.8,2119.7,1524.8z M2170.9,1494.1
			c-1.4,0-2.7-0.8-3.3-2.1c-0.9-1.8-0.2-4,1.7-5c8.8-4.4,18-8.6,27.4-12.5c1.9-0.8,4,0.1,4.8,2s-0.1,4-2,4.8
			c-9.3,3.8-18.3,8-27,12.3C2172,1494,2171.5,1494.1,2170.9,1494.1z M2226.1,1471.2c-1.5,0-3-1-3.5-2.5c-0.7-1.9,0.4-4,2.3-4.7
			c9.3-3.2,18.9-6.2,28.7-9c2-0.6,4,0.6,4.6,2.5c0.6,2-0.6,4-2.5,4.6c-9.7,2.8-19.2,5.8-28.3,8.9
			C2226.9,1471.1,2226.5,1471.2,2226.1,1471.2z"/>
	</g>
	<g>
		<path class="st1" d="M2283.9,1454.6c-1.7,0-3.2-1.2-3.6-2.9c-0.5-2,0.8-4,2.8-4.4c4.8-1.1,9.7-2.2,14.5-3.2c2-0.4,4,0.9,4.4,2.9
			s-0.9,4-2.9,4.4c-4.8,1-9.6,2.1-14.4,3.2C2284.5,1454.6,2284.2,1454.6,2283.9,1454.6z"/>
	</g>
</g>
<g class="st0">
	<g>
		<path class="st1" d="M2937.6,1516.3c-0.2,0-0.5,0-0.7-0.1c-2-0.4-3.3-2.3-2.9-4.3c1-4.9,2.2-9.9,3.8-14.7c0.6-1.9,2.7-3,4.6-2.4
			c1.9,0.6,3,2.7,2.4,4.6c-1.5,4.6-2.7,9.2-3.6,13.9C2940.9,1515,2939.4,1516.3,2937.6,1516.3z"/>
	</g>
	<g>
		<path class="st1" d="M3225.3,2144.1c-5.5,0-11.1-0.2-16.7-0.5c-3.3-0.2-5.8-0.4-8.2-0.7c-2-0.3-3.5-2.1-3.2-4.1s2.1-3.4,4.1-3.2
			c2.2,0.3,4.6,0.5,7.7,0.7c7.1,0.4,14.2,0.6,21.2,0.5c2,0,3.7,1.6,3.8,3.6s-1.6,3.7-3.6,3.8
			C3228.7,2144.1,3227,2144.1,3225.3,2144.1z M3259.8,2141.6c-1.8,0-3.4-1.3-3.7-3.2c-0.3-2,1.1-3.9,3.1-4.2
			c9.8-1.5,19.3-3.6,28.3-6.3c1.9-0.6,4,0.5,4.6,2.5s-0.5,4-2.5,4.6c-9.3,2.8-19.2,5-29.4,6.6
			C3260.2,2141.6,3260,2141.6,3259.8,2141.6z M3316,2124.1c-1.3,0-2.6-0.7-3.3-2c-0.9-1.8-0.2-4,1.6-5c8.1-4.2,15.6-9,22.5-14.4
			l1.6-1.3c1.6-1.3,3.9-1,5.2,0.5c1.3,1.6,1,3.9-0.5,5.2l-1.7,1.3c-7.2,5.7-15.2,10.8-23.7,15.2
			C3317.1,2124,3316.5,2124.1,3316,2124.1z M3361.6,2087.2c-0.8,0-1.7-0.3-2.4-0.9c-1.6-1.3-1.8-3.6-0.5-5.2
			c5.9-7,11.5-15,16.8-23.6c1.1-1.7,3.3-2.3,5.1-1.2c1.7,1.1,2.3,3.3,1.2,5.1c-5.5,8.9-11.3,17.2-17.5,24.5
			C3363.7,2086.8,3362.6,2087.2,3361.6,2087.2z M3392.7,2037.1c-0.5,0-1.1-0.1-1.6-0.4c-1.8-0.9-2.6-3.1-1.8-4.9
			c4-8.6,7.8-17.7,11.1-27c0.7-1.9,2.8-2.9,4.7-2.2c1.9,0.7,2.9,2.8,2.2,4.7c-3.4,9.5-7.2,18.8-11.4,27.6
			C3395.4,2036.3,3394.1,2037.1,3392.7,2037.1z M3412.6,1981.6c-0.3,0-0.6,0-0.9-0.1c-2-0.5-3.2-2.5-2.6-4.5
			c2.4-9.1,4.6-18.7,6.4-28.6c0.4-2,2.3-3.3,4.3-2.9s3.3,2.3,2.9,4.3c-1.9,10-4.1,19.8-6.6,29.1
			C3415.8,1980.5,3414.3,1981.6,3412.6,1981.6z M3423.8,1923.6c-0.2,0-0.3,0-0.5,0c-2-0.3-3.5-2.1-3.2-4.1
			c1.2-9.2,2.2-19.1,3.1-29.2c0.2-2,2-3.6,4-3.4s3.5,2,3.4,4c-0.9,10.3-1.9,20.2-3.1,29.6
			C3427.2,1922.3,3425.6,1923.6,3423.8,1923.6z M3428.8,1864.7c-0.1,0-0.1,0-0.2,0c-2-0.1-3.6-1.8-3.5-3.9
			c0.4-9.1,0.8-18.8,1.1-29.5c0.1-2,1.7-3.7,3.8-3.6c2,0.1,3.7,1.8,3.6,3.8c-0.3,10.7-0.6,20.4-1.1,29.6
			C3432.4,1863.2,3430.7,1864.7,3428.8,1864.7z M3430.4,1805.6L3430.4,1805.6c-2.1,0-3.7-1.7-3.7-3.7c0.1-6.4,0.2-12.8,0.2-19.1
			l0.1-10.4c0-2,1.7-3.7,3.7-3.7s3.7,1.7,3.7,3.7l-0.1,10.4c-0.1,6.4-0.2,12.7-0.2,19.1C3434.1,1804,3432.4,1805.6,3430.4,1805.6z
			 M3431.3,1746.6C3431.2,1746.6,3431.2,1746.6,3431.3,1746.6c-2.1,0-3.7-1.7-3.7-3.8c0.1-5.9,0.3-11.8,0.4-17.7l0.3-11.9
			c0.1-2,1.8-3.6,3.8-3.6s3.7,1.7,3.6,3.8l-0.3,11.9c-0.1,5.9-0.3,11.8-0.4,17.7C3434.9,1745,3433.3,1746.6,3431.3,1746.6z
			 M3432.5,1687.5L3432.5,1687.5c-2.1,0-3.7-1.7-3.7-3.7c0-2.1,0-4.2,0-6.3c0-8.3-0.1-15.9-0.3-23.1c-0.1-2,1.5-3.7,3.6-3.8
			c2-0.1,3.7,1.5,3.8,3.6c0.2,7.4,0.3,15,0.3,23.4c0,2.1,0,4.2,0,6.3C3436.2,1685.8,3434.5,1687.5,3432.5,1687.5z M3430.4,1628.4
			c-1.9,0-3.5-1.4-3.7-3.4c-0.9-9.8-2.1-19.4-3.6-28.3l-0.1-0.7c-0.4-2,1-3.9,3-4.3c2-0.3,3.9,1,4.3,3l0.1,0.7
			c1.5,9.2,2.8,18.9,3.7,28.9c0.2,2-1.3,3.8-3.4,4C3430.6,1628.4,3430.5,1628.4,3430.4,1628.4z M3420.3,1570.3
			c-1.6,0-3.1-1.1-3.6-2.7c-2.6-9.5-5.8-18.8-9.3-27.6c-0.8-1.9,0.1-4,2-4.8s4,0.1,4.8,2c3.7,9,6.9,18.6,9.6,28.4
			c0.5,2-0.6,4-2.6,4.6C3420.9,1570.2,3420.6,1570.3,3420.3,1570.3z M3244.9,1522.9c-7.3,0-14.2-1-20.5-3.1
			c-2.3-0.7-4.5-1.7-6.7-2.8c-1.8-0.9-2.5-3.2-1.6-5s3.2-2.5,5-1.6s3.7,1.7,5.6,2.4c6.4,2.1,13.7,3,21.3,2.7
			c2.1-0.1,3.8,1.5,3.9,3.5c0.1,2-1.5,3.8-3.5,3.9C3247.2,1522.9,3246.1,1522.9,3244.9,1522.9z M3277.2,1517.4c-1.6,0-3.1-1-3.5-2.6
			c-0.6-2,0.5-4,2.5-4.6c2.8-0.8,5.6-1.7,8.3-2.7c7-2.4,13.2-4.8,18.9-7.4c1.9-0.9,4.1,0,4.9,1.8c0.9,1.9,0,4-1.8,4.9
			c-5.9,2.7-12.3,5.2-19.6,7.7c-3.1,1-5.9,2-8.6,2.8C3277.9,1517.3,3277.5,1517.4,3277.2,1517.4z M3397.9,1515.8
			c-1.3,0-2.5-0.7-3.2-1.9c-4.9-8.6-10.4-16.6-16.3-23.9c-1.3-1.6-1-3.9,0.5-5.2c1.6-1.3,3.9-1,5.2,0.6c6.1,7.6,11.8,16,17,24.9
			c1,1.8,0.4,4-1.4,5C3399.2,1515.6,3398.5,1515.8,3397.9,1515.8z M3199.4,1496.4c-1.4,0-2.8-0.8-3.4-2.2c-2.2-5-3.4-10-3.4-15
			c0-4.1,0.8-8,2.3-11.7c0.7-1.7,1.5-3.4,2.5-5c1.1-1.7,3.3-2.3,5.1-1.2c1.7,1.1,2.3,3.3,1.2,5.1c-0.8,1.3-1.4,2.6-2,3.9
			c-1.1,2.8-1.7,5.9-1.7,9c0,4,0.9,8,2.7,12c0.8,1.9,0,4-1.9,4.9C3200.4,1496.3,3199.9,1496.4,3199.4,1496.4z M3329.9,1491.6
			c-1,0-2.1-0.4-2.8-1.3c-1.3-1.6-1.1-3.9,0.4-5.2c7.6-6.4,13.1-13.8,16.5-21.9c0.6-1.4,2-2.3,3.5-2.3c-4.1-2.8-8.4-5.5-12.8-7.8
			c-1.8-1-2.5-3.2-1.5-5s3.2-2.5,5-1.5c8.1,4.4,15.7,9.5,22.7,15.2c0.8,0.6,1.5,1.3,2.3,1.9c1.6,1.3,1.7,3.7,0.4,5.2
			s-3.7,1.7-5.2,0.4c-0.7-0.6-1.5-1.2-2.2-1.9c-1.7-1.4-3.4-2.7-5.1-4c0.3,0.8,0.3,1.7-0.1,2.5c0,0-0.1,0.1-0.1,0.2
			c-3.8,9.1-10,17.4-18.5,24.7C3331.6,1491.3,3330.8,1491.6,3329.9,1491.6z M2953.3,1475c-0.6,0-1.3-0.2-1.9-0.5
			c-1.8-1-2.4-3.3-1.3-5.1c4.9-8.5,10.8-16.7,17.5-24.6c1.3-1.6,3.7-1.7,5.2-0.4c1.5,1.3,1.7,3.7,0.4,5.2
			c-6.4,7.5-12.1,15.4-16.8,23.5C2955.8,1474.4,2954.6,1475,2953.3,1475z M3222.9,1449.2c-1.3,0-2.6-0.7-3.3-2c-1-1.8-0.3-4,1.5-5
			c8.9-4.7,18.5-8.2,28.8-10.2c2-0.4,4,0.9,4.4,2.9s-0.9,4-2.9,4.4c-9.5,1.9-18.5,5.1-26.7,9.5
			C3224.1,1449.1,3223.5,1449.2,3222.9,1449.2z M3309.1,1442.4c-0.3,0-0.7,0-1-0.1c-9.3-2.7-18.9-4.3-28.2-4.9
			c-2-0.1-3.6-1.9-3.5-3.9s1.8-3.6,3.9-3.5c9.9,0.6,20,2.3,29.9,5.1c2,0.6,3.1,2.6,2.5,4.6
			C3312.2,1441.3,3310.7,1442.4,3309.1,1442.4z M3351.9,1439.2c-2,0-3.6-1.5-3.7-3.5c-0.4-7.5-1.6-15.7-4-25.8
			c-0.2-0.9-0.4-1.8-0.6-2.6c-0.5-2,0.7-4,2.7-4.5s4,0.7,4.5,2.7c0.2,0.9,0.5,1.8,0.7,2.7c2.5,10.5,3.8,19.1,4.2,27.1
			c0.1,2-1.5,3.8-3.5,3.9C3352,1439.2,3351.9,1439.2,3351.9,1439.2z M2991.4,1430.2c-1,0-2.1-0.4-2.8-1.3c-1.3-1.6-1.1-3.9,0.4-5.2
			c7.5-6.4,15.7-12.4,24.2-17.8c1.7-1.1,4-0.6,5.1,1.2c1.1,1.7,0.6,4-1.2,5.1c-8.3,5.2-16.1,11-23.4,17.2
			C2993.1,1429.9,2992.3,1430.2,2991.4,1430.2z M3041.1,1398.6c-1.4,0-2.7-0.8-3.3-2.1c-0.9-1.8-0.1-4,1.7-4.9
			c8.7-4.1,17.7-7.9,27.5-11.6c1.9-0.7,4,0.3,4.8,2.2c0.7,1.9-0.3,4-2.2,4.8c-9.7,3.6-18.5,7.3-26.9,11.4
			C3042.2,1398.4,3041.7,1398.6,3041.1,1398.6z M3337.5,1382.2c-1.4,0-2.7-0.8-3.4-2.2c-4.3-9.4-9.5-17.5-15.2-23.9
			c-1.4-1.5-1.2-3.9,0.3-5.2c1.5-1.4,3.9-1.2,5.2,0.3c6.3,7,11.8,15.6,16.4,25.8c0.9,1.9,0,4.1-1.8,4.9
			C3338.5,1382.1,3338,1382.2,3337.5,1382.2z M3096.4,1377.7c-1.6,0-3.1-1-3.5-2.6c-0.6-2,0.5-4,2.5-4.6c8.6-2.6,17.9-5.2,28.6-8
			c2-0.5,4,0.7,4.5,2.6c0.5,2-0.7,4-2.6,4.5c-10.6,2.8-19.9,5.3-28.3,7.9C3097.1,1377.7,3096.7,1377.7,3096.4,1377.7z
			 M3153.5,1362.6c-1.7,0-3.2-1.1-3.6-2.8c-0.5-2,0.7-4,2.7-4.5l28.7-7c2-0.5,4,0.7,4.5,2.7s-0.7,4-2.7,4.5l-28.7,7
			C3154.1,1362.6,3153.8,1362.6,3153.5,1362.6z M3210.9,1348.5c-1.7,0-3.2-1.1-3.6-2.8c-0.5-2,0.7-4,2.7-4.5l22.9-5.6
			c1.9-0.5,3.9-0.9,5.8-1.4c2-0.5,4,0.8,4.5,2.7c0.5,2-0.8,4-2.7,4.4c-1.9,0.5-3.9,0.9-5.8,1.4l-22.9,5.6
			C3211.5,1348.5,3211.2,1348.5,3210.9,1348.5z M3297.8,1340.5c-0.4,0-0.9-0.1-1.3-0.2c-0.5-0.2-1-0.4-1.5-0.6
			c-7.7-2.7-16.1-3.7-26-3.1c-2.1,0.1-3.8-1.4-3.9-3.5c-0.1-2,1.4-3.8,3.5-3.9c10.9-0.7,20.3,0.5,28.9,3.5c0.6,0.2,1.1,0.4,1.7,0.6
			c1.9,0.7,2.9,2.9,2.1,4.8C3300.7,1339.6,3299.3,1340.5,3297.8,1340.5z"/>
	</g>
	<g>
		<path class="st1" d="M3175.1,2129.7c-1.2,0-2.3-0.6-3.1-1.6c-3.6-5.3-5-11.2-3.9-16.8c0.4-2,2.3-3.3,4.3-2.9
			c2,0.4,3.3,2.3,2.9,4.3c-0.7,3.6,0.3,7.6,2.8,11.3c1.1,1.7,0.7,4-1,5.1C3176.5,2129.5,3175.8,2129.7,3175.1,2129.7z"/>
	</g>
</g>
<g>
	<path class="st34" d="M2301.4,1483.1c4.8-14.4,9.6-28.8,14.3-43.1l64.1-10L2301.4,1483.1z"/>
	<path class="st4" d="M2290.9,1402.9c8.3,12.3,16.5,24.7,24.8,37l64.1-10L2290.9,1402.9z"/>
</g>
<g>
	<path class="st34" d="M3226.1,2108.6c-12.1,9.1-24.2,18.2-36.4,27.3l-58.4-28.3L3226.1,2108.6z"/>
	<path class="st4" d="M3189.1,2180.5c0.2-14.8,0.5-29.7,0.7-44.5l-58.4-28.3L3189.1,2180.5z"/>
</g>
<g>
	<path class="st35" d="M1645.6,1182v504.9h659.7c54.6,0,98.9-44.3,98.9-98.9v-438.5h-726C1660.2,1149.3,1645.6,1163.9,1645.6,1182z"
		/>
</g>
<g>
	<g>
		<g>
			<polygon class="st36" points="5157.5,2034.3 5150.2,2057.2 5142.3,2063 5132.7,2072.4 5123.1,2099.2 5128.5,2103.2 
				5136.7,2088.3 5138.7,2090 5124.5,2118.3 5147,2117.7 5165.7,2095.9 5170,2084.1 5172.7,2063.2 5181.4,2042.6 			"/>
			<g>
				<g>
					<g>
						<path class="st28" d="M5205.7,1971.3l-2.2,0.9c-13.6,5.1-23.1-3-33.5-19.3c-24-37.6-57.8-78-80.1-122.2
							c-11.6-23-0.7-34.2,10.1-43l2.1-1.6c15.7-9.8,30,3.1,38.1,16.7c28.2,46.8,77.1,133.7,77.1,133.7
							C5223.3,1951.2,5219.3,1966.2,5205.7,1971.3z"/>
						<path class="st28" d="M5180.8,2056.1l-29.5-11.8c0,0,15.2-44.7,22.6-90.4c3.2-20.1,11.2-32.1,25.3-28.9l0,0
							c14.1,3.3,26.5,15.1,18.5,38C5205.5,1997.9,5180.8,2056.1,5180.8,2056.1z"/>
					</g>
				</g>
			</g>
		</g>
		<g>
			<g>
				<path class="st37" d="M5028.5,2040.4l-517.2-392.1l52.9-70.4l517.2,392.1c1.2,0.9,1.4,2.6,0.5,3.7l-49.7,66.2
					C5031.4,2041.1,5029.7,2041.3,5028.5,2040.4z"/>
				<path class="st14" d="M5125.4,2135.6l-483.9-365.4c-11.1-8.4-13.4-24.2-5-35.3l45.8-61c8.4-11.1,24.2-13.4,35.3-5l483.9,365.4
					c12.5,10.6,20.2,15.7,11.8,26.8l-59.4,79.5C5145.5,2151.8,5136.5,2144,5125.4,2135.6z"/>
				<g>
					<path class="st38" d="M4275.2,1116.3c-8.4,0.5-16.8,1.3-25.2,2.5c-167.5,23.8-284.4,179.4-260.6,346.8
						c23.8,167.5,179.4,284.3,346.8,260.6c167.5-23.8,284.4-179.4,260.6-346.8C4574.3,1220.5,4432.8,1107,4275.2,1116.3z"/>
					<path class="st37" d="M4271.2,1048.1c-10.2,0.6-20.5,1.6-30.8,3.1c-204.8,29.1-347.8,219.3-318.7,424.1
						s219.4,347.7,424.1,318.7c204.8-29.1,347.8-219.3,318.7-424.1C4637,1175.4,4464,1036.7,4271.2,1048.1z M4336.2,1726.3
						c-167.4,23.7-323.1-93.1-346.8-260.6c-23.8-167.5,93.2-323.1,260.6-346.8c8.4-1.2,16.8-2,25.2-2.5
						c157.6-9.3,299.1,104.1,321.6,263.2C4620.6,1547,4503.7,1702.6,4336.2,1726.3z"/>
				</g>
				<ellipse class="st39" cx="4293.1" cy="1422.6" rx="326" ry="326"/>
				<path class="st22" d="M4598.6,1404.5c10,168.7-118.7,313.6-287.4,323.5c-168.7,10-313.6-118.7-323.5-287.4
					c-10-168.7,118.7-313.6,287.4-323.5C4443.7,1107.1,4588.6,1235.8,4598.6,1404.5z"/>
				
					<ellipse transform="matrix(0.7071 -0.7071 0.7071 0.7071 251.4509 3452.3503)" class="st40" cx="4293.1" cy="1422.6" rx="273.4" ry="273.4"/>
				<path class="st41" d="M4340.9,1291.8c96.2,19.7,176.8,65,226.7,121c-0.1-2.1-0.1-4.2-0.2-6.4c-9-151.4-139-266.9-290.4-257.9
					c-121,7.2-219,91.7-248.9,202.6C4094.5,1291.7,4214,1265.8,4340.9,1291.8z"/>
			</g>
			<path class="st42" d="M5189.4,2104.6c-19.8,26.8-40.2,45.2-45.6,41.3c-5.4-4,6.3-28.9,26.1-55.6c19.8-26.8,40.2-45.2,45.6-41.3
				C5220.9,2053,5209.2,2077.9,5189.4,2104.6z"/>
		</g>
	</g>
	<g>
		<g>
			<g>
				<g>
					<g>
						
							<rect x="5008.3" y="1742.6" transform="matrix(0.1237 -0.9923 0.9923 0.1237 2667.7302 6546.3076)" class="st13" width="64.1" height="40.1"/>
					</g>
					
						<rect x="4999.5" y="1747.7" transform="matrix(0.1237 -0.9923 0.9923 0.1237 2618.3198 6575.853)" class="st36" width="65.8" height="115.5"/>
				</g>
				<g>
					<g id="XMLID_122_">
						<path id="XMLID_123_" class="st13" d="M4998.4,1685.2c-7.7,27.5,5,55.1,28.5,61.7c23.4,6.6,48.7-10.4,56.4-37.8
							c1.1-3.9,17.3-53.3,17.6-57.2l-13.9-19.8l-32.2-19.3l-30.2,0.1c-0.5,1-13.2,7.4-17.5,25
							C5003.1,1654.2,4999.2,1682.5,4998.4,1685.2z"/>
					</g>
				</g>
			</g>
			<path class="st10" d="M5009.8,1615.5c-5.2-16.9,1.9-26.1,8.2-29.6c3.1-1.7,12.7-4,32.2,6.2s21.3,0,33,7.3
				c18.5,11.5,32.1,41.2,27.9,63c-3.2,16.5-15.7,34.7-21.6,42.6l-8.9,16.9c-3.2,6.1-9.9,9.6-16.7,8.7l-12.5-1.6
				c-6.1-0.8-9.1,0.3-14.7-3.2l-3-2.5c-5.1-5.6-7-12.8-7.5-21.1l0.8-17.6c0,0,4.9-10.9,5.1-13.2c0.2-2.4-3-8.6-5.4-8.2
				c-3.5,0.7-4.8,11.1-8.3,11.8c-1.4,0.3-4.5-1.8-4.8-3.2c-0.8-3.7,0.2-11.9,2.7-19.5c0.4-1.3-2.5-3.9-2.1-5.2
				c2-6.5,7.3-12.9,5.8-17.1C5018.3,1625.4,5012.4,1623.9,5009.8,1615.5z"/>
		</g>
		<g>
			<polygon class="st13" points="4733.8,1811.7 4712.1,1802.2 4708.8,1793 4702.4,1781.1 4679.4,1764.5 4674,1768.6 4686,1780.6 
				4683.9,1782.1 4660.6,1760.5 4654.9,1782.3 4670.6,1806.4 4680.8,1813.7 4700.1,1822.2 4720.6,1832.9 			"/>
			<g>
				<g>
					<g>
						<path class="st28" d="M4785.7,1861.7l-0.8-2.2c-3.9-13.9,4.9-22.8,22-31.8c39.5-20.8,82.6-51,128.5-69.5
							c23.9-9.6,37.9,1.8,42,13.7l0.6,1.7c6.1,20.7-4.8,30.1-19,37.1c-49,24.1-139.7,65.5-139.7,65.5
							C4804.3,1880.9,4789.7,1875.7,4785.7,1861.7z"/>
						<path class="st28" d="M4703.3,1829.7l14.2-28.4c0,0,43.3,19,88.2,30.2c19.7,4.9,31.1,13.8,26.6,27.6l0,0
							c-4.5,13.8-17.3,25.1-39.5,15.2C4759.2,1859.3,4703.3,1829.7,4703.3,1829.7z"/>
					</g>
				</g>
			</g>
		</g>
		<g>
			<g>
				<g>
					<g>
						<path class="st10" d="M4777.3,2839.6h1.2l0.3,5.9h28.1l-0.8-7.8h-0.9v-0.1l-0.1-28.5H4776l-0.6,3.8l-13.4,9.9l-42.5,12.2
							c0,0-3.4,1.5-3.3,3.3l0.1,3.4l0.1,2c0,0,0.5,0.9,4,1.9h48.8l2.9-3.9l2.9-1.8L4777.3,2839.6z"/>
					</g>
					<g>
						<path class="st10" d="M5048.5,2839.6h1.2l0.3,5.9h28.1l-0.8-7.8h-0.9v-0.1l-6.4-28.5h-29.1l-0.6,3.8l-7.1,9.9l-42.5,12.2
							c0,0-3.4,1.5-3.3,3.3l0.1,3.4l0.1,2c0,0,0.5,0.9,4,1.9h48.8l2.9-3.9l2.9-1.8L5048.5,2839.6z"/>
					</g>
				</g>
				<polygon class="st1" points="5104.8,2122.7 4897.6,2115.8 4897.9,2136.2 4887,2195.7 4822,2515.7 4768.1,2809.1 4814.8,2816.9 
					4892,2531.3 4978.9,2252.6 4982.6,2246.4 5008.7,2527 5032.6,2810 5078,2812.6 5080.4,2520.8 5091.7,2236 5103.9,2195.1 
					5100.9,2145.4 				"/>
			</g>
			<g>
				<path class="st28" d="M5014.7,1763.5l-5-0.6c0,0-36.7-7.2-48.9-8.1c-29.9-2.4-46.9,22.6-49.9,46.5l-0.6,154.4l-5.1,40.8
					l-16.3,121l7.7,19.8l204.3,9.2l6.2-21.5l-0.2-111l14.1-95.4l20.7-78.4c2.1-17.1,1.7-46.5-21.8-57.1
					c-12.5-5.6-53.3-13.2-53.3-13.2s-19.9,1.2-26.4,0.4C5032.8,1769.2,5014.7,1763.5,5014.7,1763.5z"/>
			</g>
		</g>
	</g>
</g>
<g>
	<path class="st43" d="M3219.7,1793.1c0,241.3-195.6,436.9-436.9,436.9c-241.3,0-436.9-195.6-436.9-436.9s195.6-436.9,436.9-436.9
		C3024,1356.2,3219.7,1551.8,3219.7,1793.1z"/>
	<g>
		<path class="st44" d="M2665.4,1389.1l-22.1,9.6l4.4,5.9l0.7,8.8l5.1,5.9l23.5-6.6l15.4,5.2l11.8,18.4l-7.4,14v27.2l7.4,22.1
			l5.2,21.3l10.3,19.9l2.2,8.1l10.3-2.9l11.8,8.8l14.7-40.5l8.1-8.8h11.8l13.2-19.1l10.3-8.1l33.9-13.2l7.3-12.5l-5.9-20.6
			l15.4-13.2l-7.4-15.4v-12.5l1.5-13.2l4.4-7.4l3.4-7.8c-23.5-3.9-47.7-6-72.3-6c-35.8,0-70.6,4.3-104,12.4l-6.7,18.2L2665.4,1389.1
			z"/>
		<path class="st44" d="M2627.1,2189.6l9.6,0.7l-2.9-10.3l14.7-1.5l8.1-2.2l3-6.6l-8.1-7.3l-1.5-5.9l10.3,4.4h8.1l6.6-8.8l3.7-5.2
			l2.9-2.9l9.6-5.9l2.2-8.1l-1.5-6.6l-3-6.6l8.8-2.2l11-5.1l11.8-2.9l6.6-8.8l6.6-11l4.4-8.8l2.2-11.8l-4.4-9.6l5.9-7.4l5.9-9.6
			l8.1-5.9l7.4-11l-5.2-13.2l-12.5-5.2l-10.3-8.1l-8.1-5.1l-7.4-1.5l-6.6,4.4l-4.4-11.8l-12.5-5.9l-9.6,5.9h-5.9l-5.2-10.3l4.4-19.9
			l-3.7-6.6l-8.8-6.6l-6.6-2.2l-14,2.2l-8.1-8.1l-5.9-8.1l-6.6-7.4l-11.8-4.4l-14.7,1.5l-16.2-7.4l-5.9,5.9l-4.4,8.1l-3.7-8.1
			l-5.9-4.4l-9.6,9.6l-8.8,8.1l-5.2,15.4c0,0-4.4,6.6-4.4,8.8c0,2.2-3.7,15.5-3.7,15.5l-7.4,9.6l5.2,11l-7.4,9.6l5.9,6.6l5.1,8.8
			l7.4,8.1c0,0,4.4,5.9,4.4,8.1s2.9,14.7,5.9,14.7c2.9,0,8.1,11.8,8.1,11.8l15.5,10.3l11,5.9c0,0,0.7,8.1,0.7,11s0,21.3,0,21.3
			l1.5,9.6c0,0,0.7,8.8,0.7,11s0,19.1,0,19.1v14c0,0,0,23.6,2.2,23.6c1,0,1.8,4.4,2.4,9.3c12,5.8,24.3,11,36.9,15.7l2.6-6.6
			L2627.1,2189.6z"/>
		<g>
			<polygon class="st44" points="2563.1,1446.5 2576.4,1442.1 2596.2,1442.1 2608.7,1434 2601.4,1427.4 2591.8,1432.5 
				2577.1,1435.5 2571.2,1429.6 2565.3,1426.6 2555.8,1427.4 2552.1,1432.5 2560.9,1432.5 2563.9,1435.5 			"/>
			<polygon class="st44" points="2563.9,1453.9 2553.6,1464.1 2548.4,1468.6 2544,1475.2 2553.6,1484 2549.1,1488.4 2538.1,1495.8 
				2532.2,1492.1 2535.9,1483.3 2538.9,1477.4 2543.3,1462.7 2549.1,1455.3 			"/>
			<path class="st44" d="M2479.3,1487l7.4-5.9l11-0.7l5.9-1.5l2.2,10.3l5.9,7.4l5.1,0.7l-5.9,7.4l-8.8,3.7l-7.4-4.4l-17.7,11.8
				l-13.2,3.7l-6.6-4.4l9.6-4.4l11-9.6l-12.5,2.2C2465.3,1503.1,2469.7,1495,2479.3,1487z"/>
			<path class="st44" d="M2365,1788.5l11,1.1l7.7,16.6l11,19.9c0,0,6.6,29.8,9.9,30.9c3.3,1.1,23.2,14.3,23.2,14.3l28.7-1.1
				l-5.5-19.9l-1.1-32l3.3-21l19.9-6.6l19.9-4.4l11,4.4h19.9l11,24.3l-1.1-29.8l-1.1-12.1c0,0,16.6-8.8,19.9-8.8
				c3.3,0,9.9-18.8,9.9-18.8l-2.2-13.2l11-8.8l11-6.6l13.2-18.8l23.2-23.2l1.1-12.2l-2.2-8.8l8.8-9.9l16.6-6.6l22.1-3.3l13.2-16.5
				l-17.6-14.3l-11-21l-11-3.3l-16.6-7.7l-3.3-17.7l12.2-6.6l3.3-18.8l9.9-21l12.1,5.5l12.1-11l-12.1-4.4l-9.9-14.4l-7.7-12.1
				l-14.4-12.1l-12.1-5.5h-30.9l-16.5,15.4l3.3,16.6l2.2,13.2l-11,4.4l-18.7-1.1l-12.2,12.1l-19.9,5.5l-12.1-6.6l-21,14.3l-18.8-1.1
				l-15.7-4.9c-55.4,69.5-90.1,156.3-94.6,251h8.8L2365,1788.5z M2517.5,1570.8l19.1-20.6l25-23.5l13.3-9.6l11-7.4l1.5-16.9
				l21.3-13.2l2.2,4.4c0,0,5.1,7.4,7.4,8.8c2.2,1.5,0,9.6,0,9.6v17.7l-19.1,10.3l-0.7,23.5l-11.8,5.2v9.6l-6.6,6.6l5.9,7.4
				l-1.5,18.4l-13.3,16.2v11.8l-8.1,7.4l-5.9-17.7l-10.3-11l-21.3-9.6l-9.6-15.5L2517.5,1570.8z"/>
		</g>
		<path class="st44" d="M3168.6,1910c-3.6,0-0.7-15.4-0.7-15.4l-5.9-8.1l-7.4-3.7l-0.7-14.7l-8.8-13.2l0.7-11.1l-9.6-12.5l-2.9-13.2
			l-13.3-29.4l8.8,4.4l5.2,3.7l4.4,3.7l8.8,14.7l7.4,14v13.2l2.2,8.1l5.1,12.5l6.6,5.9l3.7,17.7l7.4,11.8l14.7-2.2l14.3-5.2
			c7.2-31.4,11-64.1,11-97.7c0-132.6-59.1-251.3-152.3-331.5l-7-0.9h-20.9l-19.9,12.1l-3.3,24.3l-29.8,26.5l-14.3,21l11,15.5
			l17.7,2.2l4.4,24.3l12.2,3.3l18.7-13.2l-9.9-29.8V1525l18.8-18.8h18.7l-14.3,16.5l5.5,22.1l7.7,6.6l24.3-4.4l7.7,7.7l-17.7,5.5
			h-13.2l1.1,19.9l-7.7-1.1l1.1,17.7l-17.7,7.7h-32l-17.6,5.5l-14.4,6.6l-1.1,9.9l-24.3,11l-9.9,7.7l-7.7,5.5l12.2,15.5l3.3,13.2
			l-7.7,3.3l-29.8,1.1l-2.2,15.4l-3.3,15.5l5.5,14.3l16.6,2.2l18.8-6.6l6.6-18.8l15.5-17.7l14.3-1.1l15.5-6.6l32,2.2l24.3,22.1
			l4.4,14.3l5.5,21l16.6-12.1c0,0-11-23.2-6.6-23.2s13.2,1.1,13.2,1.1l6.6,22.1c0,0,16.5,9.9,21,9.9c4.4,0,18.8,0,18.8,0l7.7,2.2
			l1.1,38.6l-38.7,1.1l-38.6-8.8l-7.7,11l-24.3,1.1l-23.2-13.2l-6.6-13.2v-12.1l-9.9-6.6l-27.6,2.2l-13.2,6.6l-22.1,4.4l-6.6-3.3
			l-6.6,8.8l-8.8,8.8l-4.4,13.2l-7.7,15.4l-17.7,12.1l-5.5,23.2l-3.3,22.1l-3.3,23.2l4.4,18.7l4.4,17.7l4.4,14.3l23.2,21l9.9-9.9
			l12.1,6.6l13.2-8.8l13.2,3.3l6.6-5.5l13.3,3.3l2.2,5.5l5.5,4.4h7.7l5.5,4.4l-1.1,17.7l-1.1,17.7l9.9,15.4l7.7,32l-9.9,26.5
			l-3.3,17.7l1.1,26.5l6.6,23.2l-6.6,15.4l6.6,18.8l1.3,9.3c11.8-7,23.3-14.4,34.3-22.4l53.9-46.2c52.6-52.8,91.7-119,111.8-193.1
			l-23.2,9.2C3181.1,1917.3,3172.3,1910,3168.6,1910z M3140.9,1703.6l-16.6-3.3l-18.7,4.4l-2.2-19.9l14.3-16.5l14.3,7.7l14.4,4.4
			l19.9,15.4l-3.3,13.3L3140.9,1703.6z"/>
	</g>
</g>
<g>
	<path class="st25" d="M2252.8,1614.6h-902.7c-48.7,0-87.9-39.2-87.9-87.9v-875c0-48.7,39.2-87.9,87.9-87.9h902.7
		c48.7,0,87.9,39.2,87.9,87.9v875C2340.7,1575.5,2301.5,1614.6,2252.8,1614.6z"/>
	<g>
		<path class="st45" d="M2196.4,1505.7h-795.8c-19.1,0-35.3-16.2-35.3-35.3v-165.3c0-19.1,16.2-35.3,35.3-35.3h795.8
			c19.1,0,35.3,16.2,35.3,35.3v165.3C2231.8,1489.5,2216.5,1505.7,2196.4,1505.7z"/>
		<path class="st1" d="M1867.8,1363.4H1437c-9.6,0-18.2-7.6-18.2-18.2v-3.8c0-9.6,7.6-18.2,18.2-18.2h430.8
			c9.6,0,18.2,7.6,18.2,18.2v3.8C1886,1355.8,1878.3,1363.4,1867.8,1363.4z"/>
		<path class="st46" d="M1655.7,1446.5h-215.9c-9.6,0-18.2-7.6-18.2-18.2v-3.8c0-9.6,7.6-18.2,18.2-18.2h215.9
			c9.6,0,18.2,7.6,18.2,18.2v3.8C1673.9,1438.9,1665.3,1446.5,1655.7,1446.5z"/>
		<path class="st1" d="M2075.1,1382.5H2013c-11.5,0-22-9.6-22-22v-3.8c0-11.5,9.6-22,22-22h62.1c11.5,0,22,9.6,22,22v3.8
			C2097.1,1373,2087.5,1382.5,2075.1,1382.5z"/>
	</g>
	<g>
		<path class="st45" d="M2196.4,1207.7h-795.8c-19.1,0-35.3-16.2-35.3-35.3v-165.3c0-19.1,16.2-35.3,35.3-35.3h795.8
			c19.1,0,35.3,16.2,35.3,35.3v165.3C2231.8,1192.4,2216.5,1207.7,2196.4,1207.7z"/>
		<path class="st1" d="M1867.8,1066.3H1437c-9.6,0-18.2-7.6-18.2-18.2v-3.8c0-9.6,7.6-18.2,18.2-18.2h430.8
			c9.6,0,18.2,7.6,18.2,18.2v3.8C1886,1057.7,1878.3,1066.3,1867.8,1066.3z"/>
		<path class="st46" d="M1655.7,1149.4h-215.9c-9.6,0-18.2-7.6-18.2-18.2v-2.9c0-9.6,7.6-18.2,18.2-18.2h215.9
			c9.6,0,18.2,7.6,18.2,18.2v3.8C1673.9,1141.8,1665.3,1149.4,1655.7,1149.4z"/>
		<path class="st1" d="M2075.1,1085.4H2013c-11.5,0-22-9.6-22-22v-3.8c0-11.5,9.6-22,22-22h62.1c11.5,0,22,9.6,22,22v3.8
			C2097.1,1075.9,2087.5,1085.4,2075.1,1085.4z"/>
	</g>
	<g>
		<path class="st45" d="M2196.4,910.6h-795.8c-19.1,0-35.3-16.2-35.3-35.3V710c0-19.1,16.2-35.3,35.3-35.3h795.8
			c19.1,0,35.3,16.2,35.3,35.3v165.3C2231.8,895.3,2216.5,910.6,2196.4,910.6z"/>
		<path class="st1" d="M1867.8,769.2H1437c-9.6,0-18.2-7.6-18.2-18.2v-3.8c0-9.6,7.6-18.2,18.2-18.2h430.8c9.6,0,18.2,7.6,18.2,18.2
			v3.8C1886,760.6,1878.3,769.2,1867.8,769.2z"/>
		<path class="st46" d="M1655.7,852.3h-215.9c-9.6,0-18.2-7.6-18.2-18.2v-3.8c0-9.6,7.6-18.2,18.2-18.2h215.9
			c9.6,0,18.2,7.6,18.2,18.2v3.8C1673.9,843.7,1665.3,852.3,1655.7,852.3z"/>
		<path class="st1" d="M2075.1,787.4H2013c-11.5,0-22-9.6-22-22v-3.8c0-11.5,9.6-22,22-22h62.1c11.5,0,22,9.6,22,22v3.8
			C2097.1,777.8,2087.5,787.4,2075.1,787.4z"/>
	</g>
</g>
</svg>
