<svg xmlns="http://www.w3.org/2000/svg" xmlns:xlink="http://www.w3.org/1999/xlink" version="1.1" id="Слой_1" x="0px" y="0px" viewBox="0 0 3020 2000" style="enable-background:new 0 0 3020 2000;" xml:space="preserve">
<g>
	<rect x="0.001" y="0" style="fill: #ffffff00;" width="3020" height="2000"/>
	<path style="fill: #e3eaff00;" d="M332.875,1881.104c-335.372-310.254,141.213-396.962-21.599-659.094   c-109.01-175.509-135.059-534.188,44.343-618.02c221.259-103.391,358.606-31.673,544.666-262.805   c134.254-166.776,548.857-309.31,813.171-281.869c367.679,38.17,422.355,327.577,701.156,338.243   c170.957,6.539,314.121,50.286,452.848,226.764c199.24,253.459,106.367,645.32,12.104,969.021   c-34.699,119.156-105.139,290.58-105.139,290.58L332.875,1881.104z"/>
	<path style="fill:#95A6DB;" d="M2112.96,871.736H1000.588c-37.096,0-67.167-30.072-67.167-67.167V203.48   c0-37.096,30.071-67.168,67.167-67.168H2112.96c37.096,0,67.167,30.072,67.167,67.168v601.09   C2180.127,841.664,2150.056,871.736,2112.96,871.736z"/>
	<path style="fill:#FFFFFF;" d="M2072.681,835.985H1040.868c-33.92,0-61.418-27.498-61.418-61.418V233.48   c0-33.919,27.498-61.416,61.418-61.416h1031.813c33.92,0,61.417,27.497,61.417,61.416v541.088   C2134.098,808.487,2106.601,835.985,2072.681,835.985z"/>
	<path style="fill:#95A6DB;" d="M2790.074,1911.439H323.474c-9.34,0-16.911-7.571-16.911-16.912l0,0   c0-9.34,7.571-16.91,16.911-16.91h2466.601c9.339,0,16.911,7.57,16.911,16.91l0,0   C2806.985,1903.868,2799.413,1911.439,2790.074,1911.439z"/>
	<g>
		<g>
			<path style="fill:#97AAE8;" d="M411.958,1287c-28.148-60.665,42.625-137.133,8.866-194.863     c-20.967-35.855-76.066-48.925-82.206-90.003c-1.828-12.239,1.446-24.577,3.175-36.831c6.744-47.817-11.757-98.478-47.73-130.695     c-35.882-32.135-88.091-44.971-134.787-33.171l-0.008-0.025c-0.058,0.021-0.114,0.046-0.172,0.066     c-0.06,0.017-0.12,0.028-0.18,0.043l0.008,0.024c-45.098,16.945-82.949,57.983-94.095,104.843     c-11.173,46.981,2.523,99.146,35.336,134.576c8.408,9.079,18.136,17.347,23.614,28.444     c18.387,37.244-19.42,79.403-16.192,120.814c5.197,66.674,106.944,89.121,118.423,155.004     c3.027,17.379-1.034,35.129-1.386,52.766c-1.531,76.996,82.108,143.084,156.663,123.787l3.819-1.195     c72.246-26.672,103.256-128.66,58.083-191.032C432.843,1315.266,419.383,1303.001,411.958,1287z"/>
			<g>
				<path style="fill:#859CE8;" d="M163.731,805.319l292.661,900.2c2.347,7.22-1.602,14.974-8.821,17.322      c-7.22,2.346-14.975-1.604-17.321-8.822c-0.023-0.073-0.066-0.213-0.089-0.285L157.13,807.387      c-0.551-1.83,0.484-3.76,2.314-4.31C161.247,802.534,163.15,803.538,163.731,805.319z"/>
				<path style="fill:#859CE8;" d="M188.66,1223.807c21.742-2.515,41.646-0.806,62.054,8.957      c19.587,9.299,35.699,23.756,49.829,40.052c9.279,10.809,17.556,22.385,25.179,34.313c2.777,4.346,1.506,10.121-2.84,12.898      c-4.635,2.962-10.84,1.305-13.358-3.645l-0.018-0.036c-6.061-11.995-12.745-23.662-20.382-34.627      c-11.478-16.297-24.944-31.204-42.282-41.702c-18.358-11.187-37.185-14.548-58.051-14.251c-0.543,0.01-0.991-0.422-1.001-0.965      C187.781,1224.292,188.167,1223.867,188.66,1223.807z"/>
				<path style="fill:#859CE8;" d="M99.771,939.94c28.916-2.998,53.949,1.767,79.948,20.646      c22.412,16.212,40.717,40.075,55.407,63.646c2.152,3.455,1.098,7.998-2.356,10.151c-3.454,2.152-7.998,1.099-10.151-2.356      c-0.098-0.156-0.188-0.317-0.273-0.478l-0.021-0.04c-12.069-23.171-27.68-47.338-47.757-64.359      c-23.184-19.735-46.545-25.979-74.665-25.252c-0.542,0.018-0.995-0.409-1.012-0.951      C98.876,940.432,99.268,939.996,99.771,939.94z"/>
				<path style="fill:#859CE8;" d="M349.782,1085.625c-11.486,7.502-21.549,16.1-29.484,27.453      c-7.785,10.91-12.899,23.454-16.046,36.402c-3.183,12.971-4.36,26.4-4.527,39.811c-0.093,13.433,0.912,26.891,2.581,40.275      l0.003,0.023c0.47,3.77-2.204,7.204-5.973,7.676c-3.768,0.47-7.205-2.205-7.675-5.974c-0.02-0.157-0.035-0.333-0.044-0.489      c-0.735-13.961-0.781-28,0.319-42.004c1.178-13.988,3.416-27.988,7.759-41.455c4.295-13.432,10.695-26.367,19.703-37.246      c9.012-11.104,19.919-19.238,32.374-26.156c0.475-0.263,1.072-0.092,1.336,0.383      C350.359,1084.776,350.208,1085.346,349.782,1085.625z"/>
			</g>
		</g>
		<g>
			<path style="fill:#97AAE8;" d="M556.42,1286.664c23.317-47.889-31.902-109.835-4.161-155.304     c17.229-28.239,61.3-37.827,66.8-70.446c1.639-9.721-0.786-19.594-1.979-29.377c-4.659-38.179,10.827-78.245,39.952-103.363     c29.05-25.056,70.815-34.501,107.825-24.41l0.006-0.02c0.046,0.018,0.091,0.039,0.137,0.057c0.047,0.013,0.095,0.023,0.142,0.036     l-0.006,0.02c35.659,14.165,65.19,47.407,73.368,84.887c8.199,37.578-3.483,78.913-30.14,106.639     c-6.831,7.106-14.699,13.543-19.228,22.299c-15.195,29.385,14.283,63.52,11.097,96.446     c-5.13,53.017-86.486,69.377-96.607,121.671c-2.669,13.793,0.301,27.988,0.318,42.037     c0.074,61.336-67.513,112.719-126.595,96.244l-3.023-1.01c-57.133-22.313-80.309-103.99-43.41-152.985     C539.369,1308.861,550.269,1299.294,556.42,1286.664z"/>
			<g>
				<path style="fill:#859CE8;" d="M761.251,906.789l-246.44,712.486c-1.977,5.713,1.054,11.947,6.767,13.924      c5.714,1.977,11.948-1.055,13.925-6.768c0.02-0.059,0.057-0.168,0.075-0.227l230.9-717.672c0.466-1.447-0.331-3-1.779-3.465      C763.271,904.607,761.74,905.379,761.251,906.789z"/>
				<path style="fill:#859CE8;" d="M735.175,1239.664c-17.289-2.327-33.157-1.257-49.548,6.209      c-15.737,7.115-28.78,18.389-40.274,31.152c-7.55,8.471-14.313,17.564-20.56,26.949c-2.276,3.42-1.351,8.037,2.069,10.313      c3.419,2.276,8.036,1.351,10.313-2.069c0.139-0.207,0.265-0.419,0.379-0.636l0.015-0.026      c5.005-9.463,10.501-18.652,16.745-27.271c9.423-12.861,20.384-24.513,34.29-32.578c14.777-8.631,29.811-11.031,46.439-10.484      c0.433,0.016,0.796-0.322,0.811-0.754C735.867,1240.064,735.566,1239.721,735.175,1239.664z"/>
				<path style="fill:#859CE8;" d="M810.18,1014.941c-17.401-2.134-33.153-0.83-49.281,6.73      c-25.147,11.713-44.65,35.119-59.757,58.379c-1.766,2.719-0.993,6.353,1.726,8.118c2.881,1.872,6.72,0.87,8.343-2.102      l0.019-0.032c12.518-22.974,29.216-46.672,52.112-59.575c14.824-8.407,29.866-10.714,46.706-9.961      c0.432,0.021,0.799-0.312,0.819-0.743C810.887,1015.346,810.58,1014.992,810.18,1014.941z"/>
				<path style="fill:#859CE8;" d="M608.927,1127.232c9.016,6.131,16.907,13.125,23.07,22.299      c12.104,17.653,15.381,39.676,15.249,60.996c-0.126,10.697-1.126,21.401-2.654,32.033l-0.003,0.019      c-0.431,2.994,1.648,5.771,4.643,6.2c2.994,0.43,5.77-1.647,6.2-4.642c0.019-0.126,0.032-0.265,0.042-0.39      c0.793-11.105,1.039-22.286,0.37-33.454c-1.474-22.548-6.675-45.481-20.696-63.078c-7.021-8.985-15.594-15.624-25.392-21.31      c-0.374-0.217-0.852-0.09-1.069,0.285C608.479,1126.547,608.592,1127.003,608.927,1127.232z"/>
			</g>
		</g>
		<g>
			<path style="fill:#AEBCE8;" d="M585.618,1184.513c-8.733-66.304,81.656-118.13,66.691-183.31     c-9.294-40.483-57.971-69.419-51.554-110.456c1.912-12.227,8.725-23.022,14.035-34.2c20.725-43.617,18.208-97.491-6.494-138.986     c-24.639-41.389-70.627-69.239-118.715-71.934v-0.026c-0.061,0.004-0.123,0.01-0.185,0.014c-0.06-0.004-0.122-0.01-0.184-0.014     v0.026c-48.101,2.694-96.486,30.545-121.125,71.934c-24.702,41.495-27.22,95.369-6.494,138.986     c5.311,11.178,12.124,21.974,14.036,34.2c6.416,41.037-42.261,69.973-51.556,110.456c-14.964,65.18,75.426,117.006,66.692,183.31     c-2.305,17.488-11.484,33.214-17.09,49.941c-24.47,73.019,35.6,161.083,112.515,164.946h4.002     c76.914-3.863,136.983-91.927,112.514-164.946C597.102,1217.727,587.922,1202.001,585.618,1184.513z"/>
			<g>
				<path style="fill:#97AAE8;" d="M492.673,650.665l10.284,946.522c0.083,7.59-6.003,13.811-13.594,13.893      c-7.591,0.083-13.81-6.004-13.893-13.594c-0.001-0.076,0-0.223,0-0.299l10.285-946.522c0.02-1.91,1.586-3.443,3.496-3.422      C491.135,647.264,492.65,648.79,492.673,650.665z"/>
				<path style="fill:#97AAE8;" d="M391.407,1057.479c21.512,4.102,39.988,11.683,56.542,27.092      c15.911,14.724,26.965,33.332,35.584,53.111c5.624,13.09,10.063,26.608,13.774,40.27c1.352,4.979-1.587,10.109-6.564,11.461      c-5.338,1.449-10.743-2.028-11.659-7.471l-0.006-0.039c-2.2-13.26-5.092-26.39-9.103-39.137      c-6.1-19.035-14.51-37.268-27.888-52.432c-14.099-16.07-30.993-24.955-51.141-30.945c-0.521-0.153-0.818-0.699-0.666-1.222      C390.423,1057.681,390.918,1057.391,391.407,1057.479z"/>
				<path style="fill:#97AAE8;" d="M391.407,760.021c21.27,4.312,39.66,12.036,56.018,27.607      c15.638,14.8,26.393,33.382,34.729,53.112c5.439,13.063,9.699,26.545,13.234,40.169c1.022,3.938-1.343,7.96-5.282,8.982      c-3.939,1.023-7.961-1.342-8.983-5.281c-0.046-0.18-0.086-0.359-0.118-0.538l-0.008-0.045      c-2.376-13.298-5.446-26.463-9.644-39.237c-6.372-19.06-15.065-37.318-28.741-52.431c-14.439-16.044-31.56-24.71-51.666-30.43      c-0.522-0.148-0.827-0.69-0.681-1.212C390.405,760.222,390.91,759.924,391.407,760.021z"/>
				<path style="fill:#97AAE8;" d="M586.46,973.76c-13.2,3.726-25.373,8.924-36.341,17.387      c-10.689,8.086-19.319,18.529-26.19,29.945c-13.523,22.352-21.129,50.142-25.79,75.845l-0.004,0.022      c-0.678,3.738-4.257,6.218-7.993,5.54c-3.737-0.678-6.218-4.256-5.54-7.993c0.028-0.156,0.066-0.328,0.105-0.48      c6.808-26.565,16.829-54.858,32.647-77.231c8.113-11.535,18.087-21.967,29.934-29.657c11.953-7.926,24.812-12.415,38.711-15.285      c0.531-0.11,1.051,0.231,1.16,0.763C587.264,973.122,586.95,973.621,586.46,973.76z"/>
			</g>
		</g>
		<path id="Vector_23_3_" style="fill:#5A5D8C;" d="M578.731,1556.83H353.712c-17.628,0-31.293,15.866-29.19,33.892l30.326,259.917    c1.775,15.217,14.309,26.668,29.189,26.668h164.368c14.881,0,27.414-11.451,29.19-26.668l30.326-259.917    C610.024,1572.696,596.359,1556.83,578.731,1556.83z"/>
	</g>
	<g>
		<path style="fill:#494C7F;" d="M1938.45,1512.438c73.263-10.74,94.728-120.479,164.961-79.785    c-76.092,143.339-107.166,192.945-107.166,192.945c-16.408-8.816-62.145-17.754-75.749-29.086L1938.45,1512.438z"/>
		<path style="fill:#0E6A41;" d="M2152.2,1651.764l109.587,222.973c2.923,5.951,7.798,9.514,13.013,9.514l0,0    c9.66,0,17.035-11.896,15.521-25.046l-23.86-207.44H2152.2z"/>
		<path style="fill:#3F964F;" d="M2256.33,1707.324H968.147c-27.227,0-49.3-22.072-49.3-49.301v-9.195    c0-27.229,22.072-49.301,49.3-49.301H2256.33c27.228,0,49.299,22.072,49.299,49.301v9.195    C2305.629,1685.252,2283.558,1707.324,2256.33,1707.324z"/>
		<path style="fill:#3F964F;" d="M1135.742,1606.637l-260.031-476.145c-8.466-15.501-24.883-23.112-40.66-20.42H504.419    l289.546,555.234h279.755c12.201,8.862,28.623,10.11,42.297,1.764l5.216-3.184    C1140.193,1652.313,1146.689,1626.682,1135.742,1606.637z"/>
		<g id="c_4682_">
			<path style="fill:#201D40;" d="M1177.762,1395.502c0,0,223.713-116.877,314.507-131.04     c77.102,18.952,308.119,199.771,308.119,199.771l-635.175-2.242L1177.762,1395.502z"/>
			<path style="fill:#2C2858;" d="M1090.122,1416.627c0,0,361.499-60.848,439.19-40.432     c80.229,21.084,195.945,68.889,429.539,126.555l-29.179,108.545c0,0-262.47-37.777-393.186-95.772     c-400.664,160.816-598.718,61.593-598.718,61.593L1090.122,1416.627z"/>
		</g>
		<path style="fill:#0E6A41;" d="M751.767,1680.467l-285.198-503.994c-11.703-20.271-4.758-46.193,15.514-57.896l4.696-2.711    c20.271-11.703,46.191-4.758,57.896,15.514L826.22,1619.03c11.703,20.271,4.758,46.192-15.514,57.896l-4.696,2.711    C785.739,1691.341,763.471,1700.738,751.767,1680.467z"/>
		<path style="fill:#0E6A41;" d="M1901.545,1707.324H794.955c-26.593,0-48.15-21.558-48.15-48.15v-11.496    c0-26.592,21.558-48.151,48.15-48.151h1106.59c26.593,0,48.15,21.559,48.15,48.151v11.496    C1949.695,1685.766,1928.138,1707.324,1901.545,1707.324z"/>
		<path style="fill:#0E6A41;" d="M871.412,1651.764l-109.586,222.973c-2.924,5.951-7.799,9.514-13.013,9.514l0,0    c-9.661,0-17.035-11.896-15.522-25.046l23.859-207.44H871.412z"/>
		<path style="fill:#0E6A41;" d="M1794.991,1651.764l109.586,222.973c2.924,5.951,7.799,9.514,13.011,9.514l0,0    c9.663,0,17.036-11.896,15.524-25.046l-23.86-207.44H1794.991z"/>
	</g>
	<g>
		<g>
			<path style="fill:#E62552;" d="M790.726,1837.66v30.463h8.295c4.024,0,7.287,3.262,7.287,7.287v1.227     c0,4.023-3.263,7.287-7.287,7.287H445.556c-4.667,0-8.481-3.792-8.481-8.483v-43.875c0-4.684,3.798-8.482,8.481-8.482h353.465     c4.024,0,7.287,3.264,7.287,7.289l0,0c0,4.024-3.263,7.287-7.287,7.287H790.726z"/>
			<path style="fill:#FFFFFF;" d="M791.773,1868.117H482.629c-3.419,0-6.191-2.771-6.191-6.191v-18.074     c0-3.418,2.772-6.191,6.191-6.191h309.144V1868.117z"/>
		</g>
		<g>
			<path style="fill:#3F964F;" d="M405.821,1771.893v33.709h-8.294c-4.024,0-7.287,3.607-7.287,8.063v1.357     c0,4.453,3.263,8.063,7.287,8.063h353.464c4.668,0,8.482-4.194,8.482-9.385v-48.549c0-5.184-3.798-9.386-8.482-9.386H397.527     c-4.024,0-7.287,3.61-7.287,8.064l0,0c0,4.454,3.263,8.064,7.287,8.064H405.821z"/>
			<path style="fill:#FFFFFF;" d="M404.774,1805.594h308.822c3.597,0,6.513-2.915,6.513-6.512v-20.676     c0-3.597-2.916-6.513-6.513-6.513H404.774V1805.594z"/>
		</g>
		<path style="fill:#E62552;" d="M754.252,1724.533H431.94c-7.12,0-12.894-5.773-12.894-12.892v-28.869    c0-7.121,5.773-12.893,12.894-12.893h322.311c7.121,0,12.895,5.771,12.895,12.893v28.869    C767.146,1718.76,761.373,1724.533,754.252,1724.533z"/>
		<path style="fill:#768FDB;" d="M780.146,1755.765H451.541c-5.383,0-9.747-4.364-9.747-9.746v-11.739    c0-5.383,4.364-9.746,9.747-9.746h328.605c5.383,0,9.746,4.363,9.746,9.746v11.739    C789.893,1751.4,785.529,1755.765,780.146,1755.765z"/>
	</g>
	<g>
		<path style="fill:#FFFFFF;" d="M985.391,913.459c7.425-5.608,16.335-8.415,26.729-8.415c22.44,0,34.32,12.211,34.32,29.371    c0,9.9-4.785,19.965-14.521,30.03c-12.374,13.035-21.284,19.47-26.895,19.47c-5.445,0-9.405-4.29-9.405-9.404    c0-4.62,4.29-9.24,11.716-16.006c0.494-0.494,0.989-0.989,1.319-1.154c8.415-7.755,11.056-12.046,11.056-17.325    c0-6.601-4.455-10.23-10.891-10.23c-2.97,0-6.435,0.66-10.56,1.98s-7.096,1.979-8.91,1.979c-4.62,0-9.9-3.96-9.9-10.56    C979.45,919.729,981.431,916.43,985.391,913.459z M1007.995,1023.516c-10.065,0-16.83-7.59-16.83-16.83    c0-7.92,6.766-15.511,16.83-15.511c8.745,0,15.511,7.591,15.511,15.511C1023.506,1015.761,1017.07,1023.516,1007.995,1023.516z"/>
	</g>
	<g>
		<path style="fill:#FFFFFF;" d="M2276.612,446.775c7.426-5.609,16.336-8.415,26.73-8.415c22.44,0,34.32,12.21,34.32,29.369    c0,9.9-4.786,19.967-14.52,30.031c-12.376,13.034-21.285,19.47-26.896,19.47c-5.444,0-9.404-4.29-9.404-9.404    c0-4.62,4.29-9.24,11.715-16.006c0.495-0.495,0.989-0.99,1.319-1.154c8.415-7.756,11.056-12.045,11.056-17.325    c0-6.6-4.455-10.23-10.891-10.23c-2.969,0-6.434,0.659-10.559,1.98c-4.125,1.319-7.096,1.98-8.91,1.98    c-4.621,0-9.901-3.96-9.901-10.56C2270.672,453.046,2272.653,449.746,2276.612,446.775z M2299.218,556.831    c-10.064,0-16.83-7.59-16.83-16.831c0-7.919,6.766-15.509,16.83-15.509c8.744,0,15.51,7.59,15.51,15.509    C2314.728,549.076,2308.292,556.831,2299.218,556.831z"/>
	</g>
	<g>
		<path style="fill:#FFFFFF;" d="M1798.403,1115.716c-30.029,0-54.461-24.431-54.461-54.46s24.432-54.462,54.461-54.462    s54.461,24.433,54.461,54.462S1828.433,1115.716,1798.403,1115.716z M1798.403,1021.794c-21.758,0-39.461,17.703-39.461,39.462    c0,21.758,17.703,39.46,39.461,39.46s39.461-17.702,39.461-39.46C1837.864,1039.497,1820.161,1021.794,1798.403,1021.794z"/>
	</g>
	<g>
		<path style="fill:#FFFFFF;" d="M2896.401,983.324c-19.75,0-35.818-16.067-35.818-35.817c0-19.749,16.068-35.816,35.818-35.816    c19.749,0,35.816,16.067,35.816,35.816C2932.218,967.257,2916.15,983.324,2896.401,983.324z M2896.401,921.556    c-14.311,0-25.953,11.642-25.953,25.951c0,14.31,11.643,25.952,25.953,25.952c14.309,0,25.951-11.643,25.951-25.952    C2922.353,933.197,2910.71,921.556,2896.401,921.556z"/>
	</g>
	<g>
		<path style="fill:#E3EAFF;" d="M820.945,308.97c-19.749,0-35.816-16.067-35.816-35.817c0-19.749,16.067-35.818,35.816-35.818    c19.75,0,35.817,16.069,35.817,35.818C856.763,292.902,840.695,308.97,820.945,308.97z M820.945,247.2    c-14.31,0-25.952,11.643-25.952,25.952c0,14.309,11.643,25.952,25.952,25.952c14.31,0,25.952-11.643,25.952-25.952    C846.897,258.843,835.256,247.2,820.945,247.2z"/>
	</g>
	<g>
		<path style="fill:#E3EAFF;" d="M1512.184,539.841c-19.75,0-35.817-16.067-35.817-35.817c0-19.749,16.067-35.816,35.817-35.816    s35.816,16.067,35.816,35.816C1548.001,523.773,1531.934,539.841,1512.184,539.841z M1512.184,478.071    c-14.31,0-25.952,11.642-25.952,25.952c0,14.312,11.642,25.953,25.952,25.953c14.311,0,25.952-11.642,25.952-25.953    C1538.137,489.713,1526.495,478.071,1512.184,478.071z"/>
	</g>
	<g>
		<path style="fill:#E3EAFF;" d="M1942.187,326.725c-24.645,0-44.694-20.049-44.694-44.694c0-24.645,20.05-44.696,44.694-44.696    s44.695,20.052,44.695,44.696C1986.882,306.676,1966.831,326.725,1942.187,326.725z M1942.187,249.645    c-17.857,0-32.385,14.528-32.385,32.385c0,17.857,14.527,32.384,32.385,32.384c17.856,0,32.385-14.526,32.385-32.384    C1974.571,264.174,1960.043,249.645,1942.187,249.645z"/>
	</g>
	
		<ellipse transform="matrix(0.7071 -0.7071 0.7071 0.7071 -60.625 621.6698)" style="fill:#E3EAFF;" cx="720.109" cy="384.016" rx="54.345" ry="54.345"/>
	<path style="fill:#E3EAFF;" d="M1286.392,712.862c0,30.013-24.331,54.344-54.345,54.344c-30.014,0-54.345-24.331-54.345-54.344   c0-30.015,24.331-54.345,54.345-54.345C1262.061,658.518,1286.392,682.848,1286.392,712.862z"/>
	<path style="fill:#E3EAFF;" d="M2062.713,383.751c0,18.727-15.181,33.908-33.907,33.908c-18.726,0-33.906-15.181-33.906-33.908   c0-18.726,15.18-33.907,33.906-33.907C2047.532,349.844,2062.713,365.025,2062.713,383.751z"/>
	<path style="fill:#FFFFFF;" d="M1920.496,974.587c0,17.173-13.921,31.093-31.093,31.093s-31.092-13.92-31.092-31.093   c0-17.171,13.92-31.092,31.092-31.092S1920.496,957.416,1920.496,974.587z"/>
	<path style="fill:#FFFFFF;" d="M1487.872,1107.139l36.615,22.889l-42.969-4.271c-5.791-0.576-11.359,2.393-14.109,7.521   l-30.418,56.734l10.622-63.539c0.956-5.717-1.611-11.449-6.512-14.545l-35.693-22.54l42.026,3.984   c5.771,0.547,11.306-2.42,14.045-7.528l30.439-56.776l-10.614,63.493C1480.346,1098.301,1482.938,1104.055,1487.872,1107.139z"/>
	<path style="fill:#FFFFFF;" d="M2803.247,744.566l28.455,17.788l-33.393-3.32c-4.502-0.449-8.83,1.859-10.967,5.846l-23.64,44.092   l8.255-49.381c0.743-4.443-1.252-8.897-5.061-11.303l-27.74-17.518l32.662,3.097c4.484,0.425,8.787-1.882,10.916-5.852   l23.656-44.124l-8.249,49.345C2797.396,737.697,2799.411,742.169,2803.247,744.566z"/>
	<path style="fill:#E3EAFF;" d="M1144.313,266.844l39.299-2.023l-34.323,19.245c-4.627,2.594-7.236,7.719-6.611,12.985l6.904,58.26   l-25.244-53.006c-2.271-4.77-7.182-7.71-12.458-7.463l-38.43,1.802l33.471-18.969c4.596-2.605,7.182-7.711,6.56-12.956   l-6.91-58.302l25.225,52.966C1134.075,264.172,1139.016,267.117,1144.313,266.844z"/>
	<g>
		<g>
			<polygon id="v-2_3_" style="fill:#F37A50;" points="2569.488,495.848 2569.438,495.848 2527.26,496.003 2517.707,595.625      2566.943,621.622 2619.448,595.919 2610.963,496.003    "/>
			<g>
				<path style="fill:#F37A50;" d="M2685.366,451.881c-25.96,64.868-88.306,100.927-139.254,80.538      c-50.947-20.389-71.205-89.504-45.245-154.372c25.959-64.869,88.305-100.928,139.254-80.539      C2691.068,317.897,2711.326,387.012,2685.366,451.881z"/>
				<path d="M2523.021,399.337c-3.01,4.326-8.957,5.395-13.284,2.385c-4.327-3.011-5.395-8.957-2.386-13.285      c3.011-4.326,8.959-5.394,13.285-2.385C2524.963,389.062,2526.031,395.01,2523.021,399.337z"/>
				<path d="M2594.502,428.512c-3.258,4.684-9.696,5.84-14.381,2.582c-4.684-3.259-5.839-9.697-2.581-14.38      c3.258-4.685,9.696-5.841,14.381-2.583C2596.604,417.39,2597.76,423.827,2594.502,428.512z"/>
				<path style="fill:#DE623C;" d="M2537.515,414.565c-12.904,10.173-29.036,22.444-29.036,22.444s-0.165,15.554,18.011,22.298      c-6.578-5.965-12.35-13.903-5.505-23.069C2527.828,427.073,2537.515,414.565,2537.515,414.565z"/>
				<g>
					<path style="fill:#201D40;" d="M2613.31,422.297c0.366,0,0.738-0.043,1.109-0.131c2.558-0.611,4.137-3.18,3.526-5.738       c-1.666-6.983-8.656-20.211-23.178-20.279c-2.649,0.025-4.772,2.108-4.785,4.738c-0.013,2.63,2.109,4.772,4.739,4.784       c10.754,0.052,13.93,12.839,13.96,12.969C2609.203,420.825,2611.156,422.297,2613.31,422.297z"/>
				</g>
				<g>
					<path style="fill:#201D40;" d="M2533.016,379.15c0.682,0,1.372-0.177,2.003-0.546c1.892-1.108,2.525-3.54,1.417-5.43       c-0.174-0.298-4.348-7.28-12.228-8.737c-5.383-0.997-10.947,0.767-16.539,5.239c-1.711,1.369-1.988,3.866-0.618,5.578       c1.368,1.711,3.865,1.987,5.577,0.619c3.71-2.969,7.121-4.192,10.137-3.633c4.282,0.793,6.8,4.905,6.824,4.947       C2530.327,378.447,2531.654,379.15,2533.016,379.15z"/>
				</g>
				<path style="fill:#201D40;" d="M2720.816,403.432c21.958-62.513-31.527-98.448-31.527-98.448s14.35-1.287,16.063-21.436      c-10.74,3.351-22.781,3.109-33.362-0.721c-71.291-25.811-120.378-25.47-120.378,5.039c0,10.856-47.081,3.419-43.134,76.457      c-0.278-5.157,16.545-35.186,32.443-38.182c15.954-3.005,1.544,18.251,34.768,22.813c33.523,4.603,58.173-3.533,78.648,15.368      c16.023,16.486,19.996,100.393,17.56,105.44C2677.483,458.185,2711.168,430.901,2720.816,403.432z"/>
				<path style="fill:#201D40;" d="M2491.047,414.565c0,0-3.033,38.064,2.457,49.834c5.713-15.268,17.974,0.913,29.493,2.437      c27.834,3.681,78.048-5.599,83.026,36.15c34.014,10.765,65.874-62.045,65.874-62.045      c1.955,81.339-57.568,127.532-143.228,113.999C2472.235,546.025,2467,467.445,2491.047,414.565z"/>
				<g>
					<path style="fill:#DE623C;" d="M2549.718,492.556c5.502-1.313,11.237-3.559,17.182-6.735c1.545-0.826,2.129-2.751,1.303-4.296       c-0.827-1.548-2.749-2.131-4.296-1.304c-13.178,7.042-24.99,9.047-35.11,5.959c-12.513-3.818-18.225-14.358-18.281-14.466       c-0.819-1.543-2.737-2.139-4.285-1.324c-1.548,0.814-2.147,2.724-1.338,4.274c0.273,0.524,6.886,12.907,21.936,17.552       C2533.891,494.397,2541.547,494.507,2549.718,492.556z"/>
				</g>
				<g>
					<path style="fill:#F37A50;" d="M2672.702,441.477c-14.325,8.046-20.601,24.073-14.016,35.796       c6.585,11.723,23.536,14.704,37.861,6.657c14.324-8.046,20.6-24.073,14.015-35.795       C2703.979,436.411,2687.027,433.431,2672.702,441.477z"/>
					<g>
						<path style="fill:#DE623C;" d="M2674.881,476.594c-0.442-0.312-0.821-0.726-1.096-1.232        c-3.938-7.293-3.293-14.723,1.726-19.876c5.139-5.277,13.434-6.797,19.724-3.614c1.771,0.898,2.479,3.059,1.583,4.829        c-0.896,1.77-3.058,2.478-4.828,1.582c-3.446-1.744-8.423-0.771-11.331,2.215c-2.793,2.868-2.989,6.935-0.551,11.45        c0.942,1.746,0.292,3.925-1.454,4.867C2677.415,477.483,2675.959,477.351,2674.881,476.594z"/>
					</g>
				</g>
			</g>
		</g>
		<path d="M2520.68,1826.27c-8.977-24.377-28.162-27.09-28.162-27.09c-37.295,51.457-128.881,19.881-125.85,89.48    c139.276-0.894,197.159,0,197.159,0c-0.183-15.984-2.937-53.928-6.148-68.778l-7.259,1.332L2520.68,1826.27z"/>
		<path d="M2729.062,1827.619c-8.977-24.377-28.162-27.09-28.162-27.09c-37.295,51.457-128.881,19.881-125.85,89.479    c139.276-0.894,197.159,0,197.159,0c-0.184-15.984-2.938-53.926-6.149-68.777l-7.258,1.333L2729.062,1827.619z"/>
		<path style="fill:#201D40;" d="M2428.044,1013.607c0,0-22.613,329.802-13.427,403.123c9.188,73.321,41.716,167.324,38.029,409.847    c45.403,11.367,111.181,0,111.181,0s9.753-274.229-38.243-396.715c19.516-118.977,82.144-391.483,82.144-391.483    L2428.044,1013.607z"/>
		<path style="fill:#2C2858;" d="M2513.982,1022.622c0,0,45.66,370.257,68.011,440.485c22.352,70.227,65.94,129.606,106.405,368.522    c46.658,2.333,90.107,0,90.107,0s-6.297-303.054-78.965-371.974c-2.46-120.65,11.75-434.657,11.75-434.657L2513.982,1022.622z"/>
		<g id="v_2_">
			<path id="h-5_4_" style="fill:#E62552;" d="M2724.471,602.41c0,0-79.303-27.766-105.748-15.031     c-82.169,39.565-101.016,0-101.016,0c-26.258,2.266-105.521,15.031-105.521,15.031c0,88.518-5.909,177.341-4.299,244.326     c1.135,58.336-9.982,217.082-9.982,217.082s87.431,22.922,170.142,23.519c82.712-0.538,166.894-22.588,166.894-22.588     s-4.418-160.785-8.091-220.547C2728.042,777.219,2724.471,690.688,2724.471,602.41z"/>
		</g>
		<g id="c_29_">
			<path id="c_30_" style="fill:#C4204A;" d="M2271.218,733.969c32.733-78.099,129.866-127.773,140.968-131.559l22.529,100.261     c-46.662,27.593-80.534,57.447-80.534,57.447c5.743,27.917,4.782,55.298,20.942,90.602c0,0-14.033-19.367-31.349-7.904     c-16.832,11.139-47.789-11.602-47.789-11.602S2246.215,793.622,2271.218,733.969z"/>
		</g>
		<g id="c_22_">
			<g id="c_25_">
				<g id="c_26_">
					<path id="c_28_" style="fill:#95A6DB;" d="M2289.458,931.332c-0.564,0.176-1.134,0.286-1.7,0.346h-1.862       c-3.413-0.365-6.45-2.696-7.533-6.18l-87.265-281.342c-0.176-0.565-0.285-1.135-0.347-1.703       c-0.039-0.377-0.019-0.742-0.011-1.109c0.005-0.222-0.021-0.449,0-0.67c0.019-0.197,0.079-0.382,0.11-0.577       c0.53-3.198,2.767-5.994,6.071-7.027c0.533-0.164,1.085-0.291,1.66-0.354c0.643-0.07,1.275-0.063,1.894,0h219.675       l88.028,298.963h-218.872L2289.458,931.332z"/>
					<path id="c_27_" style="fill:#768FDB;" d="M2418.152,633.065c4.677-1.45,9.644,1.162,11.097,5.836l86.714,280.643l0.196,0.655       c1.438,4.659-1.158,9.59-5.799,11.058l-0.009,0.021c-4.676,1.452-9.645-1.16-11.096-5.835l-86.94-281.285       C2410.863,639.482,2413.477,634.519,2418.152,633.065z"/>
				</g>
			</g>
			<path id="c_24_" style="fill:#F37A50;" d="M2252.188,811.555c-0.82-0.543-1.713-0.887-2.63-1.143     c0.095-0.139,0.196-0.266,0.29-0.407c5.466-8.241,5.101-18.102-0.814-22.016c-0.972-0.646-2.037-1.069-3.155-1.323     c1.537-6.104,0.16-11.931-4.064-14.729c-1.677-1.11-3.623-1.605-5.67-1.584c1.932-5.996,0.397-12.294-4.331-15.425     c-5.915-3.917-14.493-1.387-19.157,5.648c-4.664,7.036-3.652,15.917,2.265,19.834c1.497,0.992,3.165,1.567,4.897,1.765     c-3.937,7.672-3.143,16.07,2.206,19.613c0.972,0.643,2.037,1.068,3.154,1.322c-1.538,6.104-0.159,11.933,4.064,14.729     c1.558,1.031,3.347,1.535,5.233,1.585c-1.954,5.248-0.713,10.899,3.444,13.652c4.997,3.311,12.241,1.175,16.18-4.769     C2258.039,822.365,2257.185,814.864,2252.188,811.555z"/>
			<path style="fill:#F37A50;" d="M2522.257,793.773l-20.025-11.603c0,0-5.544-28.403-37.701-29.087     c3.682,11.918,8.987,29.087,8.987,29.087s-15.827,12.289-53.367-8.74c-36.696-8.247-21.022,18.508-33.184,20.43     c-17.947,2.833,13.081,38.101,49.723,43.496c47.412,6.984,53.038-2.721,53.038-2.721l26.829,9.374L2522.257,793.773z"/>
			<path id="c_23_" style="fill:#8A284C;" d="M2707.561,824.118c-66.931-4.676-181.109-37.735-181.109-37.735     c-18.272,28.026-13.218,65.251-13.218,65.251c103.942,91.127,260.376,120.587,308.374,98.652     c43.819-20.023,12.885-286.773-97.137-347.876l0,0C2686.753,666.232,2707.561,824.118,2707.561,824.118z"/>
		</g>
	</g>
	<g>
		<g>
			<g>
				<g>
					<path style="fill:#F37A50;" d="M707.838,990.268c43.845,49.632,110.989,61.951,149.969,27.516       c38.982-34.435,35.04-102.586-8.806-152.219c-43.845-49.633-110.988-61.951-149.97-27.517       C660.05,872.484,663.993,940.636,707.838,990.268z"/>
					<path d="M836.012,891.629c4.063,2.902,9.713,1.96,12.617-2.104c2.902-4.065,1.961-9.716-2.106-12.618       c-4.065-2.902-9.714-1.961-12.617,2.105C831.002,883.077,831.943,888.727,836.012,891.629z"/>
					<path d="M781.5,940.451c4.401,3.144,10.517,2.123,13.659-2.277c3.143-4.401,2.123-10.517-2.278-13.659       c-4.399-3.144-10.515-2.123-13.659,2.277C776.079,931.193,777.099,937.308,781.5,940.451z"/>
					<path style="fill:#DE623C;" d="M827.926,909.843c14.761,4.968,33.071,10.78,33.071,10.78s5.104,13.832-8.971,25.644       c3.971-7.422,6.593-16.348-2.438-22.347C840.56,917.919,827.926,909.843,827.926,909.843z"/>
					<g>
						<path d="M762.731,940.896c1.921-0.685,3.195-2.62,2.965-4.739c-0.048-0.494-1.147-12.591,8.329-16.024        c2.343-0.849,3.556-3.438,2.705-5.781c-0.849-2.345-3.453-3.551-5.779-2.706c-12.943,4.69-14.966,18.725-14.229,25.49        c0.27,2.477,2.498,4.267,4.977,3.998C762.06,941.094,762.404,941.014,762.731,940.896z"/>
					</g>
					<g>
						<path d="M820.655,876.795c1.21-0.432,2.165-1.472,2.43-2.821c0.027-0.131,1.012-4.611,4.567-6.64        c2.507-1.432,5.928-1.42,10.158,0.039c1.964,0.678,4.106-0.367,4.781-2.33c0.679-1.965-0.366-4.106-2.33-4.782        c-6.416-2.21-11.944-2.011-16.432,0.593c-6.57,3.813-8.071,11.378-8.131,11.697c-0.388,2.04,0.954,4.01,2.994,4.395        C819.375,877.075,820.049,877.012,820.655,876.795z"/>
					</g>
					<path d="M726.163,990.539c-2.477-59.861-33.888-80.922-33.888-80.922c13.356-8.018,20.724-5.035,20.724-5.035       c2.098-18.919-8.104-28.296-8.104-28.296c25.602-22.207,47.281-8.237,76.429-11.327c39.914-4.23,80.063-35.089,68.302-81.458       c-1.703-6.711-10.343-8.365-14.469-2.804c-3.827,5.159-9.531,10.264-17.924,12.995c0,0,4.598-11.43,0.704-23.583       c-2.149-6.704-11.191-7.507-14.771-1.446c-5.368,9.083-17.397,20.149-44.352,24.437c-17.94,2.853-66.052-10.339-88.154,3.482       c-18.069,11.297-27.667,33.536-25.838,59.804c0,0-46.403,22.197-32.304,76.952c13.852,53.796,88.475,72.228,88.475,72.228       L726.163,990.539z"/>
					<path style="fill:#F37A50;" d="M729.522,979.206c15.343,2.675,26.004,15.022,23.815,27.577       c-2.19,12.554-16.399,20.563-31.742,17.887c-15.342-2.674-26.003-15.021-23.814-27.575       C699.97,984.539,714.182,976.53,729.522,979.206z"/>
					<g>
						<path style="fill:#DE623C;" d="M738.647,1011.282c0.299-0.417,0.506-0.908,0.591-1.447c1.222-7.76-1.698-14.198-7.809-17.222        c-6.258-3.098-14.15-1.841-18.77,2.989c-1.299,1.36-1.251,3.515,0.108,4.813c1.357,1.3,3.515,1.252,4.813-0.107        c2.529-2.646,7.285-3.345,10.826-1.593c3.402,1.683,4.858,5.256,4.104,10.06c-0.292,1.857,0.977,3.602,2.835,3.894        C736.663,1012.875,737.924,1012.299,738.647,1011.282z"/>
					</g>
					<path style="fill:#FFFFFF;" d="M872.074,959.982c0.519-2.487-2.16-4.394-4.325-3.063c-5.506,3.381-14.7,8.769-23.896,13.008       c-9.192,4.236-19.264,7.729-25.41,9.719c-2.416,0.783-2.707,4.058-0.48,5.278c6.855,3.754,19.581,8.381,33.674,1.885       C865.729,980.312,870.475,967.631,872.074,959.982z"/>
				</g>
			</g>
		</g>
		<path style="fill:#201D40;" d="M960.36,1013.999c0,0-4.277-5.121,183.925-70.602l71.538,41.504    c-37.165,60.343-208.907,130.021-208.907,130.021L960.36,1013.999z"/>
		<polygon style="fill:#95A6DB;" points="890.444,1033.504 829.282,1049.11 777.721,1085.521 865.943,1128.884   "/>
		<path style="fill:#F37A50;" d="M880.804,1071.303c-17.052,28.415-17.097,43.863-77.787,35.686l-35.812-76.043l81.073-36.357    L880.804,1071.303z"/>
		<path style="fill:#95A6DB;" d="M773.847,1122.661L773.847,1122.661l15.063-13.204l-11.19-23.936l62.605,21.706l14.521-2.72    l11.491-9.283l24.106-61.721l10.949,24.049l16.587-2.423l0,0l59.042-10.886l117.237,307.421l28.285,53.015    c-65.27,51.074-75.234,59.553-115.75,99.723l-119.247-57.352l-165.922-282.116L773.847,1122.661z"/>
		<polygon style="fill:#2C2858;" points="876.717,1131.984 996.123,1356.035 986.364,1389.844 954.2,1379.465 859.189,1140.453       "/>
		<polygon style="fill:#2C2858;" points="868.829,1103.313 854.847,1104.508 843.854,1114.838 859.374,1140.916 877.114,1132.729       "/>
		<g>
			<path style="fill:#2C2858;" d="M891.966,1035.195l110.769,282.595l103.501,170.484c0,0,57.656-27.382,81.919-75.466     l-96.541-121.695l-119.431-283.696L891.966,1035.195z"/>
			<polygon style="fill:#494C7F;" points="891.966,1035.195 1001.318,1313.975 967.729,1082.401    "/>
		</g>
		<g>
			<path style="fill:#2C2858;" d="M776.75,1096.935l243.029,435.485c0,0-34.245,55.537-86.575,42.797l-95.656-166.564     l-120.398-248.478L776.75,1096.935z"/>
			<polygon style="fill:#494C7F;" points="776.75,1096.935 919.063,1352.229 764.658,1176.405    "/>
		</g>
		<path style="fill:#F37A50;" d="M1192.691,641.313c1.028,15.931,5.357,31.956-10.192,46.291c0,0,19.834,46.991,31.854,87.062    c0,0-62.219-34.188-62.227-34.229c-3.121-16.773-11.772-47.49-20.29-63.644c-2.212-4.193-4.65-8.284-6.921-12.468    c-5.746-10.075-12.84-19.949-10.922-35.27c7.412-59.188-7.003-72.649-4.389-76.342c4.775-4.519,21.703,0.814,22.967,28.146    c1.225,26.448,7.201,37.511,7.201,37.511s17.841-10.443,27.023-6.173C1170.967,614.136,1191.487,622.692,1192.691,641.313z"/>
		<path style="fill:#201D40;" d="M1206.529,712.591c-28.93,0.611-43.925,1.593-64.028,8.77    c3.035,158.617-11.791,224.08,16.854,259.703c23.882,29.697,60.194,13.678,69.35-18.232    C1240.787,920.739,1216.62,785.824,1206.529,712.591z"/>
		<path style="fill:#FFFFFF;" d="M854.847,1104.508c0,0,29.968,14.379,52.255,12.838l1.342-71.883l-17.999-11.959L854.847,1104.508z    "/>
		<path style="fill:#FFFFFF;" d="M854.847,1104.508c0,0-4.856,26.055-24.143,48.092l-55.511-45.434l2.527-21.646L854.847,1104.508z"/>
	</g>
	<g id="c_31_">
		<g>
			<g>
				<path style="fill:#3F964F;" d="M1248.455,1300.95H1221.3c-4.33,0-7.841-3.51-7.841-7.84c0-4.329,3.511-7.84,7.841-7.84h19.315      v-51.002H1221.3c-4.33,0-7.841-3.51-7.841-7.84c0-4.33,3.511-7.84,7.841-7.84h27.155c4.329,0,7.839,3.51,7.839,7.84v66.682      C1256.294,1297.441,1252.784,1300.95,1248.455,1300.95z"/>
			</g>
			<path style="fill:#3F964F;" d="M1213.121,1331.825h-85.573c-4.517,0-8.178-3.662-8.178-8.179v-127.753     c0-4.518,3.661-8.179,8.179-8.179h85.572c4.517,0,8.179,3.661,8.179,8.178v127.754     C1221.3,1328.163,1217.638,1331.825,1213.121,1331.825z"/>
		</g>
		<path style="fill:#F37A50;" d="M1070.208,1270.608l20.592-11.468c0,0,9.252-28.963,28.57-28.963l0.665,29.462    c0,0,15.902,12.785,54.49-7.976c37.508-7.76,21.084,19.21,33.434,21.378c18.224,3.196-13.981,38.567-51.383,43.428    c-48.396,6.285-53.957-3.694-53.957-3.694l-27.479,9.08L1070.208,1270.608z"/>
		<path id="c_32_" style="fill:#201D40;" d="M859.189,1406.512c49.273-47.333,213.454-146.996,213.454-146.996    c21.427,28.442,21.226,56.621,21.226,56.621c-80.11,115.75-206.705,177.023-258.543,191.199    c-47.323,12.941-167.353-224.96-121.218-344.528l3.041-2.634C771.461,1215.669,859.189,1406.512,859.189,1406.512z"/>
		<path style="fill:#FFFFFF;" d="M1160.379,1173.993c0,0-32.942-13.364-22.749-37.552c10.192-24.188,47.261-21.003,26.179-56.042    c25.424,14.015,29.246,45.233,9.497,52.877C1153.556,1140.921,1152.548,1160.272,1160.379,1173.993z"/>
		<path style="fill:#FFFFFF;" d="M1191.333,1173.993c0,0-23.425-9.503-16.176-26.703c7.248-17.2,33.606-14.936,18.615-39.852    c18.078,9.967,20.797,32.165,6.753,37.601C1186.482,1150.476,1185.765,1164.236,1191.333,1173.993z"/>
	</g>
	<g>
		<path style="fill:#3F964F;" d="M1625.62,716.316c0,6.146-1.052,12.094-3.027,17.74c-9.879,28.368-42.864,49.205-82.043,49.205    c-39.172,0-72.158-20.837-82.036-49.205c-1.975-5.646-3.026-11.595-3.026-17.74H1625.62z"/>
		<path style="fill:#0E6A41;" d="M1625.62,716.316c0,6.146-1.052,12.094-3.027,17.74h-164.079    c-1.975-5.646-3.026-11.595-3.026-17.74H1625.62z"/>
		<path style="fill:#FFE91D;" d="M1718.695,429.342c0-98.301-79.619-178.003-177.888-178.143    c-96.92-0.137-176.633,77.97-178.369,174.874c-0.76,42.384,13.288,81.46,37.314,112.404    c30.399,39.154,47.271,87.111,47.271,136.681v0.877h187.058v-0.873c0-49.641,16.997-97.602,47.395-136.846    C1704.808,508.196,1718.695,470.393,1718.695,429.342z"/>
		<g>
			<path style="fill:#FFFFFF;" d="M1567.503,655.873c-0.496,0-1.002-0.082-1.498-0.254c-2.375-0.828-3.63-3.424-2.803-5.799     c0.211-0.604,21.215-61.128,36.478-122.758c27.057-109.239,13.134-126.996,5.893-129.56     c-21.292-7.538-38.245,3.613-48.718,14.295c-3.076,3.138-6.028,6.683-8.806,10.545c4.545,7.866,8.647,16.556,12.084,25.736     c9.434,25.202,11.941,48.742,6.707,62.969c-4.038,10.976-12.62,16.539-24.167,15.672c-10.895-0.82-18.864-7.128-23.048-18.239     c-4.799-12.745-4.179-31.484,1.7-51.414c3.712-12.585,9.267-24.692,15.992-35.126c-6.281-9.938-13.555-18.488-21.448-24.243     c-11.722-8.546-22.732-8.918-32.725-1.107c-20.63,16.127-21.42,64.629-2.283,140.264     c14.753,58.311,36.401,112.223,36.618,112.759c0.941,2.333-0.188,4.986-2.519,5.928c-2.332,0.941-4.985-0.187-5.927-2.518     c-0.219-0.543-22.071-54.951-36.98-113.852c-20.399-80.58-18.554-130.967,5.482-149.757c13.204-10.321,28.723-9.993,43.699,0.922     c7.506,5.473,14.924,13.673,21.649,23.705c2.39-3.1,4.887-5.989,7.467-8.619c17.427-17.775,38.117-23.637,58.262-16.505     c12.541,4.44,17.687,21.32,15.729,51.604c-1.444,22.336-6.771,52.207-15.833,88.783     c-15.367,62.032-36.494,122.904-36.705,123.512C1571.149,654.695,1569.387,655.873,1567.503,655.873z M1542.504,430.865     c-5.15,8.744-9.434,18.579-12.441,28.777c-5.252,17.803-5.967,34.859-1.913,45.628c2.927,7.771,7.9,11.816,15.208,12.366     c7.538,0.568,12.283-2.525,14.935-9.733C1564.328,491.498,1557.002,457.989,1542.504,430.865z"/>
		</g>
		<path style="fill:#3F964F;" d="M1617.599,722.144h-154.095c-18.926,0-34.27-15.344-34.27-34.27v-0.001    c0-18.928,15.344-34.271,34.271-34.271h154.094c18.928,0,34.271,15.344,34.271,34.271l0,0    C1651.869,706.8,1636.526,722.144,1617.599,722.144z"/>
		<path style="fill:#FFE91D;" d="M1843.189,436.666h-58.246c-8.29,0-15.011-6.721-15.011-15.012l0,0    c0-8.29,6.721-15.011,15.011-15.011h58.246c8.291,0,15.012,6.721,15.012,15.011l0,0    C1858.201,429.945,1851.48,436.666,1843.189,436.666z"/>
		<path style="fill:#FFE91D;" d="M1296.16,436.666h-58.246c-8.291,0-15.012-6.721-15.012-15.012l0,0    c0-8.29,6.721-15.011,15.012-15.011h58.246c8.29,0,15.011,6.721,15.011,15.011l0,0    C1311.171,429.945,1304.45,436.666,1296.16,436.666z"/>
		<path style="fill:#FFE91D;" d="M1333.176,313.429l-46.351-35.271c-6.598-5.02-7.877-14.438-2.857-21.036l0,0    c5.021-6.598,14.439-7.876,21.036-2.856l46.353,35.272c6.598,5.02,7.876,14.438,2.855,21.036l0,0    C1349.192,317.171,1339.773,318.449,1333.176,313.429z"/>
		<path style="fill:#FFE91D;" d="M1744.958,313.429l46.353-35.271c6.598-5.02,7.876-14.438,2.855-21.036l0,0    c-5.021-6.598-14.438-7.876-21.036-2.856l-46.353,35.272c-6.597,5.02-7.876,14.438-2.856,21.036l0,0    C1728.941,317.171,1738.36,318.449,1744.958,313.429z"/>
		<path style="fill:#FFE91D;" d="M1333.176,548.495l-46.351,35.271c-6.598,5.02-7.877,14.44-2.857,21.036l0,0    c5.021,6.598,14.439,7.876,21.036,2.855l46.353-35.271c6.598-5.021,7.876-14.438,2.855-21.037l0,0    C1349.192,544.753,1339.773,543.475,1333.176,548.495z"/>
		<path style="fill:#FFE91D;" d="M1744.958,548.495l46.353,35.271c6.598,5.02,7.876,14.44,2.855,21.036l0,0    c-5.021,6.598-14.438,7.876-21.036,2.855l-46.353-35.271c-6.597-5.021-7.876-14.438-2.856-21.037l0,0    C1728.941,544.753,1738.36,543.475,1744.958,548.495z"/>
	</g>
</g>
</svg>