<?xml version="1.0" encoding="utf-8"?>
<!-- Generator: Adobe Illustrator 25.4.1, SVG Export Plug-In . SVG Version: 6.00 Build 0)  -->
<svg version="1.1" id="Calque_1" xmlns="http://www.w3.org/2000/svg" xmlns:xlink="http://www.w3.org/1999/xlink" x="0px" y="0px"
	 viewBox="0 0 671.6 501" style="enable-background:new 0 0 671.6 501;" xml:space="preserve">
<style type="text/css">
	.st0{opacity:0.1;fill:url(#SVGID_1_);enable-background:new    ;}
	.st1{fill:#FFFFFF;}
	.st2{fill:#97C5D1;}
	.st3{fill:#A6DFE8;}
	.st4{fill:#D8EEEF;}
	.st5{fill:#D8EBEC;}
	.st6{fill:#C8DDDD;}
	.st7{fill:#A6C6C9;}
	.st8{fill:#84B7B7;}
	.st9{opacity:0.79;fill:#FFFFFF;}
	.st10{fill:#CCDDF1;}
	.st11{opacity:0.32;fill:#FCFCFC;enable-background:new    ;}
	.st12{fill:#B7C9CE;}
	.st13{fill:#FAFAFA;}
	.st14{fill:#E0E0E0;}
	.st15{fill:#EBEBEB;}
	.st16{fill:#C68771;}
	.st17{fill:#8C6F5F;}
	.st18{fill:#BC7E6D;}
	.st19{fill:#7395CF;}
	.st20{fill:#6C8FC1;}
	.st21{fill:#F5F5F5;}
	.st22{fill:#263238;}
	.st23{fill:#B0BEC5;}
	.st24{fill:#F49D37;}
	.st25{fill:#CC7E2F;}
	.st26{fill:#E08A34;}
	.st27{fill:#C6C6C6;}
	.st28{fill:#03070B;}
	.st29{fill:#0C1929;}
	.st30{fill:#F4B498;}
	.st31{fill:#E8A892;}
	.st32{fill:#212121;}
	.st33{fill:#3E2723;}
	.st34{fill:#A87162;}
	.st35{fill:#102338;}
	.st36{fill:#F1AB86;}
	.st37{fill:#DD997C;}
	.st38{fill:#D8D8D8;}
	.st39{opacity:0.14;fill:#212121;enable-background:new    ;}
	.st40{fill:none;stroke:#3E2723;stroke-width:0.75;stroke-linecap:round;stroke-miterlimit:10;}
	.st41{fill-rule:evenodd;clip-rule:evenodd;fill:#80C181;}
	.st42{fill-rule:evenodd;clip-rule:evenodd;fill:#6DA36D;}
	.st43{fill-rule:evenodd;clip-rule:evenodd;fill:#C68771;}
	.st44{fill-rule:evenodd;clip-rule:evenodd;fill:#8CD790;}
	.st45{fill-rule:evenodd;clip-rule:evenodd;fill:#9AE89C;}
	.st46{fill-rule:evenodd;clip-rule:evenodd;fill:#F1AB86;}
</style>
<g id="_x32_7">
	
		<linearGradient id="SVGID_1_" gradientUnits="userSpaceOnUse" x1="43.2424" y1="250.5" x2="630.7" y2="250.5" gradientTransform="matrix(1 0 0 -1 0 502)">
		<stop  offset="0" style="stop-color:#FFFFFF;stop-opacity:0"/>
		<stop  offset="1" style="stop-color:#FFFFFF"/>
	</linearGradient>
	<path class="st0" d="M630.7,290.2V30.1L104,1.8C9.4,115.5,39.4,439.4,98.4,501.2l0,0L630.7,290.2z"/>
	<g>
		<rect x="468.3" y="299.8" class="st1" width="180.6" height="11.1"/>
		<g>
			<rect x="486.2" y="30.1" class="st2" width="144.5" height="80.6"/>
			<rect x="486.2" y="121.1" class="st2" width="144.5" height="169.1"/>
			<g>
				<polygon class="st3" points="554.7,30.8 485.7,30.8 485.7,99.7 485.7,290.5 627.4,290.5 627.4,30.8 				"/>
				<rect x="485.7" y="151" class="st4" width="27.3" height="138.7"/>
				<rect x="518.4" y="163.5" class="st5" width="31.1" height="126.9"/>
				<rect x="485.7" y="186.9" class="st6" width="39.6" height="103.7"/>
				<rect x="525.4" y="212.3" class="st7" width="39.7" height="78.2"/>
				<rect x="561.5" y="249" class="st8" width="56.3" height="41.5"/>
				<path class="st9" d="M604.6,91.7c0.3-1.1,0.5-2.1,0.5-3.2c0-5.9-4.7-10.7-10.7-10.7c-0.3,0-0.5,0-0.8,0
					c-1.3-6.9-7.2-12.1-14.5-12.1c-3.2,0-6,0.9-8.4,2.6c-2.1-5.5-7.5-9.3-13.6-9.3c-7.6,0-13.8,5.7-14.6,13.1
					c-0.8-0.2-1.8-0.3-2.7-0.3c-8.1,0-14.7,6.5-14.7,14.7c0,1.8,0.3,3.5,0.8,5.1L604.6,91.7L604.6,91.7L604.6,91.7z"/>
				<path class="st9" d="M627.4,189.9c-2.5-2-5.6-3.2-9.1-3.2c-7.6,0-13.8,5.7-14.6,13.1c-0.8-0.2-1.8-0.3-2.7-0.3
					c-8.1,0-14.7,6.5-14.7,14.7c0,1.8,0.3,3.5,0.8,5.1h40.2L627.4,189.9L627.4,189.9z"/>
				<path class="st9" d="M626.1,151c0.2-0.6,0.3-1.4,0.3-2.1c0-3.8-3.1-7-6.8-7c-0.2,0-0.3,0-0.5,0c-0.7-4.4-4.5-7.9-9.2-7.9
					c-2,0-3.8,0.6-5.4,1.7c-1.4-3.6-4.7-6-8.6-6c-4.7,0-8.8,3.7-9.3,8.5c-0.5-0.1-1.2-0.2-1.8-0.2c-5.2,0-9.3,4.2-9.3,9.5
					c0,1.2,0.2,2.2,0.5,3.3h50L626.1,151L626.1,151z"/>
				<path class="st10" d="M570.2,129.8c0.2-0.6,0.3-1.4,0.3-2.1c0-3.8-3.1-7-6.8-7c-0.2,0-0.3,0-0.5,0c-0.7-4.4-4.5-7.9-9.2-7.9
					c-2,0-3.8,0.6-5.4,1.7c-1.4-3.6-4.7-6-8.6-6c-4.7,0-8.8,3.7-9.3,8.5c-0.5-0.1-1.2-0.2-1.8-0.2c-5.2,0-9.3,4.2-9.3,9.5
					c0,1.2,0.2,2.2,0.5,3.3h50L570.2,129.8L570.2,129.8z"/>
				<polygon class="st11" points="627.4,67.9 485.7,209.5 485.7,241.5 627.4,99.9 				"/>
				<polygon class="st11" points="627.4,108.7 627.4,130.3 485.7,271.9 485.7,250.3 				"/>
				<polygon class="st11" points="627.4,153.6 490.6,290.5 519.1,290.5 627.4,182.2 				"/>
				<polygon class="st11" points="589.1,30.8 485.7,134.1 485.7,161 616.1,30.8 				"/>
			</g>
			<rect x="475.4" y="295.6" class="st12" width="166.2" height="4.4"/>
			<path class="st1" d="M641.6,121.1v-10.3V20.3H475.5v90.5v10.3v174.5h166.1V121.1z M630.7,290.2H486.2V121.1h144.5V290.2z
				 M486.2,110.7V30.1h144.5v80.6H486.2z"/>
		</g>
	</g>
</g>
<g>
	<g>
		<g>
			<g>
				<g>
					<g>
						<rect x="76.6" y="35.5" class="st13" width="107.6" height="96.3"/>
					</g>
				</g>
			</g>
		</g>
		<g>
			<g>
				<g>
					<g>
						<g>
							<path class="st14" d="M184.3,131.8c0,0,0-0.6,0-1.8s0-3,0-5.2c0-4.5,0-11.2-0.1-19.5c0-16.8-0.1-40.8-0.1-69.8l0.2,0.2
								c-31,0-68,0-107.6,0l0,0l0.3-0.3c0,35,0,68,0,96.3l-0.2-0.2c32.1,0.1,59,0.1,77.8,0.1c9.5,0,16.9,0.1,21.9,0.1
								c2.5,0,4.4,0,5.8,0c0.6,0,1.2,0,1.5,0C184.1,131.8,184.3,131.8,184.3,131.8s-0.2,0-0.5,0s-0.8,0-1.5,0c-1.3,0-3.3,0-5.8,0
								c-5.1,0-12.4,0-21.9,0.1c-18.9,0-45.9,0.1-78.1,0.1h-0.2v-0.2c0-28.3,0-61.3,0-96.3v-0.3h0.3l0,0c39.7,0,76.7,0,107.6,0h0.2
								v0.2c0,29-0.1,53.1-0.1,69.9c0,8.4,0,15-0.1,19.5c0,2.2,0,3.9,0,5.2C184.3,131.2,184.3,131.8,184.3,131.8z"/>
						</g>
					</g>
				</g>
			</g>
		</g>
	</g>
	<g>
		<g>
			<g>
				<g>
					<g>
						<path class="st14" d="M118,52.6c0,0.2-5.7,0.3-12.7,0.3s-12.7-0.1-12.7-0.3s5.7-0.3,12.7-0.3S118,52.4,118,52.6z"/>
					</g>
				</g>
			</g>
		</g>
	</g>
	<g>
		<g>
			<g>
				<g>
					<g>
						<path class="st14" d="M163.6,59.8c0,0.2-15.6,0.3-34.8,0.3S94,60,94,59.8s15.6-0.3,34.8-0.3C148,59.6,163.6,59.7,163.6,59.8z"
							/>
					</g>
				</g>
			</g>
		</g>
	</g>
	<g>
		<g>
			<g>
				<g>
					<rect x="92.8" y="72.1" class="st14" width="4.5" height="4.5"/>
				</g>
			</g>
		</g>
	</g>
	<g>
		<g>
			<g>
				<g>
					<rect x="104" y="72.1" class="st14" width="4.5" height="4.5"/>
				</g>
			</g>
		</g>
	</g>
	<g>
		<g>
			<g>
				<g>
					<rect x="115.4" y="71.9" class="st14" width="4.5" height="4.5"/>
				</g>
			</g>
		</g>
	</g>
	<g>
		<g>
			<g>
				<g>
					<rect x="126.3" y="72.1" class="st14" width="4.5" height="4.5"/>
				</g>
			</g>
		</g>
	</g>
	<g>
		<g>
			<g>
				<g>
					<rect x="137.5" y="72.1" class="st14" width="4.5" height="4.5"/>
				</g>
			</g>
		</g>
	</g>
	<g>
		<g>
			<g>
				<g>
					<rect x="148.6" y="72.1" class="st14" width="4.5" height="4.5"/>
				</g>
			</g>
		</g>
	</g>
	<g>
		<g>
			<g>
				<g>
					<rect x="159.8" y="72.1" class="st15" width="4.5" height="4.5"/>
				</g>
			</g>
		</g>
	</g>
	<g>
		<g>
			<g>
				<g>
					<rect x="92.8" y="81.7" class="st15" width="4.5" height="4.5"/>
				</g>
			</g>
		</g>
	</g>
	<g>
		<g>
			<g>
				<g>
					<rect x="104" y="81.7" class="st14" width="4.5" height="4.5"/>
				</g>
			</g>
		</g>
	</g>
	<g>
		<g>
			<g>
				<g>
					<rect x="115.1" y="81.7" class="st15" width="4.5" height="4.5"/>
				</g>
			</g>
		</g>
	</g>
	<g>
		<g>
			<g>
				<g>
					<rect x="126.3" y="81.7" class="st14" width="4.5" height="4.5"/>
				</g>
			</g>
		</g>
	</g>
	<g>
		<g>
			<g>
				<g>
					<rect x="137.5" y="81.7" class="st14" width="4.5" height="4.5"/>
				</g>
			</g>
		</g>
	</g>
	<g>
		<g>
			<g>
				<g>
					<rect x="148.8" y="81.5" class="st14" width="4.5" height="4.5"/>
				</g>
			</g>
		</g>
	</g>
	<g>
		<g>
			<g>
				<g>
					<rect x="159.8" y="81.7" class="st14" width="4.5" height="4.5"/>
				</g>
			</g>
		</g>
	</g>
	<g>
		<g>
			<g>
				<g>
					<rect x="92.8" y="91.3" class="st14" width="4.5" height="4.5"/>
				</g>
			</g>
		</g>
	</g>
	<g>
		<g>
			<g>
				<g>
					<rect x="104.1" y="91.1" class="st14" width="4.5" height="4.5"/>
				</g>
			</g>
		</g>
	</g>
	<g>
		<g>
			<g>
				<g>
					<rect x="115.1" y="91.3" class="st14" width="4.5" height="4.5"/>
				</g>
			</g>
		</g>
	</g>
	<g>
		<g>
			<g>
				<g>
					<rect x="126.3" y="91.3" class="st15" width="4.5" height="4.5"/>
				</g>
			</g>
		</g>
	</g>
	<g>
		<g>
			<g>
				<g>
					<rect x="137.5" y="91.3" class="st14" width="4.5" height="4.5"/>
				</g>
			</g>
		</g>
	</g>
	<g>
		<g>
			<g>
				<g>
					<rect x="148.6" y="91.3" class="st14" width="4.5" height="4.5"/>
				</g>
			</g>
		</g>
	</g>
	<g>
		<g>
			<g>
				<g>
					<rect x="159.8" y="91.3" class="st14" width="4.5" height="4.5"/>
				</g>
			</g>
		</g>
	</g>
	<g>
		<g>
			<g>
				<g>
					<rect x="92.8" y="101" class="st14" width="4.5" height="4.5"/>
				</g>
			</g>
		</g>
	</g>
	<g>
		<g>
			<g>
				<g>
					<rect x="104" y="101" class="st14" width="4.5" height="4.5"/>
				</g>
			</g>
		</g>
	</g>
	<g>
		<g>
			<g>
				<g>
					<rect x="115.1" y="101" class="st14" width="4.5" height="4.5"/>
				</g>
			</g>
		</g>
	</g>
	<g>
		<g>
			<g>
				<g>
					<rect x="126.5" y="100.8" class="st14" width="4.5" height="4.5"/>
				</g>
			</g>
		</g>
	</g>
	<g>
		<g>
			<g>
				<g>
					<rect x="137.5" y="101" class="st14" width="4.5" height="4.5"/>
				</g>
			</g>
		</g>
	</g>
	<g>
		<g>
			<g>
				<g>
					<rect x="148.6" y="101" class="st15" width="4.5" height="4.5"/>
				</g>
			</g>
		</g>
	</g>
	<g>
		<g>
			<g>
				<g>
					<rect x="159.8" y="101" class="st14" width="4.5" height="4.5"/>
				</g>
			</g>
		</g>
	</g>
	<g>
		<g>
			<g>
				<g>
					<rect x="92.8" y="110.6" class="st14" width="4.5" height="4.5"/>
				</g>
			</g>
		</g>
	</g>
	<g>
		<g>
			<g>
				<g>
					<rect x="104" y="110.6" class="st15" width="4.5" height="4.5"/>
				</g>
			</g>
		</g>
	</g>
	<g>
		<g>
			<g>
				<g>
					<rect x="115.1" y="110.6" class="st14" width="4.5" height="4.5"/>
				</g>
			</g>
		</g>
	</g>
	<g>
		<g>
			<g>
				<g>
					<rect x="126.3" y="110.6" class="st14" width="4.5" height="4.5"/>
				</g>
			</g>
		</g>
	</g>
	<g>
		<g>
			<g>
				<g>
					<rect x="137.5" y="110.6" class="st14" width="4.5" height="4.5"/>
				</g>
			</g>
		</g>
	</g>
	<g>
		<g>
			<g>
				<g>
					<rect x="148.8" y="110.4" class="st14" width="4.5" height="4.5"/>
				</g>
			</g>
		</g>
	</g>
	<g>
		<g>
			<g>
				<g>
					<rect x="159.8" y="110.6" class="st14" width="4.5" height="4.5"/>
				</g>
			</g>
		</g>
	</g>
</g>
<g id="Calque_2_00000119826102907693717820000010591461475691028668_">
	<path class="st16" d="M183.2,263.4c-0.3,1.7-1.8,1.2-3.5,0.9c-1.7-0.3-2.8,0.8-2.4-0.9l7.6-46.7c0.3-1.7,1.9-2.8,3.6-2.4
		c1.7,0.3,2.8,1.9,2.4,3.6L183.2,263.4z"/>
	<path class="st16" d="M204.7,264.9c0.3,1.7,1.5-0.3,3.1-0.6c1.7-0.3,3.2,1.2,2.9-0.5l-8.1-47.1c-0.3-1.7-1.9-2.8-3.6-2.4
		c-1.7,0.3-2.8,1.9-2.4,3.6L204.7,264.9z"/>
	<path class="st16" d="M190.7,263.4c0,1.7,1.4,1.5,3,1.5c1.7,0,3.1,0.2,3.1-1.5l0.1-47.8c0-1.7-1.4-3.1-3-3.1c-1.7,0-3.1,1.4-3.1,3
		L190.7,263.4z"/>
	<rect x="191.7" y="203.6" class="st17" width="4.1" height="6.3"/>
	<rect x="184.7" y="208" class="st18" width="18.1" height="11.8"/>
	<path class="st19" d="M154.6,201"/>
	<path class="st19" d="M154.6,201"/>
	<path class="st19" d="M233,201l-4.5-44.6c-6.4-2.2-34.7-2.2-34.7-2.2s-28.4,0-34.7,2.2l-4.5,44.6c0,0-1.9,2.5,39.2,2.5
		S233,201,233,201"/>
	<path class="st20" d="M213,203.3c-5,0.2-11.4,0.2-19.3,0.2c-41.1,0-39.2-2.5-39.2-2.5l4.5-44.6C165.4,154.2,212,178.9,213,203.3z"
		/>
</g>
<g id="OBJECTS">
	<g>
		<g>
			<g>
				<g>
					<rect x="60.6" y="439.1" class="st15" width="79.3" height="6.1"/>
				</g>
			</g>
			<g>
				<g>
					<rect x="118.1" y="439.1" class="st14" width="21.7" height="6.1"/>
				</g>
			</g>
		</g>
		<g>
			<g>
				<path class="st21" d="M50.6,445.2c0,0.5,0,27.7,0,27.7h-4.3v3.1h4.3v18.5h81.2v-16.9h-6v-3.7h6v-5.5h2.6V466h-3.2v-20.7
					L50.6,445.2L50.6,445.2z"/>
			</g>
		</g>
		<g>
			<g>
				<polygon class="st14" points="110.1,445.3 110.1,494.1 131.8,494.1 131.8,477.4 125.8,477.4 125.8,474 131.8,474 131.8,468.4 
					134.5,468.4 134.5,465.7 131.3,465.7 131.3,445.2 				"/>
			</g>
		</g>
		<g>
			<g>
				<g>
					<path class="st14" d="M111.6,475.6c0,0.2-14.7,0.3-32.8,0.3S46,475.8,46,475.6c0-0.2,14.7-0.3,32.8-0.3
						C97.1,475.3,111.6,475.4,111.6,475.6z"/>
				</g>
			</g>
		</g>
		<g>
			<g>
				<g>
					<path class="st14" d="M111.6,472.7c0,0.2-14.7,0.3-32.8,0.3S46,472.9,46,472.7c0-0.2,14.7-0.3,32.8-0.3
						C97.1,472.4,111.6,472.6,111.6,472.7z"/>
				</g>
			</g>
		</g>
		<g>
			<g>
				<g>
					<path class="st14" d="M115.8,465.1c0,0.2-14.7,0.3-32.8,0.3s-32.8-0.1-32.8-0.3c0-0.2,14.7-0.3,32.8-0.3S115.8,465,115.8,465.1
						z"/>
				</g>
			</g>
		</g>
		<g>
			<g>
				<g>
					<path class="st14" d="M116.4,485.8c0,0.2-14.7,0.3-32.8,0.3s-32.8-0.1-32.8-0.3c0-0.2,14.7-0.3,32.8-0.3
						S116.4,485.6,116.4,485.8z"/>
				</g>
			</g>
		</g>
		<g>
			<g>
				<g>
					<path class="st21" d="M58.6,389.8c0,0.5,0,27.7,0,27.7h-4.3v3.1h4.3v18.6h81.2v-16.9h-6v-3.8h6V413h2.6v-2.5h-3.2v-20.7H58.6
						L58.6,389.8z"/>
				</g>
			</g>
			<g>
				<g>
					<polygon class="st14" points="118.3,389.9 118.3,438.8 139.8,438.8 139.8,421.9 133.8,421.9 133.8,418.5 139.8,418.6 
						139.8,413.1 142.5,413.1 142.5,410.3 139.4,410.2 139.4,389.8 					"/>
				</g>
			</g>
			<g>
				<g>
					<g>
						<path class="st14" d="M119.8,420.1c0,0.2-14.7,0.3-32.8,0.3s-32.8-0.1-32.8-0.3c0-0.2,14.7-0.3,32.8-0.3
							C105.1,419.8,119.8,420,119.8,420.1z"/>
					</g>
				</g>
			</g>
			<g>
				<g>
					<g>
						<path class="st14" d="M119.8,417.3c0,0.2-14.7,0.3-32.8,0.3s-32.8-0.1-32.8-0.3c0-0.2,14.7-0.3,32.8-0.3
							S119.8,417.1,119.8,417.3z"/>
					</g>
				</g>
			</g>
			<g>
				<g>
					<g>
						<path class="st14" d="M124.1,409.8c0,0.2-14.7,0.3-32.8,0.3s-32.8-0.1-32.8-0.3c0-0.2,14.7-0.3,32.8-0.3
							S124.1,409.5,124.1,409.8z"/>
					</g>
				</g>
			</g>
			<g>
				<g>
					<g>
						<path class="st14" d="M124.4,430.4c0,0.2-14.7,0.3-32.8,0.3s-32.8-0.1-32.8-0.3c0-0.2,14.7-0.3,32.8-0.3
							S124.4,430.2,124.4,430.4z"/>
					</g>
				</g>
			</g>
		</g>
		<g>
			<g>
				<g>
					<rect x="55.4" y="494.2" class="st15" width="79.3" height="6.1"/>
				</g>
			</g>
			<g>
				<g>
					<rect x="112.8" y="494.2" class="st14" width="21.7" height="6.1"/>
				</g>
			</g>
		</g>
	</g>
	<g>
		<g>
			<ellipse class="st19" cx="338.3" cy="83.7" rx="42.3" ry="42.3"/>
		</g>
		<g>
			<g>
				<g>
					<g>
						<g>
							<g>
								<g>
									<g>
										<g>
											<g>
												<ellipse class="st13" cx="338.2" cy="83.5" rx="39.9" ry="39.9"/>
											</g>
											<g>
												<g>
													<path class="st22" d="M298.3,80.8c0,0,0,0.2,0,0.6s0,1.1,0,1.9c0,0.4,0,0.8,0,1.4c0,0.5,0.1,1.1,0.1,1.7s0.1,1.3,0.2,2
														c0,0.7,0.2,1.4,0.4,2.2c0.5,3.2,1.7,6.9,3.7,10.9s5.1,8.2,9.4,11.9c0.5,0.4,1.1,0.9,1.6,1.4c0.5,0.4,1.2,0.8,1.8,1.3
														c0.6,0.4,1.2,0.8,1.9,1.3c0.6,0.3,1.3,0.7,2,1.2l1.1,0.5l1.1,0.4c0.7,0.3,1.5,0.6,2.2,0.9s1.5,0.5,2.3,0.7
														c0.7,0.2,1.6,0.5,2.3,0.7c1.6,0.3,3.3,0.7,5,0.9c0.8,0.1,1.7,0.2,2.5,0.2s1.8,0,2.6,0c0.4,0,0.8,0,1.4,0l1.4-0.1
														c0.8-0.1,1.8-0.1,2.6-0.2c1.8-0.3,3.6-0.6,5.4-1.2c1.8-0.4,3.6-1.3,5.3-1.9c0.8-0.4,1.7-0.8,2.5-1.3
														c0.4-0.2,0.8-0.4,1.3-0.7l1.3-0.8c1.7-0.9,3.2-2.3,4.7-3.5c1.4-1.4,3-2.7,4.2-4.3l0.9-1.2l0.8-1.3l0.8-1.3
														c0.3-0.4,0.6-0.8,0.8-1.3c0.5-0.8,1.1-1.8,1.6-2.7c0.4-0.9,0.8-1.9,1.3-2.8c1.6-3.9,2.5-8,2.8-12.3
														c0.2-4.3-0.2-8.5-1.3-12.7c-0.3-0.9-0.6-2-0.8-3c-0.4-0.9-0.7-1.9-1.2-2.8c-0.2-0.5-0.4-0.9-0.6-1.4l-0.7-1.4l-0.7-1.4
														l-0.8-1.3c-1.1-1.8-2.3-3.3-3.6-4.9c-1.4-1.4-2.7-3-4.2-4.1l-1.1-0.9c-0.3-0.3-0.7-0.5-1.2-0.8
														c-0.8-0.5-1.6-1.2-2.3-1.6c-1.7-0.9-3.3-1.9-5.1-2.6c-1.7-0.8-3.5-1.3-5.2-1.9c-0.8-0.2-1.8-0.4-2.6-0.6l-1.3-0.3
														c-0.4-0.1-0.8-0.1-1.3-0.2c-0.8-0.1-1.8-0.2-2.6-0.3s-1.7,0-2.6-0.1c-1.7-0.1-3.4,0.1-5.1,0.2c-0.8,0-1.6,0.2-2.4,0.4
														s-1.6,0.3-2.3,0.5s-1.6,0.4-2.3,0.6c-0.4,0.1-0.7,0.2-1.2,0.3c-0.3,0.1-0.7,0.3-1.1,0.4c-0.7,0.3-1.4,0.5-2.1,0.8
														c-0.7,0.2-1.4,0.6-2,0.9c-0.6,0.3-1.3,0.6-1.9,1.1c-0.6,0.4-1.2,0.7-1.8,1.2c-4.7,3.1-8.2,6.9-10.9,10.5
														c-2.5,3.7-4.2,7.3-5.1,10.2c-0.2,0.7-0.5,1.5-0.6,2.1c-0.2,0.7-0.3,1.3-0.4,1.9s-0.3,1.2-0.3,1.7
														c-0.1,0.5-0.1,0.9-0.2,1.4c-0.1,0.8-0.2,1.5-0.2,1.9C298.3,80.6,298.3,80.8,298.3,80.8s0-0.2,0-0.6s0.1-1.1,0.2-1.9
														c0-0.4,0.1-0.8,0.1-1.4c0.1-0.5,0.2-1.1,0.3-1.7s0.2-1.3,0.4-1.9c0.1-0.7,0.4-1.4,0.6-2.1c0.8-3.1,2.5-6.6,5.1-10.3
														c2.5-3.7,6.1-7.6,10.9-10.8c0.6-0.4,1.2-0.7,1.8-1.2c0.6-0.3,1.3-0.7,1.9-1.1c0.6-0.4,1.3-0.7,2-1.1
														c0.7-0.4,1.4-0.5,2.1-0.8c0.3-0.1,0.7-0.3,1.1-0.4c0.4-0.1,0.7-0.2,1.2-0.3c0.7-0.2,1.6-0.4,2.3-0.6s1.6-0.3,2.4-0.5
														c0.8-0.1,1.6-0.3,2.4-0.4c1.7-0.1,3.4-0.3,5.1-0.2c0.8,0,1.8,0,2.6,0.1s1.8,0.2,2.6,0.3c0.4,0.1,0.8,0.1,1.4,0.2
														l1.3,0.3c0.8,0.2,1.8,0.3,2.6,0.6c1.8,0.6,3.6,1.1,5.3,1.9c1.8,0.7,3.4,1.7,5.1,2.6c0.8,0.5,1.6,1.1,2.4,1.7
														c0.4,0.3,0.8,0.5,1.2,0.8l1.2,0.9c1.6,1.3,2.8,2.7,4.3,4.1c1.3,1.6,2.5,3.2,3.6,5l0.8,1.3l0.7,1.4l0.7,1.4
														c0.2,0.4,0.5,0.9,0.6,1.4c0.4,0.9,0.7,1.9,1.2,3c0.3,1.1,0.6,2,0.8,3.1c1.1,4.1,1.5,8.4,1.3,12.8
														c-0.3,4.3-1.4,8.5-3,12.6c-0.4,0.9-0.8,1.9-1.3,3c-0.5,0.9-1.1,1.8-1.6,2.7c-0.2,0.4-0.5,0.8-0.8,1.3l-0.8,1.3
														l-0.8,1.3l-1.1,1.2c-1.3,1.6-2.7,3-4.2,4.4c-1.6,1.3-3.1,2.5-4.7,3.6l-1.3,0.8c-0.4,0.3-0.8,0.4-1.3,0.7
														c-0.8,0.4-1.7,0.9-2.6,1.3c-1.8,0.7-3.6,1.5-5.4,1.9c-1.8,0.6-3.7,0.8-5.5,1.2c-0.9,0.1-1.8,0.2-2.7,0.2l-1.4,0.1
														c-0.4,0-0.8,0-1.4,0c-0.8,0-1.8,0-2.6,0s-1.8-0.2-2.6-0.3c-1.7-0.1-3.4-0.6-5.1-0.9c-0.8-0.1-1.6-0.4-2.4-0.7
														c-0.7-0.3-1.6-0.5-2.3-0.8s-1.5-0.6-2.2-0.9c-0.3-0.2-0.7-0.3-1.1-0.5l-1.1-0.5c-0.6-0.4-1.4-0.7-2-1.2
														c-0.6-0.3-1.3-0.8-1.9-1.3c-0.6-0.4-1.3-0.8-1.8-1.3c-0.5-0.4-1.1-0.9-1.6-1.4c-4.3-3.8-7.4-8-9.4-12s-3.2-7.8-3.7-11
														c-0.1-0.7-0.3-1.5-0.3-2.2s-0.1-1.4-0.2-2c0-0.6-0.1-1.2-0.1-1.7s0-0.9,0-1.4c0-0.8,0-1.5,0-1.9
														C298.3,81.1,298.3,80.8,298.3,80.8z"/>
												</g>
											</g>
										</g>
									</g>
								</g>
							</g>
						</g>
					</g>
				</g>
				<g>
					<g>
						<g>
							<g>
								<g>
									<g>
										<g>
											<g>
												<path class="st22" d="M338.1,50.2c0.1,0,0.2,1.5,0.2,3.4s-0.2,3.4-0.2,3.4s-0.2-1.5-0.2-3.4
													C337.9,51.6,338,50.2,338.1,50.2z"/>
											</g>
										</g>
									</g>
								</g>
							</g>
						</g>
					</g>
				</g>
				<g>
					<g>
						<g>
							<g>
								<g>
									<g>
										<g>
											<g>
												<path class="st22" d="M356.3,55.5c0.1,0.1-0.8,1.3-2.1,2.5s-2.4,2.2-2.5,2.1s0.8-1.3,2.1-2.5S356.1,55.4,356.3,55.5z"/>
											</g>
										</g>
									</g>
								</g>
							</g>
						</g>
					</g>
				</g>
				<g>
					<g>
						<g>
							<g>
								<g>
									<g>
										<g>
											<g>
												<path class="st22" d="M366.9,67.1c0.1,0.1-1.2,0.8-2.7,1.8c-1.6,0.9-2.8,1.7-3,1.6s1.1-1.1,2.6-2
													C365.5,67.6,366.9,67,366.9,67.1z"/>
											</g>
										</g>
									</g>
								</g>
							</g>
						</g>
					</g>
				</g>
				<g>
					<g>
						<g>
							<g>
								<g>
									<g>
										<g>
											<g>
												<path class="st22" d="M373.1,84.3c0,0.1-2,0.2-4.5,0.2s-4.5-0.1-4.5-0.2s2-0.2,4.5-0.2S373.1,84.2,373.1,84.3z"/>
											</g>
										</g>
									</g>
								</g>
							</g>
						</g>
					</g>
				</g>
				<g>
					<g>
						<g>
							<g>
								<g>
									<g>
										<g>
											<g>
												<path class="st22" d="M309.6,83.7c0,0.1-1.9,0.2-4.3,0.2s-4.3-0.1-4.3-0.2s1.9-0.2,4.3-0.2
													C307.8,83.5,309.6,83.6,309.6,83.7z"/>
											</g>
										</g>
									</g>
								</g>
							</g>
						</g>
					</g>
				</g>
				<g>
					<g>
						<g>
							<g>
								<g>
									<g>
										<g>
											<g>
												<path class="st22" d="M314.1,96.6c0.1,0.1-1.4,1.5-3.3,3s-3.5,2.6-3.6,2.5s1.4-1.5,3.3-3
													C312.5,97.6,314.1,96.5,314.1,96.6z"/>
											</g>
										</g>
									</g>
								</g>
							</g>
						</g>
					</g>
				</g>
				<g>
					<g>
						<g>
							<g>
								<g>
									<g>
										<g>
											<g>
												<path class="st22" d="M325.3,106.5c0.1,0.1-0.9,1.8-2.2,3.9s-2.2,3.8-2.3,3.8s0.6-1.9,1.9-4
													C323.9,108,325.1,106.4,325.3,106.5z"/>
											</g>
										</g>
									</g>
								</g>
							</g>
						</g>
					</g>
				</g>
				<g>
					<g>
						<g>
							<g>
								<g>
									<g>
										<g>
											<g>
												<path class="st22" d="M338.1,119.2c-0.1,0-0.2-2-0.2-4.5s0.1-4.5,0.2-4.5s0.2,2,0.2,4.5S338.1,119.2,338.1,119.2z"/>
											</g>
										</g>
									</g>
								</g>
							</g>
						</g>
					</g>
				</g>
				<g>
					<g>
						<g>
							<g>
								<g>
									<g>
										<g>
											<g>
												<path class="st22" d="M357.8,113.2c-0.1,0.1-1.9-0.9-3.8-2.5c-1.9-1.7-3.2-3.3-3.1-3.4s1.6,1.4,3.4,3
													C356.1,111.9,357.9,113,357.8,113.2z"/>
											</g>
										</g>
									</g>
								</g>
							</g>
						</g>
					</g>
				</g>
				<g>
					<g>
						<g>
							<g>
								<g>
									<g>
										<g>
											<g>
												<path class="st22" d="M367.1,103.2c-0.1,0.1-1.5-1.1-3.1-2.6c-1.6-1.6-2.7-3-2.6-3.1s1.5,1.1,3.1,2.6
													C365.9,101.7,367.1,103.1,367.1,103.2z"/>
											</g>
										</g>
									</g>
								</g>
							</g>
						</g>
					</g>
				</g>
				<g>
					<g>
						<g>
							<g>
								<g>
									<g>
										<g>
											<g>
												<path class="st22" d="M313.8,71.5c-0.1,0.1-1.3-0.9-2.6-2.3c-1.4-1.4-2.4-2.5-2.3-2.6s1.3,0.9,2.6,2.3
													C312.9,70.2,313.9,71.4,313.8,71.5z"/>
											</g>
										</g>
									</g>
								</g>
							</g>
						</g>
					</g>
				</g>
				<g>
					<g>
						<g>
							<g>
								<g>
									<g>
										<g>
											<g>
												<path class="st22" d="M325.1,59.4c-0.1,0.1-1.3-0.9-2.6-2.2c-1.4-1.4-2.3-2.5-2.2-2.6s1.3,0.9,2.6,2.2
													C324.3,58.2,325.3,59.3,325.1,59.4z"/>
											</g>
										</g>
									</g>
								</g>
							</g>
						</g>
					</g>
				</g>
			</g>
			<g>
				<g>
					<path class="st22" d="M338.1,62.5c0,0,0.1,0.5,0.1,1.4c0,1.1,0,2.3,0.1,3.9c0,3.3,0.1,7.8,0.1,12.9c0,0.9,0,1.9,0,2.8v0.4
						l-0.4-0.2c-3.9-2-7.3-3.7-9.7-5c-1.2-0.6-2.1-1.2-2.8-1.5c-0.6-0.3-1.1-0.6-1.1-0.6s0.4,0.1,1.1,0.4s1.8,0.8,3,1.4
						c2.4,1.2,5.9,2.8,9.8,4.9l-0.4,0.2c0-0.9,0-1.9,0-2.8c0-5.1,0-9.6,0.1-12.9c0-1.6,0.1-2.8,0.1-3.9
						C338.1,62.9,338.1,62.5,338.1,62.5z"/>
				</g>
			</g>
		</g>
	</g>
</g>
<g>
	<g>
		<rect x="480" y="389.3" class="st23" width="14.7" height="82.7"/>
		<rect x="473.1" y="347.1" class="st23" width="28.2" height="69.4"/>
		<path class="st24" d="M602.1,168.4l-13.5,68.2l-21,105.2H464.1l21-105.2l12.7-63.4c0.5-2.8,3.1-4.9,5.9-4.9L602.1,168.4
			L602.1,168.4z"/>
		<path class="st25" d="M568.5,348.9H380.1l0,0c0-9.1,7.4-16.4,16.4-16.4H552C561.1,332.5,568.5,339.8,568.5,348.9L568.5,348.9z"/>
		<path class="st26" d="M615.2,184.4l-31.5,157.5h-16.1l34.7-173.4l0,0C610.6,168.4,616.9,176.1,615.2,184.4z"/>
		<path class="st26" d="M583.7,341.8v8c0,4.7-3.9,8.6-8.6,8.6h-72c5.7,0,10.3-4.6,10.3-10.3v-6.3L583.7,341.8L583.7,341.8z"/>
		<path class="st24" d="M513.2,341.8v6.3c0,5.7-4.6,10.3-10.3,10.3h-116c-4.6,0-8.3-3.7-8.3-8.3v-3c0-3,2.4-5.4,5.4-5.4h129.2V341.8
			L513.2,341.8z"/>
		<path class="st23" d="M556.6,480.2H411.1l0,0c0-5.6,4.5-10.2,10.2-10.2h125.1C552.1,470,556.6,474.5,556.6,480.2L556.6,480.2z"/>
		<path class="st23" d="M425.1,489.8c0,6.1-5,11-11,11c-6.1,0-11-5-11-11c0-6.1,5-11,11-11C420.3,478.8,425.1,483.8,425.1,489.8z"/>
		<path class="st23" d="M563.2,489.8c0,6.1-5,11-11,11s-11-5-11-11c0-6.1,5-11,11-11S563.2,483.8,563.2,489.8z"/>
		<path class="st23" d="M512.4,489.8c0,6.1-5,11-11,11s-11-5-11-11c0-6.1,5-11,11-11S512.4,483.8,512.4,489.8z"/>
	</g>
	<g>
		<path class="st27" d="M332.8,397.9c-5.4,7.4-10.7,14.8-16,22.2c4.1,1.9,8.3,3.8,12.4,5.7c7.1-7.4,14.1-14.9,21.2-22.3
			C344.6,401.6,338.6,399.8,332.8,397.9z"/>
		<path class="st27" d="M370.1,452.4c1.7,10,3.4,20,5.1,30.1c3.6-0.2,7.2-0.5,10.8-0.7c1.1-10.3,2.1-20.7,3.2-31
			C382.6,451.2,376.4,451.7,370.1,452.4z"/>
		<path class="st28" d="M389.4,295.5c-5.7,2.2-11.2,4.6-16.5,7.2c0,0-6.1,5.3-9.2,14.9c-4.4,13.9-3.6,78.7,4.4,155.7
			c2.6,0.7,7.1,1.7,12.6,1.3c5.1-0.4,9-2,11.4-3.2c4.4-42.3,9.7-92.2,14-134.5c3.5-6.1,7.4-9.2,10.2-10.8
			c20.8-12.3,63.2,3.5,72.8,3.6c2.4,0,6.1,0,11-0.4c12-1.1,21.5-3.8,27.7-6c3.1-6.6,6.1-13.3,9.2-19.9c4.6-9.9,9.2-19.9,9.2-19.9
			C507.2,275.9,449.6,271.8,389.4,295.5z"/>
		<path class="st16" d="M386.3,476.3c-3.8,0.4-7.6,0.8-11.4,1.2l0.5-1.4c0.2-0.5-0.1-1.1-0.6-1.2l-1.3-0.3c-0.8-0.2-1.8,0.3-2,1.2
			l-0.9,4.2l-0.6,0.6c-6.9,0.9-13,1.9-18,2.7c-9.1,1.6-12.6,2.5-15.3,5.6c-2.4,2.7-3.2,5.9-3.4,8.2v0.7c-0.1,1.4,0.9,2.5,2.3,2.5
			l40.6,0.2l2.2-2.5l1.4,1.8l10.2-0.1c0.6,0,1.2-0.6,1.2-1.3l-0.1-1.8c2.4-5.8,1.4-9.3,0.8-10.7c-0.6-1.5-1.9-2.4-3-5
			c-0.6-1.5-0.9-2.8-1.1-3.9C387.6,476.7,387,476.2,386.3,476.3z"/>
		<path class="st1" d="M507.4,154c-0.1,0.1-0.2,0.3-0.3,0.4c-0.5,0.7-1.3,1.2-1.4,1.3c-2,1.4-4.4,1.1-5.3,0.9c0-0.1-0.1-0.2-0.1-0.4
			c-0.3-1.4-0.7-3.2-1.1-5.5c-0.3-2.3-0.3-3.6-0.4-4.4c-0.3-2.3-1.7-5.5-6.8-9.3l0,0c0.2-0.4,0.5-1.1,1.1-1.7c2.1-2.1,5.8-1.9,8-1.2
			c0.9,0.3,1.8,0.8,2.5,1.5c3,2.4,3.9,6.6,4.4,8.5C508.1,144.7,509.6,150.5,507.4,154z"/>
		<path class="st29" d="M514.4,170.7c-5.1,11.4-10.1,22.8-15.3,34.2c-1.5,3.3,0.2,2.4-1.3,5.7c-3.3-2.7-0.8-4.5-4-8.1
			c-15.3-17.1-30.8-33.7-34-48.5c-0.4-2-0.2-3.9,0.5-5.7c1.1-2.6,3.3-4.7,6.1-5.6c7.5-2.3,16-4.3,25.7-5.8l0,0
			c5.1,3.7,6.4,7,6.8,9.3c0.1,0.8,0.1,2.1,0.4,4.4c0.3,2.3,0.7,4.1,1.1,5.5c-0.6,0.1-1.5,0.2-2.2,0.3c-1.2,0.3-2.1,0.6-2.8,0.9
			C501.6,161.9,508,166.3,514.4,170.7z"/>
		<path class="st28" d="M499.1,204.9c-1.5,3.3,5.5-0.6,4,2.6c-3.3-2.7-6.1-1.5-9.3-5.1c-15.3-17.1-30.8-33.7-34-48.5
			c-0.4-2-0.2-3.9,0.5-5.7c0.8,3.7,3.3,7.8,9.1,11.6c14.2,9.1,24.5,20.9,27.7,35.3C497.9,199.2,498.6,202.4,499.1,204.9z"/>
		<path class="st30" d="M529,145.3c-0.5,0.1-1.1,0.3-1.5,0.4c-5.1,1.5-9,3.1-11.8,4.3c-3.2,1.4-5.7,2.7-8.2,3.8
			c1.1-1.7,1.3-3.9,1.3-5.7c0-2-0.4-3.7-0.5-3.9c-0.5-1.9-1.5-6.1-4.4-8.5c2.8-0.2,5.6-0.4,8.2-0.4c2.3-0.1,4.4-0.1,6.5-0.1
			c0.7,0,1.5,0,2.1,0c0.8,0,1.8,0,2.6,0s1.7,0.1,2.5,0.1c0.2,0,0.4,0,0.6,0c0.1,0.2,0.1,0.5,0.2,0.7c0.9,3.8,1.1,4.3,1.9,7.6
			C528.6,144,528.9,144.7,529,145.3z"/>
		<path class="st31" d="M528.6,143.6c-0.3,0.7-0.7,1.5-1.1,2.2c-5.1,1.5-9,3.1-11.8,4.3c-3.2,1.4-5.7,2.7-8.2,3.8
			c1.1-1.7,1.3-3.9,1.3-5.7c5.2-1.9,6.3-3.8,6.4-5.2c0.2-1.4-0.7-2.3-2-5.1c-0.4-0.9-0.8-1.9-1.2-2.7c2.3-0.1,4.4-0.1,6.5-0.1
			c0.7,0,1.5,0,2.1,0c0.9,0.1,1.8,0.1,2.6,0c0.9,0.1,1.8,0.2,2.5,0.1l0.7,0.7C527.6,139.8,527.7,140.3,528.6,143.6z"/>
		<path class="st30" d="M590.7,148.6c-2.4,0-5.5,0.4-8.5,1.9c-0.2,0.1-0.4,0.2-0.6,0.3c-6.2,3.4-8.6,9.3-9.5,11.9
			c-2-2.8-3.1-5.2-6.1-9c-2.8-3.6-5.6-6.1-7.4-7.7c2.6-4,5.2-8.1,7.8-12.1c1.2,0.6,2.5,1.5,4.1,2.4c2,1.2,4.4,2.5,7,4.1
			C582.7,143.5,587.1,146.2,590.7,148.6z"/>
		<path class="st31" d="M581.6,150.8c-6.2,3.4-8.6,9.3-9.5,11.9c-2-2.8-3.1-5.2-6.1-9c-2.8-3.6-5.6-6.1-7.4-7.7
			c2.6-4,5.2-8.1,7.8-12.1c1.2,0.6,2.5,1.5,4.1,2.4c-2.1,1.9-4.9,5-4.1,8.1c1.2,4.9,2,8.5,3.3,9.8s4.2-6.9,10.5-4
			C580.7,150.4,581.1,150.6,581.6,150.8z"/>
		<path class="st29" d="M498.6,279.1c-11.4-0.8-29.6,2.8-65.9,10.2c-20.3,4.1-27.4,6-35.8,11.6c-12.8,8.4-19.1,19.2-23.6,26.8
			c-12.9,21.6-35.7,52.8-52.6,80.6c0.8,2.2,2.5,5.7,5.8,9.1c4.7,4.9,10,6.6,12.6,7.4c9.1-11.8,27.3-31.9,37.8-44.2
			c13.8-16.2,27.5-31.2,40.8-45c24.1,1.1,43.5,2.2,56.5,3.1c28.9,1.9,38.3,3.4,47.8-2.6c16.8-10.7,20.8-32.8,21.9-44.3
			C525,282.4,509,279.8,498.6,279.1z"/>
		<path class="st29" d="M610,184.5c-8.6,11.1-12.1,13.7-28.4,26.8c-4.3,2.5-11.2,7.1-15.3,9c-1.8,0.8-2.1,4.1-3.9,4.9
			c3.1-17.3,5.1-28,8.2-45.3c4.4-2.3,8.9-4.6,13.3-6.9c-1.6-0.9-3-1.9-4.2-2.7c2.3-2.6,5.2-5.6,8.8-8.5c4-3.3,7.9-5.7,11.3-7.5
			c8.6,4.7,7.7,7.6,9.2,9.1c1.3,1.5,2,2.7,2.1,2.8c2.3,2.5-0.2,5,2.6,9.7C610.1,181.4,613.1,180.4,610,184.5z"/>
		<path class="st28" d="M611.9,182.9c-8.6,11.1-21.2,23.9-38.8,34.4c-4.3,2.5-10,5.4-14.1,7.3c0.2-0.9,2-2.5,2.3-3.5
			c4.4-13.4,20.8-20.4,34.7-37.6c7.5-9.3,9.1-18.8,9-25.5c2.3,2.5,5.2,6,8,10.8C615.5,173.1,615.1,178.7,611.9,182.9z"/>
		<path class="st30" d="M564.6,192c-0.7,6-19.5,13.2-34.9,6.9c-12.1-5-20.7-17.5-18.1-22.2c1.2-2.1,5.6-3.1,14.5-5.1
			c0.5-0.1,2.7,0.1,5.1-1.1c0.7-0.4,1.4-0.7,1.7-1.1V160c5.1-3,10.1-5.9,15.2-9c3.1-1.8,6.2-3.7,9.3-5.5c-1.5,5.1-2.2,9.3-2.5,12.6
			c-0.5,4.5-0.9,8.3,0.1,13.2c0.2,0.7,0.5,2.2,1.5,4.9C560.6,186.8,565,188.9,564.6,192z"/>
		<path class="st31" d="M551.6,151c0.3,1.6,0.8,5.4-1.2,8.9c-1.6,2.6-3.9,3.9-7.2,5.7c-3,1.6-5,2-5.6,2.1c-1.9,0.3-3.6,0.3-4.7,0.2
			v-7.8c5.1-3,10.1-5.9,15.2-9C549.2,151,550.4,151,551.6,151z"/>
		<path class="st30" d="M562.9,141.5c-1.5,2.4-3.2,2.7-8.8,9.6c-4,4.9-4.6,6.4-7.4,8c-1.2,0.6-4.3,1.3-10.8,2.5
			c-4.6,0.9-6.9,1.2-9.1,0c-0.4-0.2-2.3-0.7-3-2.5c-1.1-3.2-1.9-4.6-2.8-11.8c-0.9-6.5-1.7-8.6-1.4-10.7c0-0.1,0.2-0.7,0.4-1.6
			c0,0,0.4-1.8,0.7-3.4c0.4-2.6-0.5-6.3-1.4-10c-0.2-0.9-0.7-3.1,0-5.3c0,0,0.1-0.3,0.2-0.6c3.6-8.5,17.7-14.7,29.2-10.5
			C564.1,110.7,568.5,132.5,562.9,141.5z"/>
		<path class="st32" d="M569.4,119.8c-0.2-2.7-0.9-10.2-6.9-16.6c-0.4-0.4-8.9-9.4-19.4-8.4c-4.9,0.4-6.1,2.6-12.4,2.6
			c-5.8,0.1-7.2-1.8-9.7-0.5c-5.6,2.7-7.4,15.9-2.1,20.3c2.3,2,6.4,2.4,6.6,2.5c0.7,0.1,2.2,0.2,4.5-0.2c3.7-0.6,7-2.2,9.5-3.7
			c1.5-0.8,3.4,0.1,3.5,1.8c0.4,4.9,1.8,6.9,3.3,7.6s2.8,0.2,3.9,1.5c1.8,2.1-0.4,5.9,1.2,7.3c0.4,0.3,1.3,0.6,3.2-0.1
			c0.4,1.3,0.7,3.3,0.2,5.4c-0.5,2.2-1.5,3-1.6,4.5c-0.1,1.3,0.4,3.1,3,5.5c0.6-0.7,1.7-1.9,2.8-3.4c1.9-2.3,3.4-4.1,3.6-4.3
			C570.5,131.8,569.4,119.8,569.4,119.8z"/>
		<path class="st30" d="M554.1,132.5c0.1-0.5,0.2-0.9,0.4-1.4c0.6-1.2,2-3.1,4.1-2.2c2.8,1.2,5.3,5.7,2,9.4
			c-3.2,3.7-5.9,6.5-6.9,5.4C553,142.9,553.9,134.9,554.1,132.5z"/>
		<path class="st29" d="M570.6,180c-1.3,22.7-3.3,39-5.5,51c-2,10.3-4.1,17.4-6.2,22.3c-2.2,5.1,0.5,13.2-1.9,22.3
			c0,10-1.4,26.6-6.2,32.1c-2.7,3.1-12.4-11.5-14.7-10.5c-2.1,0.9-5.3,2.2-9.2,3.4c-9.4,2.8-23.1,7.4-36.5,2.1
			c-11-4.3-17.3-12.3-19.8-16.1c0.6-5.2,1.9-12.2,4.1-20.5c0.8-3.1,1.8-6.4,3-9.8c2.2-6.3,3.2-7.9,5.3-13.6
			c10.4-27.1,5.2-38.2,15.3-54c5.5-8.5,11.7-14.3,16.1-18c4.7,0.2,9.4,0.4,14.1,0.6c-0.2,0.6-1.8,5.4,0.8,9.2c2.2,3.2,6,3.6,8.2,3.9
			c9.6,1.2,17.4-6.4,19.1-8.2C561.1,177.4,565.9,178.7,570.6,180z"/>
		<path class="st28" d="M565.1,231c-2,10.3-2.6,13.1-4,23.4c-1.1,7.4-0.9,8.4-3.2,23.2c-2.2,8.1-2.4,24.6-7.3,30.1
			c-2.7,3.1-10.5,0.3-12.8,1.3c-2.1,0.9-16.6,1.2-19.1-2.6c0.6-5.2,2.2-12.4,4.4-20.7c10-10.3,0-23.9,5.7-24.1
			c6.8-0.1-21.8-5.4-10.5-3.6c11.6,1.7,17.8,2.6,23.2-0.7c8.5-5.5,6.1-16.7,17.2-23.4C561.1,232.2,563.5,231.4,565.1,231z"/>
		<path class="st1" d="M600.5,154c-0.2,0.1-0.5,0.3-0.7,0.4c-3.4,1.8-7.3,4.2-11.3,7.5c-3.6,3-6.5,5.9-8.8,8.5
			c-0.1,0.1-0.2,0.2-0.3,0.3c-1.1-0.4-2.3-1.2-3.7-2.2c-1.9-1.6-3.2-3.3-3.9-4.4c0-0.2,0.1-0.6,0.3-1.3c0.8-2.7,3.4-9,10.1-12.2
			c3.2-1.6,6.1-1.9,8.5-1.9c2.2,0,4,0.4,4.9,0.6c1.1,0.7,2.4,1.8,3.6,3.2C599.7,152.9,600.1,153.4,600.5,154z"/>
		<path class="st16" d="M332.1,424.1c-3.6-1.7-7.2-3.4-10.8-5l1.3-0.9c0.4-0.3,0.5-0.9,0.1-1.4l-0.9-0.9c-0.6-0.6-1.7-0.6-2.4,0
			l-3.1,3.2l-0.9,0.2c-6.6-2.8-12.4-5.3-17.4-7.2c-9-3.4-12.6-4.4-16.6-3.2c-3.6,1.2-6,3.6-7.4,5.5l-0.3,0.4c-0.8,1.3-0.5,3,0.8,3.8
			l35.7,21.7l3.3-1.1l0.2,2.3l8.2,4.9c1.1,0.6,2.4,0.2,3.1-0.8l0.4-0.7c5.3-3.8,6.2-7.5,6.4-9.1c0.2-1.7-0.4-3.2,0-6
			c0.2-1.6,0.6-3,1.2-4.1C333.1,425.2,332.8,424.4,332.1,424.1z"/>
		<path class="st33" d="M525.7,135.9c-0.3,0-0.6,0-0.9-0.1c-1.8-0.4-2.6-1.7-2.8-2.1c-0.1-0.2,0-0.4,0.1-0.5c0.2-0.1,0.4,0,0.5,0.1
			c0.2,0.3,0.9,1.5,2.4,1.8c1.9,0.4,3.4-0.9,3.5-1.1c0.1-0.1,0.4-0.1,0.5,0s0.1,0.4,0,0.5C528.9,134.8,527.6,135.9,525.7,135.9z"/>
		<path class="st33" d="M539.1,136.5c-0.2,0-0.3,0-0.5,0c-1.9-0.2-3.1-1.4-3.5-1.9c-0.1-0.1-0.1-0.4,0-0.5s0.4-0.1,0.5,0
			c0.3,0.4,1.4,1.5,3.1,1.6c2,0.2,3.5-1.1,3.7-1.3c0.1-0.1,0.4-0.1,0.5,0s0.1,0.4,0,0.5C542.5,135.4,541.1,136.5,539.1,136.5z"/>
		<path class="st33" d="M532,155.1c-1.5,0-2.6-0.4-3.5-0.7c-0.1-0.1-0.2-0.2-0.1-0.3c0.1-0.1,0.2-0.2,0.3-0.1
			c1.1,0.4,2.8,0.9,4.9,0.5c0.5-0.1,1.8-0.4,3.2-1.4c1.3-0.8,2.3-2,3-3.5c0.1-0.1,0.2-0.2,0.4-0.1c0.1,0.1,0.2,0.2,0.1,0.4
			c-0.7,1.5-1.8,2.7-3.2,3.7c-1.5,1.1-2.8,1.4-3.4,1.5C533.1,155,532.5,155.1,532,155.1z"/>
		<path class="st32" d="M528.1,127.9c-0.2,0.2-0.5,0.4-1.9,0.7c-2.3,0.5-3.4,0.7-4,0.1c-0.1-0.1-0.4-0.4-0.3-0.6
			c0.1-0.6,1.8-0.2,3.8-1.1c1.7-0.7,2.3-1.7,2.7-1.5C528.9,125.9,528.9,127.2,528.1,127.9z"/>
		<path class="st32" d="M535.9,127.9c0.4,0.6,1.1,0.9,1.8,1.3c0.9,0.3,2.6,0.7,5,0.7c0.4-0.4,0.5-0.7,0.5-0.8
			c-0.1-0.7-2-0.5-4.4-1.6c-1.8-0.8-2.6-1.7-3.1-1.4C535.4,126.3,535.5,127.3,535.9,127.9z"/>
		<path class="st34" d="M333.1,497.2v0.7c-0.1,1.4,0.9,2.5,2.3,2.5l40.6,0.2l2.2-2.5l1.4,1.8l10.2-0.1c0.6,0,1.2-0.6,1.2-1.3
			l-0.1-1.8C380.1,496.6,343.1,496.9,333.1,497.2z"/>
	</g>
	<path class="st1" d="M528.4,171.1c0,0-22.6,99.6-48.9,107.3c25.8-2.8,21.3,0,44.4,5.6c-1.9-3.4,9.8-86.7,32.8-108
		C550.6,178.2,532.6,183.1,528.4,171.1z"/>
	<path class="st35" d="M533.6,186.5c0,0-24.3,58-24.6,59.7c-0.3,1.6,2.7,10.9,2.7,10.9s11.2-7,11.9-8.1c0.7-1.2,13.6-61.8,13.6-61.8
		L533.6,186.5z"/>
	<g>
		<g>
			<path class="st16" d="M111.1,500.2c-0.1,0-0.1,0-0.2,0c-0.9-0.1-1.7-1.1-1.6-2l25.3-217.1c0.1-0.9,1.1-1.7,2-1.6s1.7,1.1,1.6,2
				l-25.3,217.1C112.8,499.4,112,500.2,111.1,500.2z"/>
			<path class="st16" d="M226.6,500.2c-0.9,0-1.7-0.6-1.8-1.6l-25.3-217.1c-0.1-0.9,0.6-1.9,1.6-2c1.1-0.1,1.9,0.6,2,1.6l25.3,217.1
				c0.1,0.9-0.6,1.9-1.6,2H226.6z"/>
			<path class="st16" d="M422.1,500.2c-0.1,0-0.1,0-0.2,0c-0.9-0.1-1.7-1.1-1.6-2l25.3-217.1c0.1-0.9,1.1-1.7,2-1.6s1.7,1.1,1.6,2
				l-25.3,217.1C423.8,499.4,423,500.2,422.1,500.2z"/>
			<path class="st16" d="M541.7,501.2c-0.9,0-1.7-0.7-1.8-1.6l-25.6-219.2c-0.1-1.1,0.6-1.9,1.6-2c0.9-0.1,1.9,0.6,2,1.6l25.5,219.2
				C543.6,500.3,542.7,501.1,541.7,501.2C541.9,501.2,541.9,501.2,541.7,501.2z"/>
			<rect x="111.5" y="263.4" class="st36" width="361.8" height="21.4"/>
			<path class="st16" d="M531.1,444.6H117.6c-1.1,0-1.8-0.8-1.8-1.8c0-1.1,0.8-1.8,1.8-1.8h413.5c1.1,0,1.8,0.8,1.8,1.8
				C532.9,443.7,532.1,444.6,531.1,444.6z"/>
			<rect x="473.2" y="263.4" class="st37" width="71.8" height="21.4"/>
		</g>
		<g>
			<polygon class="st14" points="366.8,258.1 278.6,258.1 261.8,199.3 350,199.3 			"/>
			<path class="st38" d="M372.1,258.1h-5.2L350,199.4h3.2c1.3,0,2.3,0.8,2.5,2L372.1,258.1z"/>
			<path class="st27" d="M363.1,258.1L363.1,258.1h-84.5v2.1c0,1.9,1.5,3.3,3.3,3.3h81.2h3.7h9.5v-5.4H363.1L363.1,258.1z"/>
			<path class="st27" d="M418.3,258.1v0.4c0,2.7-2.2,5-5,5h-41.8c-2.5,0-4.7-2.1-4.7-4.7V258h51.5V258.1z"/>
		</g>
		<path class="st1" d="M457.6,237.8h-3.9v-3.3c0-1.9-1.6-3.5-3.5-3.5h-21.6c-1.9,0-3.5,1.6-3.5,3.5v25.7c0,1.9,1.6,3.5,3.5,3.5h21.7
			c1.9,0,3.5-1.6,3.5-3.5V255h1.2c4.4,0,8.1-3.6,8.1-8.1v-4C463,240.1,460.6,237.8,457.6,237.8z M461.3,245.9c0,3.9-3.2,7-7,7h-0.5
			v-13h4c1.9,0,3.5,1.6,3.5,3.5V245.9L461.3,245.9z"/>
	</g>
	<path class="st15" d="M529.6,169.7c0-0.2-0.3-0.4-0.5-0.3c-1.2,0.5-3.4,3.2-3.6,3.8c-0.3,0.7-0.3,11-0.6,14.2
		c0,0.3,0.2,1.7,0.5,1.5l11.4-8.6c0.2-0.2,1.7-1.5,1.4-1.6C536.6,178.1,530.1,175.5,529.6,169.7z"/>
	<path class="st39" d="M538.7,178.8l6.5,14.9c0,0,11.6-12.4,11.6-13.5c0-1.2-1.3-6.5-1.3-6.5S547,179.9,538.7,178.8z"/>
	<path class="st1" d="M530,168.9c0,0-4.7,1.9-5.1,2.7c-0.3,0.8-1.8,16.7-1.8,16.7l13.6-9.9C536.6,178.3,530.2,176.4,530,168.9z"/>
	<path class="st1" d="M539.6,178.8l7.4,13.3c0,0,9.9-12.4,9.9-13.5s-1.3-6.5-1.3-6.5S547.7,179.9,539.6,178.8z"/>
	<path class="st35" d="M532.4,182c0,0,0.6,4.3,1.9,5.4c1.3,1.1,7.5-2,7.9-2.6s-1.8-5.8-3-6C538.1,178.6,533.6,181.8,532.4,182z"/>
</g>
<path class="st40" d="M530.1,138.8c-0.9,0.8-5.2,5.4-2.2,7.6c1.2,0.8,2.7,0.2,2.7,0.2"/>
<path class="st34" d="M274.1,414.4l-0.3,0.4c-0.8,1.3-0.5,3,0.8,3.8l35.7,21.7l3.3-1.1l0.2,2.3l8.2,4.9c1.1,0.6,2.4,0.2,3.1-0.8
	l0.4-0.7C321.6,442,277.8,416.2,274.1,414.4z"/>
<g>
	<path class="st41" d="M84.4,393c-11.6,7.2-23,11.4-32.9,13.8c4.4-8.7,8.8-15.8,13.3-21.3c4.6-5.7,22-21.1,30.8-13.4
		C100.7,376.4,91,388.9,84.4,393"/>
	<path class="st42" d="M83.6,380c-6.7,9.9-16.9,18-30.6,24.1C67.3,394.9,77.5,386.9,83.6,380"/>
	<path class="st41" d="M55.6,453.4c-8.7-14.4-20.1-21.8-39.1-19.6c-11.7,1.4-16,3.7-12.9,7C30.3,463.5,42.6,447.7,55.6,453.4"/>
	<path class="st42" d="M15.2,439.9c12.9,1.8,25.3,5.6,37.4,11.5C42.8,444.3,30.4,440.5,15.2,439.9"/>
	<path class="st41" d="M51.3,457.5c3.8-7.1,11-10.9,21.7-11.6c6.7-0.5,42.3,9.5,12.1,16.3C71.8,465.2,63.5,452.9,51.3,457.5"/>
	<path class="st42" d="M85.1,455.1c-12.3-3.4-23.1-3.2-32.4,0.8C63.4,450.2,74.1,449.9,85.1,455.1"/>
	<path class="st41" d="M51.7,435.4c-0.6-8.6,1.8-15,7.1-19.3c9.4-7.7,46.2-13.7,27,4.1C70.5,434.4,58.6,428.1,51.7,435.4"/>
	<path class="st42" d="M52.1,431.7c7.8-7.4,17.8-13.3,30-17.8C68.8,417,58.8,422.9,52.1,431.7"/>
	<path class="st41" d="M53.3,426.6c-1.4-8.6-3.3-14.3-7.9-18.6c-5.5-5.2-12.9-7.4-20.4-10c-7.2-2.4-9.7-1.7-9.1,3.6
		C22.3,425.8,44,415.3,53.3,426.6"/>
	<path class="st42" d="M24.1,403.4c10.3,4.8,19.7,11.3,28,19.5C45.7,413.6,36.4,407.1,24.1,403.4"/>
	<path class="st43" d="M53.7,377.3c0.1-0.6,0.7-1.1,1.3-1s1.2,0.6,1.1,1.2c-2.8,30.8-2.2,57.2-0.2,88c0,0.6-1.4,1.1-2.1,1.2
		c-0.7,0-2.1-0.4-2.1-1C50,437.5,51.2,405.4,53.7,377.3"/>
	<path class="st44" d="M54.2,396.1c-13.7-15.7-17.1-30.2-4.1-46.5c8-10.1,13.3-12.8,15.8-8.2C80.7,378.1,53.9,381,54.2,396.1"/>
	<path class="st45" d="M53.3,402.7c-2.6-5.4-1.4-10.7,3.6-15.9c3-3.4,27.6-14.8,16.6,2.7C68.7,397.2,56.6,394.7,53.3,402.7"/>
	<path class="st44" d="M82,395.2c13.4-0.6,24.6,4.7,10.3,13.5c-10,6.2-27.8,1.6-39.8,5.2C52.6,402.4,70.5,395.8,82,395.2"/>
	<path class="st45" d="M61.1,428.8c6.6-6.2,15.5-9,24.6-12c8.7-2.9,11.7-2.1,11,4.4c-7.6,28.3-32.5,17.1-44.1,29.1
		C52.6,442.6,55,434.5,61.1,428.8"/>
	<path class="st45" d="M53.3,408.6c-1.7-10.4-4-17.3-9.5-22.5c-6.6-6.2-15.5-9-24.6-12c-8.7-2.9-11.7-2.1-11,4.4
		C15.9,407.5,42.1,394.9,53.3,408.6"/>
	<polygon class="st46" points="76.2,477.6 31.1,477.6 26.1,458.3 81.1,458.3 	"/>
	<polygon class="st46" points="69.2,501 38.1,501 33.7,477.6 73.6,477.6 	"/>
	<path class="st44" d="M34.7,451.7c-7,2.3-11.6,7-16.6,11.7c-4.8,4.5-4.9,6.5,0.7,7.8c24.2,2.9,23.2-13,34-18.1
		C52.8,448.5,38.3,450.5,34.7,451.7"/>
	<polygon class="st43" points="34.1,480 33.7,477.6 73.6,477.6 73.1,480 	"/>
	<path class="st41" d="M60,346.9c-5.7,18.1-8.2,33.8-7.6,47C49.9,376.5,52.4,360.8,60,346.9"/>
	<path class="st44" d="M17.8,381.5c15.8,6.8,27.6,15.9,35.4,27.1C44.9,394.7,33.1,385.7,17.8,381.5"/>
	<path class="st41" d="M52.6,413.9c8.5-7.1,19.4-11.3,32.7-12.7C70.9,401.1,60,405.4,52.6,413.9"/>
	<path class="st41" d="M24.2,465.3c10.6-7.9,20.1-12,28.6-12.2C43.8,451.6,34.2,455.7,24.2,465.3"/>
	<path class="st44" d="M79.8,426.6c-12.7,5.7-21.7,13.5-27.3,23.6C58.2,438,67.3,430.1,79.8,426.6"/>
	<path class="st45" d="M43.3,421.1c5.2,9,7.5,17.5,8.3,24.7c-7.6-4.3-13.7-8.4-18.4-12.3c-4.8-4-16.8-18.3-8.3-23.2
		C29.8,407.5,40.3,416,43.3,421.1"/>
	<path class="st44" d="M51.5,444.8c-8.5-12.2-14.9-20.9-19.1-26.2C39.4,430.9,46.1,439.9,51.5,444.8"/>
	<path class="st44" d="M64.6,386.6c-7.3,4.1-11.1,9.4-11.3,16.1C52.7,395,56.5,389.6,64.6,386.6"/>
</g>
</svg>
