<?xml version="1.0" encoding="utf-8"?>
<!-- Generator: Adobe Illustrator 27.5.0, SVG Export Plug-In . SVG Version: 6.00 Build 0)  -->
<svg version="1.1" xmlns="http://www.w3.org/2000/svg" xmlns:xlink="http://www.w3.org/1999/xlink" x="0px" y="0px"
	 viewBox="0 0 3710 3710" style="enable-background:new 0 0 3710 3710;" xml:space="preserve">
<g id="Background">
	<g>
		<g>
			<rect style="fill:#FFFFFF;" width="3710" height="3710"/>
		</g>
	</g>
</g>
<g id="Illustration">
	<g>
		<linearGradient id="SVGID_1_" gradientUnits="userSpaceOnUse" x1="3466.8345" y1="3291.6055" x2="1402.891" y2="1485.6563">
			<stop  offset="0" style="stop-color:#B37CFF"/>
			<stop  offset="1" style="stop-color:#F895E7"/>
		</linearGradient>
		<path style="opacity:0.3;fill:url(#SVGID_1_);" d="M3116.072,2353.695c-266.745,628.076-977.291,979.929-1593.477,885.018
			c-100.266-15.444-375.148-61.449-618.518-278.485C435.572,2542.419,335.379,1715.1,713.307,1132.069
			c275.065-424.344,768.147-664.891,1236.672-652.858c100.92,2.592,487.689,18.565,827.591,298.841
			c49.925,41.167,160.039,138.992,259.279,294.183C3269.882,1436.655,3289.912,1944.37,3116.072,2353.695z"/>
		<g>
			<g>
				
					<linearGradient id="SVGID_00000067919238981811858980000000576418517977214870_" gradientUnits="userSpaceOnUse" x1="1583.0814" y1="812.1639" x2="3490.3113" y2="3936.7693">
					<stop  offset="0" style="stop-color:#2B3582"/>
					<stop  offset="1" style="stop-color:#150E42"/>
				</linearGradient>
				<path style="fill:url(#SVGID_00000067919238981811858980000000576418517977214870_);" d="M1613.523,751.211l1435.126,38.025
					c79.175,2.098,142.817,65.874,144.748,145.052l50.805,2083.473c1.51,61.96-48.582,112.863-110.558,112.347l-1645.628-13.685
					c-58.236-0.485-104.748-48.645-103.205-106.861l55.482-2094.064C1442.762,822.297,1520.32,748.743,1613.523,751.211z"/>
				<path style="fill:#FFFFFF;" d="M1729.454,3086.875c-0.045,0-0.089,0-0.135-0.003l-183.985-7.259
					c-61.22-2.414-109.707-54.208-108.084-115.453l7.364-277.879c0.048-1.866,1.587-3.316,3.469-3.292
					c1.867,0.05,3.34,1.605,3.291,3.471l-7.364,277.879c-1.524,57.566,44.05,106.25,101.592,108.518l183.985,7.259
					c1.866,0.073,3.319,1.645,3.245,3.51C1732.76,3085.449,1731.26,3086.875,1729.454,3086.875z"/>
				<path style="fill:#FFFFFF;" d="M1450.274,2603.679c-0.03,0-0.061,0-0.091,0c-1.867-0.049-3.34-1.605-3.291-3.471l1.194-45.001
					c0.05-1.866,1.62-3.395,3.469-3.292c1.867,0.05,3.34,1.605,3.291,3.471l-1.194,45.001
					C1453.604,2602.223,1452.1,2603.679,1450.274,2603.679z"/>
				<g>
					
						<linearGradient id="SVGID_00000085961533154378134180000011503991830010283136_" gradientUnits="userSpaceOnUse" x1="1554.0521" y1="831.1548" x2="3774.2141" y2="3964.4475" gradientTransform="matrix(0.9994 0.0355 -0.0355 0.9994 99.0136 6.9067)">
						<stop  offset="0" style="stop-color:#FDF53F"/>
						<stop  offset="1" style="stop-color:#D93C65"/>
					</linearGradient>
					<path style="fill:url(#SVGID_00000085961533154378134180000011503991830010283136_);" d="M1618.383,734.463
						c195.276,31.769,867.02,131.823,1425.345,103.813c25.462-1.278,47.003,18.559,47.681,44.044l55.702,2092.883
						c0.764,28.696-21.768,52.622-50.459,53.558c-234.711,7.659-1201.234,35.699-1544.517-9.478
						c-20.892-2.749-36.327-20.81-35.893-41.879l45.249-2195.523C1562.104,752.057,1588.941,729.673,1618.383,734.463z"/>
				</g>
				<g style="opacity:0.64;">
					<path style="fill:#FFFFFF;" d="M1672.692,843.844c182.096,29.625,808.501,122.925,1329.141,96.806
						c23.743-1.192,43.831,17.306,44.463,41.071l51.942,1951.623c0.713,26.759-20.299,49.07-47.054,49.943
						c-218.869,7.143-1120.156,33.29-1440.27-8.837c-19.482-2.563-33.875-19.406-33.47-39.052l42.195-2047.336
						C1620.212,860.251,1645.237,839.378,1672.692,843.844z"/>
				</g>
				
					<linearGradient id="SVGID_00000029768678672287965080000015630225120237196419_" gradientUnits="userSpaceOnUse" x1="1991.8087" y1="3189.7769" x2="1331.4998" y2="4058.3979" gradientTransform="matrix(0.9997 0.0265 -0.0265 0.9997 686.7247 -2962.6826)">
					<stop  offset="0" style="stop-color:#2B3582"/>
					<stop  offset="1" style="stop-color:#150E42"/>
				</linearGradient>
				<path style="fill:url(#SVGID_00000029768678672287965080000015630225120237196419_);" d="M2427.61,488.893
					c-50.883-37.435-95.976-37.915-127.956-29.394c-29.171,7.775-48.67,35.222-46.713,65.349l9.725,149.722l162.449,18.764
					C2425.115,693.335,2527.401,562.314,2427.61,488.893z M2352.81,607.493c-22.424-0.594-40.12-19.253-39.526-41.677
					c0.594-22.424,19.254-40.121,41.678-39.527c22.423,0.595,40.121,19.254,39.526,41.678
					C2393.893,590.392,2375.234,608.088,2352.81,607.493z"/>
				<path style="fill:#FFFFFF;" d="M2277.732,615.745c-2.805-1.113-4.873-3.764-5.08-6.981l-1.547-23.846
					c-0.289-4.445,3.08-8.28,7.525-8.569c4.441-0.297,8.29,3.069,8.576,7.529l1.547,23.846c0.289,4.445-3.081,8.28-7.526,8.567
					C2279.997,616.372,2278.81,616.171,2277.732,615.745z M2274.699,569.018c-2.805-1.112-4.873-3.762-5.079-6.981l-1.178-18.105
					c-1.991-30.666,18.017-58.635,47.576-66.515c20.233-5.392,40.955-5.699,61.581-0.9c4.268,1.065,7.042,5.344,6.027,9.688
					c-1.008,4.338-5.344,7.042-9.686,6.032c-18.02-4.198-36.112-3.932-53.766,0.772c-22.14,5.899-37.125,26.873-35.631,49.884
					l1.177,18.106c0.287,4.445-3.081,8.278-7.526,8.567C2276.963,569.645,2275.776,569.445,2274.699,569.018z"/>
				
					<linearGradient id="SVGID_00000171685962695729004570000000687782435178406307_" gradientUnits="userSpaceOnUse" x1="2064.2432" y1="3244.8323" x2="1403.9296" y2="4113.459" gradientTransform="matrix(0.9997 0.0265 -0.0265 0.9997 686.7247 -2962.6826)">
					<stop  offset="0" style="stop-color:#2B3582"/>
					<stop  offset="1" style="stop-color:#150E42"/>
				</linearGradient>
				<path style="fill:url(#SVGID_00000171685962695729004570000000687782435178406307_);" d="M2037.873,765.205l1.99-75.094
					c0.685-25.922,22.721-46.114,48.604-44.54l517.265,31.455c22.956,1.396,41.083,20.026,41.851,43.012l2.415,72.268
					L2037.873,765.205z"/>
				<path style="fill:#FFFFFF;" d="M2233.481,677.18c-0.03,0-0.061,0-0.091,0l-22.266-0.591c-1.868-0.049-3.341-1.605-3.291-3.471
					c0.048-1.869,1.56-3.411,3.469-3.292l22.266,0.591c1.867,0.049,3.34,1.605,3.291,3.471
					C2236.812,675.724,2235.308,677.18,2233.481,677.18z"/>
				<path style="fill:#FFFFFF;" d="M2063.65,745.94c-3.057-1.212-5.181-4.233-5.088-7.715l0.804-30.379
					c0.329-12.473,5.495-24.069,14.551-32.658c9.055-8.587,20.912-13.14,33.389-12.81l81.857,2.172
					c4.432,0.131,7.969,3.822,7.848,8.284c-0.118,4.454-3.824,7.968-8.281,7.853l-81.856-2.174
					c-16.855-0.446-30.935,12.904-31.379,29.763l-0.806,30.38c-0.118,4.454-3.826,7.968-8.281,7.853
					C2065.438,746.478,2064.507,746.279,2063.65,745.94z"/>
				
					<linearGradient id="SVGID_00000160897674678746135600000011511525918313746321_" gradientUnits="userSpaceOnUse" x1="1981.0345" y1="3297.9624" x2="1525.0996" y2="4135.1519" gradientTransform="matrix(0.9997 0.0265 -0.0265 0.9997 686.7247 -2962.6826)">
					<stop  offset="0" style="stop-color:#2B3582"/>
					<stop  offset="1" style="stop-color:#150E42"/>
				</linearGradient>
				<path style="fill:url(#SVGID_00000160897674678746135600000011511525918313746321_);" d="M1876.375,733.423l905.356,23.965
					c32.554,0.861,59.765,25.025,64.469,57.25l0.649,4.446c5.15,35.296-22.751,66.715-58.409,65.77l-928.843-24.611
					c-21.34-0.564-37.873-18.857-36.284-40.145l3.1-41.521C1828.352,752.608,1850.341,732.735,1876.375,733.423z"/>
			</g>
			<g style="opacity:0.89;">
				<g>
					<path style="fill:#FFFFFF;" d="M2984.122,1717.078l-8.028-445.104c-0.082-4.633-3.8-8.381-8.433-8.502l-1291.15-34.157
						c-2.249-0.119-4.732,0.878-6.417,2.598c-1.685,1.723-2.58,4.068-2.464,6.474l21.877,459.562
						c0.216,4.565,3.946,7.671,8.517,7.745l1277.328,20.422c0.019,0,0.038,0.001,0.057,0c0.026,0.001,0.053,0.001,0.087,0.001
						c4.784,0.047,8.696-3.29,8.742-8.074C2984.242,1717.544,2984.2,1717.557,2984.122,1717.078z M2958.919,1280.573l1.642,91.003
						l-1270.779-32.207l-4.403-92.487L2958.919,1280.573z M1706.427,1689.009l-15.817-332.262l1270.265,32.228l5.785,320.681
						L1706.427,1689.009z"/>
					<path style="fill:#FFFFFF;" d="M1778.787,1472.301l576.757,9.204c11.408,0.182,20.12-8.968,19.458-20.417l-0.126-2.181
						c-0.661-11.425-10.414-20.815-21.783-20.991l-574.81-8.895c-11.222-0.174-20.225,8.863-20.11,20.202l0.022,2.163
						C1758.309,1462.75,1767.528,1472.122,1778.787,1472.301z"/>
					<path style="fill:#FFFFFF;" d="M2359.502,1551.864l-579.898-9.705c-11.321-0.189-20.401,8.997-20.285,20.536l0.022,2.203
						c0.117,11.564,9.418,21.112,20.777,21.307l581.879,10.025c11.51,0.198,20.296-9.104,19.621-20.757l-0.128-2.219
						C2380.817,1561.624,2370.972,1552.056,2359.502,1551.864z"/>
					<path style="fill:#FFFFFF;" d="M2835.278,1489.161c12.136,0.193,21.042-9.493,19.891-21.616
						c-1.149-12.1-11.886-22.043-23.98-22.231l-253.29-3.92c-12.024-0.185-21.067,9.42-20.199,21.476
						c0.869,12.077,11.353,22.042,23.419,22.234L2835.278,1489.161z"/>
					<path style="fill:#FFFFFF;" d="M2866.094,1582.591c-1.17-12.316-12.011-22.449-24.215-22.653l-255.564-4.277
						c-12.132-0.203-21.249,9.563-20.366,21.833c0.884,12.294,11.469,22.446,23.643,22.656l256.449,4.418
						C2858.287,1604.779,2867.265,1594.931,2866.094,1582.591z"/>
				</g>
				<path style="fill:#FFFFFF;" d="M2921.601,1023.982c-0.123,12.638-9.963,22.862-21.987,22.839l-1182.585-2.306
					c-13.225-0.026-23.953-10.803-23.951-24.075l0-2.007c0.003-13.275,10.741-23.996,23.97-23.944l1183.022,4.607
					c12.029,0.047,21.672,10.334,21.549,22.974L2921.601,1023.982z"/>
				<path style="fill:#FFFFFF;" d="M2920.63,1123.602c-0.123,12.619-9.955,22.867-21.971,22.892l-1181.673,2.496
					c-13.214,0.028-23.934-10.688-23.932-23.938l0-2.004c0.003-13.253,10.731-24,23.951-24.003l1182.11-0.201
					c12.02-0.002,21.656,10.23,21.533,22.851L2920.63,1123.602z"/>
				<g>
					<path style="fill:#FFFFFF;" d="M1918.756,2079.729c-0.155,0.002-0.309,0.002-0.463,0.003l-168.671-0.674
						c-24.306-0.099-44.462-16.72-46.883-38.661l-15.624-141.434c-0.927-8.415,1.642-16.748,7.232-23.473
						c6.243-7.514,15.726-12.257,26.014-13.02l0,0c14.223-1.047,33.809-2.831,55.359-4.786
						c46.922-4.261,100.102-9.095,131.357-9.659c0.233-0.002,0.46-0.01,0.69-0.011c22.359-0.124,41.677,13.401,47.12,33.081
						c8.986,32.494,8.556,94.018,7.251,159.564C1961.706,2062.158,1942.293,2079.599,1918.756,2079.729z M1721.379,1876.199
						c-6.587,0.488-12.581,3.431-16.45,8.09c-3.18,3.821-4.649,8.499-4.133,13.16l15.623,141.434
						c1.652,14.989,15.952,26.342,33.26,26.412l168.67,0.675c0.107-0.001,0.222-0.003,0.332-0.002
						c16.125-0.091,29.414-11.509,29.698-25.582c1.286-64.485,1.733-124.912-6.759-155.629
						c-3.765-13.595-18.483-23.631-34.292-22.972c-30.757,0.555-85.987,5.577-130.366,9.601
						C1755.326,1873.354,1735.66,1875.138,1721.379,1876.199L1721.379,1876.199z"/>
					<path style="opacity:0.6;fill:#FFFFFF;" d="M1739.575,1890.295c35.417-2.62,112.381-10.87,148.903-11.529
						c15.475-0.28,29.101,8.995,32.806,22.394c7.194,26.023,6.552,77.981,5.597,125.936c-0.286,14.363-13.411,25.9-29.516,25.835
						l-134.789-0.539c-16.576-0.066-30.4-11.292-32.024-26.001l-12.483-113.019
						C1716.776,1901.68,1726.445,1891.267,1739.575,1890.295z"/>
					<g style="opacity:0.6;">
						<path style="fill:#FFFFFF;" d="M2065.67,1932.044c-7.438-0.135-11.939,5.631-10.001,12.813l15.657,58.039
							c1.938,7.183,9.61,13.025,17.049,12.984l849.876-4.759c7.439-0.042,13.359-6.16,13.155-13.597l-0.985-35.867
							c-0.204-7.437-6.457-13.632-13.896-13.767L2065.67,1932.044z"/>
					</g>
				</g>
				<g>
					<path style="fill:#FFFFFF;" d="M1915.113,2453.776c-0.155,0.002-0.309,0.002-0.463,0.003l-168.671-0.674
						c-24.306-0.099-44.461-16.72-46.883-38.661l-15.624-141.434c-0.927-8.416,1.641-16.749,7.232-23.473
						c6.243-7.514,15.726-12.257,26.014-13.021l0,0c14.223-1.047,33.809-2.83,55.359-4.786
						c46.922-4.261,100.102-9.095,131.357-9.659c0.233-0.002,0.46-0.01,0.69-0.011c22.359-0.124,41.677,13.401,47.12,33.081
						c8.986,32.494,8.555,94.018,7.251,159.564C1958.063,2436.205,1938.651,2453.646,1915.113,2453.776z M1717.736,2250.245
						c-6.587,0.488-12.581,3.431-16.449,8.09c-3.18,3.821-4.649,8.499-4.133,13.16l15.623,141.434
						c1.652,14.99,15.952,26.342,33.26,26.412l168.67,0.675c0.107-0.001,0.222-0.002,0.333-0.002
						c16.125-0.092,29.414-11.509,29.698-25.582c1.286-64.485,1.733-124.913-6.759-155.629
						c-3.765-13.594-18.483-23.63-34.292-22.972c-30.757,0.555-85.987,5.576-130.366,9.601
						C1751.683,2247.401,1732.017,2249.185,1717.736,2250.245L1717.736,2250.245z"/>
					<path style="opacity:0.6;fill:#FFFFFF;" d="M1735.932,2264.342c35.417-2.62,112.382-10.871,148.903-11.529
						c15.475-0.28,29.101,8.995,32.805,22.394c7.194,26.023,6.552,77.981,5.597,125.937c-0.286,14.362-13.411,25.9-29.516,25.835
						l-134.789-0.539c-16.576-0.066-30.4-11.292-32.024-26.001l-12.482-113.019
						C1713.133,2275.727,1722.802,2265.314,1735.932,2264.342z"/>
					<g style="opacity:0.6;">
						<path style="fill:#FFFFFF;" d="M2062.027,2306.091c-7.438-0.135-11.939,5.631-10.001,12.813l15.657,58.039
							c1.938,7.183,9.61,13.025,17.049,12.984l849.876-4.759c7.439-0.042,13.359-6.16,13.155-13.597l-0.985-35.867
							c-0.204-7.437-6.457-13.632-13.896-13.767L2062.027,2306.091z"/>
					</g>
				</g>
				<g>
					<path style="fill:#FFFFFF;" d="M1911.471,2827.822c-0.155,0.002-0.309,0.002-0.463,0.003l-168.671-0.674
						c-24.306-0.099-44.462-16.72-46.883-38.661l-15.624-141.434c-0.928-8.416,1.641-16.748,7.231-23.473
						c6.244-7.514,15.727-12.257,26.014-13.021l0,0c14.223-1.047,33.809-2.831,55.359-4.786
						c46.922-4.261,100.103-9.095,131.358-9.659c0.233-0.002,0.46-0.01,0.69-0.011c22.359-0.124,41.677,13.402,47.119,33.081
						c8.986,32.494,8.556,94.018,7.251,159.563C1954.421,2810.251,1935.008,2827.692,1911.471,2827.822z M1714.093,2624.292
						c-6.587,0.488-12.582,3.431-16.449,8.09c-3.18,3.821-4.65,8.498-4.133,13.16l15.623,141.434
						c1.652,14.99,15.952,26.341,33.26,26.412l168.67,0.675c0.107-0.001,0.222-0.003,0.333-0.001
						c16.125-0.092,29.414-11.509,29.698-25.583c1.286-64.485,1.733-124.912-6.76-155.629c-3.764-13.594-18.483-23.63-34.292-22.972
						c-30.757,0.555-85.986,5.576-130.365,9.6C1748.041,2621.448,1728.375,2623.232,1714.093,2624.292L1714.093,2624.292z"/>
					<path style="opacity:0.6;fill:#FFFFFF;" d="M1732.289,2638.388c35.417-2.62,112.381-10.87,148.903-11.53
						c15.475-0.28,29.101,8.995,32.806,22.394c7.194,26.023,6.552,77.981,5.597,125.937c-0.286,14.363-13.411,25.9-29.516,25.835
						l-134.789-0.539c-16.576-0.066-30.4-11.292-32.025-26.001l-12.482-113.019C1709.49,2649.773,1719.16,2639.36,1732.289,2638.388
						z"/>
					<g style="opacity:0.6;">
						<path style="fill:#FFFFFF;" d="M2058.385,2680.138c-7.438-0.135-11.939,5.631-10.001,12.813l15.657,58.039
							c1.938,7.183,9.61,13.026,17.049,12.984l849.876-4.759c7.439-0.042,13.359-6.16,13.155-13.597l-0.985-35.867
							c-0.204-7.437-6.457-13.632-13.896-13.767L2058.385,2680.138z"/>
					</g>
				</g>
			</g>
		</g>
		<g>
			
				<linearGradient id="SVGID_00000137123969019164202590000008293600277069515195_" gradientUnits="userSpaceOnUse" x1="1351.828" y1="59.7559" x2="1290.9585" y2="2487.7473">
				<stop  offset="0" style="stop-color:#A737D5"/>
				<stop  offset="1" style="stop-color:#EF497A"/>
			</linearGradient>
			<path style="fill:url(#SVGID_00000137123969019164202590000008293600277069515195_);" d="M1829.11,2438.729
				c-79.165-262.151-412.781-1298.189-898.895-1860.288c-34.712-40.137-108.558-27.693-114.476,24.746
				c-34.334,304.24-173.346,1257.259,973.286,1869.189C1811.093,2484.155,1836.299,2462.534,1829.11,2438.729z"/>
			
				<linearGradient id="SVGID_00000175313568019204658100000017621258645376736144_" gradientUnits="userSpaceOnUse" x1="1959.2356" y1="815.6672" x2="640.2806" y2="2794.0972">
				<stop  offset="0" style="stop-color:#CB236D"/>
				<stop  offset="1" style="stop-color:#4C246D"/>
			</linearGradient>
			<path style="fill:url(#SVGID_00000175313568019204658100000017621258645376736144_);" d="M1789.108,2440.625
				c1.598,0,3.203-0.544,4.518-1.656c2.957-2.495,3.33-6.919,0.832-9.876c-367.055-434.481-567.267-821.464-670.591-1069.592
				c-111.821-268.54-137.237-436.271-137.48-437.934c-0.563-3.826-4.1-6.505-7.951-5.917c-3.829,0.561-6.479,4.12-5.919,7.949
				c0.247,1.68,25.92,171.146,138.409,441.287c103.703,249.045,304.612,637.4,672.823,1073.253
				C1785.137,2439.779,1787.116,2440.625,1789.108,2440.625z"/>
		</g>
		<g>
			
				<linearGradient id="SVGID_00000125599422469500170390000001247133608885377182_" gradientUnits="userSpaceOnUse" x1="767.5062" y1="2085.2051" x2="1132.7549" y2="1496.7478">
				<stop  offset="0" style="stop-color:#A737D5"/>
				<stop  offset="1" style="stop-color:#EF497A"/>
			</linearGradient>
			<path style="fill:url(#SVGID_00000125599422469500170390000001247133608885377182_);" d="M1312.833,2344.658
				c19.041,8.666,40.733-4.909,41.505-25.798c4.263-115.254-13.17-442.239-312.851-704.865
				c-253.066-221.777-369.223-366.049-417.416-435.19c-10.191-14.621-33.123-7.758-33.606,10.046
				C585.13,1385.279,622.885,2030.61,1312.833,2344.658z"/>
			
				<linearGradient id="SVGID_00000118398185803334983510000016164749600920779953_" gradientUnits="userSpaceOnUse" x1="1534.0818" y1="1203.9918" x2="22.3533" y2="3486.8042">
				<stop  offset="0" style="stop-color:#CB236D"/>
				<stop  offset="1" style="stop-color:#4C246D"/>
			</linearGradient>
			<path style="fill:url(#SVGID_00000118398185803334983510000016164749600920779953_);" d="M1331.049,2323.333
				c-2.627,0-5.125-1.539-6.223-4.105c-1.996-4.673-203.553-471-539.262-793.092c-2.695-2.586-2.784-6.869-0.198-9.563
				c2.589-2.692,6.869-2.784,9.564-0.198c337.742,324.043,540.328,792.841,542.336,797.536c1.466,3.438-0.127,7.411-3.563,8.877
				C1332.835,2323.158,1331.935,2323.333,1331.049,2323.333z"/>
		</g>
		<g>
			<g>
				
					<linearGradient id="SVGID_00000172420810331387802600000003976272620563783091_" gradientUnits="userSpaceOnUse" x1="1686.9354" y1="1748.9192" x2="1915.1815" y2="3306.0686">
					<stop  offset="0" style="stop-color:#2B3582"/>
					<stop  offset="1" style="stop-color:#150E42"/>
				</linearGradient>
				<path style="fill:url(#SVGID_00000172420810331387802600000003976272620563783091_);" d="M2963.461,3145.71
					c0,23.23-19.025,42.236-42.277,42.236H635.06c-23.252,0-42.276-19.006-42.276-42.236l-19.023-1313.773
					c0-23.229,27.368-68.58,77.526-65.171l2234.253-57.811c29.174-0.755,57.383,10.474,78.042,31.066
					c20.66,20.593,31.964,48.748,31.275,77.895L2963.461,3145.71z"/>
				
					<linearGradient id="SVGID_00000175290705504698790200000003987054555736784792_" gradientUnits="userSpaceOnUse" x1="2794.2334" y1="1215.4778" x2="136.3035" y2="4570.021">
					<stop  offset="0" style="stop-color:#53D8FF"/>
					<stop  offset="1" style="stop-color:#3840F7"/>
				</linearGradient>
				<path style="fill:url(#SVGID_00000175290705504698790200000003987054555736784792_);" d="M2921.724,3105.19
					c0,21.997-17.999,39.996-39.997,39.996H690.191c-21.998,0-39.996-17.999-39.996-39.996l-17.951-1192.655
					c2.114-71.771,65.038-97.566,103.181-96.043l2141.328-57.449c20.496-0.55,40.313,7.347,54.83,21.826
					c14.517,14.48,22.5,34.296,21.986,54.793L2921.724,3105.19z"/>
				<g>
					<path style="fill:#FFFFFF;" d="M673.879,2536.113c-1.844,0-3.352-1.483-3.38-3.332l-1.42-96.722
						c-0.026-1.866,1.465-3.405,3.332-3.431c1.79-0.073,3.403,1.466,3.431,3.332l1.42,96.722c0.026,1.866-1.465,3.405-3.332,3.431
						C673.914,2536.113,673.897,2536.113,673.879,2536.113z"/>
					<path style="fill:#FFFFFF;" d="M670.398,2299.094c-1.844,0-3.352-1.483-3.38-3.332l-5.441-370.447
						c0.112-24.787,7.751-44.585,22.7-58.911c27.193-26.052,69.736-24.738,71.527-24.678l683.813-18.348
						c1.896,0.079,3.421,1.427,3.471,3.292c0.051,1.866-1.422,3.418-3.289,3.471l-684.008,18.348
						c-1.938-0.086-41.69-1.294-66.835,22.799c-13.576,13.008-20.512,31.174-20.616,53.993l5.441,370.381
						c0.026,1.866-1.465,3.405-3.332,3.431C670.433,2299.094,670.417,2299.094,670.398,2299.094z"/>
				</g>
			</g>
			
				<linearGradient id="SVGID_00000104699591594008044770000017233446438517261978_" gradientUnits="userSpaceOnUse" x1="1796.2057" y1="3349.9946" x2="1824.4097" y2="2503.8992">
				<stop  offset="0" style="stop-color:#2B3582"/>
				<stop  offset="1" style="stop-color:#150E42"/>
			</linearGradient>
			<path style="fill:url(#SVGID_00000104699591594008044770000017233446438517261978_);" d="M3141.417,3255H461.176
				c-4.128,0-7.505-3.377-7.505-7.505v-100.423c0-4.128,3.377-7.505,7.505-7.505h2680.24c4.128,0,7.505,3.377,7.505,7.505v100.423
				C3148.922,3251.623,3145.544,3255,3141.417,3255z"/>
			<g>
				<path style="fill:#FFFFFF;" d="M2074.817,2221.434H957.032c-16.803,0-21.21-23.223-5.576-29.379l558.893-220.056
					c3.583-1.41,7.568-1.41,11.15,0l558.893,220.056C2096.026,2198.21,2091.619,2221.434,2074.817,2221.434z"/>
				<g>
					<g>
						<g>
							<rect x="993.994" y="2253.981" style="fill:#FFFFFF;" width="23.969" height="441.034"/>
							<rect x="1029.948" y="2253.981" style="fill:#FFFFFF;" width="23.969" height="441.034"/>
							<rect x="1065.902" y="2253.981" style="fill:#FFFFFF;" width="23.969" height="441.034"/>
						</g>
						<polygon style="fill:#FFFFFF;" points="1116.237,2230.012 967.628,2230.012 967.628,2236.465 989.2,2246.79 1094.665,2246.79 
							1116.237,2236.465 						"/>
						<polygon style="fill:#FFFFFF;" points="1117.436,2733.366 968.826,2733.366 968.826,2710.134 990.398,2699.809 
							1095.864,2699.809 1117.436,2710.134 						"/>
					</g>
					<g>
						<g>
							<rect x="1183.351" y="2253.981" style="fill:#FFFFFF;" width="23.969" height="441.034"/>
							<rect x="1219.305" y="2253.981" style="fill:#FFFFFF;" width="23.969" height="441.034"/>
							<rect x="1255.259" y="2253.981" style="fill:#FFFFFF;" width="23.969" height="441.034"/>
						</g>
						<polygon style="fill:#FFFFFF;" points="1305.594,2230.012 1156.985,2230.012 1156.985,2236.465 1178.557,2246.79 
							1284.022,2246.79 1305.594,2236.465 						"/>
						<polygon style="fill:#FFFFFF;" points="1306.793,2733.366 1158.183,2733.366 1158.183,2710.134 1179.756,2699.809 
							1285.22,2699.809 1306.793,2710.134 						"/>
					</g>
					<g>
						<g>
							<rect x="1372.708" y="2253.981" style="fill:#FFFFFF;" width="23.969" height="441.034"/>
							<rect x="1408.662" y="2253.981" style="fill:#FFFFFF;" width="23.969" height="441.034"/>
							<rect x="1444.616" y="2253.981" style="fill:#FFFFFF;" width="23.969" height="441.034"/>
						</g>
						<polygon style="fill:#FFFFFF;" points="1494.951,2230.012 1346.342,2230.012 1346.342,2236.465 1367.914,2246.79 
							1473.379,2246.79 1494.951,2236.465 						"/>
						<polygon style="fill:#FFFFFF;" points="1496.15,2733.366 1347.54,2733.366 1347.54,2710.134 1369.113,2699.809 
							1474.577,2699.809 1496.15,2710.134 						"/>
					</g>
					<g>
						<g>
							<rect x="1562.065" y="2253.981" style="fill:#FFFFFF;" width="23.969" height="441.034"/>
							<rect x="1598.019" y="2253.981" style="fill:#FFFFFF;" width="23.969" height="441.034"/>
							<rect x="1633.973" y="2253.981" style="fill:#FFFFFF;" width="23.969" height="441.034"/>
						</g>
						<polygon style="fill:#FFFFFF;" points="1684.308,2230.012 1535.699,2230.012 1535.699,2236.465 1557.271,2246.79 
							1662.736,2246.79 1684.308,2236.465 						"/>
						<polygon style="fill:#FFFFFF;" points="1685.506,2733.366 1536.897,2733.366 1536.897,2710.134 1558.469,2699.809 
							1663.934,2699.809 1685.506,2710.134 						"/>
					</g>
					<g>
						<g>
							<rect x="1751.422" y="2253.981" style="fill:#FFFFFF;" width="23.969" height="441.034"/>
							<rect x="1787.376" y="2253.981" style="fill:#FFFFFF;" width="23.969" height="441.034"/>
							<rect x="1823.33" y="2253.981" style="fill:#FFFFFF;" width="23.969" height="441.034"/>
						</g>
						<polygon style="fill:#FFFFFF;" points="1873.665,2230.012 1725.056,2230.012 1725.056,2236.465 1746.628,2246.79 
							1852.093,2246.79 1873.665,2236.465 						"/>
						<polygon style="fill:#FFFFFF;" points="1874.864,2733.366 1726.254,2733.366 1726.254,2710.134 1747.827,2699.809 
							1853.291,2699.809 1874.864,2710.134 						"/>
					</g>
					<g>
						<g>
							<rect x="1940.779" y="2253.981" style="fill:#FFFFFF;" width="23.969" height="441.034"/>
							<rect x="1976.733" y="2253.981" style="fill:#FFFFFF;" width="23.969" height="441.034"/>
							<rect x="2012.687" y="2253.981" style="fill:#FFFFFF;" width="23.969" height="441.034"/>
						</g>
						<polygon style="fill:#FFFFFF;" points="2063.022,2230.012 1914.413,2230.012 1914.413,2236.465 1935.985,2246.79 
							2041.45,2246.79 2063.022,2236.465 						"/>
						<polygon style="fill:#FFFFFF;" points="2064.22,2733.366 1915.611,2733.366 1915.611,2710.134 1937.183,2699.809 
							2042.648,2699.809 2064.22,2710.134 						"/>
					</g>
				</g>
				<path style="fill:#FFFFFF;" d="M2106.653,2769.015H932.701c-1.931,0-3.497-1.565-3.497-3.497v-18.741
					c0-1.931,1.566-3.497,3.497-3.497h1173.952c1.931,0,3.497,1.566,3.497,3.497v18.741
					C2110.15,2767.449,2108.584,2769.015,2106.653,2769.015z"/>
				<path style="fill:#FFFFFF;" d="M2156.226,2847.649H875.622c-2.485,0-4.5-2.015-4.5-4.5v-56.767c0-2.485,2.015-4.5,4.5-4.5
					h1280.604c2.485,0,4.5,2.015,4.5,4.5v56.767C2160.726,2845.635,2158.712,2847.649,2156.226,2847.649z"/>
			</g>
			<path style="opacity:0.64;fill:#FFFFFF;" d="M2782.37,2135.479h-501.187c-10.058,0-18.212-8.154-18.212-18.212v-121.891
				c0-10.058,8.154-18.212,18.212-18.212h501.187c10.058,0,18.212,8.154,18.212,18.212v121.891
				C2800.581,2127.326,2792.428,2135.479,2782.37,2135.479z"/>
			<path style="opacity:0.64;fill:#FFFFFF;" d="M2782.37,2353.162h-501.187c-10.058,0-18.212-8.154-18.212-18.212v-121.892
				c0-10.058,8.154-18.212,18.212-18.212h501.187c10.058,0,18.212,8.154,18.212,18.212v121.892
				C2800.581,2345.008,2792.428,2353.162,2782.37,2353.162z"/>
			<path style="opacity:0.64;fill:#FFFFFF;" d="M2782.37,2570.844h-501.187c-10.058,0-18.212-8.154-18.212-18.212v-121.891
				c0-10.058,8.154-18.212,18.212-18.212h501.187c10.058,0,18.212,8.154,18.212,18.212v121.891
				C2800.581,2562.691,2792.428,2570.844,2782.37,2570.844z"/>
			<path style="opacity:0.64;fill:#FFFFFF;" d="M2798.861,3039.192H886.036c-10.058,0-18.212-8.154-18.212-18.212v-121.892
				c0-10.058,8.154-18.211,18.212-18.211h1912.825c10.058,0,18.212,8.154,18.212,18.211v121.892
				C2817.073,3031.038,2808.919,3039.192,2798.861,3039.192z"/>
		</g>
		<g>
			<g>
				
					<linearGradient id="SVGID_00000121974865232882702680000002290532097542261439_" gradientUnits="userSpaceOnUse" x1="2682.1804" y1="3397.6221" x2="3007.3416" y2="3020.2034">
					<stop  offset="0" style="stop-color:#FDF53F"/>
					<stop  offset="1" style="stop-color:#D93C65"/>
				</linearGradient>
				<circle style="fill:url(#SVGID_00000121974865232882702680000002290532097542261439_);" cx="3013.91" cy="3012.58" r="242.42"/>
				
					<linearGradient id="SVGID_00000009585238237053011840000011013924882262192060_" gradientUnits="userSpaceOnUse" x1="3191.0786" y1="2744.928" x2="2229.5693" y2="4197.4946">
					<stop  offset="0" style="stop-color:#FDF53F"/>
					<stop  offset="1" style="stop-color:#D93C65"/>
				</linearGradient>
				
					<circle style="fill:url(#SVGID_00000009585238237053011840000011013924882262192060_);" cx="3013.909" cy="3012.58" r="234.359"/>
				<path style="fill:#FFFFFF;" d="M2820.656,2918.608c-0.512,0-1.032-0.116-1.521-0.363c-1.668-0.842-2.336-2.876-1.494-4.541
					c37.625-74.541,112.831-120.846,196.268-120.846c13.307,0,26.642,1.199,39.635,3.567c1.838,0.333,3.055,2.094,2.721,3.93
					c-0.333,1.84-2.079,3.084-3.933,2.721c-12.594-2.292-25.521-3.454-38.423-3.454c-80.87,0-153.762,44.882-190.232,117.128
					C2823.084,2917.927,2821.893,2918.608,2820.656,2918.608z"/>
				
					<ellipse transform="matrix(0.7071 -0.7071 0.7071 0.7071 -1249.577 3018.6265)" style="opacity:0.78;fill:#FFFFFF;" cx="3019.016" cy="3017.686" rx="198.356" ry="198.356"/>
				<g>
					
						<linearGradient id="SVGID_00000093881725342325648290000000862792147297539713_" gradientUnits="userSpaceOnUse" x1="3162.3962" y1="2786.5481" x2="2650.4114" y2="3646.0859">
						<stop  offset="0" style="stop-color:#FDF53F"/>
						<stop  offset="1" style="stop-color:#D93C65"/>
					</linearGradient>
					<path style="fill:url(#SVGID_00000093881725342325648290000000862792147297539713_);" d="M2999.551,3165.146v-21.58
						c-22.496-0.901-44.748-6.21-60.552-13.129c-5.643-2.47-8.52-8.803-6.899-14.747l5.483-20.1
						c2.011-7.374,10.031-11.188,17.08-8.234c15.677,6.572,35.035,11.772,55.907,11.772c21.668,0,37.827-7.347,37.827-22.404
						c0-13.589-12.487-21.667-42.602-29.746c-42.969-11.753-73.819-30.484-73.819-68.311c0-34.157,24.975-60.231,68.31-67.208
						v-21.583c0-6.945,5.63-12.574,12.574-12.574h12.68c6.943,0,12.574,5.629,12.574,12.574v19.377
						c20.817,0.833,35.969,4.393,47.994,8.619c6.161,2.164,9.529,8.801,7.819,15.104l-5.042,18.59
						c-1.943,7.169-9.605,11.096-16.552,8.468c-11.072-4.187-26.725-8.546-47.073-8.546c-25.708,0-33.053,10.649-33.053,20.199
						c0,11.752,15.425,19.831,48.844,30.116c47.745,14.322,67.576,34.153,67.576,69.777c0,32.687-24.239,62.067-71.247,69.413
						v24.151c0,6.944-5.63,12.574-12.574,12.574h-12.681C3005.18,3177.721,2999.551,3172.091,2999.551,3165.146z"/>
				</g>
			</g>
			<g>
				
					<linearGradient id="SVGID_00000177453378515041413960000003585987119538669454_" gradientUnits="userSpaceOnUse" x1="2423.8889" y1="3397.6221" x2="2749.05" y2="3020.2034">
					<stop  offset="0" style="stop-color:#FDF53F"/>
					<stop  offset="1" style="stop-color:#D93C65"/>
				</linearGradient>
				
					<circle style="fill:url(#SVGID_00000177453378515041413960000003585987119538669454_);" cx="2755.618" cy="3012.58" r="242.42"/>
				
					<linearGradient id="SVGID_00000105392825213880827450000000756231639706954933_" gradientUnits="userSpaceOnUse" x1="2932.7871" y1="2744.928" x2="1971.2777" y2="4197.4946">
					<stop  offset="0" style="stop-color:#FDF53F"/>
					<stop  offset="1" style="stop-color:#D93C65"/>
				</linearGradient>
				
					<circle style="fill:url(#SVGID_00000105392825213880827450000000756231639706954933_);" cx="2755.618" cy="3012.58" r="234.359"/>
				<path style="fill:#FFFFFF;" d="M2562.365,2918.608c-0.512,0-1.032-0.116-1.521-0.363c-1.668-0.842-2.336-2.876-1.494-4.541
					c37.625-74.541,112.831-120.846,196.268-120.846c13.307,0,26.642,1.199,39.635,3.567c1.838,0.333,3.055,2.094,2.721,3.93
					c-0.333,1.84-2.075,3.084-3.933,2.721c-12.594-2.292-25.521-3.454-38.423-3.454c-80.869,0-153.762,44.882-190.232,117.128
					C2564.792,2917.927,2563.602,2918.608,2562.365,2918.608z"/>
				
					<ellipse transform="matrix(0.7071 -0.7071 0.7071 0.7071 -1325.229 2835.9868)" style="opacity:0.78;fill:#FFFFFF;" cx="2760.724" cy="3017.686" rx="198.356" ry="198.356"/>
				<g>
					
						<linearGradient id="SVGID_00000013915794025826480420000002307722605734209954_" gradientUnits="userSpaceOnUse" x1="2904.1042" y1="2786.5483" x2="2392.1199" y2="3646.0854">
						<stop  offset="0" style="stop-color:#FDF53F"/>
						<stop  offset="1" style="stop-color:#D93C65"/>
					</linearGradient>
					<path style="fill:url(#SVGID_00000013915794025826480420000002307722605734209954_);" d="M2741.259,3165.146v-21.58
						c-22.497-0.901-44.749-6.21-60.552-13.129c-5.643-2.47-8.52-8.803-6.899-14.747l5.483-20.1
						c2.011-7.374,10.03-11.188,17.08-8.234c15.677,6.572,35.035,11.772,55.907,11.772c21.667,0,37.827-7.347,37.827-22.404
						c0-13.589-12.487-21.667-42.601-29.746c-42.969-11.753-73.82-30.484-73.82-68.311c0-34.157,24.975-60.231,68.311-67.208
						v-21.583c0-6.945,5.63-12.574,12.574-12.574h12.679c6.944,0,12.574,5.629,12.574,12.574v19.377
						c20.817,0.833,35.97,4.393,47.995,8.619c6.161,2.164,9.528,8.801,7.819,15.104l-5.042,18.59
						c-1.943,7.169-9.605,11.096-16.552,8.468c-11.072-4.187-26.726-8.546-47.073-8.546c-25.708,0-33.053,10.649-33.053,20.199
						c0,11.752,15.425,19.831,48.844,30.116c47.745,14.322,67.576,34.153,67.576,69.777c0,32.687-24.239,62.067-71.247,69.413
						v24.151c0,6.944-5.63,12.574-12.574,12.574h-12.681C2746.889,3177.721,2741.259,3172.091,2741.259,3165.146z"/>
				</g>
			</g>
			<g>
				
					<linearGradient id="SVGID_00000183944574785609213190000007290538569229089679_" gradientUnits="userSpaceOnUse" x1="2165.5972" y1="3397.6223" x2="2490.7583" y2="3020.2034">
					<stop  offset="0" style="stop-color:#FDF53F"/>
					<stop  offset="1" style="stop-color:#D93C65"/>
				</linearGradient>
				
					<circle style="fill:url(#SVGID_00000183944574785609213190000007290538569229089679_);" cx="2497.326" cy="3012.58" r="242.42"/>
				
					<linearGradient id="SVGID_00000054259203309221641490000018041732459973538983_" gradientUnits="userSpaceOnUse" x1="2674.4951" y1="2744.928" x2="1712.9857" y2="4197.4946">
					<stop  offset="0" style="stop-color:#FDF53F"/>
					<stop  offset="1" style="stop-color:#D93C65"/>
				</linearGradient>
				
					<circle style="fill:url(#SVGID_00000054259203309221641490000018041732459973538983_);" cx="2497.326" cy="3012.58" r="234.359"/>
				<path style="fill:#FFFFFF;" d="M2304.074,2918.608c-0.512,0-1.032-0.116-1.521-0.363c-1.667-0.842-2.336-2.876-1.494-4.541
					c37.625-74.541,112.83-120.846,196.267-120.846c13.307,0,26.642,1.199,39.635,3.567c1.838,0.333,3.055,2.094,2.721,3.93
					c-0.333,1.84-2.085,3.084-3.933,2.721c-12.594-2.292-25.521-3.454-38.423-3.454c-80.869,0-153.76,44.882-190.23,117.128
					C2306.501,2917.927,2305.311,2918.608,2304.074,2918.608z"/>
				
					<ellipse transform="matrix(0.7071 -0.7071 0.7071 0.7071 -1400.8809 2653.3469)" style="opacity:0.78;fill:#FFFFFF;" cx="2502.433" cy="3017.686" rx="198.356" ry="198.356"/>
				<g>
					
						<linearGradient id="SVGID_00000004528104953435491730000012288686295785523589_" gradientUnits="userSpaceOnUse" x1="2645.8125" y1="2786.5481" x2="2133.8279" y2="3646.0857">
						<stop  offset="0" style="stop-color:#FDF53F"/>
						<stop  offset="1" style="stop-color:#D93C65"/>
					</linearGradient>
					<path style="fill:url(#SVGID_00000004528104953435491730000012288686295785523589_);" d="M2482.967,3165.146v-21.58
						c-22.497-0.901-44.748-6.21-60.552-13.129c-5.643-2.47-8.52-8.803-6.899-14.747l5.482-20.1
						c2.011-7.374,10.031-11.188,17.08-8.234c15.677,6.572,35.034,11.772,55.907,11.772c21.668,0,37.827-7.347,37.827-22.404
						c0-13.589-12.487-21.667-42.602-29.746c-42.969-11.753-73.819-30.484-73.819-68.311c0-34.157,24.975-60.231,68.31-67.208
						v-21.583c0-6.945,5.63-12.574,12.574-12.574h12.679c6.945,0,12.574,5.629,12.574,12.574v19.377
						c20.817,0.833,35.97,4.393,47.995,8.619c6.161,2.164,9.528,8.801,7.819,15.104l-5.042,18.59
						c-1.944,7.169-9.605,11.096-16.553,8.468c-11.071-4.187-26.725-8.546-47.073-8.546c-25.708,0-33.053,10.649-33.053,20.199
						c0,11.752,15.424,19.831,48.844,30.116c47.745,14.322,67.576,34.153,67.576,69.777c0,32.687-24.239,62.067-71.247,69.413
						v24.151c0,6.944-5.63,12.574-12.573,12.574h-12.682C2488.597,3177.721,2482.967,3172.091,2482.967,3165.146z"/>
				</g>
			</g>
			<g>
				
					<linearGradient id="SVGID_00000070799975320466105760000011218657868622845844_" gradientUnits="userSpaceOnUse" x1="1728.5502" y1="3442.0259" x2="2154.9468" y2="2947.1021">
					<stop  offset="0" style="stop-color:#FDF53F"/>
					<stop  offset="1" style="stop-color:#D93C65"/>
				</linearGradient>
				
					<circle style="fill:url(#SVGID_00000070799975320466105760000011218657868622845844_);" cx="2163.559" cy="2937.105" r="317.894"/>
				
					<linearGradient id="SVGID_00000012467875030824572490000010933457600924126090_" gradientUnits="userSpaceOnUse" x1="2395.8884" y1="2586.1226" x2="1135.0231" y2="4490.9307">
					<stop  offset="0" style="stop-color:#FDF53F"/>
					<stop  offset="1" style="stop-color:#D93C65"/>
				</linearGradient>
				
					<circle style="fill:url(#SVGID_00000012467875030824572490000010933457600924126090_);" cx="2163.559" cy="2937.105" r="307.324"/>
				<path style="fill:#FFFFFF;" d="M1910.14,2812.823c-0.512,0-1.032-0.115-1.521-0.363c-1.668-0.842-2.336-2.876-1.494-4.541
					c49.159-97.393,147.418-157.892,256.434-157.892c17.387,0,34.81,1.569,51.786,4.663c1.838,0.333,3.056,2.094,2.721,3.933
					c-0.333,1.836-2.09,3.081-3.933,2.718c-16.576-3.018-33.592-4.551-50.574-4.551c-106.448,0-202.394,59.076-250.397,154.173
					C1912.568,2812.143,1911.377,2812.823,1910.14,2812.823z"/>
				
					<ellipse transform="matrix(0.7071 -0.7071 0.7071 0.7071 -1445.9287 2396.822)" style="opacity:0.78;fill:#FFFFFF;" cx="2170.256" cy="2943.801" rx="260.112" ry="260.112"/>
				<g>
					
						<linearGradient id="SVGID_00000152235626072789240470000016655976406570046900_" gradientUnits="userSpaceOnUse" x1="2358.2759" y1="2640.7004" x2="1686.8898" y2="3767.8464">
						<stop  offset="0" style="stop-color:#FDF53F"/>
						<stop  offset="1" style="stop-color:#D93C65"/>
					</linearGradient>
					<path style="fill:url(#SVGID_00000152235626072789240470000016655976406570046900_);" d="M2144.73,3137.171v-28.298
						c-29.5-1.181-58.679-8.144-79.404-17.217c-7.4-3.239-11.173-11.544-9.047-19.338l7.19-26.359
						c2.637-9.669,13.154-14.671,22.398-10.797c20.558,8.618,45.942,15.438,73.313,15.438c28.414,0,49.604-9.634,49.604-29.379
						c0-17.819-16.374-28.413-55.865-39.006c-56.346-15.412-96.803-39.975-96.803-89.58c0-44.791,32.75-78.983,89.578-88.132V2776.2
						c0-9.106,7.383-16.489,16.489-16.489h16.627c9.106,0,16.489,7.383,16.489,16.489v25.41c27.298,1.093,47.168,5.76,62.937,11.302
						c8.08,2.838,12.495,11.541,10.253,19.807l-6.612,24.378c-2.549,9.401-12.596,14.55-21.706,11.105
						c-14.519-5.49-35.046-11.206-61.729-11.206c-33.713,0-43.343,13.964-43.343,26.487c0,15.411,20.226,26.006,64.051,39.493
						c62.61,18.781,88.616,44.787,88.616,91.502c0,42.863-31.785,81.392-93.43,91.025v31.669c0,9.107-7.383,16.49-16.488,16.49
						h-16.629C2152.112,3153.661,2144.73,3146.278,2144.73,3137.171z"/>
				</g>
			</g>
		</g>
		<g>
			
				<linearGradient id="SVGID_00000111175945304052924450000005657360553125905846_" gradientUnits="userSpaceOnUse" x1="13427.0479" y1="1730.441" x2="13136.165" y2="1896.4731" gradientTransform="matrix(-1 0 0 1 14391.9824 0)">
				<stop  offset="0" style="stop-color:#F9B776"/>
				<stop  offset="1" style="stop-color:#F47960"/>
			</linearGradient>
			<path style="fill:url(#SVGID_00000111175945304052924450000005657360553125905846_);" d="M1009.159,2001.112
				c0.343-0.131,184.848-323.243,209.779-353.65c4.195-5.114,10.686-7.719,17.255-6.935l51.498,6.136l60.499,130.882l-100.79-58.699
				c9.973,68.976-119.506,171.482-163.911,208.886c-4.507,3.797-4.877,10.595-0.806,14.855l17.728,18.558
				c-29.105,29.502-62.69,48.445-100.595,57.207L1009.159,2001.112z"/>
			
				<linearGradient id="SVGID_00000137116704642352869880000007056003121212657284_" gradientUnits="userSpaceOnUse" x1="-3556.9961" y1="-2043.7294" x2="-3579.3262" y2="-1701.3375" gradientTransform="matrix(0.8974 -0.4412 0.4412 0.8974 5096.7036 2161.1482)">
				<stop  offset="0" style="stop-color:#2B3582"/>
				<stop  offset="1" style="stop-color:#150E42"/>
			</linearGradient>
			<path style="fill:url(#SVGID_00000137116704642352869880000007056003121212657284_);" d="M1090.156,1951.131
				c0,0,11.314,3.655,15.146,13.732c1.832,4.822-0.143,10.282-4.336,13.286c-18.631,13.348-80.086,56.442-108.445,64.881
				c-2.325,0.692-4.536-1.411-4.013-3.78c1.455-6.588,6.162-19.744,21.329-39.003l-1.361,2.751c-1.721,3.484,2.071,7.11,5.455,5.2
				C1032.898,1997.491,1071.533,1974.054,1090.156,1951.131z"/>
			
				<linearGradient id="SVGID_00000127013842607231336560000009643155192315787922_" gradientUnits="userSpaceOnUse" x1="13398.9082" y1="1771.8483" x2="14394.168" y2="1148.8005" gradientTransform="matrix(-1 0 0 1 14391.9824 0)">
				<stop  offset="0" style="stop-color:#F9B776"/>
				<stop  offset="1" style="stop-color:#F47960"/>
			</linearGradient>
			<path style="fill:url(#SVGID_00000127013842607231336560000009643155192315787922_);" d="M1081.026,2080.414
				c0.309-0.199,27.99-66.892,28.301-67.091c25.38-154.529,87.305-286.872,105.567-321.696c3.073-5.857,8.903-9.721,15.493-10.284
				l51.674-4.412l85.735,115.93l-110.584-37.086c23.727,65.529-82.328,192.119-118.245,237.734
				c-3.645,4.63-2.632,11.363,2.217,14.711l21.117,14.587c-22.532,34.781-51.588,60.129-86.936,76.381L1081.026,2080.414z"/>
			
				<linearGradient id="SVGID_00000092439595444082625810000011528750330761138589_" gradientUnits="userSpaceOnUse" x1="-2462.1772" y1="-3448.9619" x2="-2484.5056" y2="-3106.5908" gradientTransform="matrix(0.7895 -0.6137 0.6137 0.7895 5114.2925 3191.1018)">
				<stop  offset="0" style="stop-color:#2B3582"/>
				<stop  offset="1" style="stop-color:#150E42"/>
			</linearGradient>
			<path style="fill:url(#SVGID_00000092439595444082625810000011528750330761138589_);" d="M1150.23,2015.075
				c0,0,11.82,1.289,17.611,10.383c2.771,4.35,1.942,10.098-1.557,13.889c-15.544,16.842-67.006,71.48-93.071,85.485
				c-2.137,1.148-4.728-0.464-4.696-2.889c0.092-6.746,2.04-20.583,12.995-42.513l-0.776,2.97c-0.981,3.759,3.467,6.544,6.394,3.988
				C1103.54,2072.063,1136.632,2041.293,1150.23,2015.075z"/>
			<g>
				
					<linearGradient id="SVGID_00000170985496424504438520000010993574088547547791_" gradientUnits="userSpaceOnUse" x1="5165.8843" y1="2299.6201" x2="5172.6475" y2="1871.2842" gradientTransform="matrix(-1 0 0 1 6560.2827 0)">
					<stop  offset="0" style="stop-color:#CB236D"/>
					<stop  offset="1" style="stop-color:#4C246D"/>
				</linearGradient>
				<path style="fill:url(#SVGID_00000170985496424504438520000010993574088547547791_);" d="M1523.943,1652.517
					c0,0,46.746,69.529,50.583,101.245c3.836,31.716-12.926,42.684-61.855,46.728c-145.601,12.037-217.375-31.6-217.375-31.6
					c-9.96-63.505-17.047-79.661-100.232-114.191c0,0,105.214,8.353,126.389,0.137
					C1342.628,1646.618,1523.943,1652.517,1523.943,1652.517z"/>
			</g>
			<g>
				
					<linearGradient id="SVGID_00000033358698313887182300000014512075262837173689_" gradientUnits="userSpaceOnUse" x1="2310.6543" y1="1052.3628" x2="1978.2092" y2="1328.7563" gradientTransform="matrix(0.9712 0.2381 -0.2381 0.9712 -217.2924 -365.0694)">
					<stop  offset="0" style="stop-color:#2B3582"/>
					<stop  offset="1" style="stop-color:#150E42"/>
				</linearGradient>
				<path style="fill:url(#SVGID_00000033358698313887182300000014512075262837173689_);" d="M1321.303,1344.994
					c-26.523-0.219-54.128,6.74-65.434-9.077c-16.629-23.263,8.678-86.443,51.096-102.893c44.281-17.171,75.077,29.044,122.403,12.1
					c36.97-13.237,34.117-47.147,68.577-72.736c57.168-42.452,171.235-27.997,213.888,28.559
					c69.727,92.456-49.96,299.327-140.662,301.821C1490.712,1504.981,1445.888,1346.024,1321.303,1344.994z"/>
				
					<linearGradient id="SVGID_00000152258902314596317970000011828392849615410078_" gradientUnits="userSpaceOnUse" x1="13094.6836" y1="1413.3733" x2="12408.959" y2="2074.8254" gradientTransform="matrix(-1 0 0 1 14391.9824 0)">
					<stop  offset="0" style="stop-color:#53D8FF"/>
					<stop  offset="1" style="stop-color:#3840F7"/>
				</linearGradient>
				<path style="fill:url(#SVGID_00000152258902314596317970000011828392849615410078_);" d="M1397.522,1643.312
					c0,0-54.436-51.835-81.232-86.167c-14.484-18.559-19.034-42.99-12.335-65.558c12.234-41.216,33.976-83.905,35.958-90.549
					c3.039-10.184,64.076-9.759,64.076-9.759s120.11,77.952,167.302,209.998l-53,16.499c0,0-31.36-52.613-62.346-86.064
					c0,0,53.617,70.831,55.505,99.827L1397.522,1643.312z"/>
				
					<linearGradient id="SVGID_00000151502265675617292280000000636080467050537634_" gradientUnits="userSpaceOnUse" x1="1499.662" y1="1544.6667" x2="1364.3849" y2="1787.1448">
					<stop  offset="0" style="stop-color:#F9B776"/>
					<stop  offset="1" style="stop-color:#F47960"/>
				</linearGradient>
				<path style="fill:url(#SVGID_00000151502265675617292280000000636080467050537634_);" d="M1293.804,1663.767l40.903-44.504
					l47.24,12.721c0,0,55.073,8.532,86.593,0c31.521-8.532,31.521-8.532,31.521-8.532l71.231-22.176l11.187,31.616
					c2.841,8.027-0.014,16.939-6.954,21.871c-6.163,4.379-13.386,9.191-17.99,11.206c-9.38,4.104-216.086,1.297-216.086,1.297
					L1293.804,1663.767z"/>
				
					<linearGradient id="SVGID_00000127760437383355479350000006701353073819923120_" gradientUnits="userSpaceOnUse" x1="-6388.6133" y1="935.6061" x2="-6374.4487" y2="831.9803" gradientTransform="matrix(0.9974 -0.0717 0.0717 0.9974 7661.3901 105.0094)">
					<stop  offset="0" style="stop-color:#F9B776"/>
					<stop  offset="1" style="stop-color:#F47960"/>
				</linearGradient>
				<path style="fill:url(#SVGID_00000127760437383355479350000006701353073819923120_);" d="M1362.04,1317.89l41.023,76.285
					c-2.708,16.652-44.649,17.122-51.128,7.178c-0.659-1.011-1.037-2.182-1.287-3.364l-24.54-50.97
					c-1.054-4.971,12.572-21.718,17.056-24.105l16.306-8.679C1365.75,1310.891,1339.55,1310.628,1362.04,1317.89z"/>
				<g>
					
						<linearGradient id="SVGID_00000143611533595384274480000012837410335156295052_" gradientUnits="userSpaceOnUse" x1="-6915.8223" y1="-121.0361" x2="-6782.4521" y2="-358.3907" gradientTransform="matrix(0.5458 -0.8379 0.8379 0.5458 5242.4058 -4320.769)">
						<stop  offset="0" style="stop-color:#F9B776"/>
						<stop  offset="1" style="stop-color:#F47960"/>
					</linearGradient>
					<path style="fill:url(#SVGID_00000143611533595384274480000012837410335156295052_);" d="M1279.016,1299.986
						c0,0-4.631,25.773,15.626,58.542c20.257,32.769,40.429,31.29,50.677,19.603c10.248-11.686,22.524-31.15,16.938-63.833
						C1356.673,1281.615,1286.013,1267.12,1279.016,1299.986z"/>
					
						<linearGradient id="SVGID_00000150823732426564622480000018180023109642338743_" gradientUnits="userSpaceOnUse" x1="7496.3179" y1="-12144.2578" x2="7170.1572" y2="-11873.0898" gradientTransform="matrix(0.5458 -0.8379 0.8379 0.5458 5242.4058 -4320.769)">
						<stop  offset="0" style="stop-color:#2B3582"/>
						<stop  offset="1" style="stop-color:#150E42"/>
					</linearGradient>
					<path style="fill:url(#SVGID_00000150823732426564622480000018180023109642338743_);" d="M1337.735,1317.85
						c0,0-32.801-43.084-57.984-5.526l0.425,12.974c0,0-18.819,10.367-15.267-19.816c3.551-30.183,16.357-62.7,53.422-52.389
						c37.063,10.312,58.721,22.057,62.906,47.79c4.186,25.733-16.826,21.529-16.826,21.529s-8.026-17.756-17.718-18.969
						c-9.692-1.213-6.19,12.833-6.19,12.833L1337.735,1317.85z"/>
					
						<linearGradient id="SVGID_00000092414532451048809240000011560430799693215670_" gradientUnits="userSpaceOnUse" x1="-6887.4321" y1="-105.0866" x2="-6754.0635" y2="-342.4382" gradientTransform="matrix(0.5458 -0.8379 0.8379 0.5458 5242.4058 -4320.769)">
						<stop  offset="0" style="stop-color:#F9B776"/>
						<stop  offset="1" style="stop-color:#F47960"/>
					</linearGradient>
					<path style="fill:url(#SVGID_00000092414532451048809240000011560430799693215670_);" d="M1345.263,1316.701
						c0,0-16.992-22.048-1.525-26.624c15.466-4.577,14.889,21.605,13.881,31.344L1345.263,1316.701z"/>
				</g>
			</g>
			<g>
				
					<linearGradient id="SVGID_00000142898852066515472680000002154122078617806992_" gradientUnits="userSpaceOnUse" x1="-4492.1709" y1="1440.8782" x2="-4643.7549" y2="1482.4233" gradientTransform="matrix(0.9988 -0.0494 0.0494 0.9988 5954.0508 -55.0328)">
					<stop  offset="0" style="stop-color:#2B3582"/>
					<stop  offset="1" style="stop-color:#150E42"/>
				</linearGradient>
				<path style="fill:url(#SVGID_00000142898852066515472680000002154122078617806992_);" d="M1429.2,1681.38
					c-0.144,0.008-0.287,0.011-0.433,0.01l-188.138-0.206c-4.651-0.003-8.417-3.778-8.412-8.429
					c0.005-4.652,3.793-8.496,8.431-8.412l188.138,0.205c4.651,0.003,8.417,3.778,8.412,8.429
					C1437.193,1677.484,1433.649,1681.161,1429.2,1681.38z"/>
				
					<linearGradient id="SVGID_00000005259592998941529540000007165546537421410235_" gradientUnits="userSpaceOnUse" x1="1320.6417" y1="1692.8025" x2="1105.9099" y2="1542.321">
					<stop  offset="0" style="stop-color:#2B3582"/>
					<stop  offset="1" style="stop-color:#150E42"/>
				</linearGradient>
				<path style="fill:url(#SVGID_00000005259592998941529540000007165546537421410235_);" d="M1071.5,1510.563h156.684
					c11.558,0,22.078,6.67,27.009,17.124l72.435,153.593h-194.715c-7.449,0-14.141-4.551-16.879-11.479l-56.169-142.127
					C1056.619,1519.462,1062.671,1510.563,1071.5,1510.563z"/>
				
					<linearGradient id="SVGID_00000063611217634434724630000001759236016486596535_" gradientUnits="userSpaceOnUse" x1="-4804.584" y1="1561.7728" x2="-4853.3862" y2="1635.2635" gradientTransform="matrix(1 0 0 1 5995.52 0)">
					<stop  offset="0" style="stop-color:#53D8FF"/>
					<stop  offset="1" style="stop-color:#3840F7"/>
				</linearGradient>
				<path style="fill:url(#SVGID_00000063611217634434724630000001759236016486596535_);" d="M1181.885,1589.314
					c3.396,10.55,0.887,20.794-5.602,22.883c-6.49,2.089-14.503-4.769-17.898-15.318c-3.396-10.548-0.887-20.793,5.602-22.882
					C1170.477,1571.906,1178.49,1578.765,1181.885,1589.314z"/>
			</g>
			<path style="opacity:0.39;fill:#FFFFFF;" d="M1481.291,1321.963c-0.5,0-0.999-0.006-1.499-0.021
				c-19.565-0.587-39.645-10.084-61.385-29.035c-33.855-29.516-46.749-34.36-73.497-34.36c-0.779,0-1.567,0.005-2.37,0.013
				l-0.008-1.089c0.757-0.006,1.503-0.01,2.24-0.01c26.765,0,40.443,5.062,74.349,34.625c21.543,18.778,41.399,28.189,60.705,28.767
				c20.822,0.615,42.525-12.17,59.458-35.112c7.384-10.006,13.563-21.075,19.538-31.783c5.6-10.033,11.39-20.409,18.177-29.921
				c4.943-6.93,12.77-16.753,23.622-22.03c10.801-5.26,23.104-4.754,31.336,1.275l-0.642,0.88
				c-7.911-5.798-19.769-6.257-30.218-1.178c-10.629,5.171-18.338,14.851-23.213,21.685c-6.751,9.461-12.526,19.812-18.111,29.82
				c-5.992,10.734-12.187,21.836-19.612,31.897C1523.418,1309.074,1502.043,1321.963,1481.291,1321.963z"/>
			<path style="opacity:0.39;fill:#FFFFFF;" d="M1487.564,1349.393c-2.05,0-4.074-0.115-6.066-0.347
				c-12.729-1.478-27.566-9.253-32.02-23.294l1.037-0.328c4.308,13.576,18.728,21.105,31.108,22.542
				c16.013,1.857,34.067-3.957,50.864-16.367c11.074-8.177,20.807-18.311,30.222-28.111c3.117-3.244,6.343-6.602,9.57-9.839
				c14.203-14.246,29.682-27.413,46.009-39.142c10.812-7.767,22.574-14.909,35.481-14.909c0.431,0,0.863,0.008,1.296,0.023
				c7.738,0.289,15.817,4.512,20.582,10.755c3.676,4.816,5.026,10.35,3.801,15.59l-1.059-0.247
				c1.148-4.916-0.134-10.131-3.609-14.682c-4.575-5.996-12.332-10.048-19.759-10.326c-13.125-0.481-25.085,6.768-36.101,14.681
				c-16.278,11.692-31.712,24.824-45.873,39.027c-3.219,3.23-6.44,6.583-9.555,9.825c-9.444,9.832-19.212,19.999-30.36,28.232
				C1518.196,1343.51,1502.245,1349.393,1487.564,1349.393z"/>
			<path style="opacity:0.39;fill:#FFFFFF;" d="M1500.419,1365.82c-4.978,0-10.018-0.98-14.85-3.421l0.49-0.974
				c17.326,8.754,38.08-2.454,46.196-7.68c9.102-5.86,17.648-13,25.91-19.903c13.658-11.413,27.783-23.214,44.71-29.422
				c8.662-3.181,16.612-4.218,23.624-3.091c8.648,1.392,15.949,6.247,19.531,12.989l-0.961,0.51
				c-3.425-6.442-10.431-11.086-18.745-12.423c-6.81-1.095-14.588-0.076-23.075,3.036c-16.748,6.145-30.799,17.883-44.385,29.237
				c-8.29,6.925-16.861,14.086-26.018,19.982C1525.455,1359.417,1513.141,1365.82,1500.419,1365.82z"/>
		</g>
	</g>
</g>
</svg>
